<?xml version="1.0" encoding="utf-8"?>
<!-- Generator: Adobe Illustrator 19.1.0, SVG Export Plug-In . SVG Version: 6.00 Build 0)  -->
<svg version="1.1" xmlns="http://www.w3.org/2000/svg" xmlns:xlink="http://www.w3.org/1999/xlink" x="0px" y="0px"
	 viewBox="0 0 475 352" style="enable-background:new 0 0 475 352;" xml:space="preserve">
<style type="text/css">
	.st0{display:none;}
	.st1{display:inline;}
	.st2{fill:#FFFFFF;}
	.st3{fill:none;stroke:#FFFFFF;stroke-width:5.9246;stroke-linecap:round;stroke-linejoin:round;stroke-miterlimit:10;}
	.st4{fill:none;stroke:#000000;stroke-width:0.2107;stroke-linecap:round;stroke-linejoin:round;stroke-miterlimit:10;}
	.st5{fill:none;stroke:#FFFFFF;stroke-width:6.1324;stroke-linecap:round;stroke-linejoin:round;stroke-miterlimit:10;}
	.st6{opacity:0.7;}
	.st7{fill:#E6E7E8;}
	.st8{opacity:0.7;fill:#E6E7E8;}
	.st9{opacity:0.6;fill:#5A5354;}
	.st10{display:inline;opacity:0.8;fill:#9D9FA2;}
	.st11{fill:none;stroke:#4D4D4D;stroke-width:1.4173;stroke-miterlimit:10;}
	.st12{fill:none;stroke:#4D4D4D;stroke-width:2.8346;stroke-miterlimit:10;}
	.st13{display:inline;fill:none;stroke:#4D4D4D;stroke-width:2.8346;stroke-miterlimit:10;}
	.st14{fill:none;stroke:#4D4D4D;stroke-width:2.8062;stroke-miterlimit:10;}
</style>
<g id="master" class="st0">
	<g class="st1">
		
			<image style="overflow:visible;" width="800" height="377" xlink:href="62369639.jpg"  transform="matrix(1 0 0 1 -333.9398 -2.5661)">
		</image>
	</g>
</g>
<g id="Ladies_x5F_2tone">
	<g>
		<path class="st2" d="M111.6,303.5c1.7,2,2.5,4.5,3.4,6.8c1.6,4.1,2.1,8.1-2.6,10.7c0.8,1.7,1.9,1.4,2.9,1.1
			c2.6-5.1,4.1-3.7-3-22.4c4.5-9,2.9-19.1,3.2-29.1c0.5-1.3,1.8-2,2.9-2.8c0.4,0.1,0.8,0,1,0.2c7.2,7.4,8.6,16.2,6.4,25.9
			c-2,8.8-2.6,18-7.3,26c3.9-2.5,3.9-7,5.7-10.5c0.8-5.7,2.8-11.1,3.5-16.8c0.7-6.5,0.6-12.8-1.7-19c-1.1-3-3.7-4.8-5.8-6.5
			c-0.2-1.6,1.1-2.2,1.4-3.3c-0.4-0.5-0.9-0.5-1.4-0.1c-2.9,2.2-5.9,4.2-8.1,7c0.5,1,1.3,0.2,2.1,0.6c-1.6,6.7,0.6,13.7-1.5,20.7
			c-2.4,8.3-6.6,15.3-11.9,21.9c-4.9,6-11,11.1-15.4,18.7c-0.1-3-0.3-5.3-0.4-7.6c-1,4.7-1.9,9.5-4.3,13.9c1.5,3.1,3.3,5.4,7.2,4.4
			c0.2-0.5,0.5-0.9,0.4-1.1c-3.9-5.8-1.3-10.5,2.7-14.9c0.7-0.8,0.6-2.2,2-2.4c6.1-6.9,12.3-13.7,17.4-21.4
			C111,303.5,111.3,303.5,111.6,303.5z"/>
		<path class="st2" d="M78.8,191c-0.7,2.1,0.4,4,0.9,6.1c-5,7.9-10.4,15.4-11.9,24.9c0.3,0.3,0.6,0.3,0.9,0
			c2.3-8.4,6.7-15.6,12.4-22.1c0.4,0.3,0.9,0.7,1.4,1.1c0.2,0.1,0.6,0,1.2,0c0-2.7-2.1-4.2-3.2-6.4c-0.9-6.9,5.4-11.6,6.1-18
			c3.2-2,7.6-0.4,10.4-4.2c-4.1,1.4-7.9,1-11.7,1.1c-2.1,0.1-3.7-0.7-5.3-1.9c-5.8-4.6-5.3-9.8,1-13.8c2.6-1.6,6-2.5,7.3-5.8
			l0.1,0.1c-2.5,0.1-4.2,2.2-7,2.8c2.7-9,7.2-16.9,12.6-24.4l0.1,0.1c-5.7,2.3-7.9,7.6-10.2,12.6c-1.4,2.9-2.6,6-3.4,9.2
			c-0.7,2.7-1.8,5.2-3.8,7.4c-2.5,2.8-3,6.2-1.7,9.8c0,0.7,0.3,1.3,0.8,1.9c1.9,2.7,5.3,3.4,7.6,5.5c0.3,4.9-4.9,6.7-5.9,10.8
			C76.7,189.3,79.4,189.4,78.8,191z"/>
		<path class="st2" d="M179.6,103.5c5.3,10.8,2.2,18.7-9,23.2c-3.4,1.4-7,2.4-10.4,3.9c-8,3.5-9,8.9-2.9,15c1.5,1.5,3,3,4.4,4.6
			c0.4,0.4,0.5,1.1,0.9,2c-5.9,8-14.1,7.6-22.8,5.9c5.7,5.8,21.5,2.8,24.4-6.6c-0.2-2.4-2.1-3.8-3.8-5.3c-1.6-1.4-3.2-2.7-4.2-4.6
			c-1.7-3.4-1.2-5.9,2.1-7.8c3.8-2.2,7.9-3.5,12-5c9-3.2,13.8-9.4,13.6-17.3c-0.1-3.4-1.3-6.3-3.4-8.9
			C179.6,102.4,179.1,102.5,179.6,103.5z"/>
		<path class="st2" d="M130.1,193.7c1.1-3.4,0.1-6.1-2.5-8.5c-2-1.8-3.6-4-3.3-7.2c3.3-1.3,6.5-2.7,7.8-6.4c0.2-0.4,0.4-0.7,0.6-1.2
			c0-0.9,0.1-1.8,0.1-2.8c-0.9-0.3-1.3,0.2-1.5,0.9c-1.8,6.5-8.4,9.5-15.8,7.3c-2.1-0.6-4-1.7-6.2-2.1c2.9,4.2,7.4,4.2,11.9,4.3
			c1.1,3.3,3,5.9,5.6,8.3c3.8,3.5,2.4,7.4-0.3,11.1c2,0.7,2.1-1.4,3.2-1.6c8.3,7.2,12.3,16.2,11.9,27.1c0.3,0.3,0.6,0.3,1,0
			c1-8.7-0.5-16.7-6.9-23.3C135,196.5,131.9,195.7,130.1,193.7z"/>
		<path class="st2" d="M48.9,132.3c2.9-1.3,6-0.7,8.9-0.3c3.2,0.4,5.5-0.5,7-3.1c1.5-2.5,0.7-5-0.9-7.2c-1.8-2.6-4-4.7-6.6-6.3
			c-5.1-3.1-9.8-6.7-11.5-13.3c-2.7-6.4-0.5,3.8,0.3,5.2c1.7,3,4.2,5.3,7.1,7.2c2.5,1.7,5.1,3.4,7.4,5.4c2.4,2.1,4.5,4.7,2.7,8
			c-1.6,3.1-4.8,2.8-7.7,2.4c-0.8-0.1-1.6-0.4-2.4-0.5c-2.5-0.2-4.8,0.1-6.5,2.4c-1.7,8.4,0.6,12.8,8.3,16.1c3.4,1.4,6.9,2.5,10.6,3
			c-2.7-2-5.9-3.1-9-4.2C48.8,144.2,46.1,139.1,48.9,132.3z"/>
		<path class="st2" d="M83.4,261.9c3,3.8,5.9,7.6,9.2,11.8c-9.9,13-7.4,28.2-7,43c1.3-4.4,0.9-8.9,0.8-13.4
			c-0.3-10.2,1.6-19.7,7.2-28.6c4.8-7.8,7.1-16.6,7.2-25.9c-1.5,7.6-3.7,15-6.9,22.3c-4-2.7-6.1-7.1-9.4-10.1
			C83.5,260.7,83,260.9,83.4,261.9z"/>
		<path class="st2" d="M132.5,113.8c2.4,1.2,4,2.9,3.4,5.3c-0.7,2.5-2.9,1.2-3.9,2.5c1.3,1.1,2.6,0.6,4,0.4c1.6-1.4,2-3.1,1.4-5.2
			c-1.8-5.7-6.6-8.2-11.3-10.3c-4.9-2.2-9.5-4.6-13-8.8c-0.7-0.9-1.5-1.7-2.1-2.6c-3.8-5.2-3.6-7,1-11.6c-2.8,0.1-3.6,0.5-4.2,2.9
			c-0.8,2.9-0.6,5.9,1.1,8.4c3.2,4.9,6.9,9.3,12.6,11.6c3.1,1.3,6.2,2.8,8.9,4.7c1,0.7,2.4,1.1,2.2,2.8L132.5,113.8z"/>
		<path class="st2" d="M83.4,73.3c-2.7,1.9-4.1,4.5-4.4,7.7c-0.3,3.1-1.4,5.9-3.1,8.6c-3.1,4.8-7.3,5.5-11.1,1.3
			c-3.7-4.1-8-3.5-12.4-2.7c-1.2,0.2-2.4,1.1-3.2,2.1c-1.8,2.4-3.7,4.8-4.5,7.8c-0.4,1.3-0.1,4.4,0.9,5.3c0.2-5.6,3.5-8.5,5.3-11.2
			c2.2-3.5,5.6-3.4,9.1-3.1c1.6,0.8,2.7,2.2,4,3.4c5,4.4,10.5,3.5,13.5-2.4c1.3-2.6,2.3-5.3,3-8.1c0.8-2.9,2-5.4,3.9-7.6
			C84.6,73.4,84.3,73,83.4,73.3z"/>
		<path class="st2" d="M130.1,193.7c1.3,2.5,3.4,4.2,5.5,5.9c1.8-0.8,2.6,0.8,3.8,1.5c2.8,1.6,5.4,3.4,8.5,4.7c3,1.2,6,1.7,8.5-0.9
			c1.2-1.3,2.7-0.5,4.3-1.2c-1.6-1.6-2.5-3.4-1.9-5.6c-2.9,0.2-3.5,2.6-5.1,3.6c-1.4,0.4-2.2-0.5-3.1-1c-1-0.5-1.1,0-0.9,0.8
			c1.2,0.8,2.4,1.5,3.2,2c2.3,0.4,2.4-2,4.3-2.1c-0.4,2.5-3,2.5-3.7,4c-7.7-0.6-12.5-6.3-18.6-9.3c-0.4,0.1-0.7,0-0.9-0.3
			C133.1,194.2,131.5,194.2,130.1,193.7z"/>
		<path class="st2" d="M142.5,223c-0.3,0-0.6,0-1,0c-1.6,5.6-2.5,11.5-4.5,17c-2.9,7.9-7.5,14.5-13.5,20.3c-1.1,1.1-2.2,2.4-3.2,3.5
			c0.5,0,0.9,0.1,1.4,0.1c11.3-8.9,17.5-20.7,20-34.7C142,227.1,142.2,225,142.5,223z"/>
		<path class="st2" d="M105.2,218.9c3.1-1.6,6.9-1.7,8.8-5.2c-4.8,2.3-9.7,4.3-15.4,3.2c1.1,2.4,3.2,1,4.7,2.1
			c-1.3,9.1-2.5,18.4-2.2,27.8C102.1,237.3,104.3,228.2,105.2,218.9z"/>
		<path class="st2" d="M114.5,128.8c-0.9,2.4-1.8,4.7-1.2,7.4c2.1,0.5,3-1.7,4.9-1.8c4.8-0.3,8.6,0.9,10.8,5.4
			c1.6,3.3,3.7,6.4,4.3,10.1c1.8,0.1,1.2-1,0.9-1.9c-0.7-2.5-1.6-5-2.9-7.3c-4.5-8.2-7.2-9.5-16.5-7.3c0.7-1.7,1.3-3.3,1.8-4.8
			c0.6-0.6,0.6-1.2,0-1.7c-0.6,0-1.2,0-1.8,0C113.9,127.5,113.9,128.2,114.5,128.8z"/>
		<path class="st2" d="M92.5,123.5c-4-3.2-8-6.5-9.4-11.8c-1.2-4.4-1.3-8.5,2.4-12c1-1,2.2-1.9,2.6-3.4c-5.6,1-9.1,7.5-7.2,14
			c1.8,6,5.1,11,10.9,14C92.3,124.3,92.6,124,92.5,123.5z"/>
		<path class="st2" d="M134.8,163.8c-2.2,12.4-2.4,24.2,8.6,33.2l-0.1,0.1c1-1.6-0.6-2.2-1.3-3.2c-5.2-6.8-8.5-14.2-6.4-23.1
			c0.8-3.6,0.4-7.3,0.2-11C133.3,160.7,134.6,162.4,134.8,163.8z"/>
		<path class="st2" d="M61.2,189c-3.1,4.1-6.5,7.6-12.6,7.1c1.3,2,3.3,2.5,3.4,4.3c2.5,0.4,3.1-1.9,4.8-2.6c3.5,0.5,6.7-1,10.1-2.1
			c0.3-0.9-0.3-1.2-0.9-1.6c-2.4-0.6-4.6,0.7-6.9,0.7c1.6-1.3,3.3-2.5,3.6-4.8C62.4,189.3,62.1,188.8,61.2,189z"/>
		<path class="st2" d="M68.6,222c-0.3-0.1-0.6-0.1-0.9,0c-1.8,4.7-1.2,9.5,0.1,14.1c1.6,6.1,4.2,11.7,8.6,16.4
			c0.4,0.1,0.6,0,0.7-0.4C70.8,243,67.7,233,68.6,222z"/>
		<path class="st2" d="M114.5,128.8c0-0.6,0.1-1.3,0.1-1.9c-7.5-0.1-15.1,0.3-22.1-3.5c-0.2,0.3-0.5,0.5-0.7,0.8
			c4.6,3.5,10.1,4.4,15.6,4.7c1,0.9,0.7,1.8,0.3,2.7l-0.1-0.1c1-0.5,0.5-1.8,1.3-2.5C110.7,128.5,112.6,128.7,114.5,128.8z"/>
		<path class="st2" d="M61.2,189c0.3,0.3,0.7,0.7,1,1c2,0,2.6-1.6,3.5-2.9c3.6-5.5,8-10.4,10.1-16.8c-0.1-0.5-0.3-0.8-0.9-0.8
			c-2.7,2.1-4,5.3-5.9,8C66.3,181.3,63.7,185.2,61.2,189z"/>
		<path class="st2" d="M174.1,96.5c-5-4.9-10.8-7.7-17.8-7.3c6,2.2,12.1,4.1,17.4,7.8C173.8,96.8,173.9,96.7,174.1,96.5z"/>
		<path class="st2" d="M106.7,68.4c6.4,0.9,12.4,2.6,18.1,5.6c-4.8-5.4-11.4-6-18.1-6.4c-0.3,0.2-0.4,0.4-0.3,0.5
			C106.5,68.3,106.6,68.4,106.7,68.4z"/>
		<path class="st2" d="M136.9,79.2c1.8,2.3,3.6,4.5,5.4,6.8c1.4,1.8,2.9,3.6,6.2,2.7c-3-1.5-4.9-3.4-6.4-6.1
			C141.1,80.7,139.6,78.7,136.9,79.2L136.9,79.2z"/>
		<path class="st2" d="M65.9,194.7c0.4,0.2,0.9,0.4,0.9,1c3.5-0.7,6.2-2.9,9.2-4.5c0.8-0.4,1.7-1.8,2.7-0.1c2.3-2-0.8-2-1.1-3
			C73.2,189.3,69,191.1,65.9,194.7z"/>
		<path class="st2" d="M129.1,158.9c-0.7-2.7-4-3.2-4.9-5.8c-0.7-1.5,1.5-2.3,0.9-4.1c-2.1-0.1-2.3,1.6-3,2.8
			C122.8,156.1,125.7,157.8,129.1,158.9L129.1,158.9z"/>
		<path class="st2" d="M134.8,163.8c0.5-1.3-0.7-3,1-4c-0.6-3.9-0.3-8-1.8-11.8c-0.2,0.7-0.2,1.5-0.9,1.9
			C134.6,154.5,133,159.4,134.8,163.8z"/>
		<path class="st2" d="M106.7,68.4c0-0.3,0-0.6,0-0.8c-4.5-0.6-9-1.8-13.5,0.1c-0.3,0.9,0,1.3,1,1C98.4,68.6,102.6,68.5,106.7,68.4z
			"/>
		<path class="st2" d="M94.3,68.7c-0.3-0.3-0.7-0.7-1-1c-3.9,0.8-7.1,2.8-9.9,5.6c0.5,0.1,0.9,0.4,1,1
			C87.1,71.5,90.7,70.1,94.3,68.7z"/>
		<path class="st2" d="M83.4,261.9c0.3-0.3,0.6-0.7,0.9-1c-2.4-3-4.8-5.9-7.2-8.9c-0.4-0.1-0.6,0-0.7,0.4
			C78.1,256.1,80.9,258.8,83.4,261.9z"/>
		<path class="st2" d="M116.4,126.9c0,0.6,0,1.2,0,1.7c3.1-1.4,6.6-1.9,9.1-4.4c0.1-0.5-0.1-0.8-0.7-0.7
			C122,124.7,119.2,125.8,116.4,126.9z"/>
		<path class="st2" d="M125.5,124.3c2.2-1.7,5.1-2.9,5.5-6.3l0.1,0.1c-2.9,0.9-3.8,4-6.2,5.4C125.1,123.8,125.3,124,125.5,124.3z"/>
		<path class="st2" d="M131.3,168.6c0.5-0.3,1-0.6,1.5-0.9c0.4-2.5,0.4-5-1.5-7l-0.3,0.1C131.4,163.4,132,166,131.3,168.6z"/>
		<path class="st2" d="M149.7,201.4c0.3-0.3,0.6-0.5,0.9-0.8c-1.5-1.3-3.1-2.4-5-2.9l0.1-0.1C145.5,200.4,147.9,200.5,149.7,201.4z"
			/>
		<path class="st2" d="M106.5,134.5c-1.4,1.2-1.6,3.1-3,4.3c2.5-0.4,3.4-2.2,3.9-4.3C107.1,134.1,106.8,134.1,106.5,134.5z"/>
		<path class="st2" d="M93.9,130.4c2.6,0.6,5.5-0.1,8,1.3l-0.1,0.1c-2.1-3.4-4.9-2.5-7.8-1.3L93.9,130.4z"/>
		<path class="st2" d="M132.7,113.9c-0.6,1.4-1.8,2.5-1.6,4.2L131,118c1.5-1,2.9-2.1,1.5-4.2L132.7,113.9z"/>
		<path class="st2" d="M101.9,131.7c0.5,1,1.1,1.9,2.6,1.9c0-2-1.1-2.2-2.7-1.8L101.9,131.7z"/>
		<path class="st2" d="M90,150c2.1-0.3,0.9-1.5,0.9-2.7c-1.1,0.9-0.6,1.9-0.8,2.8L90,150z"/>
		<path class="st2" d="M136.8,79.2c-0.2-1.4-1.1-0.6-1.8-0.4C135.6,79,136.3,79.1,136.8,79.2L136.8,79.2z"/>
		<path class="st2" d="M88.2,151.9c1.6,0.3,2.2-0.3,1.8-1.9l0.1,0.1c-0.9,0.3-1.7,0.8-1.8,1.9L88.2,151.9z"/>
		<path class="st2" d="M106.5,134.5l0.4-0.1l0.4,0.1c0.3-1,0.9-1.9,0.2-3l0.1,0.1C106,132.1,107.1,133.6,106.5,134.5z"/>
		<path class="st2" d="M131.3,160.7c-0.2-1.3-0.9-2-2.2-1.8l0.1-0.1c0.1,1.1,0.8,1.7,1.9,2L131.3,160.7z"/>
		<path class="st2" d="M143.4,197c0.7,0.2,1.4,0.4,2.2,0.6l-0.1,0.1c-0.6-0.7-1.2-1.3-2.2-0.5L143.4,197z"/>
		<path class="st2" d="M132.7,170.4c-0.5,0.2-0.7,0.6-0.6,1.2C132.5,171.3,132.9,171,132.7,170.4z"/>
		<path class="st2" d="M134,195.7c0.2,0.5,0.4,0.8,0.9,0.3C134.6,195.9,134.3,195.8,134,195.7z"/>
		<path class="st2" d="M111.6,303.5c-0.1-0.3-0.2-0.5-0.3-0.8c-0.6,0-0.6,0.4-0.7,0.8c0.2,0.2,0.3,0.4,0.5,0.6
			C111.3,303.9,111.5,303.7,111.6,303.5z"/>
		<path class="st2" d="M85.1,336.1c-2.6,2.6-2.4,4.1,0.6,5.6C85.5,339.8,85.3,338.3,85.1,336.1z"/>
		<path class="st2" d="M84.9,334.9C84.9,334.5,84.9,334.7,84.9,334.9C84.9,334.7,84.9,334.5,84.9,334.9z"/>
		<path class="st2" d="M53.5,197.2c0.1,0.1,0.1,0.2,0.2,0.3c0.2-0.1,0.3-0.2,0.5-0.4c-0.1-0.1-0.2-0.2-0.3-0.3
			C53.7,197,53.6,197.1,53.5,197.2z"/>
		<path class="st2" d="M178.6,102.5c0.3-0.3,0.6-0.6,0.8-0.9c-1.5-2.6-3.6-4.7-6.4-6.1c-0.3,0-0.4,0.2-0.4,0.5
			C174.7,98.2,176.7,100.3,178.6,102.5z"/>
	</g>
	<g>
		<path class="st2" d="M397.3,186.4c-4.9-2.1-8.7-6-13.5-8.3c-0.4-0.2-0.7-0.7-1.1-0.8c-8.2-3-8.6-7.8-7.5-17.4
			c0.3-2.4,0.8-4.7,1.3-7.6c-5.7,2.3-10.7,2.5-14.4-2.8c-1.3-1.9-3.6-3.7-0.7-6.9c0.1,4.8,2.3,8.1,6.3,9.2c3.8,1,7.6,0.2,10.6-2.5
			c1.4,1.3,0.6,2.9,0.4,4.4c-0.6,4-1.2,8-1.5,12c-0.3,4.7,1.1,6.6,5.2,7.7c1-0.2,1.6-0.9,2.2-1.6c3.7-5.3,8.1-10.1,12.9-15.4
			c-5.6-5.1-10.3-10.6-16.1-15.3c-0.8,3.1,1.3,7.1-3.2,8.4c1.2-3.5,0.3-6.9-0.4-10.2c-0.6-2.8-0.1-5.2,1.8-7.3
			c1.5,1.5-0.5,2.8-0.2,4.4c4.7,1.1,7.5,4.6,10.3,8c3.8,4.5,7.2,9.2,13.2,11.6c-8.4,5.3-13,13.1-17.9,20.8
			c7.3-7.1,15.1-13.4,23.5-18.9c-2.9-13.7-23.3-36.8-33.3-37.5c-1.1,0.9-2.3,1.8-3.4,2.8c-0.8-0.9-0.9-1.9-0.1-2.9
			c1.7-1.8,3.6-1.8,5.8-1.1c3.5,1.1,6.3,3.2,9.1,5.4c8.7,6.8,16.3,14.7,21.3,24.7c1.4,2.7,2.7,5.6,1.9,8.9
			c-6,6.2-14.3,9.9-19.6,17.2c1.1,1.5,2.8,0,4.3,1.4c1.2,2.8-0.1,6.9,2.5,9.9L397.3,186.4z"/>
		<path class="st2" d="M372.1,222.7c-0.6,3.6-3,6.2-4.8,9.1c-4.5,7.2-7.1,15.2-10.8,22.7c-0.5,1-0.3,2.1-0.3,3.2
			c0.6,15.8-4.4,29.9-13.5,42.7c-4.2,5.9-8,12.1-9.9,19.2c-0.4,0.7-0.3,1.4-0.6,2.1c0,0.5,0,1.1,0,1.6c-0.3,0.3-0.5,0.3-0.8,0
			c-0.7-2.9-0.9-5.3,0.9-8.4c3.8-7.1,7.8-14.1,12.4-20.6c6.2-8.8,8.1-19.1,10.7-29.2c0.2-0.7,0.2-1.6,0-2.3
			c-2.2-5.9,0.2-11,2.8-16.1c3.9-7.5,7.6-15,12.2-22.1c0.5-0.7,0.8-1.7,1.9-1.7L372.1,222.7z"/>
		<path class="st2" d="M380.4,111.8c-2.4,3.4-5.7,3-9.1,2.1c-0.4,0.4-0.9,0.4-1.4,0.2c-2.2-0.6-4.4-1.3-6.6-1.9
			c-0.3,5.6,2.9,11.8-2.5,17c-1-1.6,0.3-2.4,0-3.7c-1.6-0.6-4.3-2.1-6.1-2.8c2-1.1,4.6,1.2,6.5,1.2c3.3-3.8-0.3-8,0.7-11.6
			c-0.5-0.6-0.7-0.9-0.9-1c-7.1-1.8-10.5-6-10.1-13.6c0.2-3.8-0.1-7.7-0.1-11.6c0-1.4,0.3-2.9-1.5-4.1c5.6-3.6,10.5-1.1,15.4,0.2
			c0.3,0.2,0.4,0.3,0.3,0.5c-0.1,0.2-0.2,0.3-0.3,0.3c-4.3-0.6-8.6-1.3-13.2-0.5c0.5,6.6,0.8,13.2,1.5,19.7c0.3,2.7,1.8,5,4.8,6.2
			C365,111.2,372.3,114.2,380.4,111.8L380.4,111.8z"/>
		<path class="st2" d="M417.5,146.4c3.4,10.9,4.5,21.5,11.7,30.7c2.5-0.2,2.7-2.7,5-2.9c0.7,3.1-1,5.1-2.9,7.1c-0.8-0.5,0-1-0.2-1.9
			c-5-0.5-6.1-3.7-8.1-7.9c-3.6-7.7-5.2-15.8-6.5-24.1C416.2,146.4,416.7,146.2,417.5,146.4z"/>
		<path class="st2" d="M373.7,204.6c-0.8-0.4-1.4-0.8-2.1-1.1c1.6,0.3,2.1-1.3,3.7-2.2c1,18.1,2.4,35.7,5,53.3
			C376.4,238.2,373.8,221.8,373.7,204.6z"/>
		<path class="st2" d="M361.7,179c2.5,2.1,0.3,5.3,2,7.5c-1.2,0.7-0.8-0.4-1.8-0.7c-2,4.5-2.7,9.5-3.9,14.3
			c-1.3,5.3-2.7,10.5-4.1,15.8c0,0.1-0.5,0.1-0.8,0.1l0.1,0.1c-0.3-5.1,1.7-9.8,2.8-14.6c1.4-6.2,3.4-12.3,5.3-18.7
			c-4.8-4.5-9.8-9.4-12.6-16c0.2-0.1,0.4-0.1,0.6-0.2c4.9,2.1,6.7,7.4,10.7,10.6c0.3,0.3,0.5,0.6,0.7,0.9c0.2,0.3,0.3,0.6,0.5,0.9
			C361.4,179,361.6,179,361.7,179z"/>
		<path class="st2" d="M384.2,318.6c-0.4-8.4-3.4-16.2-5.3-24.3c-2.3-10-3.4-20.1-0.3-30.2c0.3-1.1,0.3-2.7,1.9-3.2l-0.1-0.1
			c-4.3,16.6-0.7,32.5,3.8,48.4c0.4,1.5,0.7,3,1,4.5c0.4,1.7,0.4,3.3,0,5l0,0C384.8,319.2,384.5,319.1,384.2,318.6z"/>
		<path class="st2" d="M397.2,186.5c3.9,1.1,4.5,4.7,5.5,7.8c1.7,5.6,1.4,11.5-0.2,16.9c-2.7,9.2-2.8,18.8-4.5,28.2
			c-0.2,0.4-0.4,0.4-0.6,0.1c-0.1-9.3,1-18.5,3.2-27.6c2.1-8.6,2.9-17.1-3.2-24.6c-0.1-0.2,0-0.6,0-0.9L397.2,186.5z"/>
		<path class="st2" d="M332,295.4c0.3-7.5,2.4-14.7,4.8-21.7c3.9-11.4,7.8-22.8,11-34.4c0.1-0.5,0.6-0.6,1-0.6l-0.1-0.1
			c0.8,3.7-0.9,7-2,10.3c-5,15.2-10.6,30.3-14.1,46C332.6,295.1,332.1,295.2,332,295.4L332,295.4z"/>
		<path class="st2" d="M410.4,122c-3.7-12.3-10.3-23.5-13.2-36c5.3,11.4,11.4,22.5,14,35C411.7,121.8,411.3,122.1,410.4,122z"/>
		<path class="st2" d="M393.2,311.2c-0.8,8.5,1.1,16.5,5.5,23.3c-4.4,4.5-9.1,3.9-13.7,3.8l0.1,0.1c1.9-2,4.5-1.3,6.8-1.9
			c1.9-0.4,3.4-1.3,5.2-2.2c-6.9-10.5-5.8-22-4.8-33.6C393.8,304.1,392.3,307.7,393.2,311.2z"/>
		<path class="st2" d="M336.4,119.4c1.6,11.4,4.2,22.5,8.3,33.2c-5.9-8.9-8.2-18.9-9.3-29.3C335.6,122,334.2,120.2,336.4,119.4z"/>
		<path class="st2" d="M393.2,311.2c-1.3-3.4,0-7-0.9-10.5c0-10.6,0-21.2,0-31.9c0.4,0,0.8,0,1.2,0c1.5,7,0.3,14,0.2,21.1
			C393.5,297,394,304.1,393.2,311.2z"/>
		<path class="st2" d="M364.6,82.9c0-0.3,0-0.5,0-0.8c7.6,1.2,15,3.8,22.8,2.6c0.7-0.1,1.4-0.2,2.3-0.3c-1.7,2-1.7,2-5.2,2.5
			c-0.7,4.4-0.1,8.8-0.8,13.3c-1.2-4.2,0.4-8.6-1.1-13.1C376.6,86.4,370.6,84.5,364.6,82.9z"/>
		<path class="st2" d="M431.4,181.2c-5.9,6.9-15,12.1-24.4,11.2C415.4,189.8,425,186.2,431.4,181.2z"/>
		<path class="st2" d="M388.8,71.8c-5.6-6.1-12.9-9.4-20.4-12.2c-0.1-1.7,0.8-1.4,1.8-0.9c7.7,2.2,14.8,5.3,19.6,12.1
			C390.1,71.8,389.6,72,388.8,71.8z"/>
		<path class="st2" d="M336.4,119.4c-1.3,1.1-0.3,2.7-1,3.9c-1.6-9.5-2.4-19-0.9-28.5c1.5,1.4,0,3.4,1.1,4.9
			C335.9,106.3,335.5,112.9,336.4,119.4z"/>
		<path class="st2" d="M355,156.7c0.6,5.2,2.8,9.8,4.8,14.5c1.1,2.5,2.3,4.9,1.8,7.8l0.1-0.1c-0.4,0.3-0.7,0.3-1.1,0l0.1,0.1
			c-2.5-4.6-5-9.2-6.3-13.5c-1.2-2.2-3-2.3-4.2-3.6c0.3-2.2,2.3-3.5,3.4-5.2C354.2,156.4,354.6,156.4,355,156.7z"/>
		<path class="st2" d="M410.4,122c0.3-0.4,0.6-0.7,0.9-1.1c2.9,8.3,4,17,6.2,25.4c-0.3,0.3-0.6,0.7-0.9,1
			C413.8,139.1,412.6,130.4,410.4,122z"/>
		<path class="st2" d="M395.6,250.9c-1,6.7-1.8,13.6-5.9,20c0.5-7.6,3.5-14.1,4.8-21.1C395.4,249.6,395.8,249.9,395.6,250.9z"/>
		<path class="st2" d="M346.8,149.1c-2.6-2.3-2-5.3-1.8-8c1.1-1.7,2.9-2.1,4.2-3.3c0.5-2.6,0.6-8.5,1.2-11.6c2.6,2.4-1,9.2,2.3,11
			c-1.8,2.1-4.5,2.7-6.4,4.5c-1.5,2.6,0.5,4.4,1.3,6.4C347.5,148.7,347.3,149,346.8,149.1z"/>
		<path class="st2" d="M304,328c-0.7-0.7-1.1-1.4-0.6-2.7c5.6,0.4,9.7-3.3,14.2-6c2.2-1.3,4.1-3.3,6.9-3.3l-0.1-0.1
			c-5.7,4.4-10.9,9.8-18.7,10.4c-0.1,0-0.3,0.2-0.3,0.3c0.1,0.2,0.2,0.4,0.4,0.6C305.8,328.7,305,328.6,304,328z"/>
		<path class="st2" d="M338.4,72.6c1.5-5.9,4-11.4,7.2-16.6c-0.7,6.4-4.8,11.5-6.4,17.5C338.4,73.7,337.9,73.6,338.4,72.6z"/>
		<path class="st2" d="M376.8,196.1c2.9-5,0-11.3,4.1-15.9C379.1,185.3,381.8,191.6,376.8,196.1z"/>
		<path class="st2" d="M325.6,314.1c3-5.9,3.9-12.6,6.3-18.7l-0.1-0.1c-0.1,7-1.7,13.6-5.5,19.6C326,314.8,325.7,314.5,325.6,314.1z
			"/>
		<path class="st2" d="M331.2,323.3c0.3-0.1,0.5-0.1,0.8,0c0.3,0.4,0.7,0.7,0.8,1.1c0.1,0.7,0,1.5,0,2.6c-3.9,0.9-7.9-0.3-11.8,0.2
			c-0.5,0-0.8,0.4-1.2,0.5c-0.5,0.2-1,0.3-1.6,0.5c-1,0.3-1.3-0.1-1.1-1c0.3-0.1,0.5-0.1,0.8-0.2c0.3-0.3,0.7-0.5,1.1-0.7
			c3.8-1.2,7.7-2,11.4-0.5C331.8,325.2,331.1,324.1,331.2,323.3z"/>
		<path class="st2" d="M335.6,99.7c-1.7-1.3-0.4-3.3-1.1-4.9c-0.3-4.6,0.5-9.1,1.3-13.6c2.5,1.1,0.8,3.1,1,4.7
			C336.4,90.5,336,95.1,335.6,99.7z"/>
		<path class="st2" d="M350.1,233.6c-1.1-4.8,1.2-9,2.1-13.5C352.5,224.8,351.6,229.2,350.1,233.6z"/>
		<path class="st2" d="M369.9,114c0.5-0.1,0.9-0.1,1.4-0.2c0,2.1-1,4.4,0.7,6.3c0,1,0,1.9,0.1,2.9c-2,1.6-2.6,0-2.7-1.5
			C369,119.1,369.1,116.5,369.9,114z"/>
		<path class="st2" d="M317.1,327.2c0.4,0.3,0.7,0.7,1.1,1c-4.8,1.4-9.5,1.6-14.2-0.3c0.7,0,1.4,0,1.7-0.8
			C309.6,327.8,313.3,328.2,317.1,327.2z"/>
		<path class="st2" d="M336.8,86c-0.7-1.5,0.5-3.4-1-4.7c0.2-3,0.9-6,2.5-8.6c0.3,0.3,0.5,0.6,0.8,0.9
			C338.4,77.7,337.6,81.8,336.8,86z"/>
		<path class="st2" d="M347.8,165.8c-2.4-1.2-2.4-3.5-1.8-5.4c0.8-2.6,1.1-5.3,2.7-7.7c0.4,0.3,0.7,0.6,0.8,1.1
			c0.7,3.9-1.8,7.5-1.3,11.5C348.1,165.5,348,165.7,347.8,165.8z"/>
		<path class="st2" d="M395.6,250.9c-0.4-0.4-0.7-0.7-1.1-1.1c1-3.4,1.1-7.1,2.8-10.3c0.2-0.2,0.4-0.2,0.6-0.1
			C397.2,243.2,397.1,247.2,395.6,250.9z"/>
		<path class="st2" d="M370.2,58.7c-0.6,0.3-1.6-0.1-1.8,0.9c-2.8,0-5.2-1.4-8.8-2.4C363.9,56.8,367.1,57.3,370.2,58.7z"/>
		<path class="st2" d="M355,156.7l-0.4,0l-0.3-0.1c-2.4-0.3-2.7-2.7-4-4.1c0-0.8,0.5-1.1,1.1-1.4c0.9-0.2,1.5,1,2.9,0.3
			C354,153.3,355,154.9,355,156.7z"/>
		<path class="st2" d="M351.5,151c0,0.7-0.5,0.8-1,1c-0.5,0.7,0,2.4-1.8,1.6c0.1-0.3,0.1-0.6,0-0.8c0.1-1.5-1.2-2.4-1.8-3.6
			c0.1-0.5,0.3-0.9,0.9-0.9C348.8,149.4,350,150.4,351.5,151z"/>
		<path class="st2" d="M388.8,71.8c0.6,0,0.9-0.4,1-0.9c1.8,1.9,3.2,3.9,3.6,6.6l0.1-0.1C391.5,75.8,390.2,73.8,388.8,71.8z"/>
		<path class="st2" d="M383.4,323.5c0,2.6-1.1,4.8-2.6,6.9c0.1-2.6-0.2-5.4,2.2-7.3C383.1,323.3,383.3,323.4,383.4,323.5z"/>
		<path class="st2" d="M385.1,338.2c-2.9,1.3-3.8,1-5.8-1.8l-0.1,0.1C381.3,336.6,383.1,337.8,385.1,338.2L385.1,338.2z"/>
		<path class="st2" d="M364.5,194.7c-1.8-1.6-2.5-3.6-1.4-5.9C364,190.7,365,192.5,364.5,194.7L364.5,194.7z"/>
		<path class="st2" d="M384.2,318.6c0.3,0.1,0.7,0.1,1,0.2c0,1.8-0.9,3.2-1.8,4.7c-0.1-0.1-0.3-0.3-0.4-0.4
			C383.4,321.6,383.8,320.1,384.2,318.6z"/>
		<path class="st2" d="M385.2,318.8c0-1.7,0-3.3,0-5C386.4,315.5,386.5,317.1,385.2,318.8z"/>
		<path class="st2" d="M380.5,261c0-1.3,0-2.7,0-4C381.4,258.3,381.8,259.7,380.5,261L380.5,261z"/>
		<path class="st2" d="M364.5,194.7c1.4,0.7,1.4,0.7,1.6,2.3C364.7,196.8,364.5,195.8,364.5,194.7L364.5,194.7z"/>
		<path class="st2" d="M379.2,336.5c-1.5-1.5-1-2.6,0.6-3.7c1,1.6-0.2,2.6-0.7,3.8L379.2,336.5z"/>
		<path class="st2" d="M348.8,238.7c0-1.2-0.4-2.4,0.4-3.6C349.7,236.4,350.4,237.6,348.8,238.7L348.8,238.7z"/>
		<path class="st2" d="M325.6,314.1c0.2,0.3,0.5,0.5,0.7,0.8c-0.3,1-1.4,0.4-1.9,1l0.1,0.1C324.9,315.3,325.3,314.7,325.6,314.1z"/>
		<path class="st2" d="M353.2,216c0.2,0.9,0.5,1.7,0,2.7c-1.2-1-0.8-1.8,0.2-2.6L353.2,216z"/>
		<path class="st2" d="M382.6,103c0-0.4-0.1-0.9,0.5-1c0.1,0,0.3,0.3,0.2,0.3C383.1,102.5,383.1,103.1,382.6,103z"/>
		<path class="st2" d="M332.1,321.7c-0.2-0.8-0.2-1.6,0.6-2.1C332.9,320.4,332.8,321.2,332.1,321.7z"/>
		<path class="st2" d="M380.4,111.9c0-0.6-0.3-1.1,0.3-1.7C381.5,111,382.1,111.6,380.4,111.9C380.4,111.8,380.4,111.9,380.4,111.9z
			"/>
		<path class="st2" d="M372.2,222.8c-0.2-0.5-0.3-1.1,0.2-1.6c0.9,0.7,0.8,1.2-0.3,1.5L372.2,222.8z"/>
		<path class="st2" d="M393.4,77.4c0.6,0.3,1.1,0.6,0.2,1.4C393.6,78.2,393.5,77.8,393.4,77.4L393.4,77.4z"/>
		<path class="st2" d="M348.8,166.8c-0.8,0.2-1-0.2-0.9-0.9c0,0-0.1,0.1-0.1,0.1C348.7,165.6,348.9,166,348.8,166.8L348.8,166.8z"/>
		<path class="st2" d="M319.8,327.8c0.3-0.5,0.7-0.7,1.2-0.5C320.6,327.4,320.2,327.6,319.8,327.8z"/>
		<path class="st2" d="M319,326.3c-0.2,0.5-0.5,0.7-1.1,0.7C318.1,326.6,318.4,326.2,319,326.3z"/>
		<path class="st2" d="M354.2,124.4c-0.1,0.1-0.1,0.2-0.2,0.3c-0.2-0.1-0.3-0.2-0.5-0.3c0.1-0.1,0.2-0.2,0.3-0.3
			C354,124.1,354.1,124.2,354.2,124.4z"/>
		<path class="st2" d="M360.8,178.9c0.4,0,0.7,0,1.1,0c-0.1,0.2-0.2,0.5-0.3,0.7C360.9,179.7,360.9,179.3,360.8,178.9z"/>
	</g>
	<g>
		<path class="st2" d="M243.4,254.8c-4.2,3.5-3.3,8.5-4.1,12.9c-1.8,10-2.3,20.2-4.5,30.2c-1.2,5.6-3.1,11-3.7,16.8
			c-0.7,6.6-5.1,11.5-8.2,17c3.1,3.4,9.6,3.8,14,1.1c0.6-3.8-3.5-5.4-4.5-9c5.5-11.9,10.3-24.5,14.5-37.3
			c9.7-29.3,13.7-59.3,14.8-89.9c0.4-11.2,0.4-22.3,0.6-33.5c0.1-4-2-7.8-1.1-11.8c0.9-0.5,1.6-1.1,1.7-2.2c-0.3-2-1.3-3.5-3.2-4.4
			c-0.2,0.1-0.5,0.1-0.7,0.2c1.3,16.7,1.4,33.3,0.8,50c-0.4,11.3-1,22.6-2.3,33.8c-2.7,22.7-8.5,44.9-16.2,66.5
			c-2.6,7.4-4.6,15-8.9,21.9c1.2-5.6,2.3-11.2,3.7-16.8c2.9-11.3,3.8-22.8,5.1-34.3c0.5-3.8,1.8-7.4,2.4-11.1L243.4,254.8z"/>
		<path class="st2" d="M231.4,243.3c1.2-0.2,2.6-0.3,3.4-2.3c0.6-10.3-1.8-21.1-3.8-31.8c-2.6-14.2-4.6-28.5-3.9-43
			c0.5-8.9-0.1-17.9,3.9-26.4c1.3-2.8-0.6-6.1-1.3-9.1c-1.7-7.1-4.6-13.8-7-20.7c1-0.3,1.8-0.6,3.4-1.2c-7.4-0.1-4.3-7.4-8.8-9.4
			c-0.4,9.6-2.4,18.8-2.5,28.3c-0.1,1-1.2,2.4,1,2.7c1.5-8.5,2.1-17,2.7-26.7c3.2,11.2,7.7,21,10.1,31.5c0.4,1.9,1.2,3.9,0.1,5.5
			c-2.9,4.5-2.9,9.5-2.8,14.5c0.2,10.8-1.6,21.5-0.2,32.3c1.1,8.4,2.1,16.7,3.8,25c1.6,8.2,2.5,16.6,3.7,24.8
			c0.3,2.1-0.2,4.5-1.9,6.4L231.4,243.3z"/>
		<path class="st2" d="M243.6,255c7.8-6.7,9.7-14.9,8.2-24.8c-2.6-17.4-4.7-35-2.8-52.7c0.6-5.4-1.5-10.6-1.1-16
			c0.2-2.6-1-5.3,2-8.2c-4.3,1.4-7,2.9-9.7,4.5c-0.7,0.3-1.3,0.7-1.1,1.5c0.1,0.5,0.7,0.6,1.3,0.4c1.9,0.3,3.1-1.9,5.7-1.3
			c0,8-0.7,16.1,0.2,24c1,9.2,0.3,18.3,1.3,27.5c1,9.3,2.7,18.5,2.9,27.8c0.1,3.6-1,6.8-2.8,9.9c-1.4,2.4-3.5,4.5-4.2,7.2L243.6,255
			z"/>
		<path class="st2" d="M240.4,159.7c-1.4-0.6-0.3-1.2-0.1-1.9c-3.2,0.2-1.9,2.6-1.8,4c0.2,10.8,0.5,21.6,0.9,32.4
			c0.7,17.4,1.4,34.8,0.9,52.2c-0.4,0.6-0.4,1.2,0.3,1.7c2.9-2.6,3.1-6.2,3-9.5c-0.5-12.9-0.5-25.7-1.3-38.6
			c-0.4-6.7-0.1-13.5-0.9-20.2C240.5,173.2,240.1,166.5,240.4,159.7z"/>
		<path class="st2" d="M199.2,25.5c2.6,2.9,5.5,1.7,8.1,2.8c-3,7.3-6.4,14.8-3.2,22.9c2.9,7.3,7.4,13.7,14.2,18.5
			c1.4-0.6,2.7-1.1,3.4-1.5c-7.5-2-11.1-8.3-14.5-14.3c-4.9-8.5-2.2-16.8,2.4-25c6.5-0.9,13.4,1,20.5-3.5
			C219.2,27.8,209.6,26.6,199.2,25.5z"/>
		<path class="st2" d="M249,119c1.7,4.9,4.2,9.4,6.8,13.9c0.7,1.3,1.2,2.4,1.1,3.8c0,0.2,0.1,0.5,0.1,0.7c2.1,4.8,3.1,9,5,13.9
			c0.2,0.4,0.4,0.8,0.7,1.2c0.3,0.6,0.7,1.1,1,1.7c0.2,0.4,0.4,0.7,0.6,1.1c0.5,0.9,1,1.8,1.5,2.7c0.2,0.4,0.4,0.7,0.6,1.1
			c0.4,0.7,0.8,1.5,1.2,2.3c0.5,0.9,1,1.9,1.5,2.8c0.2,0.3,0.4,0.6,0.7,0.9c0,0,0.4,0.2,0.4,0.2s-0.4,0.2-0.4,0.2
			c-0.4,0.1-0.6,0.3-0.8,0.6c0,1.3,0.5,2.4,1.9,3c2.4-0.6,5-1.2,7.9-1.9c0.6-3.1-0.2-6.3-1-9.5c-4-0.2-3.4,3.8-6.2,4.5
			c-8.5-14.1-13.7-28.8-21.3-43.5c-0.2-0.4-0.7-0.8-1-1.1C248.6,117.9,248.6,118.4,249,119z"/>
		<path class="st2" d="M193,50.7c3.6-3.2,2.6-7,2-11.1c0.4-0.2,1.2-0.6,2.3-1.2c-4-8.6-5.5-20.5-1-30.1c-5.2,5.6-7.3,12-2.2,28.1
			c-1,1.7-3.2-0.3-4.2,1.3c0.3,2.4,2.9,2.9,3.7,4c1.8,3.5-0.7,6.2-0.5,9L193,50.7z"/>
		<path class="st2" d="M246.7,13.2c-1.1-2.1-4.5-1-6.5-1.3c-10.4-1.6-26.3-4.1-36.8-5.6c-1.8-0.3-3.6-0.5-5.5,1.2
			c14.4,1.9,34.9,3.8,48.9,5.6L246.7,13.2z"/>
		<path class="st2" d="M241.5,107.4c4.1-1,5.5-4,6.6-7.3c-1.5-1.7-3.8-1.5-5.4-2.8c-0.1-5.2-0.1-12.3-2.9-17.1
			c0.8,4.7,0.6,11.6,1.5,16.3c-3-1-2.6-4.8-5.5-6.2c2.1,6.8,2.6,7.3,10.1,10.3c0.1,3.5-3,4.3-5.4,5.7
			C240,107.4,240.5,107.7,241.5,107.4z"/>
		<path class="st2" d="M233.7,63.1c-3.1,1.2-6.3,2.4-9.4,3.6c1.3,5.1,0,9.7-1.7,14.2c-2.3-1-6.5-1.9-8.6-2.9c-1.4,0.2-1.7,1.2-2,2.6
			c3.6-1.9,8,2.4,11.7,1.4c2-4.3,2.5-9,2.3-13.6c1.3-1.7,3.3-1.8,4.8-2.8c1,0.9,0.6,2,0.6,3l-0.1-0.1c2.6-0.3,1.4-2.8,2.5-4
			c0.1-0.2,0.3-0.5,0.4-0.7C234,63.6,233.9,63.4,233.7,63.1z"/>
		<path class="st2" d="M261.1,65.4c-7.2,1.4-14.3,3.7-21.7,4.1c8.4,2.3,16.2,0.2,23.8-3.2C263.2,64.4,262.2,64.9,261.1,65.4z"/>
		<path class="st2" d="M272.3,54.8c-0.5-0.7-1-1.4-1.6-2.1c0.3-1.9,3.1-1.3,3.7-3.3c-0.7-1.5-2.8-1.4-4.1-2.5
			c-0.4-1.9,2.1-2.5,2.3-4.2c0-0.5-0.2-0.7-0.7-0.6c-1.6,1.4-3.2,2.8-4.6,4c-0.1,2.3,1.8,2.3,2.8,3.2c-0.7,0.9-2.6,0.4-2.6,2.2
			c1,1.9,2.8,3.4,4.7,4.7C272.7,55.7,272.8,55.3,272.3,54.8z"/>
		<path class="st2" d="M194.4,64.1c4.7,5.8,11,7.6,18.5,6.9C206.7,68.8,200.3,67,194.4,64.1L194.4,64.1z"/>
		<path class="st2" d="M191.8,63.4c-1.3-3.1-5.2-4.1-6.6-7.5c2-1.6,5.4-1.4,6.6-4.2l0.1,0.1c-3.2,1-6.7,1-9.9,3.1
			C184,59.5,187.9,61.5,191.8,63.4L191.8,63.4z"/>
		<path class="st2" d="M231.4,68.5c-2.7,5.5-2.9,11.1-1.8,17c2.1-0.5,0.9-1.9,1.4-2.8c2.1-0.9,5.3-0.4,6.5-3.8
			c-2.7-0.4-4.4,2.1-7,1.1c-1.4-3.7,1.8-7.6,0.7-11.6L231.4,68.5z"/>
		<path class="st2" d="M243.4,56.9c3.8-5.4,1.4-11.9,3.3-17.6c-3.5,2.8-1.9,6.9-2.9,10.3c-0.7,2.4-1,5-1.8,7.4
			C242.5,57.5,243,57.4,243.4,56.9z"/>
		<path class="st2" d="M274.3,36.3c-4.7-1.9-9.5-3.7-14.2-5.6c-0.3,0.3-0.4,0.5-0.3,0.8c0.1,0.3,0.2,0.4,0.3,0.4
			c2.5,1.9,5.2,3.4,8.3,4.5c2.2,0.8,4,0.8,6-0.2L274.3,36.3z"/>
		<path class="st2" d="M253.6,24.5c-2.9-3.3-2.5-9.1-6.9-11.3l0.1-0.1c0.8,4.6,2.4,9.2,5.5,12.6C253.4,25.9,253.9,25.5,253.6,24.5z"
			/>
		<path class="st2" d="M250.3,130.4c0.2,2.8,2.6,4.4,4.2,6.4c2.1,2.5,2.3,5.9,4.5,8.2l-0.1,0.1c2.3-3.6-1-5.8-2.2-8.5l0.1,0.2
			C254.4,134.8,253.6,131.4,250.3,130.4L250.3,130.4z"/>
		<path class="st2" d="M253.6,24.5c-0.1,0.7-0.5,1.1-1.3,1.2c2,2.8,4.7,4.7,7.8,6.2c0-0.4,0-0.8,0-1.2
			C257.9,28.6,255.8,26.5,253.6,24.5z"/>
		<path class="st2" d="M243.4,56.9c-0.5,0-0.9,0.1-1.4,0.1c-2.8,2-5.5,4-8.3,6.1c0,0.4,0.1,0.9,0.1,1.3
			C236.9,61.9,241.2,60.6,243.4,56.9z"/>
		<path class="st2" d="M262.3,149.2c-0.3,0.7-0.7,1.5-1,2.2c2.6,1.6,0.9,4.5,2.8,6.5c0.6,0,0.9-0.3,1.1-0.8c-0.1-1,0-2-0.6-2.8
			l0.1,0.1c-0.8-0.6-0.6-1.6-1.2-2.2l0.1,0.1C262,151.6,264.8,148.9,262.3,149.2z"/>
		<path class="st2" d="M268.8,166l0.5,0.1l0.5-0.1c0.4-0.2,0.5-0.5,0.5-0.7c-0.1-0.3-0.1-0.5-0.2-0.5l0.1,0.1
			c-1.3-1.3-2-2.9-2.8-4.5c0-0.7-0.1-1.3-0.6-1.9l0.1,0.1c-0.6-0.5-0.9-1.4-1.9-1.4c-0.3,0.2-0.6,0.5-0.9,0.7
			C265.7,160.6,265.7,164.1,268.8,166z"/>
		<path class="st2" d="M272.3,54.8c0,0.4-0.1,0.9-0.1,1.3c2.1,3-1.3,4.1-2.4,5.9c0.2,0.2,0.3,0.3,0.5,0.5c2.4-0.6,3.9-2.3,5.1-4.3
			C274.9,56.6,273.7,55.6,272.3,54.8z"/>
		<path class="st2" d="M261.1,65.4c0.7,0.3,1.7,0,2.1,0.9c2.6-0.7,5.1-1.8,7-3.7c-0.2-0.2-0.3-0.3-0.5-0.5
			C266.9,63.1,263.8,63.8,261.1,65.4z"/>
		<path class="st2" d="M241.5,107.4c-0.5-0.2-1.1-0.4-1.2-1.1c-1.9,3.7,0.3,6.4,2.2,9.3l-0.1,0.1
			C243.4,112.9,240.8,110.3,241.5,107.4z"/>
		<path class="st2" d="M249,119c0.1-0.5,0.1-1,0.2-1.5c-0.8-2.5-1-5.2-3.4-7l0.1-0.1C245.1,113.9,247.2,116.4,249,119z"/>
		<path class="st2" d="M272.6,42.7c1.7-1.4,2.6-3.2,3.2-5.2c0.4-1.3-0.4-1.4-1.5-1.2l0.1-0.1c-0.1,2.3-2,3.8-2.6,5.9
			C272.1,42.3,272.3,42.5,272.6,42.7z"/>
		<path class="st2" d="M191.9,63.3c0.6,1,1.5,1.1,2.5,0.8l-0.1,0.1C193.6,63.7,192.8,63.3,191.9,63.3L191.9,63.3z"/>
		<path class="st2" d="M250.2,130.5c0-0.6-0.1-1.2-0.1-2.2C248.7,129.5,249,130,250.2,130.5L250.2,130.5z"/>
		<path class="st2" d="M245.8,110.5c-0.2-0.2-0.4-0.5-0.5-0.7C245,110.4,245.2,110.6,245.8,110.5L245.8,110.5z"/>
		<path class="st2" d="M193.1,50.8c-1.1-0.3-1.1,0.4-1.1,1.1c0,0-0.1-0.1-0.1-0.1c0.8,0,1.1-0.3,1.1-1.1L193.1,50.8z"/>
		<path class="st2" d="M242.5,115.7c0.1,0.3,0.3,0.5,0.4,0.8c0.5-0.8,0.3-0.9-0.5-0.7L242.5,115.7z"/>
		<path class="st2" d="M230.3,324.2c-1.4,2.8-4.5,4.1-4.8,7.3c3,1.6,6.2,0.9,9.7,1C235.4,328.6,230.8,327.5,230.3,324.2z"/>
		<path class="st2" d="M262.3,149.2c1.7,0.5-0.7,2.8,1.2,3.1c-2.8-5.4-2.4-11.3-6.7-15.8c0.5,2.9,2.9,5.4,2.2,8.5
			C260.1,146.5,261.2,147.8,262.3,149.2z"/>
		<path class="st2" d="M231,321c-0.6,0.6-0.9,1.1-0.2,1.8C232,322.2,231.5,321.6,231,321z"/>
		<g>
			<path class="st2" d="M216.2,128.6c-1.1-0.5-1.2-1.5-1.5-2.4c-0.9,6.1,0.6,12,1.4,18c1.2,8.9,4.5,17.8,4.3,26.7
				c-0.4,0.8-0.7,1.7-0.8,2.8c-0.1-0.9,0.1-1.7,0-2.5c-1.6-7.4-4.8-15.1-5.4-22.6c-0.5-6.2-3.6-12.3-4-18.5c-0.8-11-1.1-21.9-0.9-33
				c0.1-3.9,1.1-10.9,0.5-14.8c-7.8,24,7.4,62.9,7.6,94c-3.2-2.6-5.3-4.9-7.4-7.5c-3.5,3.6-1.2,7.3-1.7,10.7c2.5,1,2.4-3,4.1-2
				c2.5,0.7,0.5,1.9,1.6,3.4c0.7,0.8,2.7,1.1,4.6,1.3c-0.1-0.4-0.1-0.6-0.2-0.7c0,0.1,0,0.3,0,0.7c0.1,1.4,1.2,0.9,2.6,1.5
				C224.4,164.8,216.8,146.8,216.2,128.6z"/>
			<path class="st2" d="M219.7,171.2c-1.7,1.8-0.2,3.5,0.5,5.2c0.1-1.8,0.2-3.6,0.3-5.5C220.2,171,219.9,171,219.7,171.2z"/>
			<path class="st2" d="M218.5,182.1c1.2-1.1,0.6-2.5,1.1-3.7c-1.7,0-2.1,0.9-2.8,1.5c-0.2,1.5,1.2,1.7,1.9,2.3L218.5,182.1z"/>
			<path class="st2" d="M213.1,175.4c-0.7-1.4-1.3-2.4-2.7-2.7C210.3,175.1,210.3,175.1,213.1,175.4z"/>
		</g>
		<g>
			<path class="st2" d="M216,314.6c-1.7-2.4,0.3-5.2-0.9-7.7l0.1,0c-1.6,5.7-4.3,11.1-3.1,17.2c0.1,0.7,0.1,1.4,0.6,1.9
				c0.5,0.5,1,1,2,2c-0.4-4.7,2.1-8.1,3.5-11.8c6.7-16.9,13.1-33.9,18.5-51.2c0.7-2.3,1.3-4.7,1.9-7c0.4-1.2-0.2-1.1-1.1-0.8
				c-6.5,19.3-14.1,38.2-21.6,57.2L216,314.6z"/>
			<path class="st2" d="M232.6,241.1c-5.1,1.9-8.2,5.5-9.9,10.4c-4.1,12-6.3,24.2-6,36.8c-0.2,1.1-0.6,2.3,1.4,1.8
				c0.4-10.9,1.5-21.7,4.3-32.3c1.3-5.2,3.2-9.9,7.8-13.4c1-0.8,2.4-1.7,2.3-3.3L232.6,241.1z"/>
			<path class="st2" d="M209.8,324.9c-2.1,4.8-1.3,6.7,3.3,10c5.2,3.7,8,3.7,14-0.1c-4-2.2-7.7,3-11.5-0.1
				C212.4,332,209.4,329.7,209.8,324.9z"/>
			<path class="st2" d="M237.4,257.2c0.4,0.3,0.7,0.5,1.1,0.8c1.9-4.6,3.4-9.3,3.8-14.3c-0.2-0.5-0.4-1.1-0.6-1.6
				C240.3,247.2,238.9,252.2,237.4,257.2z"/>
			<path class="st2" d="M218.1,290.1c-1.1-0.2-1-1.2-1.4-1.8c-1.2,5.1-1,10.2-1.1,15.3l-0.1,0C217.6,299.2,218.1,294.7,218.1,290.1z
				"/>
			<path class="st2" d="M215.5,303.6c-1.2,1-0.9,2.2-0.4,3.4l-0.1,0C216.9,305.9,215.6,304.7,215.5,303.6L215.5,303.6z"/>
			<path class="st2" d="M216,314.6c-0.7-0.4-1,0-0.9,0.7c0.3-0.3,0.5-0.6,0.8-0.8L216,314.6z"/>
		</g>
		<path class="st2" d="M267,160.6c0.8,1.6,0.5,3.8,3.1,4.3c-0.2-1.6-0.6-3.2-2.1-4.2C267.7,160.3,267.4,160.2,267,160.6z"/>
		<path class="st2" d="M264.9,157.2c0.8,0.2,0.6,1.7,1.9,1.4c-0.2-1.7-0.8-3.2-2.3-4.3C264.6,155.3,264.8,156.3,264.9,157.2z"/>
		<path class="st2" d="M270,164.8c-0.1,0.4-0.2,0.8-0.2,1.2c0.6,0.6,1.3,1.1,2.2,0.7C272.6,164.6,271.4,164.6,270,164.8z"/>
		<path class="st2" d="M276.2,159.7c-0.6,1-1.1,1.9-1.8,2.9C277.1,162.8,276.6,161.3,276.2,159.7z"/>
		<path class="st2" d="M267,160.6l0.5-0.1l0.5,0.1c-0.3-0.8,0-1.9-1.3-2.2C266.8,159.2,266.9,159.9,267,160.6z"/>
		<path class="st2" d="M274.7,165.4c0.7,0.5,1.1,0.9,1.6,0.4c0.1-0.1-0.1-0.5-0.2-0.8C275.8,165.1,275.4,165.2,274.7,165.4z"/>
		<path class="st2" d="M263.4,152.2c-0.2,1-0.3,2,1.2,2.2C264.5,153.6,264.8,152.5,263.4,152.2z"/>
	</g>
</g>
<g id="AoS_Beakers">
	<path class="st3" d="M156.2,125.6l-12,0c-5,0-5.6,0.6-5.6,5.3l0.1,41.8c0,3.7,0.5,6.3,9.3,9.2c28.2,10.3,45.5,48.3,45.5,77.8
		c0,38.6-35.4,85.1-86.8,85.1H92.4c-42.2,0-83.4-46.5-83.4-85.1c0-29.5,19.1-67.5,47.2-77.8c8.7-2.9,9.3-5.5,9.3-9.2l0.1-41.8
		c0-4.7-0.5-5.3-5.6-5.3l-13.7,0"/>
	<g id="LINE_4_">
		<path class="st4" d="M304.5,301.1c0,0,0,0.1,0,0.2"/>
	</g>
	<g>
		<g>
			<path class="st3" d="M324.6,105.4c6.3,0,19.5,0,19.5,0s0,22.7,0,43.7c0,7.7-1.3,14.8-3.9,21.6c-9.3,23.8-45.3,126.1-49.6,137.8
				c-2.6,7.2-6.5,21,1.2,29.6c4.8,5.4,12.8,5.8,18.6,5.8c7.7,0,80.6,0,80.6,0c24.1,0,44.2,0,51.9,0c5.8,0,13.5-0.7,18.6-5.8
				c8.5-8.6,3.8-22.4,1.2-29.6c-4.2-11.7-40.3-114-49.6-137.8c-2.7-6.8-4-13.9-3.9-21.6c0-20.9,0-43.7,0-43.7s13.3,0,19.5,0"/>
		</g>
	</g>
	<g>
		<path class="st5" d="M185.3,75.7l10.5,0c8,0,8.8,3.7,8.8,10.4c0,0,0,211.1,0,223.1c0,10.2,9.8,35.5,34.9,35.5h4.4
			c25.1,0,34.9-25.3,34.9-35.5c0-12.1,0-223.1,0-223.1c0-6.6-1.1-10.4,6.9-10.4l14.6,0"/>
	</g>
</g>
<g id="AoS_Liquid">
	<g id="LINE_1_" class="st6">
		<path class="st7" d="M247.7,99c-9.7,0.2-31.4-11.3-38.7-4v214.7c0,5.2,3.6,14.1,5.1,16.4c1.5,2.2,8.2,8.9,10.4,10.2
			c2,1.2,13.2,4.3,17.6,4.3c3.9,0,14.7-3.1,16.7-4.3c2.2-1.4,8.9-9,10.4-11.2c1.5-2.2,5.1-9.3,5.1-15.4V95.1
			C266.7,93.2,254.4,98.9,247.7,99z M224.7,280.8c-7.4,0-13.4-6-13.4-13.4c0-7.4,6-13.4,13.4-13.4c7.4,0,13.4,6,13.4,13.4
			C238.1,274.9,232.1,280.8,224.7,280.8z M256.7,210.6c-7.4,0-13.4-6-13.4-13.4c0-7.4,6-13.4,13.4-13.4c7.4,0,13.4,6,13.4,13.4
			C270.1,204.6,264.1,210.6,256.7,210.6z"/>
	</g>
	<path class="st8" d="M456.3,303.5c0,0-30.2-83.7-49.5-137.4c-3.5-9.7-2.3-40-2.3-40s-19.1,2.1-32.1-2.4
		c-10.9-3.7-23.9-3.7-23.9-3.7s0.5,36.7-0.5,40.1c-12.6,42.8-47.5,133.7-51.2,145.6c-2.9,9.6-5.2,11.8-4.9,20.6
		c0.4,12.4,12.8,14.1,20.6,14.1c17.5,0,110.7,0,125.9,0c2.9,0,22.7,1.4,23.5-14.2C462.2,321.8,458,308,456.3,303.5z M358,265.6
		c-8.6,3.1-18.1-1.3-21.2-9.9s1.3-18.1,9.9-21.2c8.6-3.1,18.1,1.3,21.2,9.9S366.6,262.5,358,265.6z M388.5,302.4
		c-6.3,2.3-13.3-1-15.6-7.3s1-13.3,7.3-15.6c6.3-2.3,13.3,1,15.6,7.3C398.1,293.2,394.8,300.1,388.5,302.4z M411.8,236
		c-6.3,2.3-13.3-1-15.6-7.3s1-13.3,7.3-15.6s13.3,1,15.6,7.3C421.3,226.8,418.1,233.8,411.8,236z"/>
	<path class="st8" d="M146.9,186.6c-12.2-4.1-13.1-10-13.1-19.9l0.2-19.2c-10.6-6.2-21.4,0.3-28.6,1c-7.7,0.7-30.1-1.1-35.4,4v14.3
		c0,9.8-0.4,15.8-12.6,19.9c-23.8,8.8-44.1,43.2-44.1,73c0,17.1,10.2,40.3,25.6,55.6c15.7,15.5,35,25.5,53,25.5h14.9
		c47.9,0,82.3-45.1,82.3-81.1C189.1,232.7,172.7,196.1,146.9,186.6z M64.2,243c-6.3,2.3-13.3-1-15.6-7.3s1-13.3,7.3-15.6
		s13.3,1,15.6,7.3C73.8,233.8,70.5,240.8,64.2,243z M95,311.7c-6.7,0-12.2-5.4-12.2-12.2s5.4-12.2,12.2-12.2s12.2,5.4,12.2,12.2
		S101.8,311.7,95,311.7z M125.5,286.1c-9.2,0-16.6-7.4-16.6-16.6c0-9.2,7.4-16.6,16.6-16.6c9.2,0,16.6,7.4,16.6,16.6
		C142.1,278.7,134.6,286.1,125.5,286.1z"/>
</g>
<g id="Bubbles">
	<circle class="st9" cx="224.7" cy="267.5" r="13.4"/>
	<circle class="st9" cx="256.7" cy="197.2" r="13.4"/>
	<circle class="st9" cx="95" cy="299.5" r="12.2"/>
	<circle class="st9" cx="125.5" cy="269.5" r="16.6"/>
	<circle class="st9" cx="60.1" cy="231.6" r="12.2"/>
	<circle class="st9" cx="407.6" cy="224.6" r="12.2"/>
	<circle class="st9" cx="384.4" cy="291" r="12.2"/>
	<circle class="st9" cx="352.4" cy="250.1" r="16.6"/>
</g>
<g id="Liquid" class="st0">
	<path class="st10" d="M-54.3,345.7h-55.1c-6.6,0-12-4.9-12-10.9c0,0-26.3-101.4-20-137.1c2.2-12.1,22-47.3,22-47.3s12-3.8,18.6-3.8
		c14.6-0.1,34.2,5.5,44.5,7.2c6.5,1.1,14.7-0.3,14.7-0.3s22.5,28.3,23.3,37.3c3.1,36.3-22.1,144-22.1,144
		C-46.3,340.8-47.7,345.7-54.3,345.7z"/>
	<path class="st10" d="M102.1,345.7H2c-6.6,0-14.9-3.8-12-12c14.1-39.6,44.7-111.4,51-150.6c2.2-13.3-0.4-52-0.4-52s6.4-3.9,13-3.9
		c14.6-0.1,31.2,6.9,41.5,8.8c6.5,1.2,18.6,2,18.6,2l0.4,195.7C114.1,340.3,108.7,345.7,102.1,345.7z"/>
	<path class="st10" d="M188.8,345.7h27.5c6.6,0,12-6,12-13.4c0,0,25.9-124,19.6-167.6c-2.2-14.8-22-57.9-22-57.9s-3.2-5-9.8-4.4
		c-12.8,1.2-21.3,7.6-33.3,8.5c-6.6,0.5-8.4-0.4-8.4-0.4s-11.9,34.7-12.7,45.7c-3.1,44.4,13.1,176.1,13.1,176.1
		C180.8,339.7,182.2,345.7,188.8,345.7z"/>
	<path class="st10" d="M324.4,345.5h41.5c6.6,0,11.5-3.4,13-12c12.1-69.4,19.2-116.4,25.6-155.6c2.6-16-19.8-40.9-30.7-59
		c0,0-6.5-2-13-0.9c-13.7,2.2-24.3,6.8-35,7.8c-6.6,0.6,0,0,0,0l-10.1,63.8l-3.3,143.9C312.4,340.1,317.8,345.5,324.4,345.5z"/>
	<path class="st10" d="M499.4,343.6h-18.1c-6.6,0-10.9-3-12-11c-6.2-43.6-13.9-73.3-21-110.1c-11.6-59.7,8.6-74.9,8.6-74.9
		s2.4-0.9,9-1.8c17-2.2,31,5.8,41.5,6.2c8.4,0.3,11.6-1.1,11.6-1.1s-2.9,25,13,50.4c15.2,24.3-19,126.7-20.6,131.2
		C509.3,338.3,506,343.6,499.4,343.6z"/>
</g>
<g id="Beakers" class="st0">
	<g class="st1">
		<path class="st11" d="M40.6,129.1c14.2-6.6,28.2,1.1,43.1,4.4c9.9,2.2,19.9,4.5,30.1,4.5"/>
		<path class="st12" d="M103.1,345.7H3c-6.6,0-13.9-5.7-12-12c11.4-38.3,43.7-111.4,50-150.6c2.2-13.3,0-54,0-54c0-6.6-14.6-24-8-24
			h90.1c6.6,0-8,17.4-8,24v204.6C115.1,340.3,109.7,345.7,103.1,345.7z"/>
	</g>
	<g class="st1">
		<path class="st11" d="M-117.9,148.5c17.6-4.1,30.2-0.9,48.7,2.4c12.3,2.2,14.9,2.5,27.5,2.5"/>
		<path class="st12" d="M-53.3,345.7h-55.1c-6.6,0-10.9-5-12-10.9c-6.1-31.9-26.3-101.4-20-137.1c2.2-12.1,19.5-36.4,22-49.1
			c1.1-5.9-14.6-21.8-8-21.8h90.1c6.6,0-9.3,16-8,21.8c2.9,12.7,23.2,22.7,26,42.1c2.9,19.6-9.2,83.4-23,144.1
			C-42.6,340.6-46.7,345.7-53.3,345.7z"/>
	</g>
	<path class="st13" d="M81.6,131.5"/>
	<path class="st13" d="M38.6,129.1"/>
	<g class="st1">
		<path class="st11" d="M456.9,147.7c14.1-3.7,22.8-1,37.6,2c8.7,1.8,14.5,1.8,25.1,1.8"/>
		<path class="st14" d="M498,345.4h-17.1c-6.6,0-10.8-5-12-11c-8.1-39.7-22.6-117.9-24.4-144.4c-2-31.1,12.4-42.3,12.4-42.3
			c0-6-19.6-17-13-17H534c6.6,0-8.8,11.6-13,17c-2.7,3.5-3.1,33.2,8,49.7c18.1,26.9-9.6,102.4-19,137
			C508.4,340.2,504.6,345.4,498,345.4z"/>
	</g>
	<g class="st1">
		<path class="st11" d="M325.7,124.8c10.2,0,33.6-11.1,48-6.9"/>
		<path class="st12" d="M323.4,345.5h43.5c6.6,0,9.7-4.5,11-11c12.8-62.8,19.4-111.3,26.6-156.6c2.4-15.5-25.8-44.7-31.1-61
			c-2.1-6.3,14.6-19,8-19h-62c-6.6,0,8,12.4,8,19L316,188.8l-4.7,144.7C311.4,340.1,316.8,345.5,323.4,345.5z"/>
	</g>
	<g class="st1">
		<path class="st11" d="M173.2,110.6c12.7,0,10.2-0.3,22.5-3.1c18.6-4,16.9-7.3,28.7-3"/>
		<path class="st12" d="M187.8,345.7h27.5c6.6,0,10.9-6.1,12-13.4c6.1-39,25.8-123.9,20.6-167.6c-3-25.2-20.8-45.1-23-60.1
			c-1.1-7.2,14.6-26.7,8-26.7h-65.1c-6.6,0,9.3,19.6,8,26.7c-2.9,15.5-11.2,27.7-14,51.5c-2.9,23.9,0.2,102,14,176.2
			C177.1,339.5,181.2,345.7,187.8,345.7z"/>
	</g>
</g>
</svg>
