<?xml version="1.0" encoding="utf-8"?>
<!-- Generator: Adobe Illustrator 19.1.0, SVG Export Plug-In . SVG Version: 6.00 Build 0)  -->
<svg version="1.1" id="Layer_1" xmlns="http://www.w3.org/2000/svg" xmlns:xlink="http://www.w3.org/1999/xlink" x="0px" y="0px"
	 viewBox="46 518.1 336.1 145.5" style="enable-background:new 46 518.1 336.1 145.5;" xml:space="preserve">
<style type="text/css">
	.st0{fill:#FFFFFF;stroke:#231F20;stroke-width:0.3763;stroke-linecap:round;stroke-linejoin:round;stroke-miterlimit:10;}
	.st1{fill:none;stroke:#231F20;stroke-width:0.3763;stroke-linecap:round;stroke-linejoin:round;stroke-miterlimit:10;}
	.st2{fill:none;stroke:#000000;stroke-width:0.5669;stroke-miterlimit:10;}
	.st3{fill:none;stroke:#000000;stroke-width:1.2838;stroke-linecap:round;stroke-linejoin:round;stroke-miterlimit:10;}
	
		.st4{fill:none;stroke:#5B5355;stroke-width:0.377;stroke-linecap:round;stroke-linejoin:round;stroke-miterlimit:10;stroke-dasharray:1.4173;}
	.st5{fill:none;stroke:#5B5355;stroke-width:0.377;stroke-linecap:round;stroke-linejoin:round;}
	.st6{fill:none;stroke:#5B5355;stroke-width:0.377;stroke-linecap:round;stroke-linejoin:round;stroke-dasharray:1.3856,1.3856;}
	.st7{fill:none;stroke:#554E50;stroke-width:1.4173;stroke-linecap:round;stroke-linejoin:round;}
	.st8{fill:none;stroke:#554E50;stroke-width:1.4173;stroke-linecap:round;stroke-linejoin:round;stroke-dasharray:0.699,2.7959;}
	.st9{fill:none;stroke:#554E50;stroke-width:1.4173;stroke-linecap:round;stroke-linejoin:round;stroke-dasharray:0.6991,2.7966;}
	.st10{fill:none;stroke:#000000;stroke-width:0.6491;stroke-linecap:round;stroke-linejoin:round;stroke-miterlimit:10;}
	.st11{fill:none;stroke:#000000;stroke-width:0.5644;stroke-miterlimit:10;}
</style>
<polygon class="st0" points="357.5,636.1 381.9,641.2 378.2,663.6 353.4,660.6 "/>
<g id="Bra_x5F_Master">
	<g>
		<g>
			<g>
				<g id="LINE_552_">
					<polygon class="st0" points="167.3,611.3 162.5,609.1 157.5,607.3 152.4,605.9 147.2,604.9 149.3,601.2 151,597.3 152.2,593.2 
						153.5,584.8 158.2,586.3 162.9,588 167.4,589.9 171.9,592.1 176.2,594.5 180.4,597.1 184.5,599.9 188.4,603 192.2,606.2 
						195.8,609.6 199.2,613.2 202.4,617 202.4,619 202.3,621.1 202.2,623.1 201.9,625.2 201.6,627.2 201.1,629.2 200.6,631.2 
						200,633.1 199.3,635.1 198.5,637 197.6,638.8 196.6,640.6 194.1,636 191.1,631.6 187.9,627.5 184.3,623.6 180.4,620 
						176.3,616.8 171.9,613.8 					"/>
				</g>
			</g>
			<g>
				<g id="LINE_550_">
					<polygon class="st0" points="141.8,621.6 142.8,626.6 144.6,631.4 147,635.9 150,640 152.8,642.8 153.9,640.1 155.1,637.5 
						156.4,634.9 157.7,632.4 159.1,629.8 160.6,627.3 162.1,624.9 163.7,622.4 165.4,620.1 167.1,617.7 168.8,615.4 170.6,613.2 
						167.3,611.3 162.5,609.1 157.5,607.3 152.4,605.9 147.2,604.9 144.8,608.3 142,611.5 141.5,616.6 					"/>
				</g>
			</g>
			<g>
				<g id="LINE_548_">
					<polygon class="st0" points="272.2,621.6 271.2,626.6 269.5,631.4 267.1,635.9 264.1,640 260.5,643.6 256.4,646.7 252,649.2 
						247.2,651 242.2,652 237.2,652.4 235.2,652.3 233.2,652 231.2,651.6 229.3,650.9 227.5,650.2 225.7,649.2 224,648.1 
						222.4,646.9 221,645.5 219.7,644 218.5,642.4 217.4,640.6 216.5,638.8 215.6,637 214.8,635.1 214.1,633.1 213.5,631.2 
						212.9,629.2 212.5,627.2 212.1,625.2 211.9,623.1 211.7,621.1 211.6,619 211.6,617 214.9,613.2 218.3,609.6 221.9,606.2 
						225.6,603 229.6,599.9 233.6,597.1 237.8,594.5 242.2,592.1 246.6,589.9 251.2,588 255.9,586.3 260.6,584.8 261,589 
						261.8,593.2 263.1,597.3 264.8,601.2 266.8,604.9 269.3,608.3 272.1,611.5 272.5,616.6 					"/>
				</g>
			</g>
			<g>
				<g id="LINE_875_">
					<polygon class="st0" points="191.1,631.6 187.9,627.5 184.3,623.6 180.4,620 176.3,616.8 171.9,613.8 170.6,613.2 168.8,615.4 
						167.1,617.7 165.4,620.1 163.7,622.4 162.1,624.9 160.6,627.3 159.1,629.8 157.7,632.4 156.4,634.9 155.1,637.5 153.9,640.1 
						152.8,642.8 153.6,643.6 157.6,646.7 162.1,649.2 166.8,651 171.8,652 176.9,652.4 178.9,652.3 180.9,652 182.8,651.6 
						184.7,650.9 186.6,650.2 188.4,649.2 190,648.1 191.6,646.9 193.1,645.5 194.4,644 195.6,642.4 196.6,640.6 194.1,636 					"/>
				</g>
			</g>
		</g>
		<g>
			<g id="LINE_809_">
				<polyline class="st1" points="375.8,639.9 369.7,638.6 363.6,637.4 359.6,661.3 353.4,660.6 357.5,636.1 363.6,637.4 
					369.7,638.6 365.8,662 372,662.7 378.2,663.4 381.9,641.2 375.8,639.9 372,662.7 365.8,662 359.6,661.3 				"/>
			</g>
			<g>
				<path class="st2" d="M357.9,653.7l-2.9-0.5c-0.2,0-0.4,0.1-0.5,0.3l-0.3,1.7c0,0.2,0.1,0.4,0.3,0.5l2.9,0.5
					c0.2,0,0.4-0.1,0.5-0.3l0.3-1.7C358.3,653.9,358.1,653.7,357.9,653.7z"/>
				<path class="st2" d="M360.2,640.5l-2.9-0.5c-0.2,0-0.4,0.1-0.5,0.3l-0.3,1.7c0,0.2,0.1,0.4,0.3,0.5l2.9,0.5
					c0.2,0,0.4-0.1,0.5-0.3l0.3-1.7C360.6,640.7,360.4,640.5,360.2,640.5z"/>
			</g>
			<g>
				<path class="st2" d="M364.1,654.9l-2.9-0.5c-0.2,0-0.4,0.1-0.5,0.3l-0.3,1.7c0,0.2,0.1,0.4,0.3,0.5l2.9,0.5
					c0.2,0,0.4-0.1,0.5-0.3l0.3-1.7C364.5,655.2,364.4,655,364.1,654.9z"/>
				<path class="st2" d="M366.4,641.7l-2.9-0.5c-0.2,0-0.4,0.1-0.5,0.3l-0.3,1.7c0,0.2,0.1,0.4,0.3,0.5l2.9,0.5
					c0.2,0,0.4-0.1,0.5-0.3l0.3-1.7C366.8,641.9,366.6,641.7,366.4,641.7z"/>
			</g>
			<g>
				<path class="st2" d="M370.3,656.3l-2.9-0.5c-0.2,0-0.4,0.1-0.5,0.3l-0.3,1.7c0,0.2,0.1,0.4,0.3,0.5l2.9,0.5
					c0.2,0,0.4-0.1,0.5-0.3l0.3-1.7C370.7,656.5,370.6,656.3,370.3,656.3z"/>
				<path class="st2" d="M372.6,643.1l-2.9-0.5c-0.2,0-0.4,0.1-0.5,0.3l-0.3,1.7c0,0.2,0.1,0.4,0.3,0.5l2.9,0.5
					c0.2,0,0.4-0.1,0.5-0.3l0.3-1.7C373,643.3,372.8,643.1,372.6,643.1z"/>
			</g>
			<g>
				<path class="st2" d="M376.3,657.4l-2.9-0.5c-0.2,0-0.4,0.1-0.5,0.3l-0.3,1.7c0,0.2,0.1,0.4,0.3,0.5l2.9,0.5
					c0.2,0,0.4-0.1,0.5-0.3l0.3-1.7C376.7,657.6,376.5,657.4,376.3,657.4z"/>
				<path class="st2" d="M378.6,644.2l-2.9-0.5c-0.2,0-0.4,0.1-0.5,0.3l-0.3,1.7c0,0.2,0.1,0.4,0.3,0.5l2.9,0.5
					c0.2,0,0.4-0.1,0.5-0.3l0.3-1.7C378.9,644.4,378.8,644.2,378.6,644.2z"/>
			</g>
		</g>
		<g>
			<line class="st3" x1="51.3" y1="642.4" x2="46.6" y2="643.3"/>
			<line class="st3" x1="53.4" y1="655.3" x2="48.7" y2="656.1"/>
			<g id="LINE_805_">
				<polygon class="st0" points="54.4,661.3 50.4,637.4 56.5,636.1 60.6,660.6 				"/>
			</g>
		</g>
		<g>
			<g>
				<g id="LINE_544_">
					<path class="st0" d="M91,537c0.1-0.3,0.2-0.5,0.2-0.8c1,0.2,2,0.4,3,0.8c1.4,0.6,1.7,0.5,1.4,1.7"/>
					<path class="st0" d="M95.6,538.7c0,0.1,0,0.1-0.1,0.2c-0.4,1.5-0.8,3.1-1.2,4.6c-0.7,3.2-1.2,6.5-1.4,9.8
						c-0.5,6.4,0,12.9,0.9,19.3c1.8,13,2.8,26.1,2.8,39.2c0,3.9-0.1,7.7-0.3,11.6c0,0.9,0.2,3.9-0.5,4.4c-0.6,0.5-2.5,0.5-3.3,0.7
						c-0.9,0.2-1.8,0.4-2.7,0.6c1.5-6.1,1.2-12.5,1.1-18.7c0-5.9-0.2-11.8-0.5-17.7c-0.3-6.3-0.8-12.6-1.4-18.9
						c-0.6-5.8-1.3-11.5-1.1-17.3c0.2-6.6,1.3-13,3.2-19.3"/>
				</g>
			</g>
			<g>
				<g id="LINE_543_">
					<path class="st0" d="M94.1,535.9c0.5,0.2,1.6,0.6,2.1,0.4c0.5-0.1,0.3-0.1,0.6-0.7c0.5-0.9,0.8-1.8,1.4-2.7
						c0.8-1.4,1.9-2.7,3-3.9c2.6-2.6,5.9-4.4,9.4-5.2c7.6-1.7,15.8,0,22.1,4.4c6.1,4.2,10.5,11,13.8,17.5s5.3,13.5,6.3,20.6
						c0.5,3.7,0.6,7.5,0.6,11.3c0,1.5,0,3.1,0,4.6c0,0.5-0.3,2.2,0,2.6c0.3,0.4,2.1,0.7,2.6,0.9c1.1,0.4,2.2,0.7,3.3,1.1
						c-0.6-8-0.7-16.3-2.1-24.2c-1.4-7.9-4.2-15.6-8.2-22.5c-3.9-6.8-8.9-13.4-15.9-17.4c-7.1-4-15.6-5.3-23.7-3.5
						c-7.8,1.7-14.4,7.5-17.2,14.9c-0.2,0.4-0.3,0.6-0.2,0.9C92.2,535.4,93.6,535.8,94.1,535.9z"/>
				</g>
			</g>
		</g>
		<g>
			<g>
				<g id="LINE_555_">
					<polygon class="st0" points="129,652.7 123.9,622.2 56.5,636.1 60.6,660.6 					"/>
				</g>
			</g>
			<g>
				<g id="LINE_545_">
					<polygon class="st0" points="123.9,622.2 127.9,620.8 131.8,619.1 135.4,616.9 138.8,614.4 142,611.5 141.5,616.6 141.8,621.6 
						142.8,626.6 144.6,631.4 147,635.9 150,640 153.6,643.6 157.6,646.7 162.1,649.2 166.8,651 171.8,652 176.9,652.4 176.9,657.8 
						174.7,657.9 172.1,657.9 169.6,657.7 167,657.4 164.5,656.9 162,656.2 159.3,655.4 156.6,654.8 153.9,654.2 151.1,653.7 
						148.4,653.3 145.6,653 142.9,652.7 140.1,652.5 137.3,652.4 134.6,652.4 131.8,652.5 129,652.7 					"/>
				</g>
			</g>
			<g>
				<g id="LINE_112_">
					<polygon class="st0" points="285,652.7 290.2,622.2 357.5,636.1 353.4,660.6 					"/>
				</g>
			</g>
			<g>
				<g id="LINE_111_">
					<polygon class="st0" points="290.2,622.2 286.1,620.8 282.3,619.1 278.6,616.9 275.2,614.4 272.1,611.5 272.5,616.6 
						272.2,621.6 271.2,626.6 269.5,631.4 267.1,635.9 264.1,640 260.5,643.6 256.4,646.7 252,649.2 247.2,651 242.2,652 
						237.2,652.4 237.2,657.8 239.3,657.9 241.9,657.9 244.5,657.7 247.1,657.4 249.6,656.9 252.1,656.2 254.8,655.4 257.5,654.8 
						260.2,654.2 262.9,653.7 265.6,653.3 268.4,653 271.2,652.7 273.9,652.5 276.7,652.4 279.5,652.4 282.3,652.5 285,652.7 					
						"/>
				</g>
			</g>
		</g>
		<g>
			<g id="LINE_110_">
				<polygon class="st0" points="207,648.4 209.3,648.4 209.7,648.4 210.1,648.5 210.6,648.5 211,648.5 211.4,648.6 211.8,648.7 
					212.2,648.8 212.7,648.9 213.1,649 213.5,649.1 213.7,649.2 214.3,649.4 215.2,649.8 216,650.1 216.9,650.5 217.8,650.9 
					218.7,651.3 219.5,651.8 220.4,652.2 221.2,652.6 222.1,653.1 224.4,654.3 226.7,655.3 229.2,656.2 231.7,656.9 234.2,657.4 
					236.8,657.7 237.2,657.8 237.2,652.4 235.2,652.3 233.2,652 231.2,651.6 229.3,650.9 227.5,650.2 225.7,649.2 224,648.1 
					222.4,646.9 221,645.5 219.7,644 218.5,642.4 217.4,640.6 216.5,638.8 215.6,637 214.8,635.1 214.1,633.1 213.5,631.2 
					212.9,629.2 212.5,627.2 212.1,625.2 211.9,623.1 211.7,621.1 211.6,619 211.6,617 207,617 202.4,617 202.4,619 202.3,621.1 
					202.2,623.1 201.9,625.2 201.6,627.2 201.1,629.2 200.6,631.2 200,633.1 199.3,635.1 198.5,637 197.6,638.8 196.6,640.6 
					195.6,642.4 194.4,644 193.1,645.5 191.6,646.9 190,648.1 188.4,649.2 186.6,650.2 184.7,650.9 182.8,651.6 180.9,652 
					178.9,652.3 176.9,652.4 176.9,657.8 177.3,657.7 179.9,657.4 182.4,656.9 184.9,656.2 187.3,655.3 189.7,654.3 192,653.1 
					192.8,652.6 193.7,652.2 194.5,651.8 195.4,651.3 196.3,650.9 197.1,650.5 198,650.1 198.9,649.8 199.8,649.4 200.4,649.2 
					200.6,649.1 201,649 201.4,648.9 201.8,648.8 202.2,648.7 202.6,648.6 203.1,648.5 203.5,648.5 203.9,648.5 204.3,648.4 
					204.8,648.4 				"/>
			</g>
		</g>
		<g>
			<g>
				<g id="LINE_114_">
					<path class="st0" d="M322.5,536.3c-1,0.2-2,0.4-3,0.8c-1.4,0.6-1.7,0.5-1.3,1.9c0.4,1.5,0.8,3.1,1.2,4.6
						c0.7,3.2,1.2,6.5,1.4,9.8c0.5,6.4,0,12.9-0.9,19.3c-1.8,13-2.8,26.1-2.8,39.2c0,3.9,0.1,7.7,0.3,11.6c0,0.9-0.2,3.9,0.5,4.4
						c0.6,0.5,2.5,0.5,3.3,0.7c0.9,0.2,1.8,0.4,2.7,0.6c-1.5-6.1-1.2-12.5-1.1-18.7c0-5.9,0.2-11.8,0.5-17.7
						c0.3-6.3,0.8-12.6,1.4-18.9c0.6-5.8,1.3-11.5,1.1-17.3C325.7,549.5,324.6,542.8,322.5,536.3z"/>
				</g>
			</g>
			<g>
				<g id="LINE_113_">
					<path class="st0" d="M319.7,535.9c-0.5,0.2-1.6,0.6-2.1,0.4c-0.5-0.1-0.3-0.1-0.6-0.7c-0.5-0.9-0.8-1.8-1.4-2.7
						c-0.8-1.4-1.9-2.7-3-3.9c-2.6-2.6-5.9-4.4-9.4-5.2c-7.6-1.7-15.8,0-22.1,4.4c-6.1,4.2-10.5,11-13.8,17.5
						c-3.3,6.5-5.3,13.5-6.3,20.6c-0.5,3.7-0.6,7.5-0.6,11.3c0,1.5,0,3.1,0,4.6c0,0.5,0.3,2.2,0,2.6c-0.3,0.4-2.1,0.7-2.6,0.9
						c-1.1,0.4-2.2,0.7-3.3,1.1c0.6-8,0.7-16.3,2.1-24.2c1.4-7.9,4.2-15.6,8.2-22.5c3.9-6.8,8.9-13.4,15.9-17.4
						c7.2-4.1,15.8-5.4,23.9-3.6c7.8,1.7,14.3,7.6,17.2,14.9c0.2,0.4,0.3,0.6,0.2,0.9C321.5,535.4,320.1,535.8,319.7,535.9z"/>
				</g>
			</g>
		</g>
		<g>
			<polyline class="st4" points="147.7,606 152.2,606.8 157.2,608.2 162.1,610 166.8,612.2 169.1,613.4 168.1,614.8 166.3,617.1 
				164.6,619.5 162.9,621.9 161.3,624.3 159.8,626.8 158.3,629.3 156.9,631.9 155.5,634.5 154.2,637.1 153,639.7 152.4,641 			"/>
			<g>
				<g>
					<line class="st5" x1="196.6" y1="638.5" x2="196.3" y2="637.9"/>
					<polyline class="st6" points="195.6,636.7 194.9,635.5 192,631.1 188.7,626.9 185,622.9 181.1,619.3 176.9,616 172.4,613 
						167.7,610.4 162.9,608.2 157.8,606.3 152.7,604.9 150.1,604.4 					"/>
					<line class="st5" x1="149.5" y1="604.3" x2="148.8" y2="604.1"/>
				</g>
			</g>
			<polyline class="st4" points="153.9,642.6 154.8,640.5 156,637.9 157.3,635.4 158.6,632.8 160,630.3 161.5,627.8 163,625.4 
				164.6,623 166.2,620.6 167.9,618.3 169.6,616 170.9,614.4 171.4,614.7 175.7,617.6 179.8,620.8 183.6,624.3 187.1,628.2 
				190.4,632.3 193.2,636.6 195.5,640.6 			"/>
		</g>
		<g>
			<g>
				<path class="st7" d="M158.7,587.1c0,0.1,0,0.2,0,0.4"/>
				<path class="st8" d="M159,590.2c2.2,26.2,0.8,50.3,15.4,60.7"/>
				<path class="st7" d="M175.6,651.7c0.1,0.1,0.2,0.1,0.3,0.2"/>
			</g>
		</g>
		<g>
			<g>
				<path class="st7" d="M255.1,587.1c0,0.1,0,0.2,0,0.4"/>
				<path class="st9" d="M254.8,590.2c-2.3,26.2-0.9,50.3-15.5,60.7"/>
				<path class="st7" d="M238.1,651.7c-0.1,0.1-0.2,0.1-0.3,0.2"/>
			</g>
		</g>
	</g>
	<path class="st10" d="M95.7,538.8c0.8-0.5,1.3-1.4,1.3-2.5c0-0.2,0-0.4-0.1-0.6"/>
	<path class="st10" d="M92.1,533.7c-0.9,0.5-1.4,1.5-1.4,2.6c0,0.3,0,0.5,0.1,0.8"/>
	<path class="st10" d="M318,538.8c-0.8-0.5-1.3-1.4-1.3-2.5c0-0.2,0-0.4,0.1-0.6"/>
	<path class="st10" d="M321.6,533.7c0.9,0.5,1.4,1.5,1.4,2.6c0,0.3,0,0.5-0.1,0.8"/>
	<g>
		<path class="st11" d="M319,580.3h-0.4c-0.1,0-0.2-0.1-0.2-0.2l0.1-0.9c0-0.1,0.1-0.2,0.2-0.2l6.2,0.5c0.1,0,0.2,0.1,0.2,0.2
			l-0.1,0.9c0,0.1-0.1,0.2-0.2,0.2h-0.5"/>
		<path class="st11" d="M319.2,577.7h-0.4c-0.1,0-0.2,0.1-0.2,0.2l-0.1,0.9c0,0.1,0.1,0.2,0.2,0.2l6.2,0.5c0.1,0,0.2-0.1,0.2-0.2
			l0.1-0.9c0-0.1-0.1-0.2-0.2-0.2h-0.5"/>
	</g>
	<g>
		<path class="st11" d="M94.7,580.2h0.4c0.1,0,0.2-0.1,0.2-0.2l-0.1-0.9c0-0.1-0.1-0.2-0.2-0.2l-6.2,0.5c-0.1,0-0.2,0.1-0.2,0.2
			l0.1,0.9c0,0.1,0.1,0.2,0.2,0.2h0.5"/>
		<path class="st11" d="M94.6,577.7H95c0.1,0,0.2,0.1,0.2,0.2l0.1,0.9c0,0.1-0.1,0.2-0.2,0.2l-6.2,0.5c-0.1,0-0.2-0.1-0.2-0.2
			l-0.1-0.9c0-0.1,0.1-0.2,0.2-0.2h0.5"/>
	</g>
</g>
</svg>
