<?xml version="1.0" encoding="utf-8"?>
<!-- Generator: Adobe Illustrator 19.1.0, SVG Export Plug-In . SVG Version: 6.00 Build 0)  -->
<svg version="1.1" id="Bra_x5F_Master" onclick="notify(this, &quot;select&quot;);"
	 xmlns="http://www.w3.org/2000/svg" xmlns:xlink="http://www.w3.org/1999/xlink" x="0px" y="0px" viewBox="320 -130.9 336.1 145.5"
	 style="enable-background:new 320 -130.9 336.1 145.5;" xml:space="preserve">
<style type="text/css">
	.st0{fill:none;stroke:#000000;stroke-width:0.5644;stroke-miterlimit:10;}
	.st1{opacity:0.5;fill:#92278F;enable-background:new    ;}
	.st2{fill:none;stroke:#000000;stroke-width:0.3763;stroke-linecap:round;stroke-linejoin:round;stroke-miterlimit:10;}
	.st3{fill:none;stroke:#000000;stroke-width:0.5669;stroke-miterlimit:10;}
	.st4{fill:none;stroke:#000000;stroke-width:1.2838;stroke-linecap:round;stroke-linejoin:round;stroke-miterlimit:10;}
	
		.st5{fill:none;stroke:#000000;stroke-width:0.377;stroke-linecap:round;stroke-linejoin:round;stroke-miterlimit:10;stroke-dasharray:1.4173;}
	.st6{fill:none;stroke:#000000;stroke-width:0.377;stroke-linecap:round;stroke-linejoin:round;}
	.st7{fill:none;stroke:#000000;stroke-width:0.377;stroke-linecap:round;stroke-linejoin:round;stroke-dasharray:1.3856,1.3856;}
	.st8{fill:none;stroke:#000000;stroke-width:0.6491;stroke-linecap:round;stroke-linejoin:round;stroke-miterlimit:10;}
</style>
<g id="_x23_9_x5F_Sliders">
	<g>
		<g>
			<path class="st0" d="M593-68.7h-0.4c-0.1,0-0.2-0.1-0.2-0.2l0.1-0.9c0-0.1,0.1-0.2,0.2-0.2l6.2,0.5c0.1,0,0.2,0.1,0.2,0.2
				l-0.1,0.9c0,0.1-0.1,0.2-0.2,0.2h-0.5"/>
			<path class="st0" d="M593.2-71.3h-0.4c-0.1,0-0.2,0.1-0.2,0.2l-0.1,0.9c0,0.1,0.1,0.2,0.2,0.2l6.2,0.5c0.1,0,0.2-0.1,0.2-0.2
				l0.1-0.9c0-0.1-0.1-0.2-0.2-0.2h-0.5"/>
		</g>
		<g>
			<path class="st0" d="M368.7-68.8h0.4c0.1,0,0.2-0.1,0.2-0.2l-0.1-0.9c0-0.1-0.1-0.2-0.2-0.2l-6.2,0.5c-0.1,0-0.2,0.1-0.2,0.2
				l0.1,0.9c0,0.1,0.1,0.2,0.2,0.2h0.5"/>
			<path class="st0" d="M368.6-71.3h0.4c0.1,0,0.2,0.1,0.2,0.2l0.1,0.9c0,0.1-0.1,0.2-0.2,0.2l-6.2,0.5c-0.1,0-0.2-0.1-0.2-0.2
				l-0.1-0.9c0-0.1,0.1-0.2,0.2-0.2h0.5"/>
		</g>
		<circle class="st1" cx="366.2" cy="-69.9" r="7.4"/>
		<circle class="st1" cx="596" cy="-69.9" r="7.4"/>
	</g>
</g>
<g id="MASTER">
	<g>
		<g>
			<g id="LINE_552_">
				<polygon class="st2" points="441.3,-37.7 436.5,-39.9 431.5,-41.7 426.4,-43.1 421.2,-44.1 423.3,-47.8 425,-51.7 426.2,-55.8 
					427.5,-64.2 432.2,-62.7 436.9,-61 441.4,-59.1 445.9,-56.9 450.2,-54.5 454.4,-51.9 458.5,-49.1 462.4,-46 466.2,-42.8 
					469.8,-39.4 473.2,-35.8 476.4,-32 476.4,-30 476.3,-27.9 476.2,-25.9 475.9,-23.8 475.6,-21.8 475.1,-19.8 474.6,-17.8 
					474,-15.9 473.3,-13.9 472.5,-12 471.6,-10.2 470.6,-8.4 468.1,-13 465.1,-17.4 461.9,-21.5 458.3,-25.4 454.4,-29 450.3,-32.2 
					445.9,-35.2 				"/>
			</g>
		</g>
		<g>
			<g id="LINE_550_">
				<polygon class="st2" points="415.8,-27.4 416.8,-22.4 418.6,-17.6 421,-13.1 424,-9 426.8,-6.2 427.9,-8.9 429.1,-11.5 
					430.4,-14.1 431.7,-16.6 433.1,-19.2 434.6,-21.7 436.1,-24.1 437.7,-26.6 439.4,-28.9 441.1,-31.3 442.8,-33.6 444.6,-35.8 
					441.3,-37.7 436.5,-39.9 431.5,-41.7 426.4,-43.1 421.2,-44.1 418.8,-40.7 416,-37.5 415.5,-32.4 				"/>
			</g>
		</g>
		<g>
			<g id="LINE_548_">
				<polygon class="st2" points="546.2,-27.4 545.2,-22.4 543.5,-17.6 541.1,-13.1 538.1,-9 534.5,-5.4 530.4,-2.3 526,0.2 521.2,2 
					516.2,3 511.2,3.4 509.2,3.3 507.2,3 505.2,2.6 503.3,1.9 501.5,1.2 499.7,0.2 498,-0.9 496.4,-2.1 495,-3.5 493.7,-5 
					492.5,-6.6 491.4,-8.4 490.5,-10.2 489.6,-12 488.8,-13.9 488.1,-15.9 487.5,-17.8 486.9,-19.8 486.5,-21.8 486.1,-23.8 
					485.9,-25.9 485.7,-27.9 485.6,-30 485.6,-32 488.9,-35.8 492.3,-39.4 495.9,-42.8 499.6,-46 503.6,-49.1 507.6,-51.9 
					511.8,-54.5 516.2,-56.9 520.6,-59.1 525.2,-61 529.9,-62.7 534.6,-64.2 535,-60 535.8,-55.8 537.1,-51.7 538.8,-47.8 
					540.8,-44.1 543.3,-40.7 546.1,-37.5 546.5,-32.4 				"/>
			</g>
		</g>
		<g>
			<g id="LINE_875_">
				<polygon class="st2" points="465.1,-17.4 461.9,-21.5 458.3,-25.4 454.4,-29 450.3,-32.2 445.9,-35.2 444.6,-35.8 442.8,-33.6 
					441.1,-31.3 439.4,-28.9 437.7,-26.6 436.1,-24.1 434.6,-21.7 433.1,-19.2 431.7,-16.6 430.4,-14.1 429.1,-11.5 427.9,-8.9 
					426.8,-6.2 427.6,-5.4 431.6,-2.3 436.1,0.2 440.8,2 445.8,3 450.9,3.4 452.9,3.3 454.9,3 456.8,2.6 458.7,1.9 460.6,1.2 
					462.4,0.2 464,-0.9 465.6,-2.1 467.1,-3.5 468.4,-5 469.6,-6.6 470.6,-8.4 468.1,-13 				"/>
			</g>
		</g>
	</g>
	<g>
		<g id="LINE_809_">
			<polyline class="st2" points="649.8,-9.1 643.7,-10.4 637.6,-11.6 633.6,12.3 627.4,11.6 631.5,-12.9 637.6,-11.6 643.7,-10.4 
				639.8,13 646,13.7 652.2,14.4 655.9,-7.8 649.8,-9.1 646,13.7 639.8,13 633.6,12.3 			"/>
		</g>
		<g>
			<path class="st3" d="M631.9,4.7L629,4.2c-0.2,0-0.4,0.1-0.5,0.3l-0.3,1.7c0,0.2,0.1,0.4,0.3,0.5l2.9,0.5c0.2,0,0.4-0.1,0.5-0.3
				l0.3-1.7C632.3,4.9,632.1,4.7,631.9,4.7z"/>
			<path class="st3" d="M634.2-8.5L631.3-9c-0.2,0-0.4,0.1-0.5,0.3L630.5-7c0,0.2,0.1,0.4,0.3,0.5l2.9,0.5c0.2,0,0.4-0.1,0.5-0.3
				l0.3-1.7C634.6-8.3,634.4-8.5,634.2-8.5z"/>
		</g>
		<g>
			<path class="st3" d="M638.1,5.9l-2.9-0.5c-0.2,0-0.4,0.1-0.5,0.3l-0.3,1.7c0,0.2,0.1,0.4,0.3,0.5l2.9,0.5c0.2,0,0.4-0.1,0.5-0.3
				l0.3-1.7C638.5,6.2,638.4,6,638.1,5.9z"/>
			<path class="st3" d="M640.4-7.3l-2.9-0.5c-0.2,0-0.4,0.1-0.5,0.3l-0.3,1.7c0,0.2,0.1,0.4,0.3,0.5l2.9,0.5c0.2,0,0.4-0.1,0.5-0.3
				l0.3-1.7C640.8-7.1,640.6-7.3,640.4-7.3z"/>
		</g>
		<g>
			<path class="st3" d="M644.3,7.3l-2.9-0.5c-0.2,0-0.4,0.1-0.5,0.3l-0.3,1.7c0,0.2,0.1,0.4,0.3,0.5l2.9,0.5c0.2,0,0.4-0.1,0.5-0.3
				l0.3-1.7C644.7,7.5,644.6,7.3,644.3,7.3z"/>
			<path class="st3" d="M646.6-5.9l-2.9-0.5c-0.2,0-0.4,0.1-0.5,0.3l-0.3,1.7c0,0.2,0.1,0.4,0.3,0.5l2.9,0.5c0.2,0,0.4-0.1,0.5-0.3
				l0.3-1.7C647-5.7,646.8-5.9,646.6-5.9z"/>
		</g>
		<g>
			<path class="st3" d="M650.3,8.4l-2.9-0.5c-0.2,0-0.4,0.1-0.5,0.3l-0.3,1.7c0,0.2,0.1,0.4,0.3,0.5l2.9,0.5c0.2,0,0.4-0.1,0.5-0.3
				l0.3-1.7C650.7,8.6,650.5,8.4,650.3,8.4z"/>
			<path class="st3" d="M652.6-4.8l-2.9-0.5c-0.2,0-0.4,0.1-0.5,0.3l-0.3,1.7c0,0.2,0.1,0.4,0.3,0.5l2.9,0.5c0.2,0,0.4-0.1,0.5-0.3
				l0.3-1.7C652.9-4.6,652.8-4.8,652.6-4.8z"/>
		</g>
	</g>
	<g>
		<g id="LINE_805_">
			<polygon class="st2" points="328.4,12.3 324.4,-11.6 330.5,-12.9 334.6,11.6 			"/>
		</g>
		<line class="st4" x1="325.3" y1="-6.6" x2="320.6" y2="-5.7"/>
		<line class="st4" x1="327.4" y1="6.3" x2="322.7" y2="7.1"/>
	</g>
	<g>
		<g>
			<g id="LINE_544_">
				<path class="st2" d="M365-112c0.1-0.3,0.2-0.5,0.2-0.8c1,0.2,2,0.4,3,0.8c1.4,0.6,1.7,0.5,1.4,1.7"/>
				<path class="st2" d="M369.6-110.3c0,0.1,0,0.1-0.1,0.2c-0.4,1.5-0.8,3.1-1.2,4.6c-0.7,3.2-1.2,6.5-1.4,9.8
					c-0.5,6.4,0,12.9,0.9,19.3c1.8,13,2.8,26.1,2.8,39.2c0,3.9-0.1,7.7-0.3,11.6c0,0.9,0.2,3.9-0.5,4.4c-0.6,0.5-2.5,0.5-3.3,0.7
					c-0.9,0.2-1.8,0.4-2.7,0.6c1.5-6.1,1.2-12.5,1.1-18.7c0-5.9-0.2-11.8-0.5-17.7c-0.3-6.3-0.8-12.6-1.4-18.9
					c-0.6-5.8-1.3-11.5-1.1-17.3c0.2-6.6,1.3-13,3.2-19.3"/>
			</g>
		</g>
		<g>
			<g id="LINE_543_">
				<path class="st2" d="M368.1-113.1c0.5,0.2,1.6,0.6,2.1,0.4c0.5-0.1,0.3-0.1,0.6-0.7c0.5-0.9,0.8-1.8,1.4-2.7
					c0.8-1.4,1.9-2.7,3-3.9c2.6-2.6,5.9-4.4,9.4-5.2c7.6-1.7,15.8,0,22.1,4.4c6.1,4.2,10.5,11,13.8,17.5s5.3,13.5,6.3,20.6
					c0.5,3.7,0.6,7.5,0.6,11.3c0,1.5,0,3.1,0,4.6c0,0.5-0.3,2.2,0,2.6s2.1,0.7,2.6,0.9c1.1,0.4,2.2,0.7,3.3,1.1
					c-0.6-8-0.7-16.3-2.1-24.2S427-102,423-108.9c-3.9-6.8-8.9-13.4-15.9-17.4c-7.1-4-15.6-5.3-23.7-3.5
					c-7.8,1.7-14.4,7.5-17.2,14.9c-0.2,0.4-0.3,0.6-0.2,0.9C366.2-113.6,367.6-113.2,368.1-113.1z"/>
			</g>
		</g>
	</g>
	<g>
		<g>
			<g id="LINE_555_">
				<polygon class="st2" points="403,3.7 397.9,-26.8 330.5,-12.9 334.6,11.6 				"/>
			</g>
		</g>
		<g>
			<g id="LINE_545_">
				<polygon class="st2" points="397.9,-26.8 401.9,-28.2 405.8,-29.9 409.4,-32.1 412.8,-34.6 416,-37.5 415.5,-32.4 415.8,-27.4 
					416.8,-22.4 418.6,-17.6 421,-13.1 424,-9 427.6,-5.4 431.6,-2.3 436.1,0.2 440.8,2 445.8,3 450.9,3.4 450.9,8.8 448.7,8.9 
					446.1,8.9 443.6,8.7 441,8.4 438.5,7.9 436,7.2 433.3,6.4 430.6,5.8 427.9,5.2 425.1,4.7 422.4,4.3 419.6,4 416.9,3.7 
					414.1,3.5 411.3,3.4 408.6,3.4 405.8,3.5 403,3.7 				"/>
			</g>
		</g>
		<g>
			<g id="LINE_112_">
				<polygon class="st2" points="559,3.7 564.2,-26.8 631.5,-12.9 627.4,11.6 				"/>
			</g>
		</g>
		<g>
			<g id="LINE_111_">
				<polygon class="st2" points="564.2,-26.8 560.1,-28.2 556.3,-29.9 552.6,-32.1 549.2,-34.6 546.1,-37.5 546.5,-32.4 
					546.2,-27.4 545.2,-22.4 543.5,-17.6 541.1,-13.1 538.1,-9 534.5,-5.4 530.4,-2.3 526,0.2 521.2,2 516.2,3 511.2,3.4 511.2,8.8 
					513.3,8.9 515.9,8.9 518.5,8.7 521.1,8.4 523.6,7.9 526.1,7.2 528.8,6.4 531.5,5.8 534.2,5.2 536.9,4.7 539.6,4.3 542.4,4 
					545.2,3.7 547.9,3.5 550.7,3.4 553.5,3.4 556.3,3.5 559,3.7 				"/>
			</g>
		</g>
	</g>
	<g>
		<g id="LINE_110_">
			<polygon class="st2" points="481,-0.6 483.3,-0.6 483.7,-0.6 484.1,-0.5 484.6,-0.5 485,-0.5 485.4,-0.4 485.8,-0.3 486.2,-0.2 
				486.7,-0.1 487.1,0 487.5,0.1 487.7,0.2 488.3,0.4 489.2,0.8 490,1.1 490.9,1.5 491.8,1.9 492.7,2.3 493.5,2.8 494.4,3.2 
				495.2,3.6 496.1,4.1 498.4,5.3 500.7,6.3 503.2,7.2 505.7,7.9 508.2,8.4 510.8,8.7 511.2,8.8 511.2,3.4 509.2,3.3 507.2,3 
				505.2,2.6 503.3,1.9 501.5,1.2 499.7,0.2 498,-0.9 496.4,-2.1 495,-3.5 493.7,-5 492.5,-6.6 491.4,-8.4 490.5,-10.2 489.6,-12 
				488.8,-13.9 488.1,-15.9 487.5,-17.8 486.9,-19.8 486.5,-21.8 486.1,-23.8 485.9,-25.9 485.7,-27.9 485.6,-30 485.6,-32 481,-32 
				476.4,-32 476.4,-30 476.3,-27.9 476.2,-25.9 475.9,-23.8 475.6,-21.8 475.1,-19.8 474.6,-17.8 474,-15.9 473.3,-13.9 472.5,-12 
				471.6,-10.2 470.6,-8.4 469.6,-6.6 468.4,-5 467.1,-3.5 465.6,-2.1 464,-0.9 462.4,0.2 460.6,1.2 458.7,1.9 456.8,2.6 454.9,3 
				452.9,3.3 450.9,3.4 450.9,8.8 451.3,8.7 453.9,8.4 456.4,7.9 458.9,7.2 461.3,6.3 463.7,5.3 466,4.1 466.8,3.6 467.7,3.2 
				468.5,2.8 469.4,2.3 470.3,1.9 471.1,1.5 472,1.1 472.9,0.8 473.8,0.4 474.4,0.2 474.6,0.1 475,0 475.4,-0.1 475.8,-0.2 
				476.2,-0.3 476.6,-0.4 477.1,-0.5 477.5,-0.5 477.9,-0.5 478.3,-0.6 478.8,-0.6 			"/>
		</g>
	</g>
	<g>
		<g>
			<g id="LINE_114_">
				<path class="st2" d="M596.5-112.7c-1,0.2-2,0.4-3,0.8c-1.4,0.6-1.7,0.5-1.3,1.9c0.4,1.5,0.8,3.1,1.2,4.6
					c0.7,3.2,1.2,6.5,1.4,9.8c0.5,6.4,0,12.9-0.9,19.3c-1.8,13-2.8,26.1-2.8,39.2c0,3.9,0.1,7.7,0.3,11.6c0,0.9-0.2,3.9,0.5,4.4
					c0.6,0.5,2.5,0.5,3.3,0.7c0.9,0.2,1.8,0.4,2.7,0.6c-1.5-6.1-1.2-12.5-1.1-18.7c0-5.9,0.2-11.8,0.5-17.7
					c0.3-6.3,0.8-12.6,1.4-18.9c0.6-5.8,1.3-11.5,1.1-17.3C599.7-99.5,598.6-106.2,596.5-112.7z"/>
			</g>
		</g>
		<g>
			<g id="LINE_113_">
				<path class="st2" d="M593.7-113.1c-0.5,0.2-1.6,0.6-2.1,0.4c-0.5-0.1-0.3-0.1-0.6-0.7c-0.5-0.9-0.8-1.8-1.4-2.7
					c-0.8-1.4-1.9-2.7-3-3.9c-2.6-2.6-5.9-4.4-9.4-5.2c-7.6-1.7-15.8,0-22.1,4.4c-6.1,4.2-10.5,11-13.8,17.5S536-89.8,535-82.7
					c-0.5,3.7-0.6,7.5-0.6,11.3c0,1.5,0,3.1,0,4.6c0,0.5,0.3,2.2,0,2.6s-2.1,0.7-2.6,0.9c-1.1,0.4-2.2,0.7-3.3,1.1
					c0.6-8,0.7-16.3,2.1-24.2c1.4-7.9,4.2-15.6,8.2-22.5c3.9-6.8,8.9-13.4,15.9-17.4c7.2-4.1,15.8-5.4,23.9-3.6
					c7.8,1.7,14.3,7.6,17.2,14.9c0.2,0.4,0.3,0.6,0.2,0.9C595.5-113.6,594.1-113.2,593.7-113.1z"/>
			</g>
		</g>
	</g>
	<g>
		<polyline class="st5" points="421.7,-43 426.2,-42.2 431.2,-40.8 436.1,-39 440.8,-36.8 443.1,-35.6 442.1,-34.2 440.3,-31.9 
			438.6,-29.5 436.9,-27.1 435.3,-24.7 433.8,-22.2 432.3,-19.7 430.9,-17.1 429.5,-14.5 428.2,-11.9 427,-9.3 426.4,-8 		"/>
		<g>
			<g>
				<line class="st6" x1="470.6" y1="-10.5" x2="470.3" y2="-11.1"/>
				<polyline class="st7" points="469.6,-12.3 468.9,-13.5 466,-17.9 462.7,-22.1 459,-26.1 455.1,-29.7 450.9,-33 446.4,-36 
					441.7,-38.6 436.9,-40.8 431.8,-42.7 426.7,-44.1 424.1,-44.6 				"/>
				<line class="st6" x1="423.5" y1="-44.7" x2="422.8" y2="-44.9"/>
			</g>
		</g>
		<polyline class="st5" points="427.9,-6.4 428.8,-8.5 430,-11.1 431.3,-13.6 432.6,-16.2 434,-18.7 435.5,-21.2 437,-23.6 
			438.6,-26 440.2,-28.4 441.9,-30.7 443.6,-33 444.9,-34.6 445.4,-34.3 449.7,-31.4 453.8,-28.2 457.6,-24.7 461.1,-20.8 
			464.4,-16.7 467.2,-12.4 469.5,-8.4 		"/>
	</g>
	<g>
		<path class="st8" d="M369.7-110.2c0.8-0.5,1.3-1.4,1.3-2.5c0-0.2,0-0.4-0.1-0.6"/>
		<path class="st8" d="M366.1-115.3c-0.9,0.5-1.4,1.5-1.4,2.6c0,0.3,0,0.5,0.1,0.8"/>
	</g>
	<g>
		<path class="st8" d="M592-110.2c-0.8-0.5-1.3-1.4-1.3-2.5c0-0.2,0-0.4,0.1-0.6"/>
		<path class="st8" d="M595.6-115.3c0.9,0.5,1.4,1.5,1.4,2.6c0,0.3,0,0.5-0.1,0.8"/>
	</g>
	<g>
		<path class="st0" d="M593-68.7h-0.4c-0.1,0-0.2-0.1-0.2-0.2l0.1-0.9c0-0.1,0.1-0.2,0.2-0.2l6.2,0.5c0.1,0,0.2,0.1,0.2,0.2
			l-0.1,0.9c0,0.1-0.1,0.2-0.2,0.2h-0.5"/>
		<path class="st0" d="M593.2-71.3h-0.4c-0.1,0-0.2,0.1-0.2,0.2l-0.1,0.9c0,0.1,0.1,0.2,0.2,0.2l6.2,0.5c0.1,0,0.2-0.1,0.2-0.2
			l0.1-0.9c0-0.1-0.1-0.2-0.2-0.2h-0.5"/>
	</g>
	<g>
		<path class="st0" d="M368.7-68.8h0.4c0.1,0,0.2-0.1,0.2-0.2l-0.1-0.9c0-0.1-0.1-0.2-0.2-0.2l-6.2,0.5c-0.1,0-0.2,0.1-0.2,0.2
			l0.1,0.9c0,0.1,0.1,0.2,0.2,0.2h0.5"/>
		<path class="st0" d="M368.6-71.3h0.4c0.1,0,0.2,0.1,0.2,0.2l0.1,0.9c0,0.1-0.1,0.2-0.2,0.2l-6.2,0.5c-0.1,0-0.2-0.1-0.2-0.2
			l-0.1-0.9c0-0.1,0.1-0.2,0.2-0.2h0.5"/>
	</g>
</g>
</svg>
