<?xml version="1.0" encoding="utf-8"?>
<!-- Generator: Adobe Illustrator 19.1.0, SVG Export Plug-In . SVG Version: 6.00 Build 0)  -->
<svg version="1.1" id="Bra_x5F_Master" onclick="notify(this, &quot;select&quot;);"
	 xmlns="http://www.w3.org/2000/svg" xmlns:xlink="http://www.w3.org/1999/xlink" x="0px" y="0px" viewBox="480 -196.4 336.1 145.5"
	 style="enable-background:new 480 -196.4 336.1 145.5;" xml:space="preserve">
<style type="text/css">
	.st0{opacity:0.8;}
	.st1{fill:#92278F;stroke:#000000;stroke-width:0.3763;stroke-linecap:round;stroke-linejoin:round;stroke-miterlimit:10;}
	.st2{fill:none;stroke:#000000;stroke-width:0.3763;stroke-linecap:round;stroke-linejoin:round;stroke-miterlimit:10;}
	.st3{fill:none;stroke:#000000;stroke-width:0.5669;stroke-miterlimit:10;}
	.st4{fill:none;stroke:#000000;stroke-width:1.2838;stroke-linecap:round;stroke-linejoin:round;stroke-miterlimit:10;}
	
		.st5{fill:none;stroke:#000000;stroke-width:0.377;stroke-linecap:round;stroke-linejoin:round;stroke-miterlimit:10;stroke-dasharray:1.4173;}
	.st6{fill:none;stroke:#000000;stroke-width:0.377;stroke-linecap:round;stroke-linejoin:round;}
	.st7{fill:none;stroke:#000000;stroke-width:0.377;stroke-linecap:round;stroke-linejoin:round;stroke-dasharray:1.3856,1.3856;}
	.st8{fill:none;stroke:#000000;stroke-width:0.6491;stroke-linecap:round;stroke-linejoin:round;stroke-miterlimit:10;}
	.st9{fill:none;stroke:#000000;stroke-width:0.5644;stroke-miterlimit:10;}
</style>
<g>
	<g id="LINE_10_" class="st0">
		<path class="st1" d="M528.1-178.6c0.5,0.2,1.6,0.6,2.1,0.4c0.5-0.1,0.3-0.1,0.6-0.7c0.5-0.9,0.8-1.8,1.4-2.7
			c0.8-1.4,1.9-2.7,3-3.9c2.6-2.6,5.9-4.4,9.4-5.2c7.6-1.7,15.8,0,22.1,4.4c6.1,4.2,10.5,11,13.8,17.5s5.3,13.5,6.3,20.6
			c0.5,3.7,0.6,7.5,0.6,11.3c0,1.5,0,3.1,0,4.6c0,0.5-0.3,2.2,0,2.6c0.3,0.4,2.1,0.7,2.6,0.9c1.1,0.4,2.2,0.7,3.3,1.1
			c-0.6-8-0.7-16.3-2.1-24.2c-1.4-7.9-4.2-15.6-8.2-22.5c-3.9-6.8-8.9-13.4-15.9-17.4c-7.1-4-15.6-5.3-23.7-3.5
			c-7.8,1.7-14.4,7.5-17.2,14.9c-0.2,0.4-0.3,0.6-0.2,0.9C526.2-179.1,527.6-178.7,528.1-178.6z"/>
	</g>
	<g id="LINE_13_" class="st0">
		<path class="st1" d="M756.5-178.2c-1,0.2-2,0.4-3,0.8c-1.4,0.6-1.7,0.5-1.3,1.9c0.4,1.5,0.8,3.1,1.2,4.6c0.7,3.2,1.2,6.5,1.4,9.8
			c0.5,6.4,0,12.9-0.9,19.3c-1.8,13-2.8,26.1-2.8,39.2c0,3.9,0.1,7.7,0.3,11.6c0,0.9-0.2,3.9,0.5,4.4c0.6,0.5,2.5,0.5,3.3,0.7
			c0.9,0.2,1.8,0.4,2.7,0.6c-1.5-6.1-1.2-12.5-1.1-18.7c0-5.9,0.2-11.8,0.5-17.7c0.3-6.3,0.8-12.6,1.4-18.9
			c0.6-5.8,1.3-11.5,1.1-17.3C759.7-165,758.6-171.7,756.5-178.2z"/>
	</g>
	<g id="LINE_12_" class="st0">
		<path class="st1" d="M753.7-178.6c-0.5,0.2-1.6,0.6-2.1,0.4c-0.5-0.1-0.3-0.1-0.6-0.7c-0.5-0.9-0.8-1.8-1.4-2.7
			c-0.8-1.4-1.9-2.7-3-3.9c-2.6-2.6-5.9-4.4-9.4-5.2c-7.6-1.7-15.8,0-22.1,4.4c-6.1,4.2-10.5,11-13.8,17.5s-5.3,13.5-6.3,20.6
			c-0.5,3.7-0.6,7.5-0.6,11.3c0,1.5,0,3.1,0,4.6c0,0.5,0.3,2.2,0,2.6c-0.3,0.4-2.1,0.7-2.6,0.9c-1.1,0.4-2.2,0.7-3.3,1.1
			c0.6-8,0.7-16.3,2.1-24.2c1.4-7.9,4.2-15.6,8.2-22.5c3.9-6.8,8.9-13.4,15.9-17.4c7.2-4.1,15.8-5.4,23.9-3.6
			c7.8,1.7,14.3,7.6,17.2,14.9c0.2,0.4,0.3,0.6,0.2,0.9C755.5-179.1,754.1-178.7,753.7-178.6z"/>
	</g>
	<g>
		<g>
			<g id="LINE_552_">
				<polygon class="st2" points="601.3,-103.2 596.5,-105.4 591.5,-107.2 586.4,-108.6 581.2,-109.6 583.3,-113.3 585,-117.2 
					586.2,-121.3 587.5,-129.7 592.2,-128.2 596.9,-126.5 601.4,-124.6 605.9,-122.4 610.2,-120 614.4,-117.4 618.5,-114.6 
					622.4,-111.5 626.2,-108.3 629.8,-104.9 633.2,-101.3 636.4,-97.5 636.4,-95.5 636.3,-93.4 636.2,-91.4 635.9,-89.3 
					635.6,-87.3 635.1,-85.3 634.6,-83.3 634,-81.4 633.3,-79.4 632.5,-77.5 631.6,-75.7 630.6,-73.9 628.1,-78.5 625.1,-82.9 
					621.9,-87 618.3,-90.9 614.4,-94.5 610.3,-97.7 605.9,-100.7 				"/>
			</g>
		</g>
		<g>
			<g id="LINE_550_">
				<polygon class="st2" points="575.8,-92.9 576.8,-87.9 578.6,-83.1 581,-78.6 584,-74.5 586.8,-71.7 587.9,-74.4 589.1,-77 
					590.4,-79.6 591.7,-82.1 593.1,-84.7 594.6,-87.2 596.1,-89.6 597.7,-92.1 599.4,-94.4 601.1,-96.8 602.8,-99.1 604.6,-101.3 
					601.3,-103.2 596.5,-105.4 591.5,-107.2 586.4,-108.6 581.2,-109.6 578.8,-106.2 576,-103 575.5,-97.9 				"/>
			</g>
		</g>
		<g>
			<g id="LINE_548_">
				<polygon class="st2" points="706.2,-92.9 705.2,-87.9 703.5,-83.1 701.1,-78.6 698.1,-74.5 694.5,-70.9 690.4,-67.8 686,-65.3 
					681.2,-63.5 676.2,-62.5 671.2,-62.1 669.2,-62.2 667.2,-62.5 665.2,-62.9 663.3,-63.6 661.5,-64.3 659.7,-65.3 658,-66.4 
					656.4,-67.6 655,-69 653.7,-70.5 652.5,-72.1 651.4,-73.9 650.5,-75.7 649.6,-77.5 648.8,-79.4 648.1,-81.4 647.5,-83.3 
					646.9,-85.3 646.5,-87.3 646.1,-89.3 645.9,-91.4 645.7,-93.4 645.6,-95.5 645.6,-97.5 648.9,-101.3 652.3,-104.9 655.9,-108.3 
					659.6,-111.5 663.6,-114.6 667.6,-117.4 671.8,-120 676.2,-122.4 680.6,-124.6 685.2,-126.5 689.9,-128.2 694.6,-129.7 
					695,-125.5 695.8,-121.3 697.1,-117.2 698.8,-113.3 700.8,-109.6 703.3,-106.2 706.1,-103 706.5,-97.9 				"/>
			</g>
		</g>
		<g>
			<g id="LINE_875_">
				<polygon class="st2" points="625.1,-82.9 621.9,-87 618.3,-90.9 614.4,-94.5 610.3,-97.7 605.9,-100.7 604.6,-101.3 
					602.8,-99.1 601.1,-96.8 599.4,-94.4 597.7,-92.1 596.1,-89.6 594.6,-87.2 593.1,-84.7 591.7,-82.1 590.4,-79.6 589.1,-77 
					587.9,-74.4 586.8,-71.7 587.6,-70.9 591.6,-67.8 596.1,-65.3 600.8,-63.5 605.8,-62.5 610.9,-62.1 612.9,-62.2 614.9,-62.5 
					616.8,-62.9 618.7,-63.6 620.6,-64.3 622.4,-65.3 624,-66.4 625.6,-67.6 627.1,-69 628.4,-70.5 629.6,-72.1 630.6,-73.9 
					628.1,-78.5 				"/>
			</g>
		</g>
	</g>
	<g>
		<g id="LINE_809_">
			<polyline class="st2" points="809.8,-74.6 803.7,-75.9 797.6,-77.1 793.6,-53.2 787.4,-53.9 791.5,-78.4 797.6,-77.1 
				803.7,-75.9 799.8,-52.5 806,-51.8 812.2,-51.1 815.9,-73.3 809.8,-74.6 806,-51.8 799.8,-52.5 793.6,-53.2 			"/>
		</g>
		<g>
			<path class="st3" d="M791.9-60.8l-2.9-0.5c-0.2,0-0.4,0.1-0.5,0.3l-0.3,1.7c0,0.2,0.1,0.4,0.3,0.5l2.9,0.5c0.2,0,0.4-0.1,0.5-0.3
				l0.3-1.7C792.3-60.6,792.1-60.8,791.9-60.8z"/>
			<path class="st3" d="M794.2-74l-2.9-0.5c-0.2,0-0.4,0.1-0.5,0.3l-0.3,1.7c0,0.2,0.1,0.4,0.3,0.5l2.9,0.5c0.2,0,0.4-0.1,0.5-0.3
				l0.3-1.7C794.6-73.8,794.4-74,794.2-74z"/>
		</g>
		<g>
			<path class="st3" d="M798.1-59.6l-2.9-0.5c-0.2,0-0.4,0.1-0.5,0.3l-0.3,1.7c0,0.2,0.1,0.4,0.3,0.5l2.9,0.5c0.2,0,0.4-0.1,0.5-0.3
				l0.3-1.7C798.5-59.3,798.4-59.5,798.1-59.6z"/>
			<path class="st3" d="M800.4-72.8l-2.9-0.5c-0.2,0-0.4,0.1-0.5,0.3l-0.3,1.7c0,0.2,0.1,0.4,0.3,0.5l2.9,0.5c0.2,0,0.4-0.1,0.5-0.3
				l0.3-1.7C800.8-72.6,800.6-72.8,800.4-72.8z"/>
		</g>
		<g>
			<path class="st3" d="M804.3-58.2l-2.9-0.5c-0.2,0-0.4,0.1-0.5,0.3l-0.3,1.7c0,0.2,0.1,0.4,0.3,0.5l2.9,0.5c0.2,0,0.4-0.1,0.5-0.3
				l0.3-1.7C804.7-58,804.6-58.2,804.3-58.2z"/>
			<path class="st3" d="M806.6-71.4l-2.9-0.5c-0.2,0-0.4,0.1-0.5,0.3l-0.3,1.7c0,0.2,0.1,0.4,0.3,0.5l2.9,0.5c0.2,0,0.4-0.1,0.5-0.3
				l0.3-1.7C807-71.2,806.8-71.4,806.6-71.4z"/>
		</g>
		<g>
			<path class="st3" d="M810.3-57.1l-2.9-0.5c-0.2,0-0.4,0.1-0.5,0.3l-0.3,1.7c0,0.2,0.1,0.4,0.3,0.5l2.9,0.5c0.2,0,0.4-0.1,0.5-0.3
				l0.3-1.7C810.7-56.9,810.5-57.1,810.3-57.1z"/>
			<path class="st3" d="M812.6-70.3l-2.9-0.5c-0.2,0-0.4,0.1-0.5,0.3l-0.3,1.7c0,0.2,0.1,0.4,0.3,0.5l2.9,0.5c0.2,0,0.4-0.1,0.5-0.3
				l0.3-1.7C812.9-70.1,812.8-70.3,812.6-70.3z"/>
		</g>
	</g>
	<g>
		<g id="LINE_805_">
			<polygon class="st2" points="488.4,-53.2 484.4,-77.1 490.5,-78.4 494.6,-53.9 			"/>
		</g>
		<line class="st4" x1="485.3" y1="-72.1" x2="480.6" y2="-71.2"/>
		<line class="st4" x1="487.4" y1="-59.2" x2="482.7" y2="-58.4"/>
	</g>
	<g>
		<g>
			<g id="LINE_544_">
				<path class="st2" d="M525-177.5c0.1-0.3,0.2-0.5,0.2-0.8c1,0.2,2,0.4,3,0.8c1.4,0.6,1.7,0.5,1.4,1.7"/>
				<path class="st2" d="M529.6-175.8c0,0.1,0,0.1-0.1,0.2c-0.4,1.5-0.8,3.1-1.2,4.6c-0.7,3.2-1.2,6.5-1.4,9.8
					c-0.5,6.4,0,12.9,0.9,19.3c1.8,13,2.8,26.1,2.8,39.2c0,3.9-0.1,7.7-0.3,11.6c0,0.9,0.2,3.9-0.5,4.4c-0.6,0.5-2.5,0.5-3.3,0.7
					c-0.9,0.2-1.8,0.4-2.7,0.6c1.5-6.1,1.2-12.5,1.1-18.7c0-5.9-0.2-11.8-0.5-17.7c-0.3-6.3-0.8-12.6-1.4-18.9
					c-0.6-5.8-1.3-11.5-1.1-17.3c0.2-6.6,1.2-13.3,3.1-19.5"/>
			</g>
		</g>
		<g>
			<g id="LINE_543_">
				<path class="st2" d="M528.1-178.6c0.5,0.2,1.6,0.6,2.1,0.4c0.5-0.1,0.3-0.1,0.6-0.7c0.5-0.9,0.8-1.8,1.4-2.7
					c0.8-1.4,1.9-2.7,3-3.9c2.6-2.6,5.9-4.4,9.4-5.2c7.6-1.7,15.8,0,22.1,4.4c6.1,4.2,10.5,11,13.8,17.5s5.3,13.5,6.3,20.6
					c0.5,3.7,0.6,7.5,0.6,11.3c0,1.5,0,3.1,0,4.6c0,0.5-0.3,2.2,0,2.6c0.3,0.4,2.1,0.7,2.6,0.9c1.1,0.4,2.2,0.7,3.3,1.1
					c-0.6-8-0.7-16.3-2.1-24.2c-1.4-7.9-4.2-15.6-8.2-22.5c-3.9-6.8-8.9-13.4-15.9-17.4c-7.1-4-15.6-5.3-23.7-3.5
					c-7.8,1.7-14.4,7.5-17.2,14.9c-0.2,0.4-0.3,0.6-0.2,0.9C526.2-179.1,527.6-178.7,528.1-178.6z"/>
			</g>
		</g>
	</g>
	<g>
		<g>
			<g id="LINE_555_">
				<polygon class="st2" points="563,-61.8 557.9,-92.3 490.5,-78.4 494.6,-53.9 				"/>
			</g>
		</g>
		<g>
			<g id="LINE_545_">
				<polygon class="st2" points="557.9,-92.3 561.9,-93.7 565.8,-95.4 569.4,-97.6 572.8,-100.1 576,-103 575.5,-97.9 575.8,-92.9 
					576.8,-87.9 578.6,-83.1 581,-78.6 584,-74.5 587.6,-70.9 591.6,-67.8 596.1,-65.3 600.8,-63.5 605.8,-62.5 610.9,-62.1 
					610.9,-56.7 608.7,-56.6 606.1,-56.6 603.6,-56.8 601,-57.1 598.5,-57.6 596,-58.3 593.3,-59.1 590.6,-59.7 587.9,-60.3 
					585.1,-60.8 582.4,-61.2 579.6,-61.5 576.9,-61.8 574.1,-62 571.3,-62.1 568.6,-62.1 565.8,-62 563,-61.8 				"/>
			</g>
		</g>
		<g>
			<g id="LINE_112_">
				<polygon class="st2" points="719,-61.8 724.2,-92.3 791.5,-78.4 787.4,-53.9 				"/>
			</g>
		</g>
		<g>
			<g id="LINE_111_">
				<polygon class="st2" points="724.2,-92.3 720.1,-93.7 716.3,-95.4 712.6,-97.6 709.2,-100.1 706.1,-103 706.5,-97.9 
					706.2,-92.9 705.2,-87.9 703.5,-83.1 701.1,-78.6 698.1,-74.5 694.5,-70.9 690.4,-67.8 686,-65.3 681.2,-63.5 676.2,-62.5 
					671.2,-62.1 671.2,-56.7 673.3,-56.6 675.9,-56.6 678.5,-56.8 681.1,-57.1 683.6,-57.6 686.1,-58.3 688.8,-59.1 691.5,-59.7 
					694.2,-60.3 696.9,-60.8 699.6,-61.2 702.4,-61.5 705.2,-61.8 707.9,-62 710.7,-62.1 713.5,-62.1 716.3,-62 719,-61.8 				"/>
			</g>
		</g>
	</g>
	<g>
		<g id="LINE_110_">
			<polygon class="st2" points="641,-66.1 643.3,-66.1 643.7,-66.1 644.1,-66 644.6,-66 645,-66 645.4,-65.9 645.8,-65.8 
				646.2,-65.7 646.7,-65.6 647.1,-65.5 647.5,-65.4 647.7,-65.3 648.3,-65.1 649.2,-64.7 650,-64.4 650.9,-64 651.8,-63.6 
				652.7,-63.2 653.5,-62.7 654.4,-62.3 655.2,-61.9 656.1,-61.4 658.4,-60.2 660.7,-59.2 663.2,-58.3 665.7,-57.6 668.2,-57.1 
				670.8,-56.8 671.2,-56.7 671.2,-62.1 669.2,-62.2 667.2,-62.5 665.2,-62.9 663.3,-63.6 661.5,-64.3 659.7,-65.3 658,-66.4 
				656.4,-67.6 655,-69 653.7,-70.5 652.5,-72.1 651.4,-73.9 650.5,-75.7 649.6,-77.5 648.8,-79.4 648.1,-81.4 647.5,-83.3 
				646.9,-85.3 646.5,-87.3 646.1,-89.3 645.9,-91.4 645.7,-93.4 645.6,-95.5 645.6,-97.5 641,-97.5 636.4,-97.5 636.4,-95.5 
				636.3,-93.4 636.2,-91.4 635.9,-89.3 635.6,-87.3 635.1,-85.3 634.6,-83.3 634,-81.4 633.3,-79.4 632.5,-77.5 631.6,-75.7 
				630.6,-73.9 629.6,-72.1 628.4,-70.5 627.1,-69 625.6,-67.6 624,-66.4 622.4,-65.3 620.6,-64.3 618.7,-63.6 616.8,-62.9 
				614.9,-62.5 612.9,-62.2 610.9,-62.1 610.9,-56.7 611.3,-56.8 613.9,-57.1 616.4,-57.6 618.9,-58.3 621.3,-59.2 623.7,-60.2 
				626,-61.4 626.8,-61.9 627.7,-62.3 628.5,-62.7 629.4,-63.2 630.3,-63.6 631.1,-64 632,-64.4 632.9,-64.7 633.8,-65.1 
				634.4,-65.3 634.6,-65.4 635,-65.5 635.4,-65.6 635.8,-65.7 636.2,-65.8 636.6,-65.9 637.1,-66 637.5,-66 637.9,-66 638.3,-66.1 
				638.8,-66.1 			"/>
		</g>
	</g>
	<g>
		<g>
			<g id="LINE_114_">
				<path class="st2" d="M756.5-178.2c-1,0.2-2,0.4-3,0.8c-1.4,0.6-1.7,0.5-1.3,1.9c0.4,1.5,0.8,3.1,1.2,4.6
					c0.7,3.2,1.2,6.5,1.4,9.8c0.5,6.4,0,12.9-0.9,19.3c-1.8,13-2.8,26.1-2.8,39.2c0,3.9,0.1,7.7,0.3,11.6c0,0.9-0.2,3.9,0.5,4.4
					c0.6,0.5,2.5,0.5,3.3,0.7c0.9,0.2,1.8,0.4,2.7,0.6c-1.5-6.1-1.2-12.5-1.1-18.7c0-5.9,0.2-11.8,0.5-17.7
					c0.3-6.3,0.8-12.6,1.4-18.9c0.6-5.8,1.3-11.5,1.1-17.3C759.7-165,758.6-171.7,756.5-178.2z"/>
			</g>
		</g>
		<g>
			<g id="LINE_113_">
				<path class="st2" d="M753.7-178.6c-0.5,0.2-1.6,0.6-2.1,0.4c-0.5-0.1-0.3-0.1-0.6-0.7c-0.5-0.9-0.8-1.8-1.4-2.7
					c-0.8-1.4-1.9-2.7-3-3.9c-2.6-2.6-5.9-4.4-9.4-5.2c-7.6-1.7-15.8,0-22.1,4.4c-6.1,4.2-10.5,11-13.8,17.5s-5.3,13.5-6.3,20.6
					c-0.5,3.7-0.6,7.5-0.6,11.3c0,1.5,0,3.1,0,4.6c0,0.5,0.3,2.2,0,2.6c-0.3,0.4-2.1,0.7-2.6,0.9c-1.1,0.4-2.2,0.7-3.3,1.1
					c0.6-8,0.7-16.3,2.1-24.2c1.4-7.9,4.2-15.6,8.2-22.5c3.9-6.8,8.9-13.4,15.9-17.4c7.2-4.1,15.8-5.4,23.9-3.6
					c7.8,1.7,14.3,7.6,17.2,14.9c0.2,0.4,0.3,0.6,0.2,0.9C755.5-179.1,754.1-178.7,753.7-178.6z"/>
			</g>
		</g>
	</g>
	<g>
		<polyline class="st5" points="581.7,-108.5 586.2,-107.7 591.2,-106.3 596.1,-104.5 600.8,-102.3 603.1,-101.1 602.1,-99.7 
			600.3,-97.4 598.6,-95 596.9,-92.6 595.3,-90.2 593.8,-87.7 592.3,-85.2 590.9,-82.6 589.5,-80 588.2,-77.4 587,-74.8 
			586.4,-73.5 		"/>
		<g>
			<g>
				<line class="st6" x1="630.6" y1="-76" x2="630.3" y2="-76.6"/>
				<polyline class="st7" points="629.6,-77.8 628.9,-79 626,-83.4 622.7,-87.6 619,-91.6 615.1,-95.2 610.9,-98.5 606.4,-101.5 
					601.7,-104.1 596.9,-106.3 591.8,-108.2 586.7,-109.6 584.1,-110.1 				"/>
				<line class="st6" x1="583.5" y1="-110.2" x2="582.8" y2="-110.4"/>
			</g>
		</g>
		<polyline class="st5" points="587.9,-71.9 588.8,-74 590,-76.6 591.3,-79.1 592.6,-81.7 594,-84.2 595.5,-86.7 597,-89.1 
			598.6,-91.5 600.2,-93.9 601.9,-96.2 603.6,-98.5 604.9,-100.1 605.4,-99.8 609.7,-96.9 613.8,-93.7 617.6,-90.2 621.1,-86.3 
			624.4,-82.2 627.2,-77.9 629.5,-73.9 		"/>
	</g>
	<path class="st8" d="M529.7-175.7c0.8-0.5,1.3-1.4,1.3-2.5c0-0.2,0-0.4-0.1-0.6"/>
	<path class="st8" d="M526.1-180.8c-0.9,0.5-1.4,1.5-1.4,2.6c0,0.3,0,0.5,0.1,0.8"/>
	<path class="st8" d="M752-175.7c-0.8-0.5-1.3-1.4-1.3-2.5c0-0.2,0-0.4,0.1-0.6"/>
	<path class="st8" d="M755.6-180.8c0.9,0.5,1.4,1.5,1.4,2.6c0,0.3,0,0.5-0.1,0.8"/>
</g>
<g id="LINE_11_" class="st0">
	<path class="st1" d="M529.6-175.9c0,0.1,0,0.1-0.1,0.2c-0.4,1.5-0.8,3.1-1.2,4.6c-0.7,3.2-1.2,6.5-1.4,9.8
		c-0.5,6.4,0,12.9,0.9,19.3c1.8,13,2.8,26.1,2.8,39.2c0,3.9-0.1,7.7-0.3,11.6c0,0.9,0.2,3.9-0.5,4.4c-0.6,0.5-2.5,0.5-3.3,0.7
		c-0.9,0.2-1.8,0.4-2.7,0.6c1.5-6.1,1.2-12.5,1.1-18.7c0-5.9-0.2-11.8-0.5-17.7c-0.3-6.3-0.8-12.6-1.4-18.9
		c-0.6-5.8-1.3-11.5-1.1-17.3c0.2-6.6,1.2-13.4,3.1-19.7"/>
	<path class="st1" d="M525-177.5c0.1-0.3,0.2-0.5,0.2-0.8c1,0.2,2,0.4,3,0.8c1.4,0.6,1.7,0.5,1.4,1.7"/>
</g>
<g>
	<path class="st9" d="M753-134.2h-0.4c-0.1,0-0.2-0.1-0.2-0.2l0.1-0.9c0-0.1,0.1-0.2,0.2-0.2l6.2,0.5c0.1,0,0.2,0.1,0.2,0.2
		l-0.1,0.9c0,0.1-0.1,0.2-0.2,0.2h-0.5"/>
	<path class="st9" d="M753.2-136.8h-0.4c-0.1,0-0.2,0.1-0.2,0.2l-0.1,0.9c0,0.1,0.1,0.2,0.2,0.2l6.2,0.5c0.1,0,0.2-0.1,0.2-0.2
		l0.1-0.9c0-0.1-0.1-0.2-0.2-0.2h-0.5"/>
</g>
<g>
	<path class="st9" d="M528.7-134.3h0.4c0.1,0,0.2-0.1,0.2-0.2l-0.1-0.9c0-0.1-0.1-0.2-0.2-0.2l-6.2,0.5c-0.1,0-0.2,0.1-0.2,0.2
		l0.1,0.9c0,0.1,0.1,0.2,0.2,0.2h0.5"/>
	<path class="st9" d="M528.6-136.8h0.4c0.1,0,0.2,0.1,0.2,0.2l0.1,0.9c0,0.1-0.1,0.2-0.2,0.2l-6.2,0.5c-0.1,0-0.2-0.1-0.2-0.2
		l-0.1-0.9c0-0.1,0.1-0.2,0.2-0.2h0.5"/>
</g>
</svg>
