<?xml version="1.0" encoding="utf-8"?>
<!-- Generator: Adobe Illustrator 19.1.0, SVG Export Plug-In . SVG Version: 6.00 Build 0)  -->
<svg version="1.1" id="Bra_x5F_Master" onclick="notify(this, &quot;select&quot;);"
	 xmlns="http://www.w3.org/2000/svg" xmlns:xlink="http://www.w3.org/1999/xlink" x="0px" y="0px" viewBox="640 -261.8 336.1 145.5"
	 style="enable-background:new 640 -261.8 336.1 145.5;" xml:space="preserve">
<style type="text/css">
	.st0{opacity:0.8;}
	.st1{fill:#92278F;stroke:#000000;stroke-width:0.3763;stroke-linecap:round;stroke-linejoin:round;stroke-miterlimit:10;}
	.st2{fill:none;stroke:#000000;stroke-width:0.3763;stroke-linecap:round;stroke-linejoin:round;stroke-miterlimit:10;}
	.st3{fill:none;stroke:#000000;stroke-width:0.5669;stroke-miterlimit:10;}
	.st4{fill:none;stroke:#000000;stroke-width:1.2838;stroke-linecap:round;stroke-linejoin:round;stroke-miterlimit:10;}
	
		.st5{fill:none;stroke:#000000;stroke-width:0.377;stroke-linecap:round;stroke-linejoin:round;stroke-miterlimit:10;stroke-dasharray:1.4173;}
	.st6{fill:none;stroke:#000000;stroke-width:0.377;stroke-linecap:round;stroke-linejoin:round;}
	.st7{fill:none;stroke:#000000;stroke-width:0.377;stroke-linecap:round;stroke-linejoin:round;stroke-dasharray:1.3856,1.3856;}
	.st8{fill:none;stroke:#000000;stroke-width:0.6491;stroke-linecap:round;stroke-linejoin:round;stroke-miterlimit:10;}
	.st9{fill:none;stroke:#000000;stroke-width:0.5644;stroke-miterlimit:10;}
</style>
<g class="st0">
	<g id="LINE_9_">
		<polygon class="st1" points="801,-131.5 803.3,-131.5 803.7,-131.5 804.1,-131.4 804.6,-131.4 805,-131.4 805.4,-131.3 
			805.8,-131.2 806.2,-131.1 806.7,-131 807.1,-130.9 807.5,-130.8 807.7,-130.7 808.3,-130.5 809.2,-130.1 810,-129.8 
			810.9,-129.4 811.8,-129 812.7,-128.6 813.5,-128.1 814.4,-127.7 815.2,-127.3 816.1,-126.8 818.4,-125.6 820.7,-124.6 
			823.2,-123.7 825.7,-123 828.2,-122.5 830.8,-122.2 831.2,-122.1 831.2,-127.5 829.2,-127.6 827.2,-127.9 825.2,-128.3 
			823.3,-128.9 821.5,-129.7 819.7,-130.7 818,-131.8 816.4,-133 815,-134.4 813.7,-135.9 812.5,-137.5 811.4,-139.2 810.5,-141.1 
			809.6,-142.9 808.8,-144.8 808.1,-146.8 807.5,-148.7 806.9,-150.7 806.5,-152.7 806.1,-154.7 805.9,-156.8 805.7,-158.8 
			805.6,-160.9 805.6,-162.9 801,-162.9 796.4,-162.9 796.4,-160.9 796.3,-158.8 796.2,-156.8 795.9,-154.7 795.6,-152.7 
			795.1,-150.7 794.6,-148.7 794,-146.8 793.3,-144.8 792.5,-142.9 791.6,-141.1 790.6,-139.2 789.6,-137.5 788.4,-135.9 
			787.1,-134.4 785.6,-133 784,-131.8 782.4,-130.7 780.6,-129.7 778.7,-128.9 776.8,-128.3 774.9,-127.9 772.9,-127.6 
			770.9,-127.5 770.9,-122.1 771.3,-122.2 773.9,-122.5 776.4,-123 778.9,-123.7 781.3,-124.6 783.7,-125.6 786,-126.8 
			786.8,-127.3 787.7,-127.7 788.5,-128.1 789.4,-128.6 790.3,-129 791.1,-129.4 792,-129.8 792.9,-130.1 793.8,-130.5 
			794.4,-130.7 794.6,-130.8 795,-130.9 795.4,-131 795.8,-131.1 796.2,-131.2 796.6,-131.3 797.1,-131.4 797.5,-131.4 
			797.9,-131.4 798.3,-131.5 798.8,-131.5 		"/>
	</g>
</g>
<g class="st0">
	<g id="LINE_19_">
		<polygon class="st1" points="723,-127.2 717.9,-157.7 650.5,-143.8 654.6,-119.3 		"/>
	</g>
</g>
<g class="st0">
	<g id="LINE_18_">
		<polygon class="st1" points="717.9,-157.7 721.9,-159.1 725.8,-160.8 729.4,-163 732.8,-165.5 736,-168.4 735.5,-163.3 
			735.8,-158.2 736.8,-153.3 738.6,-148.5 741,-144 744,-139.9 747.6,-136.3 751.6,-133.2 756.1,-130.7 760.8,-128.9 765.8,-127.8 
			770.9,-127.5 770.9,-122.1 768.7,-122 766.1,-122 763.6,-122.2 761,-122.5 758.5,-123 756,-123.7 753.3,-124.5 750.6,-125.1 
			747.9,-125.7 745.1,-126.2 742.4,-126.6 739.6,-126.9 736.9,-127.2 734.1,-127.4 731.3,-127.4 728.6,-127.5 725.8,-127.4 
			723,-127.2 		"/>
	</g>
</g>
<g class="st0">
	<g id="LINE_17_">
		<polygon class="st1" points="879,-127.2 884.2,-157.7 951.5,-143.8 947.4,-119.3 		"/>
	</g>
</g>
<g class="st0">
	<g id="LINE_15_">
		<polygon class="st1" points="884.2,-157.7 880.1,-159.1 876.3,-160.8 872.6,-163 869.2,-165.5 866.1,-168.4 866.5,-163.3 
			866.2,-158.2 865.2,-153.3 863.5,-148.5 861.1,-144 858.1,-139.9 854.5,-136.3 850.4,-133.2 846,-130.7 841.2,-128.9 
			836.2,-127.8 831.2,-127.5 831.2,-122.1 833.3,-122 835.9,-122 838.5,-122.2 841.1,-122.5 843.6,-123 846.1,-123.7 848.8,-124.5 
			851.5,-125.1 854.2,-125.7 856.9,-126.2 859.6,-126.6 862.4,-126.9 865.2,-127.2 867.9,-127.4 870.7,-127.4 873.5,-127.5 
			876.3,-127.4 879,-127.2 		"/>
	</g>
</g>
<g>
	<g>
		<g>
			<g id="LINE_552_">
				<polygon class="st2" points="761.3,-168.6 756.5,-170.8 751.5,-172.6 746.4,-174 741.2,-175 743.3,-178.7 745,-182.6 
					746.2,-186.7 747.5,-195.1 752.2,-193.6 756.9,-191.9 761.4,-190 765.9,-187.8 770.2,-185.4 774.4,-182.8 778.5,-180 
					782.4,-176.9 786.2,-173.7 789.8,-170.3 793.2,-166.7 796.4,-162.9 796.4,-160.9 796.3,-158.8 796.2,-156.8 795.9,-154.7 
					795.6,-152.7 795.1,-150.7 794.6,-148.7 794,-146.8 793.3,-144.8 792.5,-142.9 791.6,-141.1 790.6,-139.3 788.1,-143.9 
					785.1,-148.3 781.9,-152.4 778.3,-156.3 774.4,-159.9 770.3,-163.1 765.9,-166.1 				"/>
			</g>
		</g>
		<g>
			<g id="LINE_550_">
				<polygon class="st2" points="735.8,-158.3 736.8,-153.3 738.6,-148.5 741,-144 744,-139.9 746.8,-137.1 747.9,-139.8 
					749.1,-142.4 750.4,-145 751.7,-147.5 753.1,-150.1 754.6,-152.6 756.1,-155 757.7,-157.5 759.4,-159.8 761.1,-162.2 
					762.8,-164.5 764.6,-166.7 761.3,-168.6 756.5,-170.8 751.5,-172.6 746.4,-174 741.2,-175 738.8,-171.6 736,-168.4 
					735.5,-163.3 				"/>
			</g>
		</g>
		<g>
			<g id="LINE_548_">
				<polygon class="st2" points="866.2,-158.3 865.2,-153.3 863.5,-148.5 861.1,-144 858.1,-139.9 854.5,-136.3 850.4,-133.2 
					846,-130.7 841.2,-128.9 836.2,-127.9 831.2,-127.5 829.2,-127.6 827.2,-127.9 825.2,-128.3 823.3,-129 821.5,-129.7 
					819.7,-130.7 818,-131.8 816.4,-133 815,-134.4 813.7,-135.9 812.5,-137.5 811.4,-139.3 810.5,-141.1 809.6,-142.9 
					808.8,-144.8 808.1,-146.8 807.5,-148.7 806.9,-150.7 806.5,-152.7 806.1,-154.7 805.9,-156.8 805.7,-158.8 805.6,-160.9 
					805.6,-162.9 808.9,-166.7 812.3,-170.3 815.9,-173.7 819.6,-176.9 823.6,-180 827.6,-182.8 831.8,-185.4 836.2,-187.8 
					840.6,-190 845.2,-191.9 849.9,-193.6 854.6,-195.1 855,-190.9 855.8,-186.7 857.1,-182.6 858.8,-178.7 860.8,-175 
					863.3,-171.6 866.1,-168.4 866.5,-163.3 				"/>
			</g>
		</g>
		<g>
			<g id="LINE_875_">
				<polygon class="st2" points="785.1,-148.3 781.9,-152.4 778.3,-156.3 774.4,-159.9 770.3,-163.1 765.9,-166.1 764.6,-166.7 
					762.8,-164.5 761.1,-162.2 759.4,-159.8 757.7,-157.5 756.1,-155 754.6,-152.6 753.1,-150.1 751.7,-147.5 750.4,-145 
					749.1,-142.4 747.9,-139.8 746.8,-137.1 747.6,-136.3 751.6,-133.2 756.1,-130.7 760.8,-128.9 765.8,-127.9 770.9,-127.5 
					772.9,-127.6 774.9,-127.9 776.8,-128.3 778.7,-129 780.6,-129.7 782.4,-130.7 784,-131.8 785.6,-133 787.1,-134.4 
					788.4,-135.9 789.6,-137.5 790.6,-139.3 788.1,-143.9 				"/>
			</g>
		</g>
	</g>
	<g>
		<g id="LINE_809_">
			<polyline class="st2" points="969.8,-140 963.7,-141.3 957.6,-142.5 953.6,-118.6 947.4,-119.3 951.5,-143.8 957.6,-142.5 
				963.7,-141.3 959.8,-117.9 966,-117.2 972.2,-116.5 975.9,-138.7 969.8,-140 966,-117.2 959.8,-117.9 953.6,-118.6 			"/>
		</g>
		<g>
			<path class="st3" d="M951.9-126.2l-2.9-0.5c-0.2,0-0.4,0.1-0.5,0.3l-0.3,1.7c0,0.2,0.1,0.4,0.3,0.5l2.9,0.5
				c0.2,0,0.4-0.1,0.5-0.3l0.3-1.7C952.3-126,952.1-126.2,951.9-126.2z"/>
			<path class="st3" d="M954.2-139.4l-2.9-0.5c-0.2,0-0.4,0.1-0.5,0.3l-0.3,1.7c0,0.2,0.1,0.4,0.3,0.5l2.9,0.5
				c0.2,0,0.4-0.1,0.5-0.3l0.3-1.7C954.6-139.2,954.4-139.4,954.2-139.4z"/>
		</g>
		<g>
			<path class="st3" d="M958.1-125l-2.9-0.5c-0.2,0-0.4,0.1-0.5,0.3l-0.3,1.7c0,0.2,0.1,0.4,0.3,0.5l2.9,0.5c0.2,0,0.4-0.1,0.5-0.3
				l0.3-1.7C958.5-124.7,958.4-124.9,958.1-125z"/>
			<path class="st3" d="M960.4-138.2l-2.9-0.5c-0.2,0-0.4,0.1-0.5,0.3l-0.3,1.7c0,0.2,0.1,0.4,0.3,0.5l2.9,0.5
				c0.2,0,0.4-0.1,0.5-0.3l0.3-1.7C960.8-138,960.6-138.2,960.4-138.2z"/>
		</g>
		<g>
			<path class="st3" d="M964.3-123.6l-2.9-0.5c-0.2,0-0.4,0.1-0.5,0.3l-0.3,1.7c0,0.2,0.1,0.4,0.3,0.5l2.9,0.5
				c0.2,0,0.4-0.1,0.5-0.3l0.3-1.7C964.7-123.4,964.6-123.6,964.3-123.6z"/>
			<path class="st3" d="M966.6-136.8l-2.9-0.5c-0.2,0-0.4,0.1-0.5,0.3l-0.3,1.7c0,0.2,0.1,0.4,0.3,0.5l2.9,0.5
				c0.2,0,0.4-0.1,0.5-0.3l0.3-1.7C967-136.6,966.8-136.8,966.6-136.8z"/>
		</g>
		<g>
			<path class="st3" d="M970.3-122.5l-2.9-0.5c-0.2,0-0.4,0.1-0.5,0.3l-0.3,1.7c0,0.2,0.1,0.4,0.3,0.5l2.9,0.5
				c0.2,0,0.4-0.1,0.5-0.3l0.3-1.7C970.7-122.3,970.5-122.5,970.3-122.5z"/>
			<path class="st3" d="M972.6-135.7l-2.9-0.5c-0.2,0-0.4,0.1-0.5,0.3l-0.3,1.7c0,0.2,0.1,0.4,0.3,0.5l2.9,0.5
				c0.2,0,0.4-0.1,0.5-0.3l0.3-1.7C972.9-135.5,972.8-135.7,972.6-135.7z"/>
		</g>
	</g>
	<g>
		<g id="LINE_805_">
			<polygon class="st2" points="648.4,-118.6 644.4,-142.5 650.5,-143.8 654.6,-119.3 			"/>
		</g>
		<line class="st4" x1="645.3" y1="-137.5" x2="640.6" y2="-136.6"/>
		<line class="st4" x1="647.4" y1="-124.6" x2="642.7" y2="-123.8"/>
	</g>
	<g>
		<g>
			<g id="LINE_544_">
				<path class="st2" d="M685-242.9c0.1-0.3,0.2-0.5,0.2-0.8c1,0.2,2,0.4,3,0.8c1.4,0.6,1.7,0.5,1.4,1.7"/>
				<path class="st2" d="M689.6-241.2c0,0.1,0,0.1-0.1,0.2c-0.4,1.5-0.8,3.1-1.2,4.6c-0.7,3.2-1.2,6.5-1.4,9.8
					c-0.5,6.4,0,12.9,0.9,19.3c1.8,13,2.8,26.1,2.8,39.2c0,3.9-0.1,7.7-0.3,11.6c0,0.9,0.2,3.9-0.5,4.4c-0.6,0.5-2.5,0.5-3.3,0.7
					c-0.9,0.2-1.8,0.4-2.7,0.6c1.5-6.1,1.2-12.5,1.1-18.7c0-5.9-0.2-11.8-0.5-17.7c-0.3-6.3-0.8-12.6-1.4-18.9
					c-0.6-5.8-1.3-11.5-1.1-17.3c0.2-6.6,1.3-13,3.2-19.3"/>
			</g>
		</g>
		<g>
			<g id="LINE_543_">
				<path class="st2" d="M688.1-244c0.5,0.2,1.6,0.6,2.1,0.4c0.5-0.1,0.3-0.1,0.6-0.7c0.5-0.9,0.8-1.8,1.4-2.7
					c0.8-1.4,1.9-2.7,3-3.9c2.6-2.6,5.9-4.4,9.4-5.2c7.6-1.7,15.8,0,22.1,4.4c6.1,4.2,10.5,11,13.8,17.5s5.3,13.5,6.3,20.6
					c0.5,3.7,0.6,7.5,0.6,11.3c0,1.5,0,3.1,0,4.6c0,0.5-0.3,2.2,0,2.6c0.3,0.4,2.1,0.7,2.6,0.9c1.1,0.4,2.2,0.7,3.3,1.1
					c-0.6-8-0.7-16.3-2.1-24.2c-1.4-7.9-4.2-15.6-8.2-22.5c-3.9-6.8-8.9-13.4-15.9-17.4c-7.1-4-15.6-5.3-23.7-3.5
					c-7.8,1.7-14.4,7.5-17.2,14.9c-0.2,0.4-0.3,0.6-0.2,0.9C686.2-244.5,687.6-244.1,688.1-244z"/>
			</g>
		</g>
	</g>
	<g>
		<g>
			<g id="LINE_555_">
				<polygon class="st2" points="723,-127.2 717.9,-157.7 650.5,-143.8 654.6,-119.3 				"/>
			</g>
		</g>
		<g>
			<g id="LINE_545_">
				<polygon class="st2" points="717.9,-157.7 721.9,-159.1 725.8,-160.8 729.4,-163 732.8,-165.5 736,-168.4 735.5,-163.3 
					735.8,-158.3 736.8,-153.3 738.6,-148.5 741,-144 744,-139.9 747.6,-136.3 751.6,-133.2 756.1,-130.7 760.8,-128.9 
					765.8,-127.9 770.9,-127.5 770.9,-122.1 768.7,-122 766.1,-122 763.6,-122.2 761,-122.5 758.5,-123 756,-123.7 753.3,-124.5 
					750.6,-125.1 747.9,-125.7 745.1,-126.2 742.4,-126.6 739.6,-126.9 736.9,-127.2 734.1,-127.4 731.3,-127.5 728.6,-127.5 
					725.8,-127.4 723,-127.2 				"/>
			</g>
		</g>
		<g>
			<g id="LINE_112_">
				<polygon class="st2" points="879,-127.2 884.2,-157.7 951.5,-143.8 947.4,-119.3 				"/>
			</g>
		</g>
		<g>
			<g id="LINE_111_">
				<polygon class="st2" points="884.2,-157.7 880.1,-159.1 876.3,-160.8 872.6,-163 869.2,-165.5 866.1,-168.4 866.5,-163.3 
					866.2,-158.3 865.2,-153.3 863.5,-148.5 861.1,-144 858.1,-139.9 854.5,-136.3 850.4,-133.2 846,-130.7 841.2,-128.9 
					836.2,-127.9 831.2,-127.5 831.2,-122.1 833.3,-122 835.9,-122 838.5,-122.2 841.1,-122.5 843.6,-123 846.1,-123.7 
					848.8,-124.5 851.5,-125.1 854.2,-125.7 856.9,-126.2 859.6,-126.6 862.4,-126.9 865.2,-127.2 867.9,-127.4 870.7,-127.5 
					873.5,-127.5 876.3,-127.4 879,-127.2 				"/>
			</g>
		</g>
	</g>
	<g>
		<g id="LINE_110_">
			<polygon class="st2" points="801,-131.5 803.3,-131.5 803.7,-131.5 804.1,-131.4 804.6,-131.4 805,-131.4 805.4,-131.3 
				805.8,-131.2 806.2,-131.1 806.7,-131 807.1,-130.9 807.5,-130.8 807.7,-130.7 808.3,-130.5 809.2,-130.1 810,-129.8 
				810.9,-129.4 811.8,-129 812.7,-128.6 813.5,-128.1 814.4,-127.7 815.2,-127.3 816.1,-126.8 818.4,-125.6 820.7,-124.6 
				823.2,-123.7 825.7,-123 828.2,-122.5 830.8,-122.2 831.2,-122.1 831.2,-127.5 829.2,-127.6 827.2,-127.9 825.2,-128.3 
				823.3,-129 821.5,-129.7 819.7,-130.7 818,-131.8 816.4,-133 815,-134.4 813.7,-135.9 812.5,-137.5 811.4,-139.3 810.5,-141.1 
				809.6,-142.9 808.8,-144.8 808.1,-146.8 807.5,-148.7 806.9,-150.7 806.5,-152.7 806.1,-154.7 805.9,-156.8 805.7,-158.8 
				805.6,-160.9 805.6,-162.9 801,-162.9 796.4,-162.9 796.4,-160.9 796.3,-158.8 796.2,-156.8 795.9,-154.7 795.6,-152.7 
				795.1,-150.7 794.6,-148.7 794,-146.8 793.3,-144.8 792.5,-142.9 791.6,-141.1 790.6,-139.3 789.6,-137.5 788.4,-135.9 
				787.1,-134.4 785.6,-133 784,-131.8 782.4,-130.7 780.6,-129.7 778.7,-129 776.8,-128.3 774.9,-127.9 772.9,-127.6 770.9,-127.5 
				770.9,-122.1 771.3,-122.2 773.9,-122.5 776.4,-123 778.9,-123.7 781.3,-124.6 783.7,-125.6 786,-126.8 786.8,-127.3 
				787.7,-127.7 788.5,-128.1 789.4,-128.6 790.3,-129 791.1,-129.4 792,-129.8 792.9,-130.1 793.8,-130.5 794.4,-130.7 
				794.6,-130.8 795,-130.9 795.4,-131 795.8,-131.1 796.2,-131.2 796.6,-131.3 797.1,-131.4 797.5,-131.4 797.9,-131.4 
				798.3,-131.5 798.8,-131.5 			"/>
		</g>
	</g>
	<g>
		<g>
			<g id="LINE_114_">
				<path class="st2" d="M916.5-243.6c-1,0.2-2,0.4-3,0.8c-1.4,0.6-1.7,0.5-1.3,1.9c0.4,1.5,0.8,3.1,1.2,4.6
					c0.7,3.2,1.2,6.5,1.4,9.8c0.5,6.4,0,12.9-0.9,19.3c-1.8,13-2.8,26.1-2.8,39.2c0,3.9,0.1,7.7,0.3,11.6c0,0.9-0.2,3.9,0.5,4.4
					c0.6,0.5,2.5,0.5,3.3,0.7c0.9,0.2,1.8,0.4,2.7,0.6c-1.5-6.1-1.2-12.5-1.1-18.7c0-5.9,0.2-11.8,0.5-17.7
					c0.3-6.3,0.8-12.6,1.4-18.9c0.6-5.8,1.3-11.5,1.1-17.3C919.7-230.4,918.6-237.1,916.5-243.6z"/>
			</g>
		</g>
		<g>
			<g id="LINE_113_">
				<path class="st2" d="M913.7-244c-0.5,0.2-1.6,0.6-2.1,0.4c-0.5-0.1-0.3-0.1-0.6-0.7c-0.5-0.9-0.8-1.8-1.4-2.7
					c-0.8-1.4-1.9-2.7-3-3.9c-2.6-2.6-5.9-4.4-9.4-5.2c-7.6-1.7-15.8,0-22.1,4.4c-6.1,4.2-10.5,11-13.8,17.5s-5.3,13.5-6.3,20.6
					c-0.5,3.7-0.6,7.5-0.6,11.3c0,1.5,0,3.1,0,4.6c0,0.5,0.3,2.2,0,2.6c-0.3,0.4-2.1,0.7-2.6,0.9c-1.1,0.4-2.2,0.7-3.3,1.1
					c0.6-8,0.7-16.3,2.1-24.2s4.2-15.6,8.2-22.5c3.9-6.8,8.9-13.4,15.9-17.4c7.2-4.1,15.8-5.4,23.9-3.6c7.8,1.7,14.3,7.6,17.2,14.9
					c0.2,0.4,0.3,0.6,0.2,0.9C915.5-244.5,914.1-244.1,913.7-244z"/>
			</g>
		</g>
	</g>
	<g>
		<polyline class="st5" points="741.7,-173.9 746.2,-173.1 751.2,-171.7 756.1,-169.9 760.8,-167.7 763.1,-166.5 762.1,-165.1 
			760.3,-162.8 758.6,-160.4 756.9,-158 755.3,-155.6 753.8,-153.1 752.3,-150.6 750.9,-148 749.5,-145.4 748.2,-142.8 747,-140.2 
			746.4,-138.9 		"/>
		<g>
			<g>
				<line class="st6" x1="790.6" y1="-141.4" x2="790.3" y2="-142"/>
				<polyline class="st7" points="789.6,-143.2 788.9,-144.4 786,-148.8 782.7,-153 779,-157 775.1,-160.6 770.9,-163.9 
					766.4,-166.9 761.7,-169.5 756.9,-171.7 751.8,-173.6 746.7,-175 744.1,-175.5 				"/>
				<line class="st6" x1="743.5" y1="-175.6" x2="742.8" y2="-175.8"/>
			</g>
		</g>
		<polyline class="st5" points="747.9,-137.3 748.8,-139.4 750,-142 751.3,-144.5 752.6,-147.1 754,-149.6 755.5,-152.1 757,-154.5 
			758.6,-156.9 760.2,-159.3 761.9,-161.6 763.6,-163.9 764.9,-165.5 765.4,-165.2 769.7,-162.3 773.8,-159.1 777.6,-155.6 
			781.1,-151.7 784.4,-147.6 787.2,-143.3 789.5,-139.3 		"/>
	</g>
	<g>
		<path class="st8" d="M689.7-241.1c0.8-0.5,1.3-1.4,1.3-2.5c0-0.2,0-0.4-0.1-0.6"/>
		<path class="st8" d="M686.1-246.2c-0.9,0.5-1.4,1.5-1.4,2.6c0,0.3,0,0.5,0.1,0.8"/>
	</g>
	<g>
		<path class="st8" d="M912-241.1c-0.8-0.5-1.3-1.4-1.3-2.5c0-0.2,0-0.4,0.1-0.6"/>
		<path class="st8" d="M915.6-246.2c0.9,0.5,1.4,1.5,1.4,2.6c0,0.3,0,0.5-0.1,0.8"/>
	</g>
	<g>
		<path class="st9" d="M913-199.6h-0.4c-0.1,0-0.2-0.1-0.2-0.2l0.1-0.9c0-0.1,0.1-0.2,0.2-0.2l6.2,0.5c0.1,0,0.2,0.1,0.2,0.2
			l-0.1,0.9c0,0.1-0.1,0.2-0.2,0.2h-0.5"/>
		<path class="st9" d="M913.2-202.2h-0.4c-0.1,0-0.2,0.1-0.2,0.2l-0.1,0.9c0,0.1,0.1,0.2,0.2,0.2l6.2,0.5c0.1,0,0.2-0.1,0.2-0.2
			l0.1-0.9c0-0.1-0.1-0.2-0.2-0.2h-0.5"/>
	</g>
	<g>
		<path class="st9" d="M688.7-199.7h0.4c0.1,0,0.2-0.1,0.2-0.2l-0.1-0.9c0-0.1-0.1-0.2-0.2-0.2l-6.2,0.5c-0.1,0-0.2,0.1-0.2,0.2
			l0.1,0.9c0,0.1,0.1,0.2,0.2,0.2h0.5"/>
		<path class="st9" d="M688.6-202.2h0.4c0.1,0,0.2,0.1,0.2,0.2l0.1,0.9c0,0.1-0.1,0.2-0.2,0.2l-6.2,0.5c-0.1,0-0.2-0.1-0.2-0.2
			l-0.1-0.9c0-0.1,0.1-0.2,0.2-0.2h0.5"/>
	</g>
</g>
</svg>
