<?xml version="1.0" encoding="utf-8"?>
<!-- Generator: Adobe Illustrator 19.1.0, SVG Export Plug-In . SVG Version: 6.00 Build 0)  -->
<svg version="1.1" id="Bra_x5F_Master" onclick="notify(this, &quot;select&quot;);"
	 xmlns="http://www.w3.org/2000/svg" xmlns:xlink="http://www.w3.org/1999/xlink" x="0px" y="0px" viewBox="800 -327.3 336.1 145.5"
	 style="enable-background:new 800 -327.3 336.1 145.5;" xml:space="preserve">
<style type="text/css">
	
		.st0{opacity:0.8;fill:#92278F;stroke:#000000;stroke-width:0.3763;stroke-linecap:round;stroke-linejoin:round;stroke-miterlimit:10;enable-background:new    ;}
	.st1{fill:none;stroke:#000000;stroke-width:0.3763;stroke-linecap:round;stroke-linejoin:round;stroke-miterlimit:10;}
	.st2{fill:none;stroke:#000000;stroke-width:0.5669;stroke-miterlimit:10;}
	.st3{fill:none;stroke:#000000;stroke-width:1.2838;stroke-linecap:round;stroke-linejoin:round;stroke-miterlimit:10;}
	
		.st4{fill:none;stroke:#000000;stroke-width:0.377;stroke-linecap:round;stroke-linejoin:round;stroke-miterlimit:10;stroke-dasharray:1.4173;}
	.st5{fill:none;stroke:#000000;stroke-width:0.377;stroke-linecap:round;stroke-linejoin:round;}
	.st6{fill:none;stroke:#000000;stroke-width:0.377;stroke-linecap:round;stroke-linejoin:round;stroke-dasharray:1.3856,1.3856;}
	.st7{fill:none;stroke:#000000;stroke-width:0.6491;stroke-linecap:round;stroke-linejoin:round;stroke-miterlimit:10;}
	.st8{fill:none;stroke:#000000;stroke-width:0.5644;stroke-miterlimit:10;}
</style>
<polygon class="st0" points="1135.9,-204.2 1111.5,-209.3 1107.4,-184.8 1132.2,-182 "/>
<polygon class="st0" points="808.4,-184.1 804.4,-208 810.5,-209.3 814.6,-184.8 "/>
<g id="MASTER">
	<g>
		<g>
			<g id="LINE_552_">
				<polygon class="st1" points="921.3,-234.1 916.5,-236.3 911.5,-238.1 906.4,-239.5 901.2,-240.5 903.3,-244.2 905,-248.1 
					906.2,-252.2 907.5,-260.6 912.2,-259.1 916.9,-257.4 921.4,-255.5 925.9,-253.3 930.2,-250.9 934.4,-248.3 938.5,-245.5 
					942.4,-242.4 946.2,-239.2 949.8,-235.8 953.2,-232.2 956.4,-228.4 956.4,-226.4 956.3,-224.3 956.2,-222.3 955.9,-220.2 
					955.6,-218.2 955.1,-216.2 954.6,-214.2 954,-212.3 953.3,-210.3 952.5,-208.4 951.6,-206.6 950.6,-204.8 948.1,-209.4 
					945.1,-213.8 941.9,-217.9 938.3,-221.8 934.4,-225.4 930.3,-228.6 925.9,-231.6 				"/>
			</g>
		</g>
		<g>
			<g id="LINE_550_">
				<polygon class="st1" points="895.8,-223.8 896.8,-218.8 898.6,-214 901,-209.5 904,-205.4 906.8,-202.6 907.9,-205.3 
					909.1,-207.9 910.4,-210.5 911.7,-213 913.1,-215.6 914.6,-218.1 916.1,-220.5 917.7,-223 919.4,-225.3 921.1,-227.7 
					922.8,-230 924.6,-232.2 921.3,-234.1 916.5,-236.3 911.5,-238.1 906.4,-239.5 901.2,-240.5 898.8,-237.1 896,-233.9 
					895.5,-228.8 				"/>
			</g>
		</g>
		<g>
			<g id="LINE_548_">
				<polygon class="st1" points="1026.2,-223.8 1025.2,-218.8 1023.5,-214 1021.1,-209.5 1018.1,-205.4 1014.5,-201.8 
					1010.4,-198.7 1006,-196.2 1001.2,-194.4 996.2,-193.4 991.2,-193 989.2,-193.1 987.2,-193.4 985.2,-193.8 983.3,-194.5 
					981.5,-195.2 979.7,-196.2 978,-197.3 976.4,-198.5 975,-199.9 973.7,-201.4 972.5,-203 971.4,-204.8 970.5,-206.6 
					969.6,-208.4 968.8,-210.3 968.1,-212.3 967.5,-214.2 966.9,-216.2 966.5,-218.2 966.1,-220.2 965.9,-222.3 965.7,-224.3 
					965.6,-226.4 965.6,-228.4 968.9,-232.2 972.3,-235.8 975.9,-239.2 979.6,-242.4 983.6,-245.5 987.6,-248.3 991.8,-250.9 
					996.2,-253.3 1000.6,-255.5 1005.2,-257.4 1009.9,-259.1 1014.6,-260.6 1015,-256.4 1015.8,-252.2 1017.1,-248.1 1018.8,-244.2 
					1020.8,-240.5 1023.3,-237.1 1026.1,-233.9 1026.5,-228.8 				"/>
			</g>
		</g>
		<g>
			<g id="LINE_875_">
				<polygon class="st1" points="945.1,-213.8 941.9,-217.9 938.3,-221.8 934.4,-225.4 930.3,-228.6 925.9,-231.6 924.6,-232.2 
					922.8,-230 921.1,-227.7 919.4,-225.3 917.7,-223 916.1,-220.5 914.6,-218.1 913.1,-215.6 911.7,-213 910.4,-210.5 
					909.1,-207.9 907.9,-205.3 906.8,-202.6 907.6,-201.8 911.6,-198.7 916.1,-196.2 920.8,-194.4 925.8,-193.4 930.9,-193 
					932.9,-193.1 934.9,-193.4 936.8,-193.8 938.7,-194.5 940.6,-195.2 942.4,-196.2 944,-197.3 945.6,-198.5 947.1,-199.9 
					948.4,-201.4 949.6,-203 950.6,-204.8 948.1,-209.4 				"/>
			</g>
		</g>
	</g>
	<g>
		<g id="LINE_809_">
			<polyline class="st1" points="1129.8,-205.5 1123.7,-206.8 1117.6,-208 1113.6,-184.1 1107.4,-184.8 1111.5,-209.3 1117.6,-208 
				1123.7,-206.8 1119.8,-183.4 1126,-182.7 1132.2,-182 1135.9,-204.2 1129.8,-205.5 1126,-182.7 1119.8,-183.4 1113.6,-184.1 			
				"/>
		</g>
		<g>
			<path class="st2" d="M1111.9-191.7l-2.9-0.5c-0.2,0-0.4,0.1-0.5,0.3l-0.3,1.7c0,0.2,0.1,0.4,0.3,0.5l2.9,0.5
				c0.2,0,0.4-0.1,0.5-0.3l0.3-1.7C1112.3-191.5,1112.1-191.7,1111.9-191.7z"/>
			<path class="st2" d="M1114.2-204.9l-2.9-0.5c-0.2,0-0.4,0.1-0.5,0.3l-0.3,1.7c0,0.2,0.1,0.4,0.3,0.5l2.9,0.5
				c0.2,0,0.4-0.1,0.5-0.3l0.3-1.7C1114.6-204.7,1114.4-204.9,1114.2-204.9z"/>
		</g>
		<g>
			<path class="st2" d="M1118.1-190.5l-2.9-0.5c-0.2,0-0.4,0.1-0.5,0.3l-0.3,1.7c0,0.2,0.1,0.4,0.3,0.5l2.9,0.5
				c0.2,0,0.4-0.1,0.5-0.3l0.3-1.7C1118.5-190.2,1118.4-190.4,1118.1-190.5z"/>
			<path class="st2" d="M1120.4-203.7l-2.9-0.5c-0.2,0-0.4,0.1-0.5,0.3l-0.3,1.7c0,0.2,0.1,0.4,0.3,0.5l2.9,0.5
				c0.2,0,0.4-0.1,0.5-0.3l0.3-1.7C1120.8-203.5,1120.6-203.7,1120.4-203.7z"/>
		</g>
		<g>
			<path class="st2" d="M1124.3-189.1l-2.9-0.5c-0.2,0-0.4,0.1-0.5,0.3l-0.3,1.7c0,0.2,0.1,0.4,0.3,0.5l2.9,0.5
				c0.2,0,0.4-0.1,0.5-0.3l0.3-1.7C1124.7-188.9,1124.6-189.1,1124.3-189.1z"/>
			<path class="st2" d="M1126.6-202.3l-2.9-0.5c-0.2,0-0.4,0.1-0.5,0.3l-0.3,1.7c0,0.2,0.1,0.4,0.3,0.5l2.9,0.5
				c0.2,0,0.4-0.1,0.5-0.3l0.3-1.7C1127-202.1,1126.8-202.3,1126.6-202.3z"/>
		</g>
		<g>
			<path class="st2" d="M1130.3-188l-2.9-0.5c-0.2,0-0.4,0.1-0.5,0.3l-0.3,1.7c0,0.2,0.1,0.4,0.3,0.5l2.9,0.5c0.2,0,0.4-0.1,0.5-0.3
				l0.3-1.7C1130.7-187.8,1130.5-188,1130.3-188z"/>
			<path class="st2" d="M1132.6-201.2l-2.9-0.5c-0.2,0-0.4,0.1-0.5,0.3l-0.3,1.7c0,0.2,0.1,0.4,0.3,0.5l2.9,0.5
				c0.2,0,0.4-0.1,0.5-0.3l0.3-1.7C1132.9-201,1132.8-201.2,1132.6-201.2z"/>
		</g>
	</g>
	<g>
		<g id="LINE_805_">
			<polygon class="st1" points="808.4,-184.1 804.4,-208 810.5,-209.3 814.6,-184.8 			"/>
		</g>
		<line class="st3" x1="805.3" y1="-203" x2="800.6" y2="-202.1"/>
		<line class="st3" x1="807.4" y1="-190.1" x2="802.7" y2="-189.3"/>
	</g>
	<g>
		<g>
			<g id="LINE_544_">
				<path class="st1" d="M845-308.4c0.1-0.3,0.2-0.5,0.2-0.8c1,0.2,2,0.4,3,0.8c1.4,0.6,1.7,0.5,1.4,1.7"/>
				<path class="st1" d="M849.6-306.7c0,0.1,0,0.1-0.1,0.2c-0.4,1.5-0.8,3.1-1.2,4.6c-0.7,3.2-1.2,6.5-1.4,9.8
					c-0.5,6.4,0,12.9,0.9,19.3c1.8,13,2.8,26.1,2.8,39.2c0,3.9-0.1,7.7-0.3,11.6c0,0.9,0.2,3.9-0.5,4.4c-0.6,0.5-2.5,0.5-3.3,0.7
					c-0.9,0.2-1.8,0.4-2.7,0.6c1.5-6.1,1.2-12.5,1.1-18.7c0-5.9-0.2-11.8-0.5-17.7c-0.3-6.3-0.8-12.6-1.4-18.9
					c-0.6-5.8-1.3-11.5-1.1-17.3c0.2-6.6,1.3-13,3.2-19.3"/>
			</g>
		</g>
		<g>
			<g id="LINE_543_">
				<path class="st1" d="M848.1-309.5c0.5,0.2,1.6,0.6,2.1,0.4c0.5-0.1,0.3-0.1,0.6-0.7c0.5-0.9,0.8-1.8,1.4-2.7
					c0.8-1.4,1.9-2.7,3-3.9c2.6-2.6,5.9-4.4,9.4-5.2c7.6-1.7,15.8,0,22.1,4.4c6.1,4.2,10.5,11,13.8,17.5s5.3,13.5,6.3,20.6
					c0.5,3.7,0.6,7.5,0.6,11.3c0,1.5,0,3.1,0,4.6c0,0.5-0.3,2.2,0,2.6s2.1,0.7,2.6,0.9c1.1,0.4,2.2,0.7,3.3,1.1
					c-0.6-8-0.7-16.3-2.1-24.2c-1.4-7.9-4.2-15.6-8.2-22.5c-3.9-6.8-8.9-13.4-15.9-17.4c-7.1-4-15.6-5.3-23.7-3.5
					c-7.8,1.7-14.4,7.5-17.2,14.9c-0.2,0.4-0.3,0.6-0.2,0.9C846.2-310,847.6-309.6,848.1-309.5z"/>
			</g>
		</g>
	</g>
	<g>
		<g>
			<g id="LINE_555_">
				<polygon class="st1" points="883,-192.7 877.9,-223.2 810.5,-209.3 814.6,-184.8 				"/>
			</g>
		</g>
		<g>
			<g id="LINE_545_">
				<polygon class="st1" points="877.9,-223.2 881.9,-224.6 885.8,-226.3 889.4,-228.5 892.8,-231 896,-233.9 895.5,-228.8 
					895.8,-223.8 896.8,-218.8 898.6,-214 901,-209.5 904,-205.4 907.6,-201.8 911.6,-198.7 916.1,-196.2 920.8,-194.4 
					925.8,-193.4 930.9,-193 930.9,-187.6 928.7,-187.5 926.1,-187.5 923.6,-187.7 921,-188 918.5,-188.5 916,-189.2 913.3,-190 
					910.6,-190.6 907.9,-191.2 905.1,-191.7 902.4,-192.1 899.6,-192.4 896.9,-192.7 894.1,-192.9 891.3,-193 888.6,-193 
					885.8,-192.9 883,-192.7 				"/>
			</g>
		</g>
		<g>
			<g id="LINE_112_">
				<polygon class="st1" points="1039,-192.7 1044.2,-223.2 1111.5,-209.3 1107.4,-184.8 				"/>
			</g>
		</g>
		<g>
			<g id="LINE_111_">
				<polygon class="st1" points="1044.2,-223.2 1040.1,-224.6 1036.3,-226.3 1032.6,-228.5 1029.2,-231 1026.1,-233.9 
					1026.5,-228.8 1026.2,-223.8 1025.2,-218.8 1023.5,-214 1021.1,-209.5 1018.1,-205.4 1014.5,-201.8 1010.4,-198.7 1006,-196.2 
					1001.2,-194.4 996.2,-193.4 991.2,-193 991.2,-187.6 993.3,-187.5 995.9,-187.5 998.5,-187.7 1001.1,-188 1003.6,-188.5 
					1006.1,-189.2 1008.8,-190 1011.5,-190.6 1014.2,-191.2 1016.9,-191.7 1019.6,-192.1 1022.4,-192.4 1025.2,-192.7 
					1027.9,-192.9 1030.7,-193 1033.5,-193 1036.3,-192.9 1039,-192.7 				"/>
			</g>
		</g>
	</g>
	<g>
		<g id="LINE_110_">
			<polygon class="st1" points="961,-197 963.3,-197 963.7,-197 964.1,-196.9 964.6,-196.9 965,-196.9 965.4,-196.8 965.8,-196.7 
				966.2,-196.6 966.7,-196.5 967.1,-196.4 967.5,-196.3 967.7,-196.2 968.3,-196 969.2,-195.6 970,-195.3 970.9,-194.9 
				971.8,-194.5 972.7,-194.1 973.5,-193.6 974.4,-193.2 975.2,-192.8 976.1,-192.3 978.4,-191.1 980.7,-190.1 983.2,-189.2 
				985.7,-188.5 988.2,-188 990.8,-187.7 991.2,-187.6 991.2,-193 989.2,-193.1 987.2,-193.4 985.2,-193.8 983.3,-194.5 
				981.5,-195.2 979.7,-196.2 978,-197.3 976.4,-198.5 975,-199.9 973.7,-201.4 972.5,-203 971.4,-204.8 970.5,-206.6 969.6,-208.4 
				968.8,-210.3 968.1,-212.3 967.5,-214.2 966.9,-216.2 966.5,-218.2 966.1,-220.2 965.9,-222.3 965.7,-224.3 965.6,-226.4 
				965.6,-228.4 961,-228.4 956.4,-228.4 956.4,-226.4 956.3,-224.3 956.2,-222.3 955.9,-220.2 955.6,-218.2 955.1,-216.2 
				954.6,-214.2 954,-212.3 953.3,-210.3 952.5,-208.4 951.6,-206.6 950.6,-204.8 949.6,-203 948.4,-201.4 947.1,-199.9 
				945.6,-198.5 944,-197.3 942.4,-196.2 940.6,-195.2 938.7,-194.5 936.8,-193.8 934.9,-193.4 932.9,-193.1 930.9,-193 
				930.9,-187.6 931.3,-187.7 933.9,-188 936.4,-188.5 938.9,-189.2 941.3,-190.1 943.7,-191.1 946,-192.3 946.8,-192.8 
				947.7,-193.2 948.5,-193.6 949.4,-194.1 950.3,-194.5 951.1,-194.9 952,-195.3 952.9,-195.6 953.8,-196 954.4,-196.2 
				954.6,-196.3 955,-196.4 955.4,-196.5 955.8,-196.6 956.2,-196.7 956.6,-196.8 957.1,-196.9 957.5,-196.9 957.9,-196.9 
				958.3,-197 958.8,-197 			"/>
		</g>
	</g>
	<g>
		<g>
			<g id="LINE_114_">
				<path class="st1" d="M1076.5-309.1c-1,0.2-2,0.4-3,0.8c-1.4,0.6-1.7,0.5-1.3,1.9c0.4,1.5,0.8,3.1,1.2,4.6
					c0.7,3.2,1.2,6.5,1.4,9.8c0.5,6.4,0,12.9-0.9,19.3c-1.8,13-2.8,26.1-2.8,39.2c0,3.9,0.1,7.7,0.3,11.6c0,0.9-0.2,3.9,0.5,4.4
					c0.6,0.5,2.5,0.5,3.3,0.7c0.9,0.2,1.8,0.4,2.7,0.6c-1.5-6.1-1.2-12.5-1.1-18.7c0-5.9,0.2-11.8,0.5-17.7
					c0.3-6.3,0.8-12.6,1.4-18.9c0.6-5.8,1.3-11.5,1.1-17.3C1079.7-295.9,1078.6-302.6,1076.5-309.1z"/>
			</g>
		</g>
		<g>
			<g id="LINE_113_">
				<path class="st1" d="M1073.7-309.5c-0.5,0.2-1.6,0.6-2.1,0.4c-0.5-0.1-0.3-0.1-0.6-0.7c-0.5-0.9-0.8-1.8-1.4-2.7
					c-0.8-1.4-1.9-2.7-3-3.9c-2.6-2.6-5.9-4.4-9.4-5.2c-7.6-1.7-15.8,0-22.1,4.4c-6.1,4.2-10.5,11-13.8,17.5
					c-3.3,6.5-5.3,13.5-6.3,20.6c-0.5,3.7-0.6,7.5-0.6,11.3c0,1.5,0,3.1,0,4.6c0,0.5,0.3,2.2,0,2.6s-2.1,0.7-2.6,0.9
					c-1.1,0.4-2.2,0.7-3.3,1.1c0.6-8,0.7-16.3,2.1-24.2s4.2-15.6,8.2-22.5c3.9-6.8,8.9-13.4,15.9-17.4c7.2-4.1,15.8-5.4,23.9-3.6
					c7.8,1.7,14.3,7.6,17.2,14.9c0.2,0.4,0.3,0.6,0.2,0.9C1075.5-310,1074.1-309.6,1073.7-309.5z"/>
			</g>
		</g>
	</g>
	<g>
		<polyline class="st4" points="901.7,-239.4 906.2,-238.6 911.2,-237.2 916.1,-235.4 920.8,-233.2 923.1,-232 922.1,-230.6 
			920.3,-228.3 918.6,-225.9 916.9,-223.5 915.3,-221.1 913.8,-218.6 912.3,-216.1 910.9,-213.5 909.5,-210.9 908.2,-208.3 
			907,-205.7 906.4,-204.4 		"/>
		<g>
			<g>
				<line class="st5" x1="950.6" y1="-206.9" x2="950.3" y2="-207.5"/>
				<polyline class="st6" points="949.6,-208.7 948.9,-209.9 946,-214.3 942.7,-218.5 939,-222.5 935.1,-226.1 930.9,-229.4 
					926.4,-232.4 921.7,-235 916.9,-237.2 911.8,-239.1 906.7,-240.5 904.1,-241 				"/>
				<line class="st5" x1="903.5" y1="-241.1" x2="902.8" y2="-241.3"/>
			</g>
		</g>
		<polyline class="st4" points="907.9,-202.8 908.8,-204.9 910,-207.5 911.3,-210 912.6,-212.6 914,-215.1 915.5,-217.6 917,-220 
			918.6,-222.4 920.2,-224.8 921.9,-227.1 923.6,-229.4 924.9,-231 925.4,-230.7 929.7,-227.8 933.8,-224.6 937.6,-221.1 
			941.1,-217.2 944.4,-213.1 947.2,-208.8 949.5,-204.8 		"/>
	</g>
	<g>
		<path class="st7" d="M849.7-306.6c0.8-0.5,1.3-1.4,1.3-2.5c0-0.2,0-0.4-0.1-0.6"/>
		<path class="st7" d="M846.1-311.7c-0.9,0.5-1.4,1.5-1.4,2.6c0,0.3,0,0.5,0.1,0.8"/>
	</g>
	<g>
		<path class="st7" d="M1072-306.6c-0.8-0.5-1.3-1.4-1.3-2.5c0-0.2,0-0.4,0.1-0.6"/>
		<path class="st7" d="M1075.6-311.7c0.9,0.5,1.4,1.5,1.4,2.6c0,0.3,0,0.5-0.1,0.8"/>
	</g>
	<g>
		<path class="st8" d="M1073-265.1h-0.4c-0.1,0-0.2-0.1-0.2-0.2l0.1-0.9c0-0.1,0.1-0.2,0.2-0.2l6.2,0.5c0.1,0,0.2,0.1,0.2,0.2
			l-0.1,0.9c0,0.1-0.1,0.2-0.2,0.2h-0.5"/>
		<path class="st8" d="M1073.2-267.7h-0.4c-0.1,0-0.2,0.1-0.2,0.2l-0.1,0.9c0,0.1,0.1,0.2,0.2,0.2l6.2,0.5c0.1,0,0.2-0.1,0.2-0.2
			l0.1-0.9c0-0.1-0.1-0.2-0.2-0.2h-0.5"/>
	</g>
	<g>
		<path class="st8" d="M848.7-265.2h0.4c0.1,0,0.2-0.1,0.2-0.2l-0.1-0.9c0-0.1-0.1-0.2-0.2-0.2l-6.2,0.5c-0.1,0-0.2,0.1-0.2,0.2
			l0.1,0.9c0,0.1,0.1,0.2,0.2,0.2h0.5"/>
		<path class="st8" d="M848.6-267.7h0.4c0.1,0,0.2,0.1,0.2,0.2l0.1,0.9c0,0.1-0.1,0.2-0.2,0.2l-6.2,0.5c-0.1,0-0.2-0.1-0.2-0.2
			l-0.1-0.9c0-0.1,0.1-0.2,0.2-0.2h0.5"/>
	</g>
</g>
</svg>
