<?xml version="1.0" encoding="utf-8"?>
<!-- Generator: Adobe Illustrator 19.1.0, SVG Export Plug-In . SVG Version: 6.00 Build 0)  -->
<svg version="1.1" xmlns="http://www.w3.org/2000/svg" xmlns:xlink="http://www.w3.org/1999/xlink" x="0px" y="0px"
	 viewBox="0 0 930 345.3" style="enable-background:new 0 0 930 345.3;" xml:space="preserve">
<style type="text/css">
	.st0{fill:none;stroke:#FFFFFF;stroke-width:0.8504;stroke-miterlimit:10;}
	.st1{fill:none;stroke:#FFFFFF;stroke-width:0.8504;stroke-linecap:round;stroke-linejoin:round;stroke-miterlimit:10;}
	.st2{fill:#A7A9AC;}
	.st3{fill:#808285;}
	.st4{fill:#808285;stroke:#414042;stroke-width:0.2835;stroke-miterlimit:10;}
	.st5{fill:#6D6E71;stroke:#414042;stroke-width:0.2835;stroke-miterlimit:10;}
	.st6{fill:none;stroke:#6D6E71;stroke-miterlimit:10;}
	.st7{fill:#FFF200;stroke:#FFF200;stroke-width:0.8504;stroke-miterlimit:10;}
	.st8{fill:#808285;stroke:#414042;stroke-width:0.3605;stroke-miterlimit:10;}
	.st9{fill:#FFFFFF;stroke:#6D6E71;stroke-width:1.5002;stroke-miterlimit:10;}
	.st10{fill:none;stroke:#FFF200;stroke-miterlimit:10;}
	.st11{fill:none;stroke:#6D6E71;stroke-width:1.8753;stroke-miterlimit:10;}
	.st12{fill:none;stroke:#FFFFFF;stroke-miterlimit:10;}
	.st13{fill:#FFFFFF;stroke:#414042;stroke-width:0.6247;stroke-miterlimit:10;}
	.st14{fill:#FFFFFF;stroke:#414042;stroke-width:0.2835;stroke-miterlimit:10;}
	.st15{fill:#FFFFFF;}
	.st16{fill:none;stroke:#808285;stroke-width:0.2835;stroke-miterlimit:10;}
	.st17{fill:none;stroke:#FFFFFF;stroke-width:0.3497;stroke-linecap:round;stroke-linejoin:round;stroke-miterlimit:10;}
	.st18{fill:none;stroke:#FFFFFF;stroke-width:1.0492;stroke-linecap:round;stroke-linejoin:round;stroke-miterlimit:10;}
	.st19{fill:#FFFFFF;stroke:#FFFFFF;stroke-width:1.0492;stroke-linecap:round;stroke-linejoin:round;stroke-miterlimit:10;}
	.st20{fill:none;stroke:#FFFFFF;stroke-width:0.3497;stroke-miterlimit:10;}
	.st21{enable-background:new    ;}
	.st22{fill:#BE1E2D;}
	.st23{fill-rule:evenodd;clip-rule:evenodd;fill:#210000;}
	.st24{fill-rule:evenodd;clip-rule:evenodd;fill:#FFDCB1;}
	.st25{fill-rule:evenodd;clip-rule:evenodd;fill:#F7C6AB;}
	.st26{fill-rule:evenodd;clip-rule:evenodd;fill:#EF3F6C;}
	.st27{fill-rule:evenodd;clip-rule:evenodd;fill:#C91F4B;}
	.st28{fill-rule:evenodd;clip-rule:evenodd;fill:#C31F44;}
	.st29{fill-rule:evenodd;clip-rule:evenodd;fill:#FDDECC;}
	.st30{fill-rule:evenodd;clip-rule:evenodd;fill:#F26A21;}
	.st31{fill-rule:evenodd;clip-rule:evenodd;fill:#FEEBE2;}
	.st32{fill-rule:evenodd;clip-rule:evenodd;fill:#FFFFFF;}
	.st33{fill-rule:evenodd;clip-rule:evenodd;fill:#89BCE5;}
	.st34{fill-rule:evenodd;clip-rule:evenodd;fill:#2D0A00;}
	.st35{fill-rule:evenodd;clip-rule:evenodd;fill:#513921;}
	.st36{fill-rule:evenodd;clip-rule:evenodd;fill:#422C15;}
	.st37{fill-rule:evenodd;clip-rule:evenodd;fill:#F1698F;}
	.st38{fill-rule:evenodd;clip-rule:evenodd;fill:#A41F41;}
	.st39{fill-rule:evenodd;clip-rule:evenodd;fill:#FEC760;}
	.st40{fill-rule:evenodd;clip-rule:evenodd;fill:#6BC397;}
	.st41{fill:#A4D7BD;}
	.st42{fill-rule:evenodd;clip-rule:evenodd;fill:#388762;}
	.st43{fill-rule:evenodd;clip-rule:evenodd;fill:#4B1F0D;}
	.st44{fill-rule:evenodd;clip-rule:evenodd;fill:#F6A6BD;}
	.st45{fill-rule:evenodd;clip-rule:evenodd;fill:#846246;}
	.st46{fill-rule:evenodd;clip-rule:evenodd;fill:#6F5139;}
	.st47{fill-rule:evenodd;clip-rule:evenodd;fill:#823316;}
	.st48{fill-rule:evenodd;clip-rule:evenodd;fill:#F1D1AA;}
	.st49{fill-rule:evenodd;clip-rule:evenodd;fill:#E7C8A4;}
	.st50{fill-rule:evenodd;clip-rule:evenodd;fill:#A24323;}
	.st51{fill-rule:evenodd;clip-rule:evenodd;fill:#3C8B65;}
	
		.st52{fill-rule:evenodd;clip-rule:evenodd;fill:none;stroke:#FFFFFF;stroke-width:0.6112;stroke-miterlimit:22.9256;stroke-dasharray:1.2224,1.8336;}
	.st53{fill:#E1F4FD;}
	.st54{fill:#414042;}
</style>
<g id="Smoke">
</g>
<g id="Bras_x5F_old">
</g>
<g id="Layer_8">
</g>
<g id="Grey_x5F_Main">
</g>
<g id="Grey_x5F_Accent">
</g>
<g id="Bras_x5F_new">
</g>
<g id="hearts">
</g>
<g id="girls">
</g>
<g id="Globe">
	<g>
		<path class="st0" d="M39.4,153.2l-1.9,2.1c-18.7-12.8-20.1-2.9-37.5-20C8.2,125,14.7,113.2,20,100c14.1,3.9,16.7,7,23.1,13.4
			c3.7,3.7,8.6,5.6,13.1,7.8l-0.4,3.2c-5.4-1.2-10.4-4.4-16.4-3.6c-3.7,0.5-9.7,2.8-12.2,7.2c-3,5.3-1.4,10.1,0.1,13.2
			C29.1,145,37.8,151.7,39.4,153.2z"/>
		<g>
			<path class="st0" d="M46.4,212.2c0.1-0.4,0.5-1.1,0.8-1.4l10.6-10.2c0.3-0.3-0.6-1.7-1-1.4l-11.1,9.4c-0.3,0.3-1,0.4-1.4,0.2
				c0,0-0.5-0.2-1.8-0.7c-3.4-1.2-11.5-3.9-22,0c-0.7,0.2-1,0-1,0c-0.2-0.2-0.4-0.4-0.6-0.6c-0.2-0.2-0.4-0.4-0.6-0.6
				c0,0-0.3-0.3-0.1-1c3-10.8-0.3-18.7-1.8-22c-0.6-1.3-0.9-1.7-0.9-1.7c-0.2-0.4-0.2-1,0-1.4L24,169c0.3-0.4-1.2-1.2-1.4-0.9
				l-9.2,11.4c-0.3,0.4-0.9,0.8-1.3,0.9c0,0-10.4,5.7-10.6,14.8c-0.1,8.2,9.3,10.6,11.3,11c0.2,0,0.4,0.1,0.6,0.1
				c1.2,0.2,3.4,2.4,3.4,2.4c0.2,0.2,0.4,0.4,0.6,0.6c0.2,0.2,0.5,0.4,0.6,0.6c0,0,2.4,2,2.7,3.2c0,0.2,0.1,0.4,0.2,0.6
				c0.6,1.9,3.7,11.1,11.8,10.3C41.6,223.1,46.4,212.2,46.4,212.2z"/>
		</g>
		<path class="st0" d="M32,201.7l-2.4-1.6c10-20.4,0-20.4,14.4-40.1c11.4,6.7,23.9,11.5,37.6,14.8c-1.9,14.5-4.6,17.6-9.9,24.9
			c-3.1,4.2-4.3,9.3-5.8,14.1l-3.3,0c0.4-5.6,2.9-10.9,1.3-16.8c-1-3.6-4.2-9.3-8.9-11.1c-5.6-2.2-10.2,0-13,1.9
			C38.6,190.3,33.2,199.9,32,201.7z"/>
		<g>
			<path class="st0" d="M79.3,115.5c0.4,0.2,1.1,0.5,1.5,0.5l14.6,0.7c0.5,0,0.6,1.7,0.2,1.7l-14.5,0.2c-0.5,0-1,0.4-1.1,0.8
				c0,0-0.2,0.5-0.9,1.7c-1.7,3.1-6.1,10.5-16.5,14.5c-0.7,0.3-0.7,0.7-0.7,0.7c0,0.2-0.1,0.5-0.1,0.8c0,0.3-0.1,0.6-0.1,0.8
				c0,0,0,0.4,0.6,0.8c9.4,6.1,12.1,14.3,13.1,17.7c0.4,1.3,0.5,1.9,0.5,1.9c0.1,0.5,0.5,0.9,0.9,1l14.1,3.3
				c0.4,0.1-0.1,1.7-0.5,1.6l-14.4-2.5c-0.5-0.1-1.2,0-1.6,0.2c0,0-11.6,2.6-17.7-4.1c-5.5-6.1,0.1-14.1,1.3-15.7
				c0.1-0.2,0.3-0.3,0.4-0.5c0.8-0.9,1-4,1-4c0-0.2,0-0.5,0.1-0.8c0-0.3,0.1-0.6,0.1-0.8c0,0,0.5-3.1-0.1-4.2
				c-0.1-0.2-0.2-0.4-0.3-0.5c-0.8-1.8-4.5-10.8,2.1-15.6C68.5,110.5,79.3,115.5,79.3,115.5z"/>
		</g>
		<g>
			<path class="st1" d="M735.4,256.5c-0.8,0.5-1.6,0.9-2.3,1.4c-1,0.6-1.9,1.5-3,2c-1.1,0.5-1.7,1.3-2.5,2.1
				c-0.8,0.8-1.5,1.6-2.2,2.5c-1.8,2.4-3.2,4.9-4.1,7.7c-0.2,0.7-0.4,1.4-0.6,2.2c-0.1,0.4-0.4,0.7-0.5,1.1c-0.1,0.3,0,0.7-0.1,1.1
				c-0.4,2.2,0.3,4.1,1.7,5.8c1.7,2,3.9,3,6.4,3.1c1.8,0.1,3.6,0,5.3-0.3c1.4-0.2,2.8-0.7,4.2-1.3c0.4-0.2,0.4-0.5,0.4-0.7
				c-0.1-0.9,0.1-1.8,0.2-2.6c0.4-3.6-0.1-7.1-0.8-10.6c-0.3-1.5-0.7-3.1-1.3-4.5c-1.3-2.8-1.3-5.7-0.7-8.6c0.1-0.4,0.5-0.7,0.9-1
				c1.6-1.4,3.2-2.8,4.7-4.2c1.6-1.5,3.2-3.1,4.8-4.7c0.2-0.2,0.4-0.4,0.7-0.6"/>
			<path class="st1" d="M775.2,272.4c0.7,0.8,0.6,1.5-0.1,2.3c-1.6,2.1-3.2,4.3-4.7,6.4c-1.1,1.6-2.1,3.3-3.3,4.9
				c-1,1.4-1.7,3-3.1,4c-1.5,1-2.3,2.6-3.5,3.8c-3.1,3.2-6.7,5.6-10.9,7.1c-0.8,0.3-1.7,0.1-2.5,0.1c-1.5-0.1-3-0.4-4.3-1.2
				c-1.2-0.8-2.1-1.7-2.7-3c-1.1-2.4-1.1-4.8-0.7-7.3c0.2-1.5,0.6-3,1-4.5c0.1-0.4,0.2-0.6,0.7-0.8c2-0.7,4.1-0.9,6.3-0.9
				c3,0,6.1,0.1,9.1,0.7c1.1,0.3,2.3,0.5,3.4,0.7c1.9,0.4,3.8,0.1,5.6-0.5c0.3-0.1,0.6-0.1,0.8-0.1"/>
			<path class="st1" d="M746.1,246.2c0,0-0.1-0.1-0.1-0.1c-1.2-0.5-1.3-0.4-2.2,0.5c-1.5,1.5-3.1,2.9-4.6,4.4
				c-2.5,2.2-5.1,4.4-7.6,6.5c-0.8,0.7-1.6,1.4-2.1,2.4"/>
			<path class="st1" d="M737.9,282.1c-2.1,1-4.3,1.7-6.5,2.1c-1.7,0.3-3.4,0.3-5.1-0.1c-2.6-0.7-4.2-2.3-5-4.8
				c-0.4-1.1-0.5-2.3-0.7-3.5c0-0.2-0.1-0.3-0.1-0.5"/>
			<path class="st1" d="M740.5,284.4C740.4,284.3,740.4,284.3,740.5,284.4c-1.4-0.2-1.4-0.1-1.8,1.1c-0.8,3.1-1.1,6.3-0.4,9.5
				c0.5,2.2,1.6,3.9,3.3,5.2c1.9,1.4,3.9,2,6.3,1.5c0.3-0.1,0.6-0.1,0.8-0.1"/>
			<path class="st1" d="M775.3,272c0,0.1,0,0.2-0.1,0.3c-2,2.5-4.1,5-6.1,7.6c-1,1.4-2,2.8-2.9,4.3c-0.9,1.6-1.6,3.2-2.4,4.9
				c-0.2,0.4-0.4,0.9-0.5,1.4"/>
			<path class="st1" d="M733.7,285.2c1.4,1.3,2.9,2.6,4.3,3.9"/>
			<path class="st1" d="M735.5,284.7c0.9,0.8,1.8,1.6,2.6,2.4"/>
			<path class="st1" d="M720,275.6c-0.3,0.3-0.7,0.6-1,1c-0.1,0.1-0.1,0.5,0,0.6c0.2,0.2,0.5,0.3,0.7,0.4"/>
			<path class="st1" d="M749.3,301.1c-0.4,0.4-0.8,0.9-1.2,1.3c-0.5,0.5-0.5,0.5-1,0c-0.1-0.1-0.2-0.3-0.3-0.4"/>
		</g>
		<g>
			<path class="st0" d="M31.2,93.2c0.4,0.1,1,0.5,1.3,0.9l9.7,11c0.3,0.3,1.7-0.6,1.4-0.9l-9-11.4c-0.3-0.4-0.3-1-0.1-1.4
				c0,0,0.3-0.5,0.8-1.8c1.3-3.3,4.3-11.4,0.8-22c-0.2-0.7,0.1-1,0.1-1c0.2-0.2,0.4-0.4,0.6-0.6c0.2-0.2,0.4-0.4,0.6-0.6
				c0,0,0.3-0.3,1-0.1c10.7,3.4,18.7,0.4,22-1c1.3-0.5,1.8-0.8,1.8-0.8c0.4-0.2,1-0.2,1.4,0.1L75,72.4c0.4,0.3,1.3-1.1,0.9-1.4
				l-11-9.7c-0.3-0.3-0.7-0.9-0.9-1.3c0,0-5.3-10.7-14.3-11.1c-8.1-0.4-10.9,9-11.3,10.9c0,0.2-0.1,0.4-0.1,0.6
				c-0.2,1.2-2.5,3.3-2.5,3.3c-0.2,0.2-0.4,0.4-0.6,0.6c-0.2,0.2-0.4,0.4-0.6,0.6c0,0-2.1,2.3-3.3,2.5c-0.2,0-0.4,0.1-0.6,0.1
				c-1.9,0.5-11.2,3.3-10.7,11.5C20.5,88,31.2,93.2,31.2,93.2z"/>
		</g>
		<path class="st0" d="M109.3,81.5l1.3,2.6c-18.8,12.6-10.2,17.6-32.5,27.4c-6.5-11.5-15-22-25.2-31.8c8.9-11.6,12.7-12.9,21-16.5
			c4.8-2.1,8.4-5.9,12.1-9.2l2.8,1.6c-3.1,4.6-8,8-9.5,13.9c-0.9,3.6-1,10.1,2.1,14c3.8,4.7,8.8,5.1,12.2,4.9
			C97.9,88.1,107.3,82.5,109.3,81.5z"/>
		<g>
			<path class="st0" d="M25.2,32.6c0-0.5-0.1-1.2-0.3-1.6l-6.1-13.4c-0.2-0.4,1.2-1.3,1.4-0.9l6.8,12.8c0.2,0.4,0.8,0.7,1.2,0.7
				c0,0,0.5-0.1,1.9,0c3.6,0.1,12.1,0.7,20.4,8.2c0.6,0.5,1,0.3,1,0.3c0.2-0.1,0.5-0.2,0.8-0.3c0.3-0.1,0.6-0.2,0.8-0.3
				c0,0,0.4-0.2,0.5-0.9c1.2-11.2,7.2-17.3,9.8-19.8c1-1,1.4-1.3,1.4-1.3c0.4-0.3,0.6-0.9,0.5-1.3L61.9,0.8
				c-0.1-0.4,1.5-0.7,1.7-0.3l4.4,14c0.1,0.4,0.5,1.1,0.9,1.4c0,0,7.6,9.2,4.4,17.6c-2.9,7.6-12.6,6.3-14.5,6
				c-0.2,0-0.4-0.1-0.6-0.1c-1.2-0.3-4,1-4,1c-0.2,0.1-0.5,0.2-0.8,0.3c-0.3,0.1-0.6,0.2-0.8,0.3c0,0-2.9,1-3.6,2
				c-0.1,0.2-0.2,0.3-0.4,0.5c-1.2,1.5-7.6,9-14.8,5.2C25.7,44.5,25.2,32.6,25.2,32.6z"/>
		</g>
		<g>
			<g>
				<rect x="696.9" y="324" class="st2" width="4.1" height="9.3"/>
				<path class="st2" d="M698.9,331.3c-3.9,0-7,3.1-7,7c0,3.9,3.1,7,7,7s7-3.1,7-7C705.9,334.4,702.8,331.3,698.9,331.3z
					 M698.9,342.8c-2.5,0-4.5-2-4.5-4.5c0-2.5,2-4.5,4.5-4.5c2.5,0,4.5,2,4.5,4.5C703.4,340.8,701.4,342.8,698.9,342.8z"/>
				<ellipse class="st2" cx="698.9" cy="338.3" rx="3.5" ry="3.5"/>
				<rect x="641" y="324" class="st2" width="4.1" height="9.3"/>
				<ellipse class="st2" cx="643" cy="338.3" rx="3.5" ry="3.5"/>
				<path class="st2" d="M643,331.3c-3.9,0-7,3.1-7,7c0,3.9,3.1,7,7,7s7-3.1,7-7C650,334.4,646.9,331.3,643,331.3z M643,342.8
					c-2.5,0-4.5-2-4.5-4.5c0-2.5,2-4.5,4.5-4.5c2.5,0,4.5,2,4.5,4.5C647.5,340.8,645.5,342.8,643,342.8z"/>
			</g>
		</g>
		<g>
			<rect x="780.5" y="320" class="st2" width="4.1" height="13.3"/>
			<path class="st2" d="M782.5,331.3c-3.9,0-7,3.1-7,7c0,3.9,3.1,7,7,7s7-3.1,7-7C789.5,334.4,786.4,331.3,782.5,331.3z
				 M782.5,342.3c-2.2,0-4-1.8-4-4c0-2.2,1.8-4,4-4s4,1.8,4,4C786.5,340.5,784.7,342.3,782.5,342.3z"/>
		</g>
		<g>
			<rect x="890.2" y="320" class="st2" width="4.1" height="13.3"/>
			<path class="st2" d="M892.3,331.3c-3.9,0-7,3.1-7,7c0,3.9,3.1,7,7,7s7-3.1,7-7C899.3,334.4,896.1,331.3,892.3,331.3z
				 M892.3,342.3c-2.2,0-4-1.8-4-4c0-2.2,1.8-4,4-4s4,1.8,4,4C896.3,340.5,894.5,342.3,892.3,342.3z"/>
		</g>
		<rect x="144.1" y="324" class="st2" width="4.1" height="9.3"/>
		<path class="st2" d="M146.1,331.3c-3.9,0-7,3.1-7,7c0,3.9,3.1,7,7,7s7-3.1,7-7C153.1,334.4,150,331.3,146.1,331.3z M146.1,342.8
			c-2.5,0-4.5-2-4.5-4.5c0-2.5,2-4.5,4.5-4.5c2.5,0,4.5,2,4.5,4.5C150.6,340.8,148.6,342.8,146.1,342.8z"/>
		<ellipse class="st2" cx="146.1" cy="338.3" rx="3.5" ry="3.5"/>
		<rect x="108.2" y="324" class="st2" width="4.1" height="9.3"/>
		<ellipse class="st2" cx="110.2" cy="338.3" rx="3.5" ry="3.5"/>
		<path class="st2" d="M110.2,331.3c-3.9,0-7,3.1-7,7c0,3.9,3.1,7,7,7s7-3.1,7-7C117.2,334.4,114.1,331.3,110.2,331.3z M110.2,342.8
			c-2.5,0-4.5-2-4.5-4.5c0-2.5,2-4.5,4.5-4.5s4.5,2,4.5,4.5C114.7,340.8,112.7,342.8,110.2,342.8z"/>
		<g>
			<path class="st3" d="M560,316.7H199.6c-3,0-5.5-2.5-5.5-5.5v0c0-3,2.5-5.5,5.5-5.5H560c3,0,5.5,2.5,5.5,5.5v0
				C565.6,314.2,563.1,316.7,560,316.7z"/>
			<ellipse class="st3" cx="283.1" cy="310.6" rx="8.2" ry="8.1"/>
			<ellipse class="st3" cx="466.7" cy="310.6" rx="8.2" ry="8.1"/>
			<path class="st3" d="M208.5,302.7c0-9.4-3.7-3-8.2-3c-4.5,0-8.2-5.4-8.2,4c0,9.4,3.7,13,8.2,13
				C204.9,316.7,208.5,312.1,208.5,302.7z"/>
			<path class="st3" d="M568.7,300.2c0-10.4-3.7-4.9-8.2-4.9c-4.5,0-8.2-5.5-8.2,4.9c0,10.4,3.7,16.5,8.2,16.5
				C565.1,316.7,568.7,310.6,568.7,300.2z"/>
			<ellipse class="st3" cx="253.2" cy="310.6" rx="8.2" ry="8.1"/>
			<ellipse class="st3" cx="223.3" cy="310.6" rx="8.2" ry="8.1"/>
			<ellipse class="st3" cx="498.7" cy="310.6" rx="8.2" ry="8.1"/>
			<ellipse class="st3" cx="529.6" cy="310.6" rx="8.2" ry="8.1"/>
		</g>
		<g>
			<rect x="47.2" y="290.7" class="st3" width="49.6" height="10.4"/>
			<polygon class="st3" points="82.4,219.7 77.6,219.7 48.6,262.9 48.6,292.3 36.5,294.6 36.5,262.9 9.5,219.7 3.2,219.7 3.2,212 
				82.4,212 			"/>
			<ellipse class="st3" cx="95.4" cy="295.4" rx="10.1" ry="10.2"/>
			<ellipse class="st3" cx="42.7" cy="294.6" rx="10.4" ry="10.3"/>
		</g>
		<path class="st4" d="M142.7,213.9h-27.3l7-19.2v-7.5l-4,0v-4.7h4c0,0-1.9-19,3.3-23.8c5.3-4.9,22.1-2.6,22.1-2.6l0-3h4.8l0,3h10.5
			l4.6,3.1h7.4l1,6.4h-8.3l-4.7,3.6l-10.5,0l0,3l-4.8,0l0-3c0,0-9.3-1.2-11.6,1c-2.3,2.2-1,12.3-1,12.3h4v4.7h-4v6.2L142.7,213.9z"
			/>
		<path class="st5" d="M149.5,327.6h-43.9c-5.5,0-10-4.5-10-10v-94.3c0-5.5,4.5-10,10-10h43.9c5.5,0,10,4.5,10,10v94.3
			C159.5,323.1,155,327.6,149.5,327.6z"/>
		<g>
			<ellipse class="st4" cx="201.5" cy="155.6" rx="27.1" ry="27.2"/>
		</g>
		<g>
			<path class="st4" d="M201.6,301.3h-1.4c-11.1,0-20.3-9.1-20.3-20.3v-41c0-11.1,9.1-20.3,20.3-20.3h1.4c11.1,0,20.3,9.1,20.3,20.3
				v41C221.8,292.1,212.7,301.3,201.6,301.3z"/>
			<ellipse class="st4" cx="195.7" cy="272.5" rx="1.7" ry="1.7"/>
			<circle class="st4" cx="200.9" cy="278.8" r="1.4"/>
			<ellipse class="st4" cx="213" cy="280.9" rx="1.5" ry="1.5"/>
			<circle class="st4" cx="201.9" cy="289.8" r="1"/>
			<circle class="st4" cx="191" cy="286.8" r="1"/>
		</g>
		<g>
			<g>
				<path class="st4" d="M571.8,252.4H543c-0.8,0-1.5-0.7-1.5-1.5v-1.2c0-0.8,0.7-1.5,1.5-1.5h28.8c0.8,0,1.5,0.7,1.5,1.5v1.2
					C573.3,251.7,572.6,252.4,571.8,252.4z"/>
				<path class="st6" d="M561.7,245.9l-8-1c-5.5-0.7-9.4-5.7-8.7-11.1l4.4-36.5c0.7-5.5,5.7-9.4,11.1-8.7l8,1
					c5.5,0.7,9.4,5.7,8.7,11.1l-4.4,36.5C572.1,242.7,567.1,246.6,561.7,245.9z"/>
				<g>
					<line class="st7" x1="546.6" y1="189" x2="540.1" y2="182.3"/>
					<line class="st7" x1="551.3" y1="185.2" x2="545.4" y2="174.5"/>
					<line class="st7" x1="555.7" y1="182.8" x2="553.9" y2="173"/>
					<line class="st7" x1="561.2" y1="181.8" x2="560.3" y2="169.2"/>
					<line class="st7" x1="566.9" y1="182" x2="567.6" y2="172.1"/>
					<line class="st7" x1="572.4" y1="183.9" x2="576.3" y2="172"/>
					<line class="st7" x1="576.8" y1="186.4" x2="582.5" y2="178.7"/>
					<line class="st7" x1="580.8" y1="190.7" x2="589.1" y2="182.1"/>
					<line class="st7" x1="584.1" y1="194.8" x2="593.4" y2="191.2"/>
					<line class="st7" x1="584.9" y1="200.7" x2="597.2" y2="199"/>
					<line class="st7" x1="584.6" y1="205.7" x2="593.9" y2="207.5"/>
					<line class="st7" x1="582.5" y1="211.2" x2="593.8" y2="215"/>
					<line class="st7" x1="543.7" y1="192.1" x2="533.3" y2="186.4"/>
					<line class="st7" x1="541.7" y1="197.3" x2="531.8" y2="195.7"/>
					<line class="st7" x1="540.7" y1="204.2" x2="528.4" y2="202.6"/>
				</g>
				<path class="st4" d="M566.2,248.3H550c-0.5,0-0.9-0.4-0.9-0.9v-0.8c0-0.5,3.4-1.9,3.9-1.9h10.2c0.5,0,3.9,1.4,3.9,1.9v0.8
					C567.1,247.9,566.7,248.3,566.2,248.3z"/>
			</g>
			<path class="st5" d="M583.1,298h-49.8c-4.4,0-8-3.6-8-8v-30.1c0-4.4,3.6-8,8-8h49.8c4.4,0,8,3.6,8,8V290
				C591.1,294.4,587.5,298,583.1,298z"/>
		</g>
		<path class="st5" d="M704.5,325h-67.9c-7.4,0-13.4-6.1-13.4-13.4v-63.4c0-7.4,6.1-13.4,13.4-13.4h67.9c7.4,0,13.4,6.1,13.4,13.4
			v63.4C718,318.9,711.9,325,704.5,325z"/>
		<path class="st4" d="M680.9,200.1h-6.2v34.8h-6.7v-34.8h-7v-25h-5.1l15-18l15,18h-5v8.2l-9.2,0.1c0.9,8.8,9.2,8.7,9.2,8.7V200.1z"
			/>
		<path class="st4" d="M718.2,287.6V257c0,0,14.8-18,14.8-11.8v53.4C732.9,305.1,718.2,287.6,718.2,287.6z"/>
		<path class="st8" d="M623.1,282.6c0,0-1.7,6.2-3.5,6.1c-1.7-0.1-2.9-6.1-2.9-6.1s-1.6,6.2-3.3,6.1c-1.7,0-3.1-6.1-3.1-6.1
			s-1.1,6-2.8,6.1c-1.8,0.1-3.7-6.1-3.7-6.1s-0.9,6.1-2.6,6.1c-1.8,0.1-3.4-6.1-3.4-6.1s-1.5,6.1-3.2,6.1c-1.8,0-3.4-6.1-3.4-6.1
			v-14.1c0,0,1.7-5.8,3.4-5.7c1.6,0.1,2.8,5.7,2.8,5.7s1.8-5.8,3.5-5.7c1.6,0.1,2.7,5.7,2.7,5.7s1.9-5.8,3.6-5.7
			c1.6,0.1,2.9,5.7,2.9,5.7s1.7-5.7,3.3-5.7c1.6,0,3.2,5.7,3.2,5.7s1.6-5.7,3.2-5.7c1.7,0,3.3,5.7,3.3,5.7V282.6z"/>
		<path class="st4" d="M203,220.8h-4.1c0,0-1-4.4,0-5.6c0.5-0.6,3.3-1,3.3-1s-10.8-2.2-10.7-3.8c0.1-1.6,11-3.4,11-3.4
			s-11.4-1.7-11-3.5c0.3-1.5,11.3-3.3,11.3-3.3s-11.5-1.6-11.3-3.4c0.3-1.6,11-3.3,11-3.3s-11.2-1.6-11-3.3
			c0.2-1.6,10.4-3.2,10.4-3.2s-2.5-0.6-2.9-1.2c-0.7-0.9,0-4.2,0-4.2h4.1v2.6c0,0,9,0.4,9.2,2.2c0.1,1.9-10.2,3.8-10.2,3.8
			s10,1,10.2,2.9c0.1,1.9-10.2,3.4-10.2,3.4s10.2,2,10.2,4c-0.1,1.9-10.2,3.1-10.2,3.1s10.1,1.7,10.2,3.6c0,1.9-10.2,3.6-10.2,3.6
			s10.2,1.8,10.2,3.7c0,1.9-9.2,3.1-9.2,3.1V220.8z"/>
		<path class="st9" d="M127.5,236.1c-14,0-25.4,11.4-25.4,25.5c0,14.1,11.4,25.5,25.4,25.5s25.4-11.4,25.4-25.5
			C152.9,247.5,141.5,236.1,127.5,236.1z M127.5,274.1c-7,0-12.7-5.7-12.7-12.7c0-7,5.7-12.7,12.7-12.7c7,0,12.7,5.7,12.7,12.7
			C140.2,268.4,134.5,274.1,127.5,274.1z"/>
		<g>
			<path class="st4" d="M922,302.5H743.3c-4.4,0-8,3.9-8,8.7v0c0,4.8,3.6,8.7,8,8.7H922c4.4,0,8-3.9,8-8.7v0
				C930,306.4,926.4,302.5,922,302.5z M745.3,316.7c-3.2,0-5.7-2.6-5.7-5.8c0-3.2,2.6-5.8,5.7-5.8c3.2,0,5.7,2.6,5.7,5.8
				C751.1,314.1,748.5,316.7,745.3,316.7z M762.3,316.7c-3.2,0-5.7-2.6-5.7-5.8c0-3.2,2.6-5.8,5.7-5.8c3.2,0,5.7,2.6,5.7,5.8
				C768,314.1,765.5,316.7,762.3,316.7z M780.2,316.7c-3.2,0-5.7-2.6-5.7-5.8c0-3.2,2.6-5.8,5.7-5.8c3.2,0,5.7,2.6,5.7,5.8
				C786,314.1,783.4,316.7,780.2,316.7z M797.2,316.7c-3.2,0-5.7-2.6-5.7-5.8c0-3.2,2.6-5.8,5.7-5.8c3.2,0,5.7,2.6,5.7,5.8
				C802.9,314.1,800.4,316.7,797.2,316.7z M814.2,316.7c-3.2,0-5.7-2.6-5.7-5.8c0-3.2,2.6-5.8,5.7-5.8c3.2,0,5.7,2.6,5.7,5.8
				C819.9,314.1,817.3,316.7,814.2,316.7z M832.1,316.7c-3.2,0-5.7-2.6-5.7-5.8c0-3.2,2.6-5.8,5.7-5.8c3.2,0,5.7,2.6,5.7,5.8
				C837.9,314.1,835.3,316.7,832.1,316.7z M849.1,316.7c-3.2,0-5.7-2.6-5.7-5.8c0-3.2,2.6-5.8,5.7-5.8c3.2,0,5.7,2.6,5.7,5.8
				C854.8,314.1,852.3,316.7,849.1,316.7z M866.1,316.7c-3.2,0-5.7-2.6-5.7-5.8c0-3.2,2.6-5.8,5.7-5.8c3.2,0,5.7,2.6,5.7,5.8
				C871.8,314.1,869.2,316.7,866.1,316.7z M884,316.7c-3.2,0-5.7-2.6-5.7-5.8c0-3.2,2.6-5.8,5.7-5.8c3.2,0,5.7,2.6,5.7,5.8
				C889.8,314.1,887.2,316.7,884,316.7z M901,316.7c-3.2,0-5.7-2.6-5.7-5.8c0-3.2,2.6-5.8,5.7-5.8c3.2,0,5.7,2.6,5.7,5.8
				C906.7,314.1,904.1,316.7,901,316.7z M917.9,316.7c-3.2,0-5.7-2.6-5.7-5.8c0-3.2,2.6-5.8,5.7-5.8c3.2,0,5.7,2.6,5.7,5.8
				C923.7,314.1,921.1,316.7,917.9,316.7z"/>
			<ellipse class="st4" cx="745.3" cy="311" rx="3.7" ry="3.8"/>
			<ellipse class="st4" cx="762.3" cy="311" rx="3.7" ry="3.8"/>
			<ellipse class="st4" cx="780.2" cy="311" rx="3.7" ry="3.8"/>
			<ellipse class="st4" cx="797.2" cy="311" rx="3.7" ry="3.8"/>
			<ellipse class="st4" cx="814.2" cy="311" rx="3.7" ry="3.8"/>
			<ellipse class="st4" cx="832.1" cy="311" rx="3.7" ry="3.8"/>
			<ellipse class="st4" cx="849.1" cy="311" rx="3.7" ry="3.8"/>
			<ellipse class="st4" cx="866.1" cy="311" rx="3.7" ry="3.8"/>
			<ellipse class="st4" cx="884" cy="311" rx="3.7" ry="3.8"/>
			<ellipse class="st4" cx="901" cy="311" rx="3.7" ry="3.8"/>
			<ellipse class="st4" cx="917.9" cy="311" rx="3.7" ry="3.8"/>
			<rect x="785.5" y="300" class="st4" width="1.2" height="2.5"/>
			<rect x="749.5" y="300" class="st4" width="1.2" height="2.5"/>
			<rect x="765.5" y="320" class="st4" width="1.2" height="2.5"/>
			<rect x="823.4" y="300" class="st4" width="1.2" height="2.5"/>
			<rect x="839.3" y="320" class="st4" width="1.2" height="2.5"/>
			<rect x="859.3" y="300" class="st4" width="1.2" height="2.5"/>
			<rect x="875.3" y="320" class="st4" width="1.2" height="2.5"/>
			<rect x="895.2" y="300" class="st4" width="1.2" height="2.5"/>
			<rect x="803.4" y="320" class="st4" width="1.2" height="2.5"/>
			<rect x="911.2" y="320" class="st4" width="1.2" height="2.5"/>
		</g>
		<path class="st10" d="M556,244.3c2.1-16,3.7-29.2,3.7-40.5c0-1.7-1-5.1-2.3-4.8c-1.5,0.3-1.7,4-0.7,6c0.9,1.9,2.3,5.2,6,6.3
			c1.8,0.5,4.3,0.2,5.6-0.3c2-0.9,4.8-4.7,5.1-7.1c0.1-1.1-0.7-3.6-3.2-2.8c-2.2,0.7-3.8,5.9-4.2,8.2c-1.6,10.4-2.5,20-4.9,35.4"/>
		<g>
			<g>
				<rect x="544.9" y="301.6" class="st2" width="27.8" height="2.1"/>
				<rect x="544.9" y="322.6" class="st2" width="27.8" height="2.1"/>
				<rect x="572.7" y="298" class="st2" width="4.1" height="35.3"/>
				<path class="st2" d="M574.7,331.3c-3.9,0-7,3.1-7,7c0,3.9,3.1,7,7,7s7-3.1,7-7C581.7,334.4,578.6,331.3,574.7,331.3z
					 M574.7,342.3c-2.2,0-4-1.8-4-4c0-2.2,1.8-4,4-4s4,1.8,4,4C578.7,340.5,576.9,342.3,574.7,342.3z"/>
				<ellipse class="st2" cx="574.7" cy="338.3" rx="2.5" ry="2.5"/>
				<rect x="540.8" y="298" class="st2" width="4.1" height="35.3"/>
				<ellipse class="st2" cx="542.8" cy="338.3" rx="2.5" ry="2.5"/>
				<path class="st2" d="M542.8,331.3c-3.9,0-7,3.1-7,7c0,3.9,3.1,7,7,7s7-3.1,7-7C549.8,334.4,546.7,331.3,542.8,331.3z
					 M542.8,342.3c-2.2,0-4-1.8-4-4c0-2.2,1.8-4,4-4s4,1.8,4,4C546.8,340.5,545,342.3,542.8,342.3z"/>
			</g>
		</g>
		<g>
			<ellipse class="st11" cx="127.5" cy="261.4" rx="12.7" ry="12.7"/>
			<line class="st11" x1="111.7" y1="241.6" x2="126.6" y2="248.7"/>
			<line class="st11" x1="117.9" y1="238" x2="130.2" y2="248.9"/>
			<line class="st11" x1="125.3" y1="236.2" x2="134.1" y2="250.6"/>
			<line class="st11" x1="133" y1="236.9" x2="136.6" y2="252.5"/>
			<line class="st11" x1="139.3" y1="239.1" x2="138.7" y2="255.4"/>
			<line class="st11" x1="145.8" y1="244" x2="139.9" y2="258.5"/>
			<line class="st11" x1="150.2" y1="250.2" x2="140.2" y2="262.3"/>
			<line class="st11" x1="152.5" y1="257.2" x2="139.3" y2="266.1"/>
			<line class="st11" x1="152.7" y1="264.4" x2="137.6" y2="269.1"/>
			<line class="st11" x1="150.5" y1="271.9" x2="134.9" y2="271.7"/>
			<line class="st11" x1="146.6" y1="278.4" x2="131.5" y2="273.5"/>
			<line class="st11" x1="140.5" y1="283.3" x2="127.3" y2="274.1"/>
			<line class="st11" x1="133.7" y1="286.3" x2="123.5" y2="273.5"/>
			<line class="st11" x1="125.8" y1="287" x2="120.3" y2="271.9"/>
			<line class="st11" x1="118.3" y1="285.3" x2="117.5" y2="269.3"/>
			<line class="st11" x1="111.7" y1="281.6" x2="115.6" y2="265.8"/>
			<line class="st11" x1="106.3" y1="275.7" x2="114.8" y2="261.7"/>
			<line class="st11" x1="103.1" y1="268.8" x2="115.5" y2="257.2"/>
			<line class="st11" x1="102.1" y1="261.6" x2="116.8" y2="254.5"/>
			<line class="st11" x1="103.3" y1="253.8" x2="119.3" y2="251.7"/>
			<line class="st11" x1="106.3" y1="247.5" x2="123" y2="249.4"/>
		</g>
		<g>
			<ellipse class="st12" cx="542.1" cy="274.9" rx="3" ry="3"/>
			<ellipse class="st12" cx="558.1" cy="274.9" rx="3" ry="3"/>
			<ellipse class="st12" cx="573.1" cy="274.9" rx="3" ry="3"/>
		</g>
		<g>
			<path class="st13" d="M652.9,303.7L652.9,303.7c-1.1,0-2-0.9-2-2V257c0-1.1,0.9-2,2-2h0c1.1,0,2,0.9,2,2v44.6
				C654.9,302.8,654,303.7,652.9,303.7z"/>
			<path class="st13" d="M658.9,303.7L658.9,303.7c-1.1,0-2-0.9-2-2V257c0-1.1,0.9-2,2-2l0,0c1.1,0,2,0.9,2,2v44.6
				C660.9,302.8,660,303.7,658.9,303.7z"/>
			<path class="st13" d="M664.9,303.7L664.9,303.7c-1.1,0-2-0.9-2-2V257c0-1.1,0.9-2,2-2l0,0c1.1,0,2,0.9,2,2v44.6
				C666.9,302.8,666,303.7,664.9,303.7z"/>
			<path class="st13" d="M670.9,303.7L670.9,303.7c-1.1,0-2-0.9-2-2V257c0-1.1,0.9-2,2-2l0,0c1.1,0,2,0.9,2,2v44.6
				C672.9,302.8,672,303.7,670.9,303.7z"/>
			<path class="st13" d="M676.9,303.7L676.9,303.7c-1.1,0-2-0.9-2-2V257c0-1.1,0.9-2,2-2h0c1.1,0,2,0.9,2,2v44.6
				C678.9,302.8,678,303.7,676.9,303.7z"/>
			<path class="st13" d="M683.7,303.7L683.7,303.7c-1.1,0-2-0.9-2-2V257c0-1.1,0.9-2,2-2l0,0c1.1,0,2,0.9,2,2v44.6
				C685.7,302.8,684.8,303.7,683.7,303.7z"/>
			<path class="st13" d="M689.9,303.7L689.9,303.7c-1.1,0-2-0.9-2-2V257c0-1.1,0.9-2,2-2l0,0c1.1,0,2,0.9,2,2v44.6
				C691.9,302.8,691,303.7,689.9,303.7z"/>
		</g>
		<circle class="st14" cx="197.1" cy="225.1" r="1"/>
		<ellipse class="st15" cx="205.5" cy="258.1" rx="1.8" ry="1.8"/>
		<circle class="st15" cx="205.9" cy="247.5" r="1"/>
		<ellipse class="st15" cx="215.9" cy="252.9" rx="1.8" ry="1.8"/>
		<path class="st15" d="M192.5,246.1c-0.5-0.9-1.6-1.2-2.5-0.7c-0.9,0.5-1.2,1.6-0.7,2.5c0.5,0.9,1.6,1.2,2.5,0.7
			C192.7,248.1,193,246.9,192.5,246.1z"/>
		<path class="st15" d="M195.4,234.5c-0.5-0.9-1.6-1.2-2.4-0.7c-0.9,0.5-1.1,1.6-0.7,2.5s1.6,1.2,2.4,0.7
			C195.6,236.5,195.9,235.4,195.4,234.5z"/>
		<circle class="st15" cx="200.1" cy="242.2" r="1"/>
		<circle class="st15" cx="188.1" cy="235.2" r="1"/>
		<circle class="st15" cx="201.1" cy="216.1" r="1"/>
		<circle class="st15" cx="207" cy="200.1" r="1"/>
		<path class="st15" d="M225.1,156.4c0,0-10.7,1.7-23.7,0.3c-13.4-1.5-23.7-0.3-23.7-0.3c0,13.1,10.6,23.8,23.7,23.8
			S225.1,169.5,225.1,156.4z"/>
		<circle class="st15" cx="211.9" cy="143.3" r="1"/>
		<ellipse class="st15" cx="216.9" cy="146.8" rx="1.8" ry="1.8"/>
		<circle class="st15" cx="197.1" cy="190.1" r="1"/>
		<path class="st14" d="M205.9,297.2h-9.5c-6.7,0-14.2-10.5-14.2-17.3v-18.5c0,0,11.1,0.4,18.2,1.9c9.2,2,19.7-1.9,19.7-1.5v18.1
			C220.1,286.7,212.6,297.2,205.9,297.2z"/>
		<ellipse class="st16" cx="201.3" cy="273" rx="1.8" ry="1.8"/>
		<ellipse class="st16" cx="190.9" cy="278.2" rx="1.8" ry="1.8"/>
		<path class="st16" d="M214.2,285.1c0.5,0.9,1.6,1.2,2.5,0.7s1.2-1.6,0.7-2.5c-0.5-0.9-1.6-1.2-2.5-0.7
			C214,283.1,213.7,284.2,214.2,285.1z"/>
		<circle class="st16" cx="206.7" cy="289" r="1"/>
		<ellipse class="st16" cx="201.3" cy="161.9" rx="1.8" ry="1.8"/>
		<ellipse class="st16" cx="190.9" cy="167.1" rx="1.8" ry="1.8"/>
		<path class="st16" d="M211.3,168c0.5,0.9,1.6,1.2,2.5,0.7c0.9-0.5,1.2-1.6,0.7-2.5c-0.5-0.9-1.6-1.2-2.5-0.7
			C211,166,210.7,167.1,211.3,168z"/>
		<circle class="st16" cx="203.7" cy="171.9" r="1"/>
		<g>
			<path class="st17" d="M881.1,255c0,3.1,0,6.3,0,9.4c0,2.5,0,5.2,2.1,7c1.1,0.9,4.1,3.8,6.8,7.5c3.6,4.9,7,12.5,7,12.5
				s4-7.1,6.7-11c1.8-2.6,5.5-6.2,7.9-8.1c2.3-1.8,2.3-4.3,2.3-7c0-3.3-0.1-6.5-0.1-9.8"/>
			<path class="st18" d="M913.9,255.6c-0.3,0-0.7-0.1-1-0.1c0,3.1-0.6,13.1-2.9,16.3c-2.6,3.7-6.5,6.8-12.6,6.8
				c-6.6,0-11.6-5.3-13.5-9.7c-1.6-3.6-1.8-11-1.8-14.1c-1.4,0-3.8,1-3.8,1s-0.2,5-0.3,7c-0.1,1.7,0,3.5-0.1,5.2
				c-0.2,2.2-0.8,4.2-1.3,6.3c-0.9,4.2-0.7,8.6,0,12.9c0.2,1.1,0.4,2.2,0.6,3.3c0.1,0.7,0.1,2.1,0.5,2.6c0.8,0.9,3.9,0.2,5,0.1
				c4.1-0.3,8.2-1.3,12.3-1.6c4.1-0.4,8.2,1,12.3,1.5c1.9,0.2,3.8,0.4,5.7,0.4c0.9,0,1.8,0.1,2.8,0.1c0.2,0,1.1,0.1,1.1,0.1
				c0.2-0.1,0.4-1.5,0.4-1.7c0.9-3.9,1.7-8,1.8-12.1c0.1-4.4-1.9-8.3-2.2-12.6c-0.2-2.4-0.1-4.8-0.3-7.2c-0.1-1-0.3-4.1-0.3-4.1
				S914.9,255.8,913.9,255.6"/>
			<path class="st19" d="M877.7,293.5c0.1,0.6,0.3,8.2,0.6,8.6c0.4,0.5,1.2,0.4,1.7,0.4c2.1,0.1,4.2-0.1,6.3-0.4
				c3.8-0.4,7.8-1.6,11.6-1.3c3.9,0.3,7.6,1.4,11.6,1.6c1.9,0.1,3.8,0.6,5.7,0.4c1.6-0.1,1.5-7.9,1.8-9.3"/>
			<path class="st17" d="M918.5,274.5c-6.2,4.1-8,5.7-10.6,7.7c-5.3,4.1-10.5,8.4-10.5,9.2"/>
			<path class="st17" d="M897,291.5c-2.4-3.9-5.6-7-9-9.8c-4-3.2-6.8-5.4-11.3-7.3"/>
			<path class="st20" d="M896,299.6c-5.2,0.2-8.8,1.6-12,1.8c-1.5,0.1-5.8,0-5.8,0l-0.4-6.4c0,0,6.3-0.3,8.3-0.6
				c4.4-0.6,6.6-1.3,9-1.5C895.9,292.7,896.7,299.6,896,299.6z"/>
			<path class="st17" d="M918.9,285.1c-1.6,1.6-5.7,2.2-7.9,2.8c-3.9,1-9.4,1.5-14,3.6"/>
			<path class="st17" d="M897,291.5c-2.7-3.2-16.9-5-20.6-7.2"/>
		</g>
		<g>
			<path class="st17" d="M781.1,261.2c0,3.1,0,6.3,0,9.4c0,2.5,0,5.2,2.1,7c1.1,0.9,2.4,1.5,3.6,2.3c1.1,0.8,2.2,1.7,3.3,2.6
				c1.2,0.9,2.4,1.9,3.6,2.9c1,0.9,1.8,1.9,3.2,2.2c3.1,0.8,5.1-2.1,7.3-3.8c2.3-1.9,5-3.3,7.4-5.2c2.3-1.8,2.3-4.3,2.3-7
				c0-3.3-0.1-6.5-0.1-9.8"/>
			<path class="st18" d="M813.8,261.8c-0.3,0-0.7-0.1-1-0.1c0,3.1,0,6.2,0.1,9.4c0.1,2.6,0,5.3-2.2,7.1c-1,0.8-2.2,1.2-3.3,1.9
				c-1.2,0.7-2.2,1.5-3.3,2.3c-1.9,1.6-4,4.1-6.7,3.9c-2.4-0.2-4.6-3.3-6.4-4.7c-2.1-1.7-4.4-3.1-6.6-4.6c-2.3-1.6-2.2-4.2-2.2-6.7
				c0-3.1,0-6.1,0-9.2c-1.4,0-3.8,0.8-3.8,0.8s-0.2,5.2-0.3,7.2c-0.1,1.7,0,3.5-0.1,5.2c-0.2,2.2-0.8,4.2-1.3,6.3
				c-0.9,4.2-0.7,8.6,0,12.9c0.2,1.1,0.4,2.2,0.6,3.3c0.1,0.7,0.1,2.1,0.5,2.6c0.8,0.9,3.9,0.2,5,0.1c4.1-0.3,8.2-1.3,12.3-1.6
				c4.1-0.4,8.2,1,12.3,1.5c1.9,0.2,3.8,0.4,5.7,0.4c0.9,0,1.8,0.1,2.8,0.1c0.2,0,1.1,0.1,1.1,0.1c0.2-0.1,0.4-1.5,0.4-1.7
				c0.9-3.9,1.7-8,1.8-12.1c0.1-4.4-1.9-8.3-2.2-12.6c-0.2-2.4-0.1-4.8-0.3-7.2c-0.1-1-0.3-4.1-0.3-4.1S814.8,262,813.8,261.8"/>
			<path class="st19" d="M778,299.7c0.1,0.6,0,2.2,0.4,2.7c0.4,0.5,1.2,0.4,1.7,0.4c2.1,0.1,4.2-0.1,6.3-0.4
				c3.8-0.4,7.8-1.6,11.6-1.3c3.9,0.3,7.6,1.4,11.6,1.6c1.9,0.1,3.8,0.6,5.7,0.4c1.6-0.1,1.4-2,1.7-3.4"/>
			<path class="st17" d="M818.8,283.3c-1.6,1.6-2.9,1.9-5.1,2.4c-2.2,0.5-4.3,1.5-6.3,2.7c-1.8,1.1-3.5,2.5-5,4.1
				c-0.7,0.8-1.4,1.6-2,2.5c-0.5,0.7-1.6,1.9-1.6,2.8"/>
			<path class="st17" d="M795.3,297.7c-1.7-4-3.7-7.2-7.3-9.8c-3.6-2.5-7.9-3.2-11.5-5.4"/>
			<path class="st17" d="M779.3,261.7c-0.1,2.7-0.3,5.4-0.3,8.2c0,1.2-0.2,2.4-0.4,3.7c-0.2,1.1-0.6,2.9-1.2,3.8"/>
			<path class="st17" d="M815.6,262.3c0,2.8,0.1,5.6,0.2,8.3c0.1,2.4,0.4,5.4,1.9,7.4"/>
		</g>
		<g>
			<path class="st1" d="M825.5,273.6c-0.3,0.9-0.6,1.7-0.8,2.6c-0.3,1.2-0.4,2.4-0.9,3.5c-0.5,1.1-0.4,2.2-0.5,3.2
				c-0.1,1.1,0,2.2,0.1,3.3c0.2,2.9,0.9,5.8,2.1,8.5c0.3,0.7,0.7,1.3,1,2c0.2,0.4,0.2,0.8,0.4,1.1c0.2,0.3,0.5,0.5,0.7,0.8
				c1.2,1.9,3,2.9,5.2,3.2c2.6,0.4,4.9-0.4,6.8-2c1.4-1.1,2.6-2.4,3.7-3.8c0.9-1.1,1.6-2.4,2.2-3.8c0.2-0.4,0-0.6-0.2-0.8
				c-0.7-0.6-1.1-1.4-1.6-2.1c-2.1-2.9-4.8-5.3-7.6-7.4c-1.2-0.9-2.6-1.9-4-2.5c-2.8-1.3-4.8-3.3-6.3-5.9c-0.2-0.3-0.1-0.9,0-1.3
				c0.2-2.1,0.5-4.2,0.7-6.3c0.2-2.2,0.3-4.5,0.4-6.7c0-0.3,0-0.6,0.1-0.9"/>
			<path class="st1" d="M865.7,258.8c1,0.2,1.4,0.7,1.5,1.8c0.2,2.7,0.4,5.3,0.7,8c0.2,2,0.6,3.9,0.8,5.9c0.2,1.7,0.7,3.4,0.3,5.1
				c-0.4,1.7,0.1,3.4,0,5.2c-0.2,4.4-1.2,8.7-3.4,12.5c-0.4,0.7-1.2,1.2-1.9,1.7c-1.2,0.9-2.5,1.7-4,2c-1.4,0.2-2.7,0.1-4-0.4
				c-2.4-1-4-2.9-5.4-5c-0.8-1.3-1.5-2.6-2.2-4c-0.2-0.4-0.2-0.6,0-1.1c1-1.9,2.5-3.4,4.1-4.9c2.2-2.1,4.6-4,7.2-5.5
				c1-0.6,2.1-1.1,3.1-1.7c1.7-1,2.8-2.5,3.8-4.1c0.1-0.2,0.4-0.4,0.6-0.6"/>
			<path class="st1" d="M826.6,258.8c0,0-0.1,0-0.1,0c-1.2,0.4-1.2,0.5-1.3,1.8c-0.1,2.1-0.3,4.2-0.6,6.3c-0.4,3.3-0.9,6.7-1.3,10
				c-0.2,1.1-0.2,2.1,0.1,3.2"/>
			<path class="st1" d="M844.4,291c-0.9,2.1-2,4.1-3.5,5.9c-1.1,1.4-2.3,2.5-3.9,3.4c-2.4,1.2-4.7,1-6.9-0.2c-1-0.6-1.9-1.4-2.9-2.1
				c-0.1-0.1-0.3-0.2-0.4-0.3"/>
			<path class="st1" d="M847.8,291C847.8,291,847.7,291,847.8,291c-1.1,0.8-1.1,0.9-0.6,2c1.5,2.9,3.3,5.4,6,7.3
				c1.8,1.3,3.8,1.9,6,1.7c2.3-0.2,4.3-1.1,5.6-3.1c0.2-0.2,0.4-0.4,0.6-0.6"/>
			<path class="st1" d="M865.5,258.5c0,0.1,0.1,0.2,0.1,0.3c0.2,3.2,0.3,6.5,0.5,9.7c0.1,1.7,0.3,3.4,0.7,5.1
				c0.4,1.8,0.9,3.5,1.4,5.2c0.1,0.5,0.4,0.9,0.5,1.4"/>
			<path class="st1" d="M843.3,296.2c1.9,0,3.8,0,5.8,0"/>
			<path class="st1" d="M844.3,294.6c1.2,0,2.4,0,3.5,0"/>
			<path class="st1" d="M826.8,298.2c0,0.5-0.1,0.9-0.1,1.4c0,0.1,0.3,0.4,0.4,0.4c0.3,0,0.6-0.1,0.8-0.2"/>
			<path class="st1" d="M865.5,297.6c0,0.6,0,1.2,0,1.7c0,0.7,0,0.7-0.8,0.6c-0.2,0-0.3-0.1-0.5-0.1"/>
		</g>
		<g>
			<g>
				<g id="_x35_6-interface_-_like_heart_love_46_" class="st21">
					<g id="_x35_6-interface_-_like_heart_love_47_">
						<g>
							<path class="st22" d="M785,182.7c-1.3,0.5-2.3,3.5-2.3,3.5s-2.5-1.8-3.7-1.3c-2.6,1-3.4,2.9-2.5,5.9
								c0.8,2.8,10.1,8.2,10.1,8.2s4.5-10.4,3.6-13.2C789.3,182.8,787.6,181.8,785,182.7z"/>
						</g>
					</g>
				</g>
				<g id="Layer_1_24_">
				</g>
			</g>
			<g>
				<g id="_x35_6-interface_-_like_heart_love_44_" class="st21">
					<g id="_x35_6-interface_-_like_heart_love_45_">
						<g>
							<path class="st22" d="M927.6,229.5c-1-0.3-2.8,1.1-2.8,1.1s-0.8-2.3-1.7-2.6c-2-0.7-3.2,0.1-3.8,2.3
								c-0.6,2.1,2.9,9.8,2.9,9.8s6.8-4.1,7.4-6.3C930.2,231.5,929.6,230.1,927.6,229.5z"/>
						</g>
					</g>
				</g>
				<g id="Layer_1_23_">
				</g>
			</g>
			<g>
				<g id="_x35_6-interface_-_like_heart_love_42_" class="st21">
					<g id="_x35_6-interface_-_like_heart_love_43_">
						<g>
							<path class="st22" d="M889.4,214.8c0.8,2.8,9.9,8.5,9.9,8.5s4.7-10.3,4-13.1c-0.8-3-2.5-4-5.1-3.2c-1.3,0.4-2.3,3.5-2.3,3.5
								s-2.4-1.9-3.7-1.5C889.4,209.9,888.5,211.8,889.4,214.8z"/>
						</g>
					</g>
				</g>
				<g id="Layer_1_22_">
				</g>
			</g>
			<g>
				<g id="_x35_6-interface_-_like_heart_love_40_" class="st21">
					<g id="_x35_6-interface_-_like_heart_love_41_">
						<g>
							<path class="st22" d="M869.2,239.4c1.6,1.4,9.3,0.7,9.3,0.7s-1-8.5-2.6-9.9c-1.7-1.5-3.1-1.3-4.4,0.4
								c-0.6,0.9-0.1,3.2-0.1,3.2s-2.2,0-2.8,0.8C867.4,236.4,867.5,237.9,869.2,239.4z"/>
						</g>
					</g>
				</g>
				<g id="Layer_1_21_">
				</g>
			</g>
			<g>
				<g id="_x35_6-interface_-_like_heart_love_38_" class="st21">
					<g id="_x35_6-interface_-_like_heart_love_39_">
						<g>
							<path class="st22" d="M791.9,225.3c2.4,1.3,12.3-2.3,12.3-2.3s-3.6-10.8-6.1-12.1c-2.6-1.4-4.4-0.7-5.6,2
								c-0.6,1.3,0.7,4.3,0.7,4.3s-2.9,0.7-3.5,2C788.6,222,789.3,224,791.9,225.3z"/>
						</g>
					</g>
				</g>
				<g id="Layer_1_20_">
				</g>
			</g>
			<g>
				<g id="_x35_6-interface_-_like_heart_love_36_" class="st21">
					<g id="_x35_6-interface_-_like_heart_love_37_">
						<g>
							<path class="st22" d="M849.4,212.6c-0.6,2.1,2.9,9.8,2.9,9.8s6.8-4.2,7.4-6.3c0.6-2.2,0-3.7-2-4.3c-1-0.3-2.8,1.1-2.8,1.1
								s-0.8-2.3-1.7-2.6C851.3,209.6,850,210.3,849.4,212.6z"/>
						</g>
					</g>
				</g>
				<g id="Layer_1_19_">
				</g>
			</g>
			<g>
				<g id="_x35_6-interface_-_like_heart_love_34_" class="st21">
					<g id="_x35_6-interface_-_like_heart_love_35_">
						<g>
							<path class="st22" d="M885,182c-0.8-1.2-3.8-1.2-3.8-1.2s0.8-3.1,0-4.3c-1.6-2.4-3.5-2.7-5.8-0.8c-2.1,1.8-3.8,13.2-3.8,13.2
								s10.4,1.4,12.5-0.4C886.4,186.5,886.7,184.4,885,182z"/>
						</g>
					</g>
				</g>
				<g id="Layer_1_18_">
				</g>
			</g>
			<g>
				<g id="_x35_6-interface_-_like_heart_love_32_" class="st21">
					<g id="_x35_6-interface_-_like_heart_love_33_">
						<g>
							<path class="st22" d="M762.2,236.7c-0.9,0.4-1.5,2.8-1.5,2.8s-1.9-1.2-2.8-0.8c-1.9,0.9-2.4,2.3-1.6,4.5
								c0.8,2,7.9,5.5,7.9,5.5s2.8-8,2-10.1C765.4,236.5,764.1,235.9,762.2,236.7z"/>
						</g>
					</g>
				</g>
				<g id="Layer_1_17_">
				</g>
			</g>
			<g>
				<g id="_x35_6-interface_-_like_heart_love_30_" class="st21">
					<g id="_x35_6-interface_-_like_heart_love_31_">
						<g>
							<path class="st22" d="M828,227.1c-0.9-0.4-2.9,0.7-2.9,0.7s-0.5-2.4-1.5-2.8c-1.9-0.9-3.2-0.3-4,1.9
								c-0.8,2,1.9,10.1,1.9,10.1s7.2-3.3,8-5.4C830.4,229.5,829.9,228,828,227.1z"/>
						</g>
					</g>
				</g>
				<g id="Layer_1_16_">
				</g>
			</g>
			<g>
				<g id="_x35_6-interface_-_like_heart_love_28_" class="st21">
					<g id="_x35_6-interface_-_like_heart_love_29_">
						<g>
							<path class="st22" d="M819.6,189.4c-0.6,2.9,4.7,12.8,4.7,12.8s8.8-6.3,9.4-9.1c0.7-3.1-0.3-4.9-3-5.6
								c-1.3-0.3-3.6,1.7-3.6,1.7s-1.2-3-2.5-3.3C821.9,185.2,820.3,186.3,819.6,189.4z"/>
						</g>
					</g>
				</g>
				<g id="Layer_1_15_">
				</g>
			</g>
			<g>
				<g id="_x35_6-interface_-_like_heart_love_26_" class="st21">
					<g id="_x35_6-interface_-_like_heart_love_27_">
						<g>
							<path class="st22" d="M854.5,246.3c-1.3-0.5-3.7,1.3-3.7,1.3s-1-3.1-2.3-3.5c-2.6-1-4.3,0-5.2,3c-0.9,2.8,3.6,13.2,3.6,13.2
								s9.2-5.4,10.1-8.2C857.9,249.2,857.1,247.3,854.5,246.3z"/>
						</g>
					</g>
				</g>
				<g id="Layer_1_14_">
				</g>
			</g>
			<g>
				<g id="_x35_6-interface_-_like_heart_love_24_" class="st21">
					<g id="_x35_6-interface_-_like_heart_love_25_">
						<g>
							<path class="st22" d="M739.1,216c0.8,2.8,9.9,8.5,9.9,8.5s4.7-10.3,4-13.1c-0.8-3-2.5-4-5.1-3.2c-1.3,0.4-2.3,3.5-2.3,3.5
								s-2.4-1.9-3.7-1.5C739.2,211.1,738.3,213,739.1,216z"/>
						</g>
					</g>
				</g>
				<g id="Layer_1_12_">
				</g>
			</g>
		</g>
		<g>
			<g>
				<path class="st23" d="M375.3,39.4c0.9,3.2,11.2,5.5,6.2-12.2C375.8,6.6,391.2,1.5,398,5.3c8.7-1.9,18.2,8,11.7,24.8
					c-6.6,17.1,2.9,16,4.4,13C403.1,64.8,381.9,62.9,375.3,39.4z"/>
				<path class="st24" d="M399.3,39c-0.1,0.1-10-0.7-10.1-0.6c-3.6,4.1-10.5,5.4-15.9,6c-5.4,0.6-6.3,7.4-6.8,11.9l51.7,5.4
					c0.5-4.5,1-11.3-4.2-13C408.7,46.9,401.8,43.9,399.3,39z"/>
				<path class="st24" d="M400.6,29.5l-1.3,12.7c-3.2,3.5-7.9,2.9-10.4-1.1l1.3-12.7C390.9,21.6,401.3,22.6,400.6,29.5z"/>
				<path class="st25" d="M400.6,29.5l-0.9,8.5c-2.1,1.3-4.1,2-5.4,1.9c-1.3-0.1-3.1-1.2-4.9-2.9l0.9-8.5
					C390.9,21.6,401.3,22.6,400.6,29.5z"/>
				<path class="st24" d="M394.5,37.8c-3.4-0.3-10-6.4-11.4-14.3C381.7,15.6,387,5,397.8,6.1s13.8,12.6,10.8,20.1
					C405.5,33.6,397.9,38.1,394.5,37.8z"/>
				<path class="st26" d="M391.4,29.7c1.9-1.5,3.1-0.1,4.1,0c1,0.1,2.5-1,4,0.8C398.2,34.9,392.2,34.4,391.4,29.7z"/>
				<path class="st26" d="M367.5,50.3c-0.6,2-0.9,4.2-1.1,6l51.7,5.4c0.2-1.8,0.4-4,0.2-6.1L367.5,50.3z"/>
				<path class="st27" d="M391.4,29.7c1.9-1.5,3.1-0.1,4.1,0c1,0.1,2.5-1,4,0.8C396.8,31.6,393.1,30.6,391.4,29.7z"/>
				<path class="st23" d="M382.8,15.6c2.1-15.6,29-11.3,27.7,2.9C402.3,19.6,389.5,17.9,382.8,15.6z"/>
				<path class="st24" d="M381.4,18.7c1.1-0.4,2.5,1,3.2,2.9c0.6,2,0.2,3.8-0.9,4.2c-1.1,0.4-2.5-1-3.2-2.9
					C379.8,20.9,380.2,19,381.4,18.7z"/>
				<path class="st24" d="M411.3,21.8c-1-0.6-2.7,0.4-3.7,2.2c-1,1.8-1,3.7,0.1,4.3c1,0.6,2.7-0.4,3.7-2.2
					C412.4,24.3,412.4,22.3,411.3,21.8z"/>
				<path class="st23" d="M404,14.5c5.1,4.1,4.9,8.8,4.8,12.4C411.6,24.1,412.9,13.3,404,14.5z"/>
				<path class="st23" d="M390,13.1c-5.8,2.9-6.6,7.6-7.2,11.2C380.6,20.9,381.5,10.1,390,13.1z"/>
				<g>
					<path class="st28" d="M375.7,57.3c0.1-1,0.4-2.2,0.8-3.7c-0.6,1.4-1.1,2.6-1.4,3.6L375.7,57.3z"/>
					<path class="st28" d="M408.9,60.7c0.1-1,0.1-2.3,0-3.8c0.3,1.5,0.5,2.8,0.6,3.9L408.9,60.7z"/>
				</g>
			</g>
			<g>
				<path class="st29" d="M280.5,48.3c-1.2,0.3-1.7,2.1-1.2,4.1c0.5,2,1.8,3.4,3,3.1c1.2-0.3,1.7-2.1,1.2-4.1
					C283,49.4,281.6,48,280.5,48.3z"/>
				<path class="st30" d="M264.6,87.5c-1.7-0.5-2-2.1-1.2-3.8c1.1-2.5-0.6-3.8-3.7-3.1c-3.1,0.7-5.9-2.2-4.8-5.8
					c1.1-3.6,0.7-5.5-2.8-6.6c-3.5-1.1-5.2-6.1-3-8.7c2.2-2.5,1.6-2.5,0.6-5.1c-1.8-4.4,0.4-10.4,4.4-9.7c0.3-6.4,9.8-8.8,13.8-6.1
					c4.3,2.8,5.5,1.9,8.4,1.4c2.9-0.5,7.1,3.9,7.1,7.1c-0.1,4.2,1.9,4.6,5.4,3.9c3.5-0.6,4.3,1.7,3,4.3c-1.2,2.6-1.1,5.4,1.6,5
					c2-0.2,3.2,0.6,3.9,2.7C300.8,73,278.6,91.7,264.6,87.5z"/>
				<path class="st31" d="M282.2,67.8c0,0.2-7.9,6.3-7.8,6.5c0.2,5.5-4.1,11.1-7.7,15.2c-3.6,4.2,0.3,9.7,3,13.4l41.7-31.2
					c-2.7-3.6-6.8-9-11.9-6.7C294.4,67.3,287.4,69.8,282.2,67.8z"/>
				<path class="st31" d="M276.8,60l7.6,10.3c0,4.7-3.9,7.5-8.4,6.3l-7.6-10.3C264.3,60.7,272.7,54.4,276.8,60z"/>
				<path class="st25" d="M276.8,60l5.1,6.9c-0.7,2.4-1.7,4.3-2.7,5.1s-3.1,1.2-5.6,1.2l-5.1-6.9C264.3,60.7,272.7,54.4,276.8,60z"
					/>
				<path class="st31" d="M277.9,70.2c-2.7,2-11.7,2-18-2.8c-6.4-4.9-9.6-16.3-1-22.8c8.7-6.5,18.6-0.1,21.5,7.4
					C283.1,59.6,280.6,68.2,277.9,70.2z"/>
				<path class="st26" d="M270,66.5c0.4-2.4,2.2-2.2,3-2.8c0.8-0.6,1.1-2.4,3.5-2.1C278.4,65.7,273.7,69.4,270,66.5z"/>
				<path class="st32" d="M270.6,66.4c0.6-0.8,4.4-3.7,5.7-4.3C276.6,64.4,272.4,67.3,270.6,66.4z"/>
				<path class="st26" d="M270,66.5c0.4-2.4,2.2-2.2,3-2.8c0.8-0.6,1.1-2.4,3.5-2.1C275.2,64.2,271.8,66,270,66.5z"/>
				<path class="st33" d="M274,97.5c-0.1-9.5,10.1-9.1,14.2-12.2c4.1-3.1,6-13.7,15.7-10.2L274,97.5z"/>
				<path class="st30" d="M283.4,59.3c0.8,5.5,1-16.2-14.9-18.7c-9.5-1.5-18.1,5.6-17.1,14.3c3.6,1.3,9,0.9,13.2-2.4
					c7.2-5.6,2.7,4.9,9.3,1.2c4.7-2.7,4.5-1.2,4.1,2.7C277.9,59.2,279.9,61,283.4,59.3z"/>
				<path class="st31" d="M256.3,66.3c0.6-1,2.5-1,4.3,0c1.8,1,2.7,2.7,2.1,3.7c-0.6,1-2.5,1-4.3,0C256.7,69,255.8,67.4,256.3,66.3z
					"/>
				<path class="st30" d="M255.7,52c1.7,4,5,5.6,2.5,7.9c-3.3,3.1,0.1,4.1,1.9,7.1C256.2,66,247.4,55.5,255.7,52z"/>
			</g>
			<g>
				<path class="st34" d="M320.1,9.5c0.4-0.1,0.8-0.1,1.2-0.1c0.2-1.3,1-2.3,2.3-2.7c1.6-0.5,3.3,0.4,3.9,2c0.4-0.6,1-1,1.7-1.2
					c1.7-0.5,3.5,0.5,4,2.3c0.4-0.4,0.8-0.6,1.3-0.8c1.7-0.5,3.5,0.6,4.1,2.4c0.1,0.5,0.2,1,0.1,1.5c0.2-0.1,0.4-0.2,0.6-0.2
					c1.7-0.5,3.5,0.6,4.1,2.4c0.2,0.7,0.2,1.4,0,2.1c0.6,0.4,1.1,1.1,1.3,1.9c0.3,1,0.1,2-0.3,2.8c0.7,0.4,1.3,1.2,1.6,2.1
					c0.4,1.4,0,2.8-1,3.6c0.7,0.4,1.2,1.1,1.4,2c0.4,1.5-0.1,3-1.3,3.8c0.2,0.3,0.3,0.5,0.4,0.8c0.5,1.8-0.3,4.2-2.1,4.2
					c0.5,1.4-0.9,4.6-3.5,3.7c-0.1,4.1-8.2,5.8-10.7,3.1c-1.1,2.3-4.4,1.7-5.1-0.4c-1.8,0.6-3.6-0.6-4.1-2.4
					c-0.1-0.3-0.1-0.5-0.1-0.8c-1.6,0.2-3.1-0.8-3.6-2.5c-0.1-0.4-0.1-0.7-0.1-1.1c-1.4,0-2.7-1-3.2-2.5c-0.1-0.4-0.2-0.8-0.1-1.2
					c-0.9-0.4-1.6-1.2-1.9-2.2c-0.3-1-0.1-2,0.3-2.8c-0.6-0.4-1.2-1.1-1.4-1.9c-0.4-1.3,0-2.6,0.9-3.5c-0.2-0.3-0.4-0.7-0.5-1
					c-0.5-1.8,0.4-3.7,2.1-4.2c0.1,0,0.2-0.1,0.3-0.1c0-1.2,0.7-2.4,1.7-2.9c0-0.1,0-0.1-0.1-0.2c-0.5-1.8,0.4-3.7,2.1-4.2
					c0.6-0.2,1.3-0.2,1.9,0.1C318.4,10.5,319.1,9.8,320.1,9.5z"/>
				<path class="st35" d="M338.2,42.8c-0.1,0.2-9.5,3.1-9.6,3.3c-1.7,5.2-7.7,8.9-12.5,11.6c-4.8,2.6-3.1,9.2-1.8,13.6l49.9-14.6
					c-1.3-4.3-3.3-10.8-8.8-10.5C349.8,46.5,342.4,46.4,338.2,42.8z"/>
				<path class="st35" d="M335.9,33.5l3.6,12.3c-1.7,4.4-6.2,5.6-10,2.9l-3.6-12.3C323.9,29.8,333.9,26.9,335.9,33.5z"/>
				<path class="st36" d="M335.9,33.5l2.4,8.2c-1.5,2-3,3.4-4.3,3.8s-3.4,0.1-5.7-0.9l-2.4-8.2C323.9,29.8,333.9,26.9,335.9,33.5z"
					/>
				<path class="st35" d="M333.3,43.5c-3.3,1-11.6-2.2-15.9-8.9c-4.3-6.8-3.4-18.6,7-21.7c10.4-3,17.5,6.4,17.5,14.5
					C342,35.4,336.6,42.5,333.3,43.5z"/>
				<path class="st37" d="M326.1,37.4c1.7-2.3,4.3-2,5.1-2.2c0.8-0.2,2.7-1.8,5.3-0.8C336.7,39.2,329.1,41.5,326.1,37.4z"/>
				<path class="st38" d="M326.2,37.4c1.8-1.3,4-0.4,5.3-0.8c1.3-0.4,2.5-2.8,4.9-2.1C334.8,37.6,329.3,39.1,326.2,37.4z"/>
				<path class="st32" d="M326.2,37.4c1.9-1.6,3.7-1.4,5-1.7s2.9-1.6,5.4-1.3C334.6,36.4,329,38,326.2,37.4z"/>
				<path class="st37" d="M326.1,37.4c1.7-2.2,3.9-1.7,5.2-2.1c1.3-0.4,2.5-1.9,5.2-1c0,0,0,0,0,0.1
					C333.7,35.2,329.1,36.6,326.1,37.4z"/>
				<path class="st35" d="M314.6,32.3c0.9-0.8,2.7-0.1,4,1.5c1.3,1.6,1.6,3.5,0.7,4.3c-0.9,0.8-2.7,0.1-4-1.5
					C314,34.9,313.7,33,314.6,32.3z"/>
				
					<ellipse transform="matrix(0.1213 -0.9926 0.9926 0.1213 274.1503 364.7372)" class="st35" cx="343.1" cy="27.5" rx="3.7" ry="2.2"/>
				<path class="st34" d="M341.2,27.5c5.9-15.3-14.6-17.2-19.5-15.8c-4.2,1.2-13.7,16.7-3.3,23.4c-0.5-1.5-1.1-4,1-5.6
					c1.7-0.5,3.9-1.3,3.4-3c0.4,0.1,0.8,0,1.3-0.1c1.5-0.4,2.4-1.9,2.2-3.4c0.1,0,0.1,0,0.2,0c1.1-0.3,1.9-1.2,2.1-2.3
					c0.5-0.2,0.9-0.5,1.2-0.9c0.7,0.7,1.7,1.1,2.6,1c0.7,1.4,2.9,3.3,5.2,1.3C339.6,23.8,340.8,25.5,341.2,27.5z"/>
				<path class="st39" d="M315.9,57.8c3.4,2,6.8,5.4,8.3,10.5l31.2-9.1c-1.1-4.1-1.4-9,0-13l0,0c-0.2,0-0.5,0-0.7,0
					c-2.1,6.8-7,12.8-16.6,15.6c-9.2,2.7-16.1,0-21.4-4.5c-0.2,0.1-0.3,0.2-0.5,0.3C316,57.7,315.9,57.8,315.9,57.8z"/>
			</g>
			<g>
				<path class="st39" d="M440.9,45.8c7.8-20.1,17.5-26.2,28.4-20.6c10.9,5.5,11.7,18.4,0,35C458.7,60.9,445.9,53.4,440.9,45.8z"/>
				<path class="st29" d="M457.9,58.4c-0.2,0.1-9.1-4.3-9.3-4.2c-4.8,2.6-11.7,1.3-17-0.1c-5.3-1.3-8.5,4.6-10.6,8.7l46.4,23.6
					c2-4,5-10.1,0.7-13.7C463.8,69.2,458.4,64,457.9,58.4z"/>
				<path class="st29" d="M462.4,50.1l-5.8,11.4c-4.3,2.1-8.4-0.2-9.3-4.7l5.8-11.4C456.3,39.2,465.6,43.9,462.4,50.1z"/>
				<path class="st25" d="M462.4,50.1l-3.9,7.7c-2.5,0.5-4.5,0.4-5.7-0.2c-1.2-0.6-2.5-2.2-3.6-4.5l3.9-7.7
					C456.3,39.2,465.6,43.9,462.4,50.1z"/>
				<path class="st29" d="M453.8,55.6c-3-1.5-7-9.6-5.5-17.4c1.5-7.9,10.2-15.9,19.9-11c9.6,4.9,8.4,16.7,2.9,22.6
					C465.6,55.6,456.8,57.2,453.8,55.6z"/>
				<path class="st26" d="M453.8,47c2.3-0.7,2.9,1,3.8,1.5c0.9,0.5,2.7-0.1,3.5,2.2C458.3,54.2,452.8,51.6,453.8,47z"/>
				<path class="st32" d="M454.3,47.5c1,0.2,5.3,2.3,6.4,3.2C458.7,52,454.3,49.6,454.3,47.5z"/>
				<path class="st26" d="M453.8,47c2.3-0.7,2.9,1,3.8,1.5c0.9,0.5,2.7-0.1,3.5,2.2C458.1,50.6,455.1,48.4,453.8,47z"/>
				
					<ellipse transform="matrix(6.250775e-002 -0.998 0.998 6.250775e-002 381.8735 482.1653)" class="st29" cx="447.6" cy="37.8" rx="3.7" ry="2.2"/>
				<path class="st29" d="M474.7,47.7c-0.8-0.9-2.7-0.6-4.2,0.7c-1.6,1.3-2.2,3.1-1.5,4c0.8,0.9,2.7,0.6,4.2-0.7
					C474.8,50.5,475.5,48.6,474.7,47.7z"/>
				<path class="st39" d="M471.9,35.5c3.3,5.6,1.5,10,0,13.3C475.6,47.1,480.7,37.5,471.9,35.5z"/>
				<path class="st39" d="M459.3,29.1c-6.5,0.6-8.9,4.7-10.7,7.8C447.8,33,452.5,23.2,459.3,29.1z"/>
				<path class="st39" d="M451.7,28.9c7.5-13.8,31.1-0.1,24.8,12.6c-2.8-0.7-6-1.8-9.2-3.3c0.5-1.3,0.9-3.1,1.3-5.5
					c-0.8,0.8-2.1,2.8-3.2,4.6c-1.9-0.9-3.7-1.9-5.4-2.9c0.8-1.9,1.6-4,1.8-5.1c-1.6,1.6-2.7,3-3.5,4.1
					C455.7,31.9,453.4,30.3,451.7,28.9z"/>
				<g>
					<path class="st30" d="M466.9,42.7c3,1.3,4.4,2.7,4.6,2.9c0.3,0.3-0.3,1.3-0.7,1.3c-0.4,0-1.1,0.7-2.3,1.3
						c-0.8,0.4-2.6-0.2-4-0.8l0.1-0.3c1.2,0.5,2.5,1,3.3,0.9c1.5-0.2,2.4-1.7,2-2.9c-0.2-0.6-1.6-1.5-3.1-2.1L466.9,42.7z
						 M456.4,37.4l0.1,0.1c2.9,1.8,3.3,2.7,3.6,2.8c0.4,0.2,0.8,0.3,1.2,0.5c0.4,0.2,0.8,0.4,1.1,0.7c0.3,0.2,1.2-0.1,4.4,1.2
						l0.1,0.1l-0.1,0.3l0,0c-1.5-0.7-3.6-1.3-4.4-0.6c-0.8,0.7-0.8,2.5,0,3.4c0.4,0.4,1.3,0.9,2.3,1.4l-0.1,0.3
						c-0.8-0.4-1.5-0.8-2-1c-1.2-0.8-1.3-2.7-1.3-3.3c0.1-1.2-1-1.8-1.9-1c-0.4,0.4-2.1,1.4-3.4,0.9c-0.5-0.2-1.2-0.5-2-1l0.1-0.3
						c1,0.5,1.9,1,2.5,1c1.2,0.1,2.7-1,2.7-2c0-1-1.7-2.3-3.1-3.2l0,0L456.4,37.4z M451.3,35.4c0.4,0,2.2,0.3,5.1,2l-0.1,0.3
						c-1.4-0.8-2.9-1.4-3.6-1.3c-1.2,0.3-1.9,2-1.2,3.3c0.3,0.6,1.5,1.5,2.6,2.1l-0.1,0.3c-1.4-0.8-2.9-1.9-3.1-2.8
						c-0.2-1.4-0.1-2.3-0.3-2.6C450.5,36.4,450.9,35.3,451.3,35.4z"/>
					<path class="st29" d="M452.7,36.4c0.6-0.2,2.1,0.5,3.6,1.3c1.4,0.8,3.2,2.1,3.1,3.2c0,1-1.5,2.2-2.7,2c-1.2-0.1-4.5-2-5.1-3.2
						C450.8,38.4,451.5,36.8,452.7,36.4z"/>
					<path class="st29" d="M469.9,45.1c-0.2-0.6-1.6-1.5-3.1-2.1c-1.5-0.7-3.6-1.3-4.4-0.6c-0.8,0.7-0.8,2.5,0,3.4
						c0.8,0.9,4.2,2.4,5.6,2.3C469.4,47.8,470.3,46.3,469.9,45.1z"/>
				</g>
				<path class="st40" d="M430.4,54c-4.6-0.2-7.5,5.1-9.4,8.8l46.4,23.6c1.9-3.7,4.5-9.2,1.6-12.8C453.4,72.5,440.6,65.8,430.4,54z"
					/>
				<path class="st41" d="M470.3,77.2c-1.8-0.1-3.6-0.3-5.4-0.5l0.3-0.6c1.7,0.2,3.4,0.4,5.1,0.5C470.3,76.8,470.3,77,470.3,77.2
					L470.3,77.2z M462,82.5l0.3-0.6c2.2,0.4,4.5,0.6,6.9,0.8c-0.1,0.2-0.2,0.4-0.2,0.6C466.5,83.2,464.2,82.9,462,82.5L462,82.5z
					 M463.4,79.7l0.3-0.6c2.1,0.3,4.2,0.5,6.4,0.6c0,0.2-0.1,0.4-0.1,0.6C467.7,80.2,465.5,80,463.4,79.7z M464.9,76.7
					c-6.8-0.9-13-2.9-18.8-5.8l0.3-0.5c5.8,2.9,12,4.9,18.8,5.8L464.9,76.7L464.9,76.7z M463.7,79.1c-6.8-1-13-2.9-18.8-5.9
					l-0.3,0.5c5.8,2.9,12,4.9,18.7,5.9L463.7,79.1L463.7,79.1z M462.2,82l-0.3,0.6c-1.2-0.2-2.3-0.4-3.5-0.7l-2.4-1.2
					C458.1,81.2,460.1,81.6,462.2,82z M446.1,70.9L446.1,70.9c-5.7-2.9-10.9-6.8-15.6-11.7l0.3-0.6c4.7,4.9,9.9,8.8,15.6,11.7l0,0
					L446.1,70.9L446.1,70.9z M444.9,73.3L444.9,73.3c-5.7-2.9-10.9-6.8-15.7-11.6l-0.3,0.6c4.8,4.8,10,8.6,15.7,11.6l0,0L444.9,73.3
					L444.9,73.3z M427.5,65.1l0.3-0.6c1.6,1.5,3.2,3,4.9,4.3l-2.4-1.2C429.3,66.7,428.4,65.9,427.5,65.1z M430.5,59.3
					c-1.3-1.3-2.5-2.7-3.8-4.2c0.2-0.1,0.3-0.2,0.5-0.3c1.1,1.4,2.3,2.7,3.5,3.9L430.5,59.3L430.5,59.3z M429.2,61.7l-0.3,0.6
					c-1.6-1.6-3.1-3.2-4.5-5c0.1-0.2,0.3-0.3,0.4-0.5C426.3,58.5,427.7,60.1,429.2,61.7L429.2,61.7z M427.8,64.5l-0.3,0.6
					c-1.7-1.6-3.3-3.3-4.9-5.2c0.1-0.2,0.2-0.4,0.3-0.5C424.5,61.2,426.2,62.9,427.8,64.5z"/>
				<g>
					<path class="st42" d="M429.3,67.1c0.5-0.9,1.1-2,2-3.2c-1.1,1.1-1.9,2.1-2.6,2.9L429.3,67.1z"/>
					<path class="st42" d="M459.1,82.2c0.4-0.9,0.9-2.1,1.4-3.5c-0.2,1.5-0.5,2.8-0.8,3.8L459.1,82.2z"/>
				</g>
			</g>
			<g>
				<path class="st43" d="M521.4,68.1c2.6-0.5,11.4,6.5,8.5,15.2c-2.9,8.7-6.5,8.8-6.9,12.6c-0.4,3.7-6.8,6.3-8.3,5.4
					c-1.6-0.9-2.8,1.1-2.9,2.4c-0.6,5.4-9.2,6.1-18.4-4.3c-9.8-11.1-5.8-18.7-1.5-17.5c1.4,0.4,2.9-0.3,3-2.2
					c0.1-1.9,1.8-7.7,6.9-8.3C507,70.6,514.5,60.4,521.4,68.1z"/>
				<path class="st44" d="M503.9,97.5c-0.2,0-6.9-7.3-7.1-7.3c-5.4,0.7-11.3-3.1-15.8-6.3c-4.4-3.2-9.6,1.2-13,4.2l34.7,38.9
					c3.4-3,8.3-7.6,5.6-12.5C505.5,109.6,502.4,102.8,503.9,97.5z"/>
				<path class="st45" d="M511.2,91.3l-9.5,8.6c-6.2,1.3-9.2-2.3-7-7.8l9.5-8.6C509.3,78.9,516.3,86.7,511.2,91.3z"/>
				<path class="st46" d="M511.2,91.3l-6.4,5.7c-2.5-0.4-4.4-1.3-5.3-2.3s-1.5-3-1.7-5.5l6.4-5.7C509.3,78.9,516.3,86.7,511.2,91.3z
					"/>
				<path class="st45" d="M501.1,93.4c-2.3-2.5-3.1-11.5,1.1-18.2c4.3-6.8,15.3-11.1,22.5-3c7.2,8.1,1.8,18.6-5.5,22.1
					C512.1,97.7,503.4,95.9,501.1,93.4z"/>
				<path class="st45" d="M521.7,94.2c-0.4-1.1-2.3-1.5-4.2-0.9c-1.9,0.7-3.2,2.1-2.8,3.2c0.4,1.1,2.3,1.5,4.2,0.9
					C520.8,96.8,522.1,95.3,521.7,94.2z"/>
				<path class="st45" d="M502.5,72.7c1.1,0.5,1.3,2.4,0.4,4.3c-0.9,1.9-2.4,3-3.5,2.5c-1.1-0.5-1.3-2.4-0.4-4.3
					C499.9,73.3,501.4,72.2,502.5,72.7z"/>
				<path class="st43" d="M523.4,81c-4.3,4.1-6.7,6.7-3.4,8.3c3.3,1.6,0,3.8-2.5,5.2c4.8-0.3,7.3-2.9,9.4-6.1c2.3-3.4,3.3-11.4,0-15
					c-1.6-2.2-4.5-4.9-9.6-6.1c-8.9-2-16.1,7.8-15.8,10.2c6.9-8.8,8.4-3.8,14.9-5.2C518.9,71.5,527.9,76.7,523.4,81z"/>
				<g>
					<polygon class="st26" points="496.8,90.2 491.8,89.7 489.5,98.2 495.1,98.6 					"/>
					<polygon class="st26" points="503.8,98 503.6,103.1 494.9,104.3 495.1,98.6 					"/>
				</g>
				<polygon class="st26" points="484.9,107.2 485.7,108 495.5,99.1 494.8,98.4 				"/>
				<path class="st26" d="M474.2,95.1c0.8-0.7,1.8-1.4,3-2.2c-1.4,0.6-2.5,1.2-3.5,1.8L474.2,95.1z"/>
				<path class="st26" d="M496.5,120.1c0.7-0.7,1.6-1.6,2.5-2.8c-0.8,1.3-1.5,2.4-2.1,3.3L496.5,120.1z"/>
			</g>
			<g>
				<g>
					<path class="st47" d="M220,91.6c-12.6,4.3-14.9,13.7-13.5,18.2C209.1,109.2,220.9,102.6,220,91.6z"/>
					<path class="st47" d="M230.2,93.1c-14.1-2.4-24.3,12.1-23.7,16.7C209.1,109.7,229.1,104.1,230.2,93.1z"/>
					<path class="st47" d="M235.3,97.2c-12.4-5-28.7,7.9-28.8,12.6C209.1,110.1,232.6,107.9,235.3,97.2z"/>
					<path class="st47" d="M206.9,120.7c2.1-3.3,3.4-10.1-0.4-11C204.8,112.8,204.5,116.1,206.9,120.7z"/>
					<path class="st47" d="M213.1,126c1.3-5.5-2.6-13.8-6.6-16.2C206.3,112.4,206,120.1,213.1,126z"/>
					<path class="st47" d="M218.4,128c1.9-7.9-7.6-16.7-11.9-18.3C206.8,112.4,210.3,123.6,218.4,128z"/>
					<path class="st47" d="M240.5,103.7c-11.3-10.9-33.2,1.5-34,6.1C209,110.4,236.3,113.9,240.5,103.7z"/>
					<path class="st47" d="M227.1,128.8c-2.3-12.6-16.3-20.7-20.6-19C207.2,112.3,216.2,130.4,227.1,128.8z"/>
					<path class="st47" d="M234.5,127.2c-4.4-12-24-19.8-28-17.5C207.7,112.1,224,130.7,234.5,127.2z"/>
					<path class="st47" d="M243.9,109.9c-10.6-7.9-35.7-4.5-37.4-0.1C208.9,110.9,237.8,119.1,243.9,109.9z"/>
					<path class="st47" d="M236.8,122.8c-6.1-11.3-26.7-16-30.3-13.1C208,111.9,226.9,127.8,236.8,122.8z"/>
					<path class="st47" d="M243.5,115.2c-9.4-9.3-34.7-9.5-37-5.4C208.7,111.2,236.2,123.5,243.5,115.2z"/>
				</g>
				<path class="st48" d="M240,114.3c0.1,0.2-4.7,8.9-4.6,9.1c2.3,4.9,0.6,11.8-1,17c-1.6,5.2,4.2,8.8,8.1,11.1l25.9-45.3
					c-3.9-2.2-9.8-5.5-13.6-1.4C251,108.9,245.5,114,240,114.3z"/>
				<path class="st48" d="M231.9,109.3l11.1,6.4c1.8,4.4-0.6,8.4-5.2,9.1l-11.1-6.4C220.7,114.9,225.9,105.8,231.9,109.3z"/>
				<path class="st49" d="M231.9,109.3l7.4,4.3c0.4,2.5,0.2,4.6-0.5,5.7c-0.7,1.2-2.4,2.4-4.7,3.3l-7.4-4.3
					C220.7,114.9,225.9,105.8,231.9,109.3z"/>
				<path class="st48" d="M237,118.2c-1.7,3-9.9,6.5-17.6,4.6c-7.8-1.9-15.3-11.1-9.9-20.5c5.4-9.4,17.1-7.5,22.6-1.8
					C237.6,106.4,238.7,115.3,237,118.2z"/>
				<path class="st26" d="M227.5,119c-0.3-2.8,1.7-4.4,2.1-5.1c0.4-0.7,0.7-3.2,3.2-4.3C236.3,112.9,232.4,119.9,227.5,119z"/>
				<path class="st38" d="M227.5,118.9c0.4-2.2,2.6-3.1,3.3-4.3c0.7-1.2-0.1-3.8,2.1-5C233.8,113.1,230.9,118,227.5,118.9z"/>
				<path class="st32" d="M227.5,119c0.3-2.5,1.7-3.6,2.4-4.7c0.7-1.2,1-3.1,3-4.7C232.8,112.5,229.9,117.5,227.5,119z"/>
				<path class="st26" d="M227.5,119c-0.3-2.8,1.7-3.9,2.3-5.1c0.7-1.2,0.5-3.1,3.1-4.3c0,0,0,0,0,0.1
					C231.4,112.2,229,116.3,227.5,119z"/>
				
					<ellipse transform="matrix(-0.9934 -0.1149 0.1149 -0.9934 424.8226 273.4091)" class="st48" cx="220.3" cy="124.5" rx="3.7" ry="2.2"/>
				<path class="st48" d="M231.6,97.8c-0.9,0.7-0.7,2.6,0.5,4.3c1.2,1.6,3,2.4,4,1.7c0.9-0.7,0.7-2.6-0.5-4.3
					C234.3,97.9,232.5,97.1,231.6,97.8z"/>
				<path class="st47" d="M218.8,122.9c-13.2-4.2-13.6-15.4-10.2-21.2c3.8-6.6,14.5-8.7,22.9-2.4c-3.6,2.5-7,3.5-12.5,4.6
					c1.3,0.4,6.8,0.2,9.6-1.5c-1.6,4.4-10.8,9-18.3,10C213.4,115.5,217.4,119.8,218.8,122.9z"/>
				<path class="st43" d="M263.3,103.6c-2.4-0.9-5-1.3-7.1,0c-3.1,15.3-10.7,28-22,38.6c0,2.5,1.6,4.5,3.6,6.1
					c2.1-3.5,5.8-5.4,9.4-5.1l16.5-28.8C261.6,111.4,261.3,107.2,263.3,103.6z"/>
			</g>
			<g>
				<path class="st50" d="M520.8,151.8c-5-14.9,12.1-22.2,21-24.4c16.6-4.2,27.8,8.6,24.1,16.4c2,6.4-5,12-13.8,15.6
					C540.3,164.2,525,164.1,520.8,151.8z"/>
				<path class="st29" d="M533.2,152.7c-0.2,0-3.3-9.5-3.5-9.6c-5.2-1.6-9.1-7.5-11.8-12.3c-2.7-4.7-9.3-2.9-13.6-1.5l15.7,49.7
					c4.3-1.4,10.7-3.5,10.2-9.1C529.7,164.4,529.6,156.9,533.2,152.7z"/>
				<path class="st29" d="M542.3,150.1l-12.2,3.9c-4.5-1.6-5.7-6.1-3.1-10l12.2-3.9C545.7,138,548.9,148,542.3,150.1z"/>
				<path class="st25" d="M542.3,150.1l-8.1,2.6c-2.1-1.4-3.5-3-3.9-4.3c-0.4-1.3-0.2-3.4,0.7-5.7l8.1-2.6
					C545.7,138,548.9,148,542.3,150.1z"/>
				<path class="st29" d="M532.3,147.8c-1-3.2,1.9-11.7,8.5-16.2c6.7-4.5,18.5-3.8,21.8,6.5c3.3,10.3-6,17.7-14,17.9
					C540.6,156.3,533.4,151,532.3,147.8z"/>
				<path class="st26" d="M538.4,141.5c2.1,1.1,1.3,2.8,1.6,3.8c0.3,1,1.9,1.9,0.8,4C536.4,149.8,534.5,144.1,538.4,141.5z"/>
				<path class="st32" d="M538.4,142.1c0.5,0.8,2,5.4,2.2,6.8C538.3,148.5,536.9,143.6,538.4,142.1z"/>
				<path class="st26" d="M538.4,141.5c2.1,1.1,1.3,2.8,1.6,3.8c0.3,1,1.9,1.9,0.8,4C538.9,147.2,538.3,143.5,538.4,141.5z"/>
				<path class="st29" d="M544.6,128.2c0.8,0.9,0.1,2.7-1.4,4.1c-1.6,1.3-3.4,1.7-4.2,0.8c-0.8-0.9-0.1-2.7,1.4-4.1
					C542,127.6,543.8,127.3,544.6,128.2z"/>
				
					<ellipse transform="matrix(0.9951 9.880847e-002 -9.880847e-002 0.9951 18.1671 -53.5805)" class="st29" cx="550" cy="156.6" rx="3.7" ry="2.2"/>
				<path class="st50" d="M549,157c18-1.4,17.1-14.2,14.9-21.1c-2.5-7.8-13.5-10.7-23.8-6c3.8,3.4,9.9,5.4,20.8,12
					c-2.8-0.6-7.9-1.8-18.4-8c0.7,5,9.4,11.8,17.1,14.5C555.5,150.9,551.2,154.1,549,157z"/>
				<path class="st40" d="M523.5,138.9c-2.3-2.4-4.1-5.4-5.7-8c-2.7-4.7-9.3-2.9-13.6-1.5l15.7,49.7c4.3-1.4,10.7-3.5,10.2-9.1
					c-0.3-3-0.4-6.5,0.1-9.8l0,0c-8.4-2-13.6-4.7-15.7-6.7C515.1,150.6,517.7,145.4,523.5,138.9z"/>
				<g>
					<path class="st51" d="M507,138.3c1-0.3,2.2-0.6,3.7-0.8c-1.5,0-2.8,0.1-3.9,0.2L507,138.3z"/>
					<path class="st51" d="M517.1,170.2c1-0.3,2.1-0.8,3.5-1.5c-1.3,0.9-2.3,1.6-3.3,2.1L517.1,170.2z"/>
				</g>
				<path class="st52" d="M522.8,138.1c-4,3.8-8.9,10.7-9.7,15.8 M530.1,161.2c-5.5-0.8-13.4-3.5-17-7.3"/>
			</g>
			<path class="st37" d="M504.2,84.4c2.5,0.2,3,2.3,3.4,2.8c0.4,0.5,2.4,1.2,2.3,3.6C505.9,93.3,501.6,88.6,504.2,84.4z"/>
			<path class="st38" d="M504.2,84.6c1.7,0.8,1.6,2.9,2.3,3.7c0.7,0.8,3.2,0.6,3.3,2.8C506.7,91.2,503.7,87.7,504.2,84.6z"/>
			<path class="st32" d="M504.2,84.5c1.9,0.8,2.3,2.2,3,3c0.7,0.8,2.2,1.5,2.7,3.5C507.5,90.5,504.5,86.9,504.2,84.5z"/>
			<path class="st37" d="M504.1,84.5c2.9-0.1,2.8,2.1,3.5,2.9c0.7,0.8,2.7,0.7,2.3,3.6c0,0-0.1,0-0.1,0
				C508.2,89.3,505.7,86.4,504.1,84.5z"/>
		</g>
		<g>
			<path class="st53" d="M377.6,341.9c76.3,0,141.3-74.9,141.3-142c0.1-76.9-64.6-142-141.2-142.1c-76-0.1-140.9,64.9-140.9,141.1
				C236.7,275.9,292.3,341.6,377.6,341.9z"/>
			<path class="st54" d="M312.3,70.4C367.8,42.3,436.3,53.8,480,98c94.5,95.7,13,260.9-119.2,246.1
				c-72.5-8.1-127.9-66.5-127.9-133.5C232.9,138.7,258.1,97.8,312.3,70.4z M377.6,341.9c76.3,0,140.3-74.9,140.3-142
				c0.1-76.9-63.6-142-140.2-142.1c-76-0.1-140.9,64.9-140.9,141.1C236.7,275.9,292.3,341.6,377.6,341.9z"/>
			<path class="st54" d="M440.4,169.4c1.9,2.8,3.7,5.6,5.6,8.5c2.6,4.1,5.4,7.9,6.7,12.7c1.2,4.2,4.6,7,8.1,9.4
				c2.7,1.9,5.4,3.6,6.6,7c0.8,2.2,4,2.5,7.1,1c2.3-1.1,4.6-2.2,6.8-3.5c1.6-0.9,2.3-0.5,2.5,1.2c0.1,0.8,0.1,1.7,0,2.4
				c-2.3,9.5-4.3,18.9-12,26.2c-5.3,5-7.9,12.2-11.9,18.3c-0.8,1.2-0.5,2.6-0.1,3.9c1.2,5.1,1.8,10.3,1.6,15.6
				c-0.1,3.5-1.3,6.4-4.3,8.3c-1.8,1.2-3.5,2.6-5.3,3.8c-3.2,2.1-5.4,4.7-5.5,8.7c-0.1,2.1-1.3,3.6-3.1,4.6
				c-2.3,1.3-3.6,3.3-5.2,5.4c-4.7,6.5-10.5,11.8-19,12.9c-2.3,0.3-4.6,0.9-6.9,1.4c-4.4,1.1-6.6-0.1-8.1-4.2
				c-0.5-1.2-1.1-2.5-2-3.5c-2.6-3.2-4.4-6.5-4.2-10.9c0.1-3.3-3.1-5.4-4.7-8.1c-1-1.6-3.3-2.6-2.9-4.8c0.5-3,1.2-6.2,3.3-8.5
				c1.9-2,2.1-3.7,1.3-6.1c-0.8-2.4-0.9-5-2.1-7.4c-1.6-3.3-3.5-6.2-6.5-8.4c-2.3-1.7-3.8-3.7-1.8-7c1.1-1.8,1-4.6,1.1-6.9
				c0.1-2.3-2.3-4.1-4.9-3.9c-1,0.1-2,0.3-3,0.4c-2.2,0.2-3.7-0.4-4.6-2.7c-1.3-3.3-2.9-3.9-6.3-3c-0.1,0-0.2,0-0.3,0.1
				c-9,6.1-18.4,2.3-27.7,1c-2.4-0.3-4.3-1.6-6.1-3.3c-5.2-4.8-9.2-10.2-9.8-17.6c0-0.4-0.1-0.9-0.3-1.2c-3.7-5.2-2.1-10.5-0.3-15.9
				c1.2-3.3,1.8-6.8,0.4-10.2c-0.6-1.4,0-2.6,0.8-3.7c2.8-3.7,5.5-7.4,8.3-11.1c1.2-1.6,2.9-2.5,4.9-3c3.6-0.8,6.2-2.5,7.2-6.6
				c1.3-5.3,9-9.9,14.3-9.2c1.1,0.2,2.2,0.3,3.3-0.1c8-2.7,16.4-2.4,24.6-3.1c3.8-0.3,5.7,3.1,4,6.6c-0.6,1.3-0.5,1.9,0.8,2.4
				c4.6,1.7,9,3.7,13.1,6.6c3.3,2.3,5.3,1.2,6.8-2.7c1-2.7,3.2-3.6,5.9-2.4c7,3.2,14.4,2.5,21.7,1.7c2.5-0.3,3.7-2.2,3.8-4.6
				c0.2-2.8-1-5.5-1.8-8.1c-0.5-1.6-1.8-1-2.8-0.4c-1.8,1.2-3.5,1.6-5.5,0.7c-0.5-0.2-1.2-0.1-1.8,0c-4.1,0.8-7.2-0.8-8.8-4.7
				c-0.3-0.9-0.8-1.7-1-2.6c-0.4-1.8-1.6-2.4-3.2-2.1c-1.4,0.3-2.8,0.9-2.7,2.8c0.2,2.3-1.3,2.4-2.7,2.1c-2.3-0.3-4-1.8-4.5-4.1
				c-0.5-2.3-1.7-3.5-3.8-4.4c-2.9-1.3-5-4-8-5.1c-0.6-0.2-1.3-1-1.9-0.2c-0.4,0.6,0.2,1.1,0.5,1.7c1.8,3.5,4.8,5.8,8.3,7.4
				c1.1,0.5,2.3,1,2.9,2.7c-2.2-0.7-3.5-0.6-2.5,2.1c0.3,0.8-0.7,2-2.3,2.7c1-3.4-1.1-4.7-3.1-6.3c-2.6-2.1-5.2-4.3-7.6-6.8
				c-1.8-1.9-3.5-2.3-5.7-1c-1.8,1.1-3.6,1.9-5.8,1c-1.2-0.5-2.4,0-2.7,1.3c-0.6,2.3-2.3,3.2-4.3,4c-2.1,0.8-3.9,2.1-4.2,4.5
				c-0.5,3.4-3.2,4.4-5.7,5.3c-1.9,0.7-4.2,0.9-6,0.8c-2-0.2-4.3-1.7-5.6-3.3c-1.1-1.4-1.5-3.8-0.3-5.8c1.1-1.8,1.7-3.7,2-5.8
				c0.3-2.8,1.6-3.7,4.4-3c2.4,0.6,4.8,1.2,7.2,1.4c1.3,0.1,3,0.7,3.5-0.9c0.6-1.7,2-3.5,0.8-5.5c-0.8-1.3-1.5-2.7-3-3.4
				c-0.5-0.2-1-0.5-0.9-1.1c0.1-0.7,0.7-1.1,1.3-1.1c5-0.3,8.8-3.2,12.6-6.1c2.2-1.7,4.4-3.3,7.3-3.9c1.4-0.3,2-1.2,2.1-2.6
				c0-0.8,0.1-1.7,0.4-2.4c0.3-0.9,0.5-2.4,1.8-1.9c1,0.4,0.5,1.6,0,2.4c-1.2,2.2,0.2,3.4,2,3.3c3.2-0.2,6.4,0.5,9.6-0.2
				c2.5-0.6,4-1.3,4.1-4c0-1.3,0.3-2.5,1.8-2.8c0.5-0.1,1.2-0.4,1.1-0.9c-0.8-3.4,1.9-3.3,4.4-4c-1.8-0.9-3.1-0.5-4.3-0.2
				c-1.5,0.5-3,0.9-4.2-0.7c-1.1-1.5-1.5-3.1-0.7-4.9c0.3-0.7,0.6-1.3,0.9-2c0.4-0.8,0.9-1.8-0.3-2.3c-1-0.4-1.5,0.5-2.1,1.2
				c-3.4,4.1-2.4,9.1-3.2,13.8c-0.2,0.9-0.1,1.9-0.7,2.6c-2.1,2.7-4.2,2.4-5.5-0.9c-1-2.5-2.4-3.8-5.2-2.6c-2.3,0.9-4.1,0.1-5.2-2
				c-1.2-2.3-0.6-4.7,1.5-5.6c5.6-2.3,8.4-7.2,12-11.6c3.6-4.4,7.5-5.1,12.7-3c1.9,0.8,3.9,1.3,5.9,1.5c1.2,0.1,2.6,0.2,3.1,1.6
				c0.5,1.3-0.6,1.7-1.5,2.4c-1.2,0.9-0.7,1.7,0.2,2.5c1,0.8,1.3,0.5,2.2-0.3c3.4-3.1,5.4-7.6,9.9-9.6c0.3-0.1,0.7-0.3,0.8-0.5
				c0.6-4.2,3-1.5,4.3-0.9c35.5,16.1,60.1,42.4,73.9,79c0.5,1.3,0.9,2.7,1.3,4.1c0.1,0.3,0,0.6,0,1.4c-5.1-2.8-9-0.3-13.3,1.9
				c-3.2,1.6-6.9,3.9-10.3,0c-0.4-0.5-1.2-0.3-1.7,0.1c-2.5,2.4-4.8,1-6.9-0.5c-1.7-1.2-3.1-2.7-4.6-4c-0.6-0.5-1.3-1.2-2.1-0.6
				c-0.7,0.5-0.7,1.4-0.3,2c2.1,4,4.5,7.9,8.2,10.6c1.8,1.4,3.5,0.3,5-0.9c1.9-1.5,6.5-1.5,8.8,0c2.5,1.7,1.5,4.1,1.4,6.5
				c-0.2,3.9-2,7.2-3.5,10.6c-0.2,0.4-0.2,0.9-0.5,1.1c-5.4,5.2-9.4,11.8-16,15.8c-3.2,2-4.3,1.7-5.8-1.8c-0.7-1.6-1.2-3.3-1.7-4.9
				c-0.8-2.9-2.4-5.2-4.9-6.9c-2.7-1.9-4.7-4.3-5.5-7.5c-0.5-2.1-1.7-3.7-3.5-4.9c-2.6-1.8-3.8-4.8-5.8-7.2
				C443.3,168.5,442.3,167.4,440.4,169.4c-0.4-0.6-0.8-1.2-1.3-1.8c-0.2-0.2-0.4-0.4-0.6-0.6l0,0c0.2,0.2,0.4,0.4,0.6,0.6
				C439.6,168.2,440,168.8,440.4,169.4z M436.7,122.5c-2.1,0.7-4.7,1-4.4,4.1c0.1,0.9,0.6,1.8-0.5,2.3c-1.2,0.5-2.1-0.4-2.5-1.3
				c-0.7-1.7-1.9-2.7-3.4-2.4c-2.5,0.5-3,3-3.4,5c-0.4,2.1-2.2,4.7,0.7,6.4c1.9,1.1,4,1.1,5.8-0.2c2.4-1.8,4.8-1.9,7.5-1
				c2.5,0.9,5,1,7.6,0.4c0.8-0.2,1.6-0.4,1.9-1.4c0.2-0.9-0.3-1.6-1-2.1c-1.9-1.2-3.7-2.6-5.7-3.6
				C435.9,127.3,435.4,126.2,436.7,122.5L436.7,122.5z"/>
			<path class="st54" d="M276.3,290.5c-2.2-0.6-2.8-1.9-3.6-2.9c-22.3-27.8-32.1-59.7-30.3-95.2c0.2-3.5,0.7-6.9,1.2-10.4
				c0.2-1.5,0.3-2.7,2.4-1.1c2.2,1.7,2.6,3.6,2.8,6.3c0.4,5.1,1.3,10.1,4.9,14.3c3.2,3.7,5.9,7.6,8.1,11.9c1.2,2.3,2,4.5,1.9,7.3
				c-0.1,2.2,0.6,4.9,3.6,5.7c0.5,0.1,1,0.4,1.3,0.8c4.8,7.1,12.5,11.3,17.2,18.5c4.1,6.3,4.5,7.4,0,13.3c-2.3,3.1-3.8,6-2.2,10.1
				c1.3,3.4,0.8,7.1,0.6,10.7c-0.1,1.4-0.6,2.4-2.3,2.2c-1-0.1-1.8,0.2-2.6,0.7C276.2,284.4,273.3,286,276.3,290.5z"/>
			<path class="st54" d="M382.6,65.5c-5.6,5.2-11.6,9.2-18.5,11.6c-4,1.4-7.9,2.9-12.3,1.9c-1-0.2-1.8,0.3-2.6,0.6
				c-1.1,0.5-2.3,1.2-3.4,1.2c-5.6-0.1-9.8,3.2-14.3,5.7c-1,0.5-2.2,2.2-3.1,1c-0.6-0.8-1.1-2.7-0.2-4c3.2-4.7,6.7-9.1,12.6-10.5
				c2.2-0.5,4.3-1.3,5.7-3.3c0.7-1,1.7-1.4,2.8-1.7c10.4-2.4,21-3.4,31.7-3C381.5,65.1,381.8,65.3,382.6,65.5z"/>
			<path class="st54" d="M293.6,94.7c6.4-5.1,12.6-9.3,19.2-12.8c0.7-0.4,1.6-1,2.2-0.1c0.6,0.8-0.2,1.7-0.7,2.1
				c-3.4,2.6-5.1,6.3-6.8,10.1c-1.4,3.1-6.8,4.3-9.6,2.1C296.7,95.3,295.4,95.2,293.6,94.7z"/>
			<path class="st54" d="M362.7,116.7c0.7-1.4,3.3-1.9,1-3.4c-0.1-0.1,0.4-1.7,0.9-2.1c2.3-1.6,1.6-3.5,0.3-5
				c-1.3-1.5-0.7-2.7,0.2-3.8c0.7-0.9,1.8-2.1,3.1-1.5c1.4,0.7,2.1,2,1.8,3.8c-0.6,2.9,1.1,5.1,2.6,7.2c0.5,0.7,1.6,1.2,1,2.3
				c-0.6,1-1,2.5-2.5,2.4C368.4,116.3,365.8,116.6,362.7,116.7z"/>
			<path class="st54" d="M284.1,103.3c2.3-2.8,4.9-4.8,7.5-6.8c0.9-0.7,2.3-1.1,3,0c0.8,1.3-0.7,1.6-1.4,2.1
				c-0.6,0.4-1.2,0.9-1.4,1.5C290.3,103.6,287.5,103.7,284.1,103.3z"/>
			<path class="st54" d="M357.5,113.7c-0.7,0.1-1.2-0.1-1.3-0.9c-0.2-1.8,3.5-6.1,5.4-6.2c1-0.1,1.9,0.4,2,1.5
				C363.8,110.1,360,113.6,357.5,113.7z"/>
			<path class="st54" d="M394.1,148.1c1.6-1,3.1-0.7,4.4-0.7c1.3,0,1.2,1.2,1,2.1c-0.1,0.9-0.9,1.1-1.6,0.7
				C396.6,149.7,395.3,149.3,394.1,148.1z"/>
		</g>
	</g>
</g>
</svg>
