<?xml version="1.0" encoding="utf-8"?>
<!-- Generator: Adobe Illustrator 19.1.0, SVG Export Plug-In . SVG Version: 6.00 Build 0)  -->
<svg version="1.1" xmlns="http://www.w3.org/2000/svg" xmlns:xlink="http://www.w3.org/1999/xlink" x="0px" y="0px"
	 viewBox="0 0 1160 356.6" style="enable-background:new 0 0 1160 356.6;" xml:space="preserve">
<style type="text/css">
	.st0{fill:none;stroke:#FFFFFF;stroke-width:0.8504;stroke-miterlimit:10;}
	.st1{fill:none;stroke:#FFFFFF;stroke-width:0.8504;stroke-linecap:round;stroke-linejoin:round;stroke-miterlimit:10;}
	.st2{fill:#A7A9AC;}
	.st3{fill:#808285;}
	.st4{fill:#808285;stroke:#414042;stroke-width:0.2835;stroke-miterlimit:10;}
	.st5{fill:#6D6E71;stroke:#414042;stroke-width:0.2835;stroke-miterlimit:10;}
	.st6{fill:none;stroke:#6D6E71;stroke-miterlimit:10;}
	.st7{fill:#FFF200;stroke:#FFF200;stroke-width:0.8504;stroke-miterlimit:10;}
	.st8{fill:#808285;stroke:#414042;stroke-width:0.3605;stroke-miterlimit:10;}
	.st9{fill:#FFFFFF;stroke:#6D6E71;stroke-width:1.5002;stroke-miterlimit:10;}
	.st10{fill:none;stroke:#FFF200;stroke-miterlimit:10;}
	.st11{fill:none;stroke:#6D6E71;stroke-width:1.8753;stroke-miterlimit:10;}
	.st12{fill:none;stroke:#FFFFFF;stroke-miterlimit:10;}
	.st13{fill:#FFFFFF;stroke:#414042;stroke-width:0.6247;stroke-miterlimit:10;}
	.st14{fill:#FFFFFF;}
	.st15{fill:none;stroke:#808285;stroke-width:0.2835;stroke-miterlimit:10;}
	.st16{fill:none;stroke:#FFFFFF;stroke-width:0.3497;stroke-linecap:round;stroke-linejoin:round;stroke-miterlimit:10;}
	.st17{fill:none;stroke:#FFFFFF;stroke-width:1.0492;stroke-linecap:round;stroke-linejoin:round;stroke-miterlimit:10;}
	.st18{fill:#FFFFFF;stroke:#FFFFFF;stroke-width:1.0492;stroke-linecap:round;stroke-linejoin:round;stroke-miterlimit:10;}
	.st19{fill:none;stroke:#FFFFFF;stroke-width:0.3497;stroke-miterlimit:10;}
	.st20{enable-background:new    ;}
	.st21{fill:#BE1E2D;}
	.st22{fill-rule:evenodd;clip-rule:evenodd;fill:#210000;}
	.st23{fill-rule:evenodd;clip-rule:evenodd;fill:#FFDCB1;}
	.st24{fill-rule:evenodd;clip-rule:evenodd;fill:#F7C6AB;}
	.st25{fill-rule:evenodd;clip-rule:evenodd;fill:#EF3F6C;}
	.st26{fill-rule:evenodd;clip-rule:evenodd;fill:#C91F4B;}
	.st27{fill-rule:evenodd;clip-rule:evenodd;fill:#C31F44;}
	.st28{fill-rule:evenodd;clip-rule:evenodd;fill:#FDDECC;}
	.st29{fill-rule:evenodd;clip-rule:evenodd;fill:#F26A21;}
	.st30{fill-rule:evenodd;clip-rule:evenodd;fill:#FEEBE2;}
	.st31{fill-rule:evenodd;clip-rule:evenodd;fill:#FFFFFF;}
	.st32{fill-rule:evenodd;clip-rule:evenodd;fill:#89BCE5;}
	.st33{fill-rule:evenodd;clip-rule:evenodd;fill:#2D0A00;}
	.st34{fill-rule:evenodd;clip-rule:evenodd;fill:#513921;}
	.st35{fill-rule:evenodd;clip-rule:evenodd;fill:#422C15;}
	.st36{fill-rule:evenodd;clip-rule:evenodd;fill:#F1698F;}
	.st37{fill-rule:evenodd;clip-rule:evenodd;fill:#A41F41;}
	.st38{fill-rule:evenodd;clip-rule:evenodd;fill:#FEC760;}
	.st39{fill-rule:evenodd;clip-rule:evenodd;fill:#6BC397;}
	.st40{fill:#A4D7BD;}
	.st41{fill-rule:evenodd;clip-rule:evenodd;fill:#388762;}
	.st42{fill-rule:evenodd;clip-rule:evenodd;fill:#4B1F0D;}
	.st43{fill-rule:evenodd;clip-rule:evenodd;fill:#F6A6BD;}
	.st44{fill-rule:evenodd;clip-rule:evenodd;fill:#846246;}
	.st45{fill-rule:evenodd;clip-rule:evenodd;fill:#6F5139;}
	.st46{fill-rule:evenodd;clip-rule:evenodd;fill:#823316;}
	.st47{fill-rule:evenodd;clip-rule:evenodd;fill:#F1D1AA;}
	.st48{fill-rule:evenodd;clip-rule:evenodd;fill:#E7C8A4;}
	.st49{fill-rule:evenodd;clip-rule:evenodd;fill:#A24323;}
	.st50{fill-rule:evenodd;clip-rule:evenodd;fill:#3C8B65;}
	
		.st51{fill-rule:evenodd;clip-rule:evenodd;fill:none;stroke:#FFFFFF;stroke-width:0.6112;stroke-miterlimit:22.9256;stroke-dasharray:1.2224,1.8336;}
	.st52{fill:#E1F4FD;}
	.st53{fill:#414042;}
</style>
<g id="Smoke">
	
		<image style="overflow:visible;opacity:0.7;" width="421" height="298" xlink:href="4066B46D.jpg"  transform="matrix(0.1699 -0.1166 0.1166 0.1699 876.4806 195.5992)">
	</image>
	
		<image style="overflow:visible;" width="421" height="298" xlink:href="4066B46E.jpg"  transform="matrix(-0.1541 0.2382 0.3167 0.2048 337.3029 101.5831)">
	</image>
</g>
<g id="Bras_x5F_old">
	<path class="st0" d="M257.4,164.7l-1.9,2.1c-18.7-12.8-20.2-2.9-37.6-20c8.2-10.3,14.8-22.1,20-35.3c14.1,3.9,16.8,7,23.2,13.3
		c3.7,3.7,8.6,5.6,13.1,7.8l-0.4,3.2c-5.4-1.2-10.4-4.4-16.5-3.6c-3.7,0.5-9.7,2.8-12.2,7.2c-3,5.3-1.5,10.1,0.1,13.2
		C247.1,156.5,255.8,163.2,257.4,164.7z"/>
	<g>
		<path class="st0" d="M264.4,223.6c0.1-0.4,0.5-1.1,0.8-1.4l10.6-10.2c0.3-0.3-0.6-1.7-1-1.4l-11.1,9.4c-0.3,0.3-1,0.4-1.4,0.2
			c0,0-0.5-0.2-1.8-0.7c-3.4-1.2-11.5-3.9-22,0c-0.7,0.2-1,0-1,0c-0.2-0.2-0.4-0.4-0.6-0.6c-0.2-0.2-0.4-0.4-0.6-0.6
			c0,0-0.3-0.3-0.1-1c3-10.8-0.3-18.7-1.8-22c-0.6-1.3-0.9-1.7-0.9-1.7c-0.2-0.4-0.2-1,0-1.4l8.4-11.8c0.3-0.4-1.2-1.2-1.4-0.9
			l-9.2,11.4c-0.3,0.4-0.9,0.8-1.3,0.9c0,0-10.4,5.7-10.6,14.8c-0.1,8.2,9.4,10.5,11.3,10.9c0.2,0,0.4,0.1,0.6,0.1
			c1.2,0.2,3.4,2.4,3.4,2.4c0.2,0.2,0.4,0.4,0.6,0.6c0.2,0.2,0.5,0.4,0.6,0.6c0,0,2.4,2,2.7,3.2c0,0.2,0.1,0.4,0.2,0.6
			c0.6,1.9,3.7,11.1,11.8,10.3C259.6,234.5,264.4,223.6,264.4,223.6z"/>
	</g>
	<path class="st0" d="M250,213.1l-2.4-1.6c10-20.4,0-20.4,14.4-40c11.4,6.7,24,11.5,37.7,14.8c-1.9,14.5-4.6,17.6-9.9,24.8
		c-3.1,4.2-4.3,9.3-5.8,14.1l-3.3,0c0.4-5.6,2.9-10.9,1.3-16.8c-1-3.6-4.2-9.2-8.9-11.1c-5.7-2.2-10.2,0-13,1.9
		C256.6,201.8,251.2,211.3,250,213.1z"/>
	<g>
		<path class="st0" d="M297.4,127c0.4,0.2,1.1,0.5,1.5,0.5l14.6,0.7c0.5,0,0.6,1.7,0.2,1.7l-14.5,0.2c-0.5,0-1,0.4-1.1,0.8
			c0,0-0.2,0.5-0.9,1.7c-1.7,3.1-6.1,10.5-16.6,14.5c-0.7,0.3-0.7,0.7-0.7,0.7c0,0.2-0.1,0.5-0.1,0.8c0,0.3-0.1,0.6-0.1,0.8
			c0,0,0,0.4,0.6,0.8c9.4,6.1,12.1,14.3,13.1,17.7c0.4,1.3,0.5,1.9,0.5,1.9c0.1,0.5,0.5,0.9,0.9,1l14.1,3.3c0.4,0.1-0.1,1.7-0.5,1.6
			l-14.5-2.5c-0.5-0.1-1.2,0-1.6,0.2c0,0-11.6,2.6-17.7-4.1c-5.5-6,0.1-14.1,1.3-15.7c0.1-0.2,0.3-0.3,0.4-0.5c0.8-0.9,1-4,1-4
			c0-0.2,0-0.5,0.1-0.8c0-0.3,0.1-0.6,0.1-0.8c0,0,0.5-3.1-0.1-4.2c-0.1-0.2-0.2-0.4-0.3-0.5c-0.8-1.8-4.5-10.8,2.1-15.6
			C286.6,122,297.4,127,297.4,127z"/>
	</g>
	<g>
		<path class="st1" d="M955,267.9c-0.8,0.5-1.6,0.9-2.3,1.4c-1,0.6-1.9,1.5-3,2c-1.1,0.5-1.7,1.3-2.5,2.1c-0.8,0.8-1.5,1.6-2.2,2.5
			c-1.8,2.4-3.2,4.9-4.1,7.7c-0.2,0.7-0.4,1.4-0.6,2.2c-0.1,0.4-0.4,0.7-0.5,1.1c-0.1,0.3,0,0.7-0.1,1.1c-0.4,2.2,0.3,4.1,1.7,5.8
			c1.7,2,3.9,3,6.4,3.1c1.8,0.1,3.6,0,5.4-0.3c1.4-0.2,2.8-0.7,4.2-1.3c0.4-0.2,0.4-0.5,0.4-0.7c-0.1-0.9,0.1-1.8,0.2-2.6
			c0.4-3.6-0.1-7.1-0.8-10.6c-0.3-1.5-0.7-3.1-1.3-4.5c-1.3-2.8-1.3-5.7-0.7-8.6c0.1-0.4,0.5-0.7,0.9-1c1.6-1.4,3.2-2.8,4.7-4.2
			c1.6-1.5,3.2-3.1,4.8-4.7c0.2-0.2,0.4-0.4,0.7-0.6"/>
		<path class="st1" d="M994.9,283.7c0.7,0.8,0.6,1.5-0.1,2.3c-1.6,2.1-3.2,4.2-4.8,6.4c-1.1,1.6-2.1,3.3-3.3,4.9c-1,1.4-1.7,3-3.1,4
			c-1.5,1-2.3,2.6-3.5,3.8c-3.1,3.2-6.7,5.6-10.9,7.1c-0.8,0.3-1.7,0.1-2.6,0.1c-1.5-0.1-3-0.4-4.3-1.2c-1.2-0.8-2.1-1.7-2.7-3
			c-1.1-2.4-1.1-4.8-0.7-7.3c0.2-1.5,0.6-3,1-4.4c0.1-0.4,0.2-0.6,0.7-0.8c2-0.7,4.1-0.9,6.3-0.9c3,0,6.1,0.1,9.1,0.7
			c1.1,0.3,2.3,0.5,3.4,0.7c1.9,0.4,3.8,0.1,5.6-0.5c0.3-0.1,0.6-0.1,0.8-0.1"/>
		<path class="st1" d="M965.7,257.6c0,0-0.1-0.1-0.1-0.1c-1.2-0.5-1.3-0.4-2.2,0.5c-1.5,1.5-3.1,2.9-4.7,4.3
			c-2.5,2.2-5.1,4.4-7.6,6.5c-0.8,0.7-1.6,1.4-2.1,2.4"/>
		<path class="st1" d="M957.5,293.4c-2.1,1-4.3,1.7-6.6,2.1c-1.7,0.3-3.4,0.3-5.1-0.1c-2.6-0.7-4.2-2.3-5-4.8
			c-0.4-1.1-0.5-2.3-0.7-3.5c0-0.2-0.1-0.3-0.1-0.5"/>
		<path class="st1" d="M960,295.7C960,295.7,960,295.7,960,295.7c-1.4-0.2-1.5-0.1-1.8,1.1c-0.8,3.1-1.1,6.3-0.4,9.5
			c0.5,2.2,1.6,3.9,3.4,5.2c1.9,1.4,3.9,2,6.3,1.5c0.3-0.1,0.6-0.1,0.8-0.1"/>
		<path class="st1" d="M994.9,283.4c0,0.1,0,0.2-0.1,0.3c-2,2.5-4.1,5-6.1,7.5c-1,1.3-2,2.8-2.9,4.3c-0.9,1.6-1.6,3.2-2.4,4.9
			c-0.2,0.4-0.4,0.9-0.5,1.4"/>
		<path class="st1" d="M953.2,296.5c1.4,1.3,2.9,2.6,4.3,3.9"/>
		<path class="st1" d="M955.1,296c0.9,0.8,1.8,1.6,2.6,2.4"/>
		<path class="st1" d="M939.6,287c-0.3,0.3-0.7,0.6-1,1c-0.1,0.1-0.1,0.5,0,0.6c0.2,0.2,0.5,0.3,0.7,0.4"/>
		<path class="st1" d="M968.9,312.5c-0.4,0.4-0.8,0.9-1.2,1.3c-0.5,0.5-0.5,0.5-1,0c-0.1-0.1-0.2-0.3-0.3-0.4"/>
	</g>
	<g>
		<path class="st0" d="M249.2,104.7c0.4,0.1,1,0.5,1.4,0.9l9.8,10.9c0.3,0.3,1.7-0.6,1.4-0.9l-9-11.4c-0.3-0.4-0.3-1-0.1-1.4
			c0,0,0.3-0.5,0.8-1.8c1.3-3.3,4.3-11.4,0.8-22c-0.2-0.7,0.1-1,0.1-1c0.2-0.2,0.4-0.4,0.6-0.6c0.2-0.2,0.4-0.4,0.6-0.6
			c0,0,0.3-0.3,1-0.1c10.7,3.4,18.7,0.4,22-1c1.3-0.5,1.8-0.8,1.8-0.8c0.4-0.2,1-0.2,1.4,0.1l11.5,8.9c0.4,0.3,1.3-1.1,0.9-1.4
			l-11-9.7c-0.3-0.3-0.7-0.9-0.9-1.3c0,0-5.3-10.7-14.4-11.1c-8.1-0.4-10.9,9-11.4,10.9c0,0.2-0.1,0.4-0.1,0.6
			c-0.2,1.2-2.5,3.3-2.5,3.3c-0.2,0.2-0.4,0.4-0.6,0.6c-0.2,0.2-0.4,0.4-0.6,0.6c0,0-2.1,2.3-3.3,2.5c-0.2,0-0.4,0.1-0.6,0.1
			c-1.9,0.5-11.3,3.3-10.8,11.4C238.5,99.5,249.2,104.7,249.2,104.7z"/>
	</g>
	<path class="st0" d="M327.4,93.1l1.3,2.6c-18.8,12.6-10.2,17.6-32.5,27.4c-6.5-11.5-15-21.9-25.2-31.7c8.9-11.6,12.8-12.9,21-16.5
		c4.8-2.1,8.4-5.9,12.1-9.2l2.8,1.6c-3.1,4.6-8,8-9.5,13.9c-0.9,3.6-1,10.1,2.1,14c3.8,4.7,8.8,5.1,12.2,4.9
		C316,99.7,325.5,94.1,327.4,93.1z"/>
	<g>
		<path class="st0" d="M243.2,44.2c0-0.5-0.1-1.2-0.3-1.6l-6.1-13.4c-0.2-0.4,1.2-1.3,1.4-0.9l6.8,12.8c0.2,0.4,0.8,0.7,1.2,0.7
			c0,0,0.5-0.1,1.9,0c3.6,0.1,12.2,0.7,20.5,8.2c0.6,0.5,1,0.3,1,0.3c0.2-0.1,0.5-0.2,0.8-0.3c0.3-0.1,0.6-0.2,0.8-0.3
			c0,0,0.4-0.2,0.5-0.9c1.2-11.2,7.2-17.3,9.8-19.8c1-1,1.4-1.3,1.4-1.3c0.4-0.3,0.6-0.9,0.5-1.3L280,12.5c-0.1-0.4,1.5-0.7,1.7-0.3
			l4.4,14c0.1,0.4,0.5,1.1,0.9,1.4c0,0,7.6,9.2,4.4,17.6c-2.9,7.6-12.6,6.3-14.5,6c-0.2,0-0.4-0.1-0.6-0.1c-1.2-0.3-4,1-4,1
			c-0.2,0.1-0.5,0.2-0.8,0.3c-0.3,0.1-0.6,0.2-0.8,0.3c0,0-2.9,1-3.7,2c-0.1,0.2-0.2,0.3-0.4,0.5c-1.2,1.5-7.6,9-14.8,5.2
			C243.7,56.1,243.2,44.2,243.2,44.2z"/>
	</g>
</g>
<g id="Layer_8">
	<g>
		<g>
			<rect x="916.3" y="335.3" class="st2" width="4.1" height="9.3"/>
			<path class="st2" d="M918.4,342.6c-3.9,0-7,3.1-7,7c0,3.9,3.1,7,7,7s7-3.1,7-7C925.4,345.7,922.3,342.6,918.4,342.6z
				 M918.4,354.1c-2.5,0-4.5-2-4.5-4.5c0-2.5,2-4.5,4.5-4.5s4.5,2,4.5,4.5C922.9,352,920.9,354.1,918.4,354.1z"/>
			<circle class="st2" cx="918.4" cy="349.6" r="3.5"/>
			<rect x="860.3" y="335.3" class="st2" width="4.1" height="9.3"/>
			<circle class="st2" cx="862.4" cy="349.6" r="3.5"/>
			<path class="st2" d="M862.4,342.6c-3.9,0-7,3.1-7,7c0,3.9,3.1,7,7,7s7-3.1,7-7C869.4,345.7,866.3,342.6,862.4,342.6z
				 M862.4,354.1c-2.5,0-4.5-2-4.5-4.5c0-2.5,2-4.5,4.5-4.5s4.5,2,4.5,4.5C866.9,352,864.9,354.1,862.4,354.1z"/>
		</g>
	</g>
	<g>
		<rect x="1000.1" y="331.3" class="st2" width="4.1" height="13.3"/>
		<path class="st2" d="M1002.2,342.6c-3.9,0-7,3.1-7,7c0,3.9,3.1,7,7,7s7-3.1,7-7C1009.2,345.7,1006.1,342.6,1002.2,342.6z
			 M1002.2,353.6c-2.2,0-4-1.8-4-4c0-2.2,1.8-4,4-4s4,1.8,4,4C1006.2,351.8,1004.4,353.6,1002.2,353.6z"/>
	</g>
	<g>
		<rect x="1110.1" y="331.3" class="st2" width="4.1" height="13.3"/>
		<path class="st2" d="M1112.2,342.6c-3.9,0-7,3.1-7,7c0,3.9,3.1,7,7,7s7-3.1,7-7C1119.2,345.7,1116.1,342.6,1112.2,342.6z
			 M1112.2,353.6c-2.2,0-4-1.8-4-4c0-2.2,1.8-4,4-4c2.2,0,4,1.8,4,4C1116.2,351.8,1114.4,353.6,1112.2,353.6z"/>
	</g>
	<rect x="362.3" y="335.3" class="st2" width="4.1" height="9.3"/>
	<path class="st2" d="M364.4,342.6c-3.9,0-7,3.1-7,7c0,3.9,3.1,7,7,7s7-3.1,7-7C371.4,345.7,368.3,342.6,364.4,342.6z M364.4,354.1
		c-2.5,0-4.5-2-4.5-4.5c0-2.5,2-4.5,4.5-4.5s4.5,2,4.5,4.5C368.9,352,366.9,354.1,364.4,354.1z"/>
	<circle class="st2" cx="364.4" cy="349.6" r="3.5"/>
	<rect x="326.3" y="335.3" class="st2" width="4.1" height="9.3"/>
	<circle class="st2" cx="328.4" cy="349.6" r="3.5"/>
	<path class="st2" d="M328.4,342.6c-3.9,0-7,3.1-7,7c0,3.9,3.1,7,7,7s7-3.1,7-7C335.4,345.7,332.3,342.6,328.4,342.6z M328.4,354.1
		c-2.5,0-4.5-2-4.5-4.5c0-2.5,2-4.5,4.5-4.5s4.5,2,4.5,4.5C332.9,352,330.9,354.1,328.4,354.1z"/>
</g>
<g id="Grey_x5F_Main">
	<g>
		<path class="st3" d="M779.2,328H417.9c-3,0-5.5-2.5-5.5-5.5v0c0-3,2.5-5.5,5.5-5.5h361.3c3,0,5.5,2.5,5.5,5.5v0
			C784.8,325.6,782.3,328,779.2,328z"/>
		<ellipse class="st3" cx="501.7" cy="321.9" rx="8.2" ry="8.1"/>
		<ellipse class="st3" cx="685.7" cy="321.9" rx="8.2" ry="8.1"/>
		<path class="st3" d="M426.9,314.1c0-9.4-3.7-3-8.2-3c-4.5,0-8.2-5.4-8.2,4c0,9.4,3.7,13,8.2,13C423.2,328,426.9,323.5,426.9,314.1
			z"/>
		<path class="st3" d="M787.9,311.5c0-10.4-3.7-4.9-8.2-4.9c-4.5,0-8.2-5.5-8.2,4.9s3.7,16.5,8.2,16.5
			C784.2,328,787.9,321.9,787.9,311.5z"/>
		<ellipse class="st3" cx="471.7" cy="321.9" rx="8.2" ry="8.1"/>
		<ellipse class="st3" cx="441.7" cy="321.9" rx="8.2" ry="8.1"/>
		<ellipse class="st3" cx="717.7" cy="321.9" rx="8.2" ry="8.1"/>
		<ellipse class="st3" cx="748.7" cy="321.9" rx="8.2" ry="8.1"/>
	</g>
	<g>
		<rect x="265.2" y="302.1" class="st3" width="49.7" height="10.4"/>
		<polygon class="st3" points="300.5,231.1 295.7,231.1 266.6,274.2 266.6,303.7 254.5,305.9 254.5,274.3 227.5,231.1 221.2,231.1 
			221.2,223.5 300.5,223.5 		"/>
		<circle class="st3" cx="313.6" cy="306.7" r="10.2"/>
		<ellipse class="st3" cx="260.8" cy="305.9" rx="10.4" ry="10.3"/>
	</g>
	<path class="st4" d="M361,225.3h-27.4l7-19.2v-7.5l-4,0v-4.7h4c0,0-1.9-19,3.3-23.8c5.3-4.8,22.1-2.6,22.2-2.6l0-3h4.8l0,3h10.5
		l4.6,3.1h7.4l1,6.4h-8.3l-4.7,3.6l-10.5,0l0,3l-4.8,0l0-3c0,0-9.4-1.2-11.6,1c-2.3,2.2-1,12.3-1,12.3h4v4.7h-4v6.2L361,225.3z"/>
	<path class="st5" d="M367.8,338.9h-44c-5.5,0-10-4.5-10-10v-94.2c0-5.5,4.5-10,10-10h44c5.5,0,10,4.5,10,10v94.2
		C377.8,334.4,373.3,338.9,367.8,338.9z"/>
	<g>
		<circle class="st4" cx="419.9" cy="167.1" r="27.1"/>
	</g>
	<g>
		<path class="st4" d="M420,312.6h-1.5c-11.1,0-20.3-9.1-20.3-20.3v-40.9c0-11.1,9.1-20.3,20.3-20.3h1.5c11.1,0,20.3,9.1,20.3,20.3
			v40.9C440.3,303.5,431.1,312.6,420,312.6z"/>
		<circle class="st4" cx="414.1" cy="283.9" r="1.7"/>
		<circle class="st4" cx="419.3" cy="290.1" r="1.4"/>
		<circle class="st4" cx="431.4" cy="292.2" r="1.5"/>
		<circle class="st4" cx="420.3" cy="301.1" r="1"/>
		<circle class="st4" cx="409.3" cy="298.1" r="1"/>
	</g>
	<g>
		<g>
			<path class="st4" d="M791,263.8h-28.9c-0.8,0-1.5-0.7-1.5-1.5v-1.1c0-0.8,0.7-1.5,1.5-1.5H791c0.8,0,1.5,0.7,1.5,1.5v1.1
				C792.5,263.1,791.8,263.8,791,263.8z"/>
			<path class="st6" d="M780.9,257.3l-8.1-1c-5.5-0.7-9.4-5.7-8.7-11.1l4.4-36.4c0.7-5.5,5.7-9.4,11.1-8.7l8.1,1
				c5.5,0.7,9.4,5.7,8.7,11.1l-4.4,36.4C791.3,254.1,786.3,258,780.9,257.3z"/>
			<g>
				<line class="st7" x1="765.7" y1="200.5" x2="759.2" y2="193.8"/>
				<line class="st7" x1="770.5" y1="196.7" x2="764.5" y2="186"/>
				<line class="st7" x1="774.9" y1="194.3" x2="773" y2="184.5"/>
				<line class="st7" x1="780.4" y1="193.3" x2="779.5" y2="180.7"/>
				<line class="st7" x1="786" y1="193.5" x2="786.8" y2="183.6"/>
				<line class="st7" x1="791.6" y1="195.4" x2="795.6" y2="183.5"/>
				<line class="st7" x1="796" y1="197.8" x2="801.7" y2="190.2"/>
				<line class="st7" x1="800" y1="202.1" x2="808.4" y2="193.6"/>
				<line class="st7" x1="803.4" y1="206.3" x2="812.7" y2="202.7"/>
				<line class="st7" x1="804.1" y1="212.1" x2="816.5" y2="210.5"/>
				<line class="st7" x1="803.8" y1="217.1" x2="813.2" y2="219"/>
				<line class="st7" x1="801.7" y1="222.6" x2="813" y2="226.4"/>
				<line class="st7" x1="762.9" y1="203.6" x2="752.4" y2="197.9"/>
				<line class="st7" x1="760.8" y1="208.8" x2="750.9" y2="207.2"/>
				<line class="st7" x1="759.9" y1="215.7" x2="747.5" y2="214"/>
			</g>
			<path class="st4" d="M785.4,259.7h-16.2c-0.5,0-0.9-0.4-0.9-0.9v-0.8c0-0.5,3.4-1.9,3.9-1.9h10.2c0.5,0,3.9,1.4,3.9,1.9v0.8
				C786.3,259.3,785.9,259.7,785.4,259.7z"/>
		</g>
		<path class="st5" d="M802.4,309.3h-50c-4.4,0-8-3.6-8-8v-30.1c0-4.4,3.6-8,8-8h50c4.4,0,8,3.6,8,8v30.1
			C810.4,305.7,806.8,309.3,802.4,309.3z"/>
	</g>
	<path class="st5" d="M924.1,336.3h-68.2c-7.4,0-13.4-6.1-13.4-13.4v-63.3c0-7.4,6.1-13.4,13.4-13.4h68.2c7.4,0,13.4,6.1,13.4,13.4
		v63.3C937.5,330.2,931.4,336.3,924.1,336.3z"/>
	<path class="st4" d="M900.3,211.6h-6.3v34.7h-6.7v-34.7h-7v-25h-5.1l15.1-18l15.1,18h-5.1v8.2l-9.3,0.1c0.9,8.8,9.3,8.7,9.3,8.7
		V211.6z"/>
	<path class="st4" d="M937.7,299v-30.7c0,0,14.8-18,14.8-11.8v53.3C952.5,316.4,937.7,299,937.7,299z"/>
	<path class="st8" d="M842.5,294c0,0-1.7,6.2-3.5,6.1c-1.7-0.1-2.9-6.1-2.9-6.1s-1.6,6.2-3.3,6.1c-1.7,0-3.1-6.1-3.1-6.1
		s-1.1,6-2.8,6.1c-1.8,0.1-3.7-6.1-3.7-6.1s-0.9,6-2.6,6.1c-1.8,0.1-3.4-6.1-3.4-6.1s-1.5,6.1-3.2,6.1c-1.8,0-3.4-6.1-3.4-6.1v-14
		c0,0,1.7-5.8,3.4-5.7c1.6,0.1,2.8,5.7,2.8,5.7s1.8-5.8,3.5-5.7c1.6,0.1,2.7,5.7,2.7,5.7s1.9-5.8,3.6-5.7c1.6,0.1,2.9,5.7,2.9,5.7
		s1.7-5.7,3.3-5.7c1.6,0,3.2,5.7,3.2,5.7s1.6-5.7,3.2-5.7c1.7,0,3.3,5.7,3.3,5.7V294z"/>
	<path class="st4" d="M421.4,232.2h-4.1c0,0-1-4.4,0-5.6c0.5-0.6,3.3-1,3.3-1s-10.8-2.2-10.7-3.8c0.1-1.5,11.1-3.4,11.1-3.4
		s-11.4-1.7-11.1-3.5c0.3-1.5,11.3-3.3,11.3-3.3s-11.6-1.6-11.3-3.4c0.3-1.6,11.1-3.3,11.1-3.3s-11.3-1.6-11.1-3.3
		c0.2-1.6,10.4-3.2,10.4-3.2s-2.5-0.6-2.9-1.2c-0.7-0.9,0-4.2,0-4.2h4.1v2.5c0,0,9.1,0.4,9.2,2.2c0.1,1.9-10.2,3.8-10.2,3.8
		s10.1,1,10.2,2.9c0.1,1.9-10.2,3.4-10.2,3.4s10.3,2,10.2,4c-0.1,1.9-10.2,3.1-10.2,3.1s10.2,1.7,10.2,3.6c0,1.9-10.2,3.6-10.2,3.6
		s10.2,1.8,10.2,3.7c0,1.9-9.2,3.1-9.2,3.1V232.2z"/>
	<path class="st9" d="M345.7,247.6c-14,0-25.4,11.4-25.4,25.4c0,14,11.4,25.4,25.4,25.4c14,0,25.4-11.4,25.4-25.4
		C371.1,258.9,359.8,247.6,345.7,247.6z M345.7,285.5c-7,0-12.7-5.7-12.7-12.7c0-7,5.7-12.7,12.7-12.7c7,0,12.7,5.7,12.7,12.7
		C358.4,279.8,352.7,285.5,345.7,285.5z"/>
	<g>
		<path class="st4" d="M1142,313.8H962.9c-4.4,0-8,3.9-8,8.7v0c0,4.8,3.6,8.7,8,8.7H1142c4.4,0,8-3.9,8-8.7v0
			C1150,317.8,1146.4,313.8,1142,313.8z M964.9,328c-3.2,0-5.8-2.6-5.8-5.8c0-3.2,2.6-5.8,5.8-5.8c3.2,0,5.8,2.6,5.8,5.8
			C970.7,325.5,968.1,328,964.9,328z M981.9,328c-3.2,0-5.8-2.6-5.8-5.8c0-3.2,2.6-5.8,5.8-5.8c3.2,0,5.8,2.6,5.8,5.8
			C987.7,325.5,985.1,328,981.9,328z M999.9,328c-3.2,0-5.8-2.6-5.8-5.8c0-3.2,2.6-5.8,5.8-5.8c3.2,0,5.8,2.6,5.8,5.8
			C1005.7,325.5,1003.1,328,999.9,328z M1016.9,328c-3.2,0-5.8-2.6-5.8-5.8c0-3.2,2.6-5.8,5.8-5.8c3.2,0,5.8,2.6,5.8,5.8
			C1022.7,325.5,1020.1,328,1016.9,328z M1033.9,328c-3.2,0-5.8-2.6-5.8-5.8c0-3.2,2.6-5.8,5.8-5.8s5.8,2.6,5.8,5.8
			C1039.7,325.5,1037.1,328,1033.9,328z M1051.9,328c-3.2,0-5.8-2.6-5.8-5.8c0-3.2,2.6-5.8,5.8-5.8s5.8,2.6,5.8,5.8
			C1057.7,325.5,1055.1,328,1051.9,328z M1068.9,328c-3.2,0-5.8-2.6-5.8-5.8c0-3.2,2.6-5.8,5.8-5.8s5.8,2.6,5.8,5.8
			C1074.7,325.5,1072.1,328,1068.9,328z M1085.9,328c-3.2,0-5.8-2.6-5.8-5.8c0-3.2,2.6-5.8,5.8-5.8s5.8,2.6,5.8,5.8
			C1091.7,325.5,1089.1,328,1085.9,328z M1103.9,328c-3.2,0-5.8-2.6-5.8-5.8c0-3.2,2.6-5.8,5.8-5.8s5.8,2.6,5.8,5.8
			C1109.7,325.5,1107.1,328,1103.9,328z M1120.9,328c-3.2,0-5.8-2.6-5.8-5.8c0-3.2,2.6-5.8,5.8-5.8s5.8,2.6,5.8,5.8
			C1126.7,325.5,1124.1,328,1120.9,328z M1137.9,328c-3.2,0-5.8-2.6-5.8-5.8c0-3.2,2.6-5.8,5.8-5.8s5.8,2.6,5.8,5.8
			C1143.7,325.5,1141.1,328,1137.9,328z"/>
		<circle class="st4" cx="964.9" cy="322.3" r="3.8"/>
		<circle class="st4" cx="981.9" cy="322.3" r="3.8"/>
		<circle class="st4" cx="999.9" cy="322.3" r="3.8"/>
		<circle class="st4" cx="1016.9" cy="322.3" r="3.8"/>
		<circle class="st4" cx="1033.9" cy="322.3" r="3.8"/>
		<circle class="st4" cx="1051.9" cy="322.3" r="3.8"/>
		<circle class="st4" cx="1068.9" cy="322.3" r="3.8"/>
		<circle class="st4" cx="1085.9" cy="322.3" r="3.8"/>
		<circle class="st4" cx="1103.9" cy="322.3" r="3.8"/>
		<circle class="st4" cx="1120.9" cy="322.3" r="3.8"/>
		<circle class="st4" cx="1137.9" cy="322.3" r="3.8"/>
		<rect x="1005.1" y="311.3" class="st4" width="1.2" height="2.5"/>
		<rect x="969.1" y="311.3" class="st4" width="1.2" height="2.5"/>
		<rect x="985.1" y="331.3" class="st4" width="1.2" height="2.5"/>
		<rect x="1043.1" y="311.3" class="st4" width="1.2" height="2.5"/>
		<rect x="1059.1" y="331.3" class="st4" width="1.2" height="2.5"/>
		<rect x="1079.1" y="311.3" class="st4" width="1.2" height="2.5"/>
		<rect x="1095.1" y="331.3" class="st4" width="1.2" height="2.5"/>
		<rect x="1115.1" y="311.3" class="st4" width="1.2" height="2.5"/>
		<rect x="1023.1" y="331.3" class="st4" width="1.2" height="2.5"/>
		<rect x="1131.1" y="331.3" class="st4" width="1.2" height="2.5"/>
	</g>
	<path class="st10" d="M775.2,255.7c2.1-15.9,3.7-29.2,3.7-40.4c0-1.7-1-5.1-2.3-4.8c-1.5,0.3-1.7,4-0.7,6c0.9,1.9,2.3,5.2,6,6.3
		c1.8,0.5,4.3,0.2,5.6-0.3c2-0.9,4.8-4.7,5.1-7.1c0.1-1.1-0.7-3.6-3.3-2.8c-2.2,0.7-3.8,5.9-4.2,8.2c-1.6,10.4-2.5,19.9-4.9,35.4"/>
	<g>
		<g>
			<rect x="764.1" y="312.9" class="st2" width="27.8" height="2.1"/>
			<rect x="764" y="333.9" class="st2" width="27.9" height="2.1"/>
			<rect x="791.9" y="309.3" class="st2" width="4.1" height="35.3"/>
			<path class="st2" d="M794,342.6c-3.9,0-7,3.1-7,7c0,3.9,3.1,7,7,7s7-3.1,7-7C801,345.7,797.8,342.6,794,342.6z M794,353.6
				c-2.2,0-4-1.8-4-4c0-2.2,1.8-4,4-4s4,1.8,4,4C798,351.8,796.2,353.6,794,353.6z"/>
			<circle class="st2" cx="794" cy="349.6" r="2.5"/>
			<rect x="759.9" y="309.3" class="st2" width="4.1" height="35.3"/>
			<circle class="st2" cx="762" cy="349.6" r="2.5"/>
			<path class="st2" d="M762,342.6c-3.9,0-7,3.1-7,7c0,3.9,3.1,7,7,7s7-3.1,7-7C769,345.7,765.8,342.6,762,342.6z M762,353.6
				c-2.2,0-4-1.8-4-4c0-2.2,1.8-4,4-4s4,1.8,4,4C766,351.8,764.2,353.6,762,353.6z"/>
		</g>
	</g>
</g>
<g id="Grey_x5F_Accent">
	<g>
		<circle class="st11" cx="345.7" cy="272.8" r="12.7"/>
		<line class="st11" x1="329.9" y1="253.1" x2="344.8" y2="260.1"/>
		<line class="st11" x1="336.1" y1="249.4" x2="348.4" y2="260.3"/>
		<line class="st11" x1="343.5" y1="247.7" x2="352.4" y2="262"/>
		<line class="st11" x1="351.2" y1="248.3" x2="354.8" y2="263.9"/>
		<line class="st11" x1="357.5" y1="250.5" x2="357" y2="266.8"/>
		<line class="st11" x1="364.1" y1="255.4" x2="358.1" y2="269.8"/>
		<line class="st11" x1="368.4" y1="261.6" x2="358.4" y2="273.6"/>
		<line class="st11" x1="370.8" y1="268.6" x2="357.5" y2="277.5"/>
		<line class="st11" x1="371" y1="275.8" x2="355.8" y2="280.5"/>
		<line class="st11" x1="368.8" y1="283.2" x2="353.1" y2="283.1"/>
		<line class="st11" x1="364.9" y1="289.7" x2="349.7" y2="284.8"/>
		<line class="st11" x1="358.7" y1="294.7" x2="345.5" y2="285.5"/>
		<line class="st11" x1="351.9" y1="297.7" x2="341.7" y2="284.8"/>
		<line class="st11" x1="344" y1="298.4" x2="338.5" y2="283.2"/>
		<line class="st11" x1="336.5" y1="296.6" x2="335.7" y2="280.7"/>
		<line class="st11" x1="329.9" y1="292.9" x2="333.8" y2="277.2"/>
		<line class="st11" x1="324.5" y1="287.1" x2="333" y2="273"/>
		<line class="st11" x1="321.3" y1="280.1" x2="333.7" y2="268.6"/>
		<line class="st11" x1="320.3" y1="273" x2="335" y2="265.9"/>
		<line class="st11" x1="321.5" y1="265.2" x2="337.5" y2="263"/>
		<line class="st11" x1="324.5" y1="258.9" x2="341.2" y2="260.8"/>
	</g>
	<g>
		<circle class="st12" cx="761.3" cy="286.3" r="3"/>
		<circle class="st12" cx="777.3" cy="286.3" r="3"/>
		<circle class="st12" cx="792.3" cy="286.3" r="3"/>
	</g>
	<g>
		<path class="st13" d="M872.3,315L872.3,315c-1.1,0-2-0.9-2-2v-44.6c0-1.1,0.9-2,2-2l0,0c1.1,0,2,0.9,2,2V313
			C874.3,314.1,873.4,315,872.3,315z"/>
		<path class="st13" d="M878.3,315L878.3,315c-1.1,0-2-0.9-2-2v-44.6c0-1.1,0.9-2,2-2l0,0c1.1,0,2,0.9,2,2V313
			C880.3,314.1,879.4,315,878.3,315z"/>
		<path class="st13" d="M884.3,315L884.3,315c-1.1,0-2-0.9-2-2v-44.6c0-1.1,0.9-2,2-2l0,0c1.1,0,2,0.9,2,2V313
			C886.3,314.1,885.4,315,884.3,315z"/>
		<path class="st13" d="M890.3,315L890.3,315c-1.1,0-2-0.9-2-2v-44.6c0-1.1,0.9-2,2-2l0,0c1.1,0,2,0.9,2,2V313
			C892.3,314.1,891.4,315,890.3,315z"/>
		<path class="st13" d="M896.3,315L896.3,315c-1.1,0-2-0.9-2-2v-44.6c0-1.1,0.9-2,2-2l0,0c1.1,0,2,0.9,2,2V313
			C898.3,314.1,897.4,315,896.3,315z"/>
		<path class="st13" d="M903.2,315L903.2,315c-1.1,0-2-0.9-2-2v-44.6c0-1.1,0.9-2,2-2l0,0c1.1,0,2,0.9,2,2V313
			C905.2,314.1,904.3,315,903.2,315z"/>
		<path class="st13" d="M909.3,315L909.3,315c-1.1,0-2-0.9-2-2v-44.6c0-1.1,0.9-2,2-2l0,0c1.1,0,2,0.9,2,2V313
			C911.3,314.1,910.4,315,909.3,315z"/>
	</g>
	<circle class="st14" cx="415.4" cy="236.6" r="1"/>
	<circle class="st14" cx="423.9" cy="269.5" r="1.8"/>
	<circle class="st14" cx="424.3" cy="258.8" r="1"/>
	<circle class="st14" cx="434.3" cy="264.3" r="1.8"/>
	<circle class="st14" cx="409.3" cy="258.4" r="1.8"/>
	<circle class="st14" cx="412.2" cy="246.8" r="1.8"/>
	<circle class="st14" cx="418.4" cy="253.6" r="1"/>
	<circle class="st14" cx="406.4" cy="246.6" r="1"/>
	<circle class="st14" cx="419.4" cy="227.6" r="1"/>
	<circle class="st14" cx="425.4" cy="211.6" r="1"/>
	<path class="st14" d="M443.5,167.9c0,0-10.7,1.7-23.7,0.3c-13.4-1.5-23.7-0.3-23.7-0.3c0,13.1,10.6,23.7,23.7,23.7
		S443.5,181,443.5,167.9z"/>
	<circle class="st14" cx="430.3" cy="154.8" r="1"/>
	<circle class="st14" cx="435.3" cy="158.3" r="1.8"/>
	<circle class="st14" cx="415.4" cy="201.6" r="1"/>
	<path class="st14" d="M424.3,308.5h-9.5c-6.7,0-14.2-10.5-14.2-17.2v-18.5c0,0,11.2,0.4,18.2,1.9c9.3,2,19.7-1.9,19.8-1.5v18.1
		C438.5,298,431,308.5,424.3,308.5z"/>
	<circle class="st15" cx="419.7" cy="284.4" r="1.8"/>
	<circle class="st15" cx="409.3" cy="289.6" r="1.8"/>
	<circle class="st15" cx="434.2" cy="295.5" r="1.8"/>
	<circle class="st15" cx="425.1" cy="300.3" r="1"/>
	<circle class="st15" cx="419.7" cy="173.4" r="1.8"/>
	<circle class="st15" cx="409.3" cy="178.6" r="1.8"/>
	<circle class="st15" cx="431.2" cy="178.5" r="1.8"/>
	<circle class="st15" cx="422.1" cy="183.3" r="1"/>
</g>
<g id="Bras_x5F_new">
	<g>
		<path class="st16" d="M1101,266.4c0,3.1,0,6.3,0,9.4c0,2.5,0,5.2,2.1,6.9c1.1,0.9,4.1,3.8,6.8,7.5c3.6,4.9,7,12.5,7,12.5
			s4-7.1,6.7-10.9c1.8-2.6,5.6-6.2,7.9-8.1c2.3-1.8,2.4-4.3,2.3-7c0-3.2-0.1-6.5-0.1-9.7"/>
		<path class="st17" d="M1133.8,267c-0.3,0-0.7-0.1-1-0.1c0,3.1-0.6,13.1-2.9,16.3c-2.6,3.7-6.5,6.7-12.6,6.7
			c-6.6,0-11.6-5.3-13.5-9.7c-1.6-3.6-1.8-11-1.8-14c-1.4,0-3.8,1-3.8,1s-0.2,5-0.3,7c-0.1,1.7,0,3.5-0.1,5.2
			c-0.2,2.2-0.8,4.2-1.3,6.3c-0.9,4.2-0.7,8.6,0,12.8c0.2,1.1,0.4,2.2,0.6,3.3c0.1,0.7,0.1,2.1,0.5,2.6c0.8,0.9,3.9,0.2,5,0.1
			c4.1-0.3,8.2-1.3,12.3-1.6c4.1-0.4,8.2,1,12.3,1.5c1.9,0.2,3.8,0.4,5.7,0.4c0.9,0,1.8,0.1,2.8,0.1c0.2,0,1.1,0.1,1.1,0.1
			c0.2-0.1,0.4-1.5,0.4-1.7c0.9-3.9,1.7-8,1.8-12.1c0.1-4.4-1.9-8.3-2.2-12.6c-0.2-2.4-0.1-4.8-0.3-7.2c-0.1-1-0.3-4.1-0.3-4.1
			S1134.8,267.2,1133.8,267"/>
		<path class="st18" d="M1097.6,304.9c0.1,0.6,0.3,8.2,0.6,8.6c0.4,0.5,1.2,0.4,1.7,0.4c2.1,0.1,4.2-0.1,6.3-0.4
			c3.8-0.4,7.8-1.6,11.7-1.3c3.9,0.3,7.7,1.4,11.6,1.6c1.9,0.1,3.8,0.6,5.8,0.4c1.6-0.1,1.5-7.9,1.8-9.3"/>
		<path class="st16" d="M1138.5,285.8c-6.2,4.1-8,5.7-10.6,7.7c-5.3,4.1-10.5,8.4-10.5,9.2"/>
		<path class="st16" d="M1116.9,302.8c-2.5-3.9-5.6-7-9.1-9.8c-4-3.2-6.8-5.4-11.3-7.3"/>
		<path class="st19" d="M1116,310.9c-5.2,0.2-8.8,1.6-12,1.8c-1.5,0.1-5.9,0-5.9,0l-0.4-6.4c0,0,6.3-0.3,8.4-0.6
			c4.4-0.6,6.6-1.3,9-1.5C1115.8,304.1,1116.6,310.9,1116,310.9z"/>
		<path class="st16" d="M1138.8,296.5c-1.6,1.6-5.8,2.2-7.9,2.8c-3.9,1-9.4,1.5-14,3.6"/>
		<path class="st16" d="M1116.9,302.8c-2.7-3.2-17-5-20.6-7.2"/>
	</g>
	<g>
		<path class="st16" d="M1000.8,272.6c0,3.1,0,6.3,0,9.4c0,2.5,0,5.2,2.1,6.9c1.1,0.9,2.4,1.5,3.6,2.3c1.1,0.8,2.2,1.7,3.3,2.6
			c1.2,0.9,2.5,1.9,3.6,2.9c1,0.9,1.8,1.8,3.2,2.2c3.1,0.8,5.2-2.1,7.3-3.8c2.3-1.9,5-3.3,7.4-5.1c2.3-1.8,2.4-4.3,2.3-7
			c0-3.2-0.1-6.5-0.1-9.7"/>
		<path class="st17" d="M1033.6,273.2c-0.3,0-0.7-0.1-1-0.1c0,3.1,0,6.2,0.1,9.4c0.1,2.6,0,5.3-2.2,7.1c-1,0.8-2.2,1.2-3.3,1.9
			c-1.2,0.7-2.3,1.5-3.3,2.3c-1.9,1.6-4,4.1-6.7,3.9c-2.4-0.2-4.6-3.3-6.4-4.7c-2.1-1.7-4.4-3.1-6.7-4.6c-2.3-1.6-2.2-4.2-2.3-6.7
			c0-3.1,0-6.1,0-9.2c-1.4,0-3.8,0.8-3.8,0.8s-0.2,5.2-0.3,7.2c-0.1,1.7,0,3.5-0.1,5.2c-0.2,2.2-0.8,4.2-1.3,6.3
			c-0.9,4.2-0.7,8.6,0,12.8c0.2,1.1,0.4,2.2,0.6,3.3c0.1,0.7,0.1,2.1,0.5,2.6c0.8,0.9,3.9,0.2,5,0.1c4.1-0.3,8.2-1.3,12.3-1.6
			c4.1-0.4,8.2,1,12.3,1.5c1.9,0.2,3.8,0.4,5.7,0.4c0.9,0,1.8,0.1,2.8,0.1c0.2,0,1.1,0.1,1.1,0.1c0.2-0.1,0.4-1.5,0.4-1.7
			c0.9-3.9,1.7-8,1.8-12.1c0.1-4.4-1.9-8.3-2.2-12.6c-0.2-2.4-0.1-4.8-0.3-7.2c-0.1-1-0.3-4.1-0.3-4.1S1034.6,273.4,1033.6,273.2"/>
		<path class="st18" d="M997.6,311c0.1,0.6,0,2.2,0.4,2.7c0.4,0.5,1.2,0.4,1.7,0.4c2.1,0.1,4.2-0.1,6.3-0.4
			c3.8-0.4,7.8-1.6,11.7-1.3c3.9,0.3,7.7,1.4,11.6,1.6c1.9,0.1,3.8,0.6,5.8,0.4c1.6-0.1,1.4-2,1.7-3.4"/>
		<path class="st16" d="M1038.6,294.6c-1.6,1.6-3,1.9-5.1,2.4c-2.2,0.5-4.3,1.5-6.3,2.7c-1.8,1.1-3.5,2.5-5,4.1
			c-0.7,0.8-1.4,1.6-2,2.5c-0.5,0.7-1.6,1.9-1.6,2.8"/>
		<path class="st16" d="M1015,309c-1.7-4-3.7-7.2-7.4-9.8c-3.6-2.5-7.9-3.2-11.6-5.4"/>
		<path class="st16" d="M999,273.1c-0.1,2.7-0.3,5.4-0.3,8.2c0,1.2-0.2,2.4-0.4,3.6c-0.2,1.1-0.6,2.8-1.2,3.8"/>
		<path class="st16" d="M1035.4,273.7c0,2.8,0.1,5.6,0.2,8.3c0.1,2.4,0.4,5.4,1.9,7.4"/>
	</g>
	<g>
		<path class="st1" d="M1045.3,285c-0.3,0.9-0.6,1.7-0.8,2.6c-0.3,1.2-0.4,2.4-0.9,3.5c-0.5,1.1-0.4,2.1-0.5,3.2
			c-0.1,1.1,0,2.2,0.1,3.3c0.2,2.9,0.9,5.8,2.1,8.5c0.3,0.7,0.7,1.3,1,2c0.2,0.4,0.2,0.8,0.4,1.1c0.2,0.3,0.5,0.5,0.7,0.8
			c1.2,1.9,3,2.9,5.2,3.2c2.6,0.4,4.9-0.4,6.8-2c1.4-1.1,2.6-2.4,3.8-3.8c0.9-1.1,1.6-2.4,2.2-3.8c0.2-0.4,0-0.6-0.2-0.8
			c-0.7-0.6-1.1-1.4-1.6-2.1c-2.1-2.9-4.8-5.2-7.7-7.4c-1.3-0.9-2.6-1.9-4-2.5c-2.8-1.3-4.8-3.3-6.3-5.9c-0.2-0.3-0.1-0.9,0-1.3
			c0.2-2.1,0.5-4.2,0.7-6.3c0.2-2.2,0.3-4.5,0.4-6.7c0-0.3,0-0.6,0.1-0.9"/>
		<path class="st1" d="M1085.5,270.2c1,0.2,1.4,0.7,1.5,1.8c0.2,2.7,0.4,5.3,0.7,7.9c0.2,2,0.6,3.9,0.8,5.9c0.2,1.7,0.7,3.4,0.3,5.1
			c-0.4,1.7,0.1,3.4,0,5.2c-0.2,4.4-1.2,8.7-3.4,12.5c-0.4,0.7-1.2,1.2-1.9,1.7c-1.2,0.9-2.5,1.7-4,2c-1.4,0.2-2.7,0.1-4.1-0.4
			c-2.4-1-4-2.9-5.4-5c-0.8-1.3-1.5-2.6-2.2-4c-0.2-0.4-0.2-0.6,0-1.1c1-1.9,2.5-3.4,4.1-4.9c2.2-2.1,4.6-4,7.2-5.5
			c1-0.6,2.1-1.1,3.1-1.7c1.7-1,2.8-2.5,3.8-4.1c0.1-0.2,0.4-0.4,0.6-0.6"/>
		<path class="st1" d="M1046.4,270.1c0,0-0.1,0-0.1,0c-1.2,0.4-1.2,0.5-1.3,1.8c-0.1,2.1-0.3,4.2-0.6,6.3c-0.4,3.3-0.9,6.6-1.3,10
			c-0.2,1.1-0.2,2.1,0.1,3.2"/>
		<path class="st1" d="M1064.2,302.4c-0.9,2.1-2,4.1-3.5,5.9c-1.1,1.4-2.3,2.5-3.9,3.4c-2.4,1.2-4.7,1-6.9-0.2
			c-1-0.6-1.9-1.4-2.9-2.1c-0.1-0.1-0.3-0.2-0.4-0.3"/>
		<path class="st1" d="M1067.6,302.4C1067.6,302.4,1067.6,302.3,1067.6,302.4c-1.1,0.8-1.1,0.9-0.6,2c1.5,2.8,3.3,5.4,6,7.3
			c1.8,1.3,3.8,1.9,6,1.7c2.3-0.2,4.3-1.1,5.7-3.1c0.2-0.2,0.4-0.4,0.6-0.6"/>
		<path class="st1" d="M1085.3,269.9c0,0.1,0.1,0.2,0.1,0.3c0.2,3.2,0.3,6.5,0.5,9.7c0.1,1.7,0.3,3.4,0.7,5.1
			c0.4,1.8,0.9,3.5,1.4,5.2c0.1,0.5,0.4,0.9,0.5,1.4"/>
		<path class="st1" d="M1063.1,307.5c1.9,0,3.9,0,5.8,0"/>
		<path class="st1" d="M1064.1,305.9c1.2,0,2.4,0,3.6,0"/>
		<path class="st1" d="M1046.6,309.5c0,0.5-0.1,0.9-0.1,1.4c0,0.1,0.3,0.4,0.4,0.4c0.3,0,0.6-0.1,0.8-0.2"/>
		<path class="st1" d="M1085.4,308.9c0,0.6,0,1.2,0,1.7c0,0.7,0,0.7-0.8,0.6c-0.2,0-0.3-0.1-0.5-0.1"/>
	</g>
</g>
<g id="hearts">
	<g>
		<g>
			<g id="_x35_6-interface_-_like_heart_love_46_" class="st20">
				<g id="_x35_6-interface_-_like_heart_love_47_">
					<g>
						<path class="st21" d="M1004.7,194.2c-1.3,0.5-2.3,3.5-2.3,3.5s-2.5-1.8-3.7-1.3c-2.6,1-3.4,2.9-2.5,5.8
							c0.9,2.8,10.1,8.2,10.1,8.2s4.5-10.4,3.6-13.2C1009,194.2,1007.3,193.2,1004.7,194.2z"/>
					</g>
				</g>
			</g>
			<g id="Layer_1_24_">
			</g>
		</g>
		<g>
			<g id="_x35_6-interface_-_like_heart_love_44_" class="st20">
				<g id="_x35_6-interface_-_like_heart_love_45_">
					<g>
						<path class="st21" d="M1147.6,240.9c-1-0.3-2.8,1.1-2.8,1.1s-0.8-2.3-1.7-2.6c-2-0.7-3.2,0.1-3.9,2.3
							c-0.6,2.1,2.9,9.8,2.9,9.8s6.9-4.1,7.5-6.2C1150.2,243,1149.6,241.5,1147.6,240.9z"/>
					</g>
				</g>
			</g>
			<g id="Layer_1_23_">
			</g>
		</g>
		<g>
			<g id="_x35_6-interface_-_like_heart_love_42_" class="st20">
				<g id="_x35_6-interface_-_like_heart_love_43_">
					<g>
						<path class="st21" d="M1109.3,226.3c0.8,2.8,9.9,8.5,9.9,8.5s4.7-10.3,4-13.1c-0.8-3-2.5-4-5.1-3.2c-1.3,0.4-2.4,3.5-2.4,3.5
							s-2.4-1.9-3.7-1.4C1109.3,221.4,1108.4,223.2,1109.3,226.3z"/>
					</g>
				</g>
			</g>
			<g id="Layer_1_22_">
			</g>
		</g>
		<g>
			<g id="_x35_6-interface_-_like_heart_love_40_" class="st20">
				<g id="_x35_6-interface_-_like_heart_love_41_">
					<g>
						<path class="st21" d="M1089.1,250.8c1.6,1.4,9.4,0.7,9.4,0.7s-1-8.5-2.6-9.9c-1.7-1.5-3.1-1.3-4.4,0.4
							c-0.6,0.9-0.1,3.2-0.1,3.2s-2.2,0-2.8,0.8C1087.2,247.8,1087.4,249.4,1089.1,250.8z"/>
					</g>
				</g>
			</g>
			<g id="Layer_1_21_">
			</g>
		</g>
		<g>
			<g id="_x35_6-interface_-_like_heart_love_38_" class="st20">
				<g id="_x35_6-interface_-_like_heart_love_39_">
					<g>
						<path class="st21" d="M1011.6,236.8c2.4,1.3,12.4-2.3,12.4-2.3s-3.7-10.8-6.1-12.1c-2.6-1.4-4.4-0.7-5.6,2
							c-0.6,1.3,0.7,4.3,0.7,4.3s-2.9,0.7-3.5,2C1008.3,233.4,1009,235.4,1011.6,236.8z"/>
					</g>
				</g>
			</g>
			<g id="Layer_1_20_">
			</g>
		</g>
		<g>
			<g id="_x35_6-interface_-_like_heart_love_36_" class="st20">
				<g id="_x35_6-interface_-_like_heart_love_37_">
					<g>
						<path class="st21" d="M1069.2,224c-0.6,2.1,2.9,9.8,2.9,9.8s6.8-4.2,7.4-6.3c0.6-2.2,0-3.7-2-4.3c-1-0.3-2.8,1.1-2.8,1.1
							s-0.8-2.3-1.7-2.6C1071.1,221,1069.8,221.8,1069.2,224z"/>
					</g>
				</g>
			</g>
			<g id="Layer_1_19_">
			</g>
		</g>
		<g>
			<g id="_x35_6-interface_-_like_heart_love_34_" class="st20">
				<g id="_x35_6-interface_-_like_heart_love_35_">
					<g>
						<path class="st21" d="M1104.9,193.5c-0.8-1.2-3.8-1.2-3.8-1.2s0.8-3.1,0-4.3c-1.7-2.4-3.6-2.7-5.8-0.8
							c-2.1,1.8-3.8,13.1-3.8,13.1s10.4,1.4,12.5-0.4C1106.3,198,1106.6,195.9,1104.9,193.5z"/>
					</g>
				</g>
			</g>
			<g id="Layer_1_18_">
			</g>
		</g>
		<g>
			<g id="_x35_6-interface_-_like_heart_love_32_" class="st20">
				<g id="_x35_6-interface_-_like_heart_love_33_">
					<g>
						<path class="st21" d="M981.8,248.2c-0.9,0.4-1.5,2.8-1.5,2.8s-1.9-1.2-2.9-0.8c-1.9,0.9-2.4,2.3-1.6,4.5
							c0.8,2,7.9,5.5,7.9,5.5s2.8-8,2-10.1C985,247.9,983.7,247.3,981.8,248.2z"/>
					</g>
				</g>
			</g>
			<g id="Layer_1_17_">
			</g>
		</g>
		<g>
			<g id="_x35_6-interface_-_like_heart_love_30_" class="st20">
				<g id="_x35_6-interface_-_like_heart_love_31_">
					<g>
						<path class="st21" d="M1047.8,238.5c-0.9-0.4-2.9,0.7-2.9,0.7s-0.5-2.4-1.5-2.8c-1.9-0.9-3.2-0.3-4.1,1.9
							c-0.8,2,1.9,10.1,1.9,10.1s7.2-3.3,8-5.3C1050.2,240.9,1049.7,239.4,1047.8,238.5z"/>
					</g>
				</g>
			</g>
			<g id="Layer_1_16_">
			</g>
		</g>
		<g>
			<g id="_x35_6-interface_-_like_heart_love_28_" class="st20">
				<g id="_x35_6-interface_-_like_heart_love_29_">
					<g>
						<path class="st21" d="M1039.4,200.8c-0.6,2.9,4.7,12.8,4.7,12.8s8.8-6.3,9.4-9.1c0.7-3.1-0.3-4.9-3-5.6
							c-1.3-0.3-3.6,1.7-3.6,1.7s-1.2-3-2.5-3.3C1041.6,196.6,1040,197.8,1039.4,200.8z"/>
					</g>
				</g>
			</g>
			<g id="Layer_1_15_">
			</g>
		</g>
		<g>
			<g id="_x35_6-interface_-_like_heart_love_26_" class="st20">
				<g id="_x35_6-interface_-_like_heart_love_27_">
					<g>
						<path class="st21" d="M1074.3,257.7c-1.3-0.5-3.7,1.3-3.7,1.3s-1-3.1-2.3-3.5c-2.6-1-4.3,0-5.2,3c-0.9,2.8,3.6,13.2,3.6,13.2
							s9.3-5.3,10.1-8.1C1077.7,260.6,1076.9,258.7,1074.3,257.7z"/>
					</g>
				</g>
			</g>
			<g id="Layer_1_14_">
			</g>
		</g>
		<g>
			<g id="_x35_6-interface_-_like_heart_love_24_" class="st20">
				<g id="_x35_6-interface_-_like_heart_love_25_">
					<g>
						<path class="st21" d="M958.7,227.4c0.8,2.8,9.9,8.5,9.9,8.5s4.7-10.3,4-13.1c-0.8-3-2.5-4-5.1-3.2c-1.3,0.4-2.4,3.5-2.4,3.5
							s-2.4-1.9-3.7-1.4C958.7,222.5,957.9,224.4,958.7,227.4z"/>
					</g>
				</g>
			</g>
			<g id="Layer_1_12_">
			</g>
		</g>
	</g>
</g>
<g id="girls">
	<g>
		<path class="st22" d="M594.1,51c0.9,3.2,11.2,5.5,6.3-12.2c-5.8-20.6,9.7-25.7,16.4-21.9c8.8-1.9,18.2,8,11.8,24.8
			c-6.6,17.1,2.9,15.9,4.5,13C621.9,76.4,600.7,74.5,594.1,51z"/>
		<path class="st23" d="M618.1,50.6c-0.1,0.1-10-0.7-10.2-0.6c-3.6,4.1-10.5,5.4-16,6c-5.4,0.6-6.3,7.4-6.8,11.9l51.8,5.3
			c0.5-4.5,1.1-11.2-4.2-13C627.5,58.5,620.6,55.5,618.1,50.6z"/>
		<path class="st23" d="M619.4,41.2l-1.3,12.7c-3.2,3.5-7.9,2.8-10.4-1.1l1.3-12.7C609.7,33.2,620.1,34.3,619.4,41.2z"/>
		<path class="st24" d="M619.4,41.2l-0.9,8.5c-2.1,1.3-4.1,2-5.4,1.9c-1.3-0.1-3.1-1.2-4.9-2.9l0.9-8.5
			C609.7,33.2,620.1,34.3,619.4,41.2z"/>
		<path class="st23" d="M613.3,49.4c-3.4-0.3-10-6.4-11.4-14.2c-1.4-7.9,3.9-18.5,14.7-17.4c10.8,1.1,13.8,12.6,10.8,20
			C624.4,45.2,616.7,49.8,613.3,49.4z"/>
		<path class="st25" d="M610.2,41.4c1.9-1.5,3.1-0.1,4.1,0c1,0.1,2.5-1,4,0.8C617,46.5,611,46,610.2,41.4z"/>
		<path class="st25" d="M586.3,61.9c-0.6,2-0.9,4.2-1.1,6l51.8,5.3c0.2-1.8,0.4-4,0.2-6.1L586.3,61.9z"/>
		<path class="st26" d="M610.2,41.4c1.9-1.5,3.1-0.1,4.1,0c1,0.1,2.5-1,4,0.8C615.6,43.2,611.9,42.2,610.2,41.4z"/>
		<path class="st22" d="M601.6,27.3c2.1-15.5,29.1-11.3,27.8,2.9C621.1,31.2,608.3,29.6,601.6,27.3z"/>
		
			<ellipse transform="matrix(-0.2983 -0.9545 0.9545 -0.2983 748.2886 617.8575)" class="st23" cx="601.3" cy="33.9" rx="3.7" ry="2.2"/>
		
			<ellipse transform="matrix(0.4868 -0.8735 0.8735 0.4868 290.4583 567.6969)" class="st23" cx="628.4" cy="36.7" rx="3.7" ry="2.2"/>
		<path class="st22" d="M622.9,26.2c5.1,4,4.9,8.8,4.8,12.4C630.4,35.8,631.8,25,622.9,26.2z"/>
		<path class="st22" d="M608.8,24.7c-5.8,2.9-6.6,7.6-7.2,11.2C599.4,32.6,600.3,21.7,608.8,24.7z"/>
		<g>
			<path class="st27" d="M594.5,68.9c0.1-1,0.4-2.2,0.8-3.7c-0.6,1.4-1.1,2.6-1.4,3.6L594.5,68.9z"/>
			<path class="st27" d="M627.8,72.3c0.1-1,0.1-2.3,0-3.8c0.3,1.5,0.5,2.8,0.6,3.8L627.8,72.3z"/>
		</g>
	</g>
	<g>
		
			<ellipse transform="matrix(-0.2329 -0.9725 0.9725 -0.2329 554.5694 564.4817)" class="st28" cx="499.9" cy="63.5" rx="3.7" ry="2.2"/>
		<path class="st29" d="M483.2,99.1c-1.7-0.5-2-2.1-1.2-3.8c1.1-2.5-0.6-3.8-3.7-3.1c-3.1,0.7-5.9-2.2-4.8-5.8
			c1.1-3.6,0.7-5.5-2.8-6.6c-3.5-1.1-5.3-6.1-3-8.6c2.2-2.5,1.6-2.5,0.6-5.1c-1.8-4.4,0.4-10.4,4.4-9.6c0.3-6.4,9.8-8.8,13.9-6.1
			c4.3,2.8,5.5,1.9,8.4,1.4c2.9-0.5,7.2,3.9,7.1,7.1c-0.1,4.2,1.9,4.6,5.4,3.9c3.5-0.6,4.3,1.7,3,4.3c-1.2,2.6-1.1,5.4,1.6,5
			c2-0.2,3.2,0.6,3.9,2.7C519.4,84.6,497.2,103.2,483.2,99.1z"/>
		<path class="st30" d="M500.8,79.4c0,0.2-7.9,6.3-7.9,6.5c0.2,5.4-4.1,11.1-7.7,15.2c-3.6,4.2,0.3,9.7,3,13.4L530,83.3
			c-2.7-3.6-6.8-9-11.9-6.7C513,78.9,505.9,81.4,500.8,79.4z"/>
		<path class="st30" d="M495.3,71.6l7.6,10.3c0,4.7-3.9,7.4-8.4,6.2L487,77.8C482.8,72.3,491.2,66.1,495.3,71.6z"/>
		<path class="st24" d="M495.3,71.6l5.1,6.9c-0.7,2.4-1.7,4.3-2.7,5.1c-1.1,0.8-3.1,1.2-5.6,1.2l-5.1-6.9
			C482.8,72.3,491.2,66.1,495.3,71.6z"/>
		<path class="st30" d="M496.4,81.8c-2.7,2-11.7,2-18-2.8c-6.4-4.9-9.7-16.3-1-22.7c8.7-6.5,18.7-0.1,21.5,7.4
			C501.7,71.2,499.2,79.8,496.4,81.8z"/>
		<path class="st25" d="M488.5,78.1c0.4-2.4,2.2-2.2,3-2.8c0.8-0.6,1.1-2.4,3.5-2.1C497,77.3,492.3,81,488.5,78.1z"/>
		<path class="st31" d="M489.1,78c0.6-0.8,4.5-3.7,5.7-4.3C495.1,76,491,78.9,489.1,78z"/>
		<path class="st25" d="M488.5,78.1c0.4-2.4,2.2-2.2,3-2.8c0.8-0.6,1.1-2.4,3.5-2.1C493.8,75.8,490.4,77.6,488.5,78.1z"/>
		<path class="st32" d="M492.6,109.1c-0.1-9.5,10.1-9.1,14.2-12.2c4.1-3.1,6-13.7,15.7-10.2L492.6,109.1z"/>
		<path class="st29" d="M502,70.9c0.8,5.5,1-16.2-14.9-18.6c-9.5-1.5-18.2,5.6-17.1,14.3c3.6,1.3,9,0.9,13.3-2.4
			c7.2-5.6,2.7,4.9,9.3,1.2c4.8-2.7,4.5-1.2,4.1,2.7C496.4,70.8,498.5,72.7,502,70.9z"/>
		
			<ellipse transform="matrix(-0.8656 -0.5007 0.5007 -0.8656 851.9833 388.2311)" class="st30" cx="478.1" cy="79.8" rx="3.7" ry="2.2"/>
		<path class="st29" d="M474.2,63.6c1.7,4,5,5.5,2.5,7.9c-3.3,3.1,0.1,4.1,1.9,7.1C474.7,77.6,465.9,67.1,474.2,63.6z"/>
	</g>
	<g>
		<path class="st33" d="M538.7,21.2c0.4-0.1,0.8-0.1,1.2-0.1c0.2-1.3,1-2.3,2.3-2.7c1.6-0.5,3.3,0.4,3.9,2c0.4-0.6,1-1,1.7-1.2
			c1.7-0.5,3.5,0.5,4,2.3c0.4-0.4,0.8-0.6,1.3-0.8c1.7-0.5,3.5,0.6,4.1,2.4c0.1,0.5,0.2,1,0.1,1.5c0.2-0.1,0.4-0.2,0.6-0.2
			c1.7-0.5,3.5,0.6,4.1,2.4c0.2,0.7,0.2,1.4,0,2.1c0.6,0.4,1.1,1.1,1.3,1.9c0.3,1,0.1,2-0.3,2.8c0.7,0.4,1.3,1.2,1.6,2.1
			c0.4,1.4,0,2.8-1,3.6c0.7,0.4,1.2,1.1,1.4,2c0.4,1.5-0.1,3-1.3,3.8c0.2,0.3,0.3,0.5,0.4,0.8c0.5,1.8-0.3,4.2-2.1,4.2
			c0.5,1.4-0.9,4.6-3.5,3.7c-0.1,4.1-8.2,5.8-10.7,3.1c-1.1,2.3-4.4,1.7-5.1-0.4c-1.8,0.6-3.6-0.6-4.1-2.4c-0.1-0.3-0.1-0.5-0.1-0.8
			c-1.6,0.2-3.1-0.8-3.6-2.5c-0.1-0.4-0.1-0.7-0.1-1.1c-1.4,0-2.8-1-3.2-2.5c-0.1-0.4-0.2-0.8-0.1-1.2c-0.9-0.4-1.6-1.2-1.9-2.2
			c-0.3-1-0.1-2,0.3-2.8c-0.6-0.4-1.2-1.1-1.4-1.9c-0.4-1.3,0-2.6,0.9-3.5c-0.2-0.3-0.4-0.7-0.5-1c-0.5-1.8,0.4-3.7,2.1-4.2
			c0.1,0,0.2-0.1,0.3-0.1c0-1.2,0.7-2.4,1.7-2.9c0-0.1,0-0.1-0.1-0.2c-0.5-1.8,0.4-3.7,2.1-4.2c0.6-0.2,1.3-0.2,1.9,0.1
			C537.1,22.1,537.8,21.5,538.7,21.2z"/>
		<path class="st34" d="M556.9,54.4c-0.1,0.2-9.6,3.1-9.6,3.3c-1.8,5.2-7.7,8.9-12.5,11.6c-4.8,2.6-3.1,9.2-1.8,13.6l50-14.6
			c-1.3-4.3-3.3-10.8-8.8-10.5C568.6,58.2,561.1,58,556.9,54.4z"/>
		<path class="st34" d="M554.5,45.2l3.6,12.3c-1.7,4.4-6.2,5.6-10,2.9l-3.6-12.3C542.6,41.5,552.6,38.5,554.5,45.2z"/>
		<path class="st35" d="M554.5,45.2l2.4,8.2c-1.5,2-3.1,3.4-4.3,3.8s-3.4,0.1-5.7-0.9l-2.4-8.2C542.6,41.5,552.6,38.5,554.5,45.2z"
			/>
		<path class="st34" d="M552,55.1c-3.3,1-11.7-2.2-15.9-8.9c-4.3-6.8-3.4-18.6,7-21.6c10.4-3,17.5,6.4,17.6,14.5
			C560.7,47,555.3,54.2,552,55.1z"/>
		<path class="st36" d="M544.8,49.1c1.7-2.3,4.3-2,5.1-2.2c0.8-0.2,2.7-1.8,5.3-0.8C555.4,50.8,547.7,53.1,544.8,49.1z"/>
		<path class="st37" d="M544.9,49c1.8-1.3,4.1-0.4,5.3-0.8c1.3-0.4,2.5-2.8,5-2.1C553.5,49.2,548,50.7,544.9,49z"/>
		<path class="st31" d="M544.9,49c1.9-1.5,3.7-1.4,5-1.7c1.3-0.4,2.9-1.6,5.4-1.3C553.3,48,547.7,49.6,544.9,49z"/>
		<path class="st36" d="M544.8,49c1.7-2.2,3.9-1.7,5.2-2c1.3-0.4,2.5-1.9,5.2-1c0,0,0,0,0,0.1C552.3,46.9,547.7,48.2,544.8,49z"/>
		
			<ellipse transform="matrix(-0.6361 -0.7716 0.7716 -0.6361 840.2398 489.8683)" class="st34" cx="535.6" cy="46.8" rx="3.7" ry="2.2"/>
		
			<ellipse transform="matrix(0.1217 -0.9926 0.9926 0.1217 454.5378 592.01)" class="st34" cx="561.8" cy="39.2" rx="3.7" ry="2.2"/>
		<path class="st33" d="M559.9,39.2c6-15.3-14.6-17.2-19.5-15.7c-4.2,1.2-13.7,16.7-3.4,23.3c-0.5-1.5-1.1-4,1-5.6
			c1.8-0.5,3.9-1.3,3.4-3c0.4,0.1,0.9,0,1.3-0.1c1.5-0.4,2.4-1.9,2.2-3.4c0.1,0,0.1,0,0.2,0c1.1-0.3,1.9-1.2,2.1-2.3
			c0.5-0.2,0.9-0.5,1.2-0.9c0.7,0.7,1.7,1.1,2.6,1c0.7,1.4,2.9,3.3,5.2,1.3C558.3,35.4,559.5,37.2,559.9,39.2z"/>
		<path class="st38" d="M534.5,69.4c3.4,2,6.8,5.4,8.3,10.5l31.2-9.1c-1.1-4.1-1.4-9,0-13l0,0c-0.2,0-0.5,0-0.7,0
			c-2.1,6.8-7,12.8-16.6,15.6c-9.2,2.7-16.1,0-21.5-4.4c-0.2,0.1-0.3,0.2-0.5,0.3C534.7,69.3,534.6,69.4,534.5,69.4z"/>
	</g>
	<g>
		<path class="st38" d="M659.8,57.5c7.8-20.1,17.5-26.2,28.4-20.6c10.9,5.5,11.7,18.4,0,35C677.7,72.5,664.9,65,659.8,57.5z"/>
		<path class="st28" d="M676.8,70.1c-0.2,0.1-9.1-4.3-9.3-4.2c-4.8,2.6-11.7,1.3-17.1-0.1c-5.3-1.3-8.6,4.6-10.6,8.7L686.4,98
			c2-4,5-10.1,0.7-13.7C682.8,80.8,677.4,75.6,676.8,70.1z"/>
		<path class="st28" d="M681.4,61.7l-5.8,11.4c-4.3,2.1-8.4-0.2-9.3-4.7l5.8-11.4C675.2,50.8,684.5,55.5,681.4,61.7z"/>
		<path class="st24" d="M681.4,61.7l-3.9,7.6c-2.5,0.5-4.6,0.4-5.7-0.2c-1.2-0.6-2.5-2.2-3.6-4.5l3.9-7.6
			C675.2,50.8,684.5,55.5,681.4,61.7z"/>
		<path class="st28" d="M672.7,67.2c-3-1.5-7-9.5-5.6-17.4c1.5-7.9,10.3-15.9,19.9-11s8.4,16.7,2.9,22.6
			C684.6,67.2,675.8,68.8,672.7,67.2z"/>
		<path class="st25" d="M672.7,58.6c2.3-0.7,2.9,1,3.8,1.5c0.9,0.5,2.7-0.1,3.5,2.2C677.2,65.8,671.8,63.2,672.7,58.6z"/>
		<path class="st31" d="M673.2,59.1c1,0.2,5.3,2.3,6.4,3.2C677.7,63.6,673.2,61.2,673.2,59.1z"/>
		<path class="st25" d="M672.7,58.6c2.3-0.7,2.9,1,3.8,1.5c0.9,0.5,2.7-0.1,3.5,2.2C677.1,62.3,674,60,672.7,58.6z"/>
		
			<ellipse transform="matrix(6.271627e-002 -0.998 0.998 6.271627e-002 575.3723 711.5547)" class="st28" cx="666.5" cy="49.4" rx="3.7" ry="2.2"/>
		
			<ellipse transform="matrix(0.7669 -0.6417 0.6417 0.7669 121.3913 457.7177)" class="st28" cx="690.8" cy="61.7" rx="3.7" ry="2.2"/>
		<path class="st38" d="M690.9,47.1c3.3,5.6,1.5,10,0,13.3C694.5,58.8,699.7,49.1,690.9,47.1z"/>
		<path class="st38" d="M678.3,40.7c-6.5,0.6-8.9,4.7-10.7,7.8C666.7,44.7,671.5,34.9,678.3,40.7z"/>
		<path class="st38" d="M670.6,40.5c7.5-13.8,31.2-0.1,24.9,12.6c-2.8-0.7-6-1.8-9.3-3.3c0.5-1.3,0.9-3.1,1.3-5.5
			c-0.8,0.8-2.1,2.8-3.2,4.6c-1.9-0.9-3.7-1.9-5.5-2.9c0.8-1.9,1.6-4,1.8-5.1c-1.6,1.6-2.7,3-3.5,4.1
			C674.6,43.5,672.3,41.9,670.6,40.5z"/>
		<g>
			<path class="st29" d="M685.9,54.3c3.1,1.3,4.4,2.7,4.6,2.9c0.3,0.3-0.3,1.3-0.7,1.3c-0.4,0-1.1,0.7-2.3,1.3
				c-0.8,0.4-2.6-0.2-4-0.8l0.1-0.3c1.2,0.5,2.5,1,3.3,0.9c1.5-0.2,2.4-1.7,2-2.9c-0.2-0.6-1.6-1.5-3.1-2.1L685.9,54.3z M675.4,49
				l0.1,0.1c2.9,1.8,3.3,2.7,3.6,2.8c0.4,0.1,0.8,0.3,1.2,0.5s0.8,0.4,1.1,0.7c0.3,0.2,1.2-0.1,4.4,1.2l0.1,0.1l-0.1,0.3l0,0
				c-1.5-0.7-3.6-1.3-4.4-0.6c-0.8,0.7-0.8,2.5,0,3.4c0.4,0.4,1.3,0.9,2.3,1.4l-0.1,0.3c-0.8-0.4-1.5-0.8-2-1
				c-1.2-0.8-1.3-2.7-1.3-3.3c0.1-1.2-1-1.8-1.9-1c-0.4,0.4-2.1,1.4-3.4,0.9c-0.5-0.2-1.2-0.5-2-1l0.1-0.3c1,0.5,1.9,1,2.5,1
				c1.2,0.1,2.7-1,2.7-2c0-1-1.7-2.3-3.1-3.1l0,0L675.4,49z M670.2,47c0.4,0,2.3,0.3,5.1,2l-0.1,0.3c-1.4-0.8-2.9-1.4-3.6-1.3
				c-1.2,0.3-1.9,2-1.2,3.3c0.4,0.6,1.5,1.5,2.6,2.1l-0.1,0.3c-1.4-0.8-2.9-1.9-3.1-2.8c-0.2-1.4-0.1-2.3-0.3-2.6
				C669.4,48,669.8,47,670.2,47z"/>
			<path class="st28" d="M671.7,48c0.6-0.2,2.1,0.5,3.6,1.3c1.4,0.8,3.2,2.1,3.1,3.1c0,1-1.5,2.2-2.7,2c-1.2-0.1-4.5-2-5.1-3.1
				C669.8,50,670.5,48.4,671.7,48z"/>
			<path class="st28" d="M688.8,56.7c-0.2-0.6-1.6-1.5-3.1-2.1c-1.5-0.7-3.6-1.3-4.4-0.6c-0.8,0.7-0.8,2.5,0,3.4
				c0.8,0.9,4.2,2.4,5.6,2.3C688.4,59.4,689.3,57.9,688.8,56.7z"/>
		</g>
		<path class="st39" d="M649.3,65.6c-4.6-0.2-7.5,5.1-9.4,8.8L686.4,98c1.9-3.7,4.5-9.2,1.6-12.8C672.3,84.1,659.5,77.4,649.3,65.6z
			"/>
		<path class="st40" d="M689.3,88.8c-1.8-0.1-3.7-0.3-5.4-0.5l0.3-0.6c1.7,0.2,3.4,0.4,5.1,0.5C689.3,88.4,689.3,88.6,689.3,88.8
			L689.3,88.8z M680.9,94.1l0.3-0.6c2.2,0.4,4.5,0.6,6.9,0.8c-0.1,0.2-0.2,0.4-0.2,0.6C685.5,94.8,683.2,94.5,680.9,94.1L680.9,94.1
			z M682.4,91.3l0.3-0.6c2.1,0.3,4.2,0.5,6.4,0.6c0,0.2-0.1,0.4-0.1,0.6C686.7,91.8,684.5,91.6,682.4,91.3z M683.9,88.3
			c-6.8-0.9-13.1-2.9-18.8-5.8l0.3-0.5c5.8,2.9,12,4.9,18.8,5.8L683.9,88.3L683.9,88.3z M682.6,90.7c-6.8-1-13-2.9-18.8-5.9
			l-0.3,0.5c5.8,2.9,12,4.9,18.8,5.9L682.6,90.7L682.6,90.7z M681.2,93.6l-0.3,0.6c-1.2-0.2-2.3-0.4-3.5-0.7l-2.4-1.2
			C677,92.8,679.1,93.2,681.2,93.6z M665,82.5L665,82.5c-5.7-2.9-10.9-6.8-15.7-11.6l0.3-0.6c4.7,4.8,9.9,8.8,15.7,11.7l0,0
			L665,82.5L665,82.5z M663.9,84.9L663.9,84.9c-5.7-2.9-10.9-6.8-15.7-11.6l-0.3,0.6c4.8,4.8,10,8.6,15.7,11.5l0,0L663.9,84.9
			L663.9,84.9z M646.4,76.7l0.3-0.6c1.6,1.5,3.2,3,4.9,4.3l-2.4-1.2C648.2,78.3,647.3,77.5,646.4,76.7z M649.4,70.9
			c-1.3-1.3-2.6-2.7-3.8-4.2c0.2-0.1,0.3-0.2,0.5-0.3c1.1,1.4,2.3,2.7,3.5,3.9L649.4,70.9L649.4,70.9z M648.1,73.3l-0.3,0.6
			c-1.6-1.6-3.1-3.2-4.5-5c0.1-0.2,0.3-0.3,0.4-0.5C645.1,70.1,646.6,71.7,648.1,73.3L648.1,73.3z M646.7,76.1l-0.3,0.6
			c-1.7-1.6-3.3-3.3-4.9-5.2c0.1-0.2,0.2-0.4,0.3-0.5C643.4,72.8,645,74.5,646.7,76.1z"/>
		<g>
			<path class="st41" d="M648.2,78.7c0.5-0.9,1.1-2,2-3.2c-1.1,1.1-1.9,2-2.6,2.9L648.2,78.7z"/>
			<path class="st41" d="M678.1,93.8c0.4-0.9,0.9-2.1,1.4-3.5c-0.2,1.5-0.5,2.8-0.8,3.8L678.1,93.8z"/>
		</g>
	</g>
	<g>
		<path class="st42" d="M740.5,79.7c2.6-0.5,11.4,6.5,8.5,15.1s-6.5,8.8-6.9,12.6c-0.4,3.7-6.8,6.3-8.4,5.4
			c-1.6-0.9-2.8,1.1-2.9,2.4c-0.6,5.4-9.2,6.1-18.5-4.3c-9.9-11.1-5.9-18.6-1.5-17.5c1.4,0.4,2.9-0.3,3-2.2c0.1-1.9,1.8-7.7,6.9-8.3
			C726.1,82.2,733.6,72,740.5,79.7z"/>
		<path class="st43" d="M722.9,109c-0.2,0-7-7.3-7.1-7.3c-5.4,0.6-11.4-3.1-15.9-6.3c-4.5-3.2-9.7,1.2-13,4.2l34.8,38.8
			c3.4-3,8.3-7.6,5.6-12.5C724.6,121.2,721.5,114.4,722.9,109z"/>
		<path class="st44" d="M730.2,102.9l-9.5,8.5c-6.2,1.3-9.2-2.3-7-7.8l9.5-8.5C728.4,90.5,735.4,98.3,730.2,102.9z"/>
		<path class="st45" d="M730.2,102.9l-6.4,5.7c-2.5-0.4-4.4-1.3-5.3-2.3s-1.5-3-1.7-5.5l6.4-5.7C728.4,90.5,735.4,98.3,730.2,102.9z
			"/>
		<path class="st44" d="M720.2,104.9c-2.3-2.5-3.1-11.4,1.1-18.2c4.3-6.8,15.3-11.1,22.6-3c7.2,8.1,1.8,18.6-5.5,22.1
			C731.2,109.2,722.4,107.5,720.2,104.9z"/>
		<ellipse transform="matrix(0.9476 -0.3195 0.3195 0.9476 4.4634 241.15)" class="st44" cx="737.3" cy="107" rx="3.7" ry="2.2"/>
		
			<ellipse transform="matrix(0.4207 -0.9072 0.9072 0.4207 337.5634 703.9566)" class="st44" cx="720" cy="87.7" rx="3.7" ry="2.2"/>
		<path class="st42" d="M742.5,92.6c-4.3,4.1-6.8,6.7-3.4,8.3c3.3,1.6,0,3.8-2.5,5.2c4.8-0.3,7.3-2.9,9.4-6.1c2.3-3.4,3.3-11.4,0-15
			c-1.6-2.2-4.5-4.9-9.6-6.1c-8.9-2-16.1,7.8-15.8,10.2c6.9-8.8,8.4-3.8,14.9-5.1C738,83.1,747,88.3,742.5,92.6z"/>
		<g>
			<polygon class="st25" points="715.8,101.8 710.8,101.3 708.5,109.7 714.1,110.2 			"/>
			<polygon class="st25" points="722.8,109.6 722.7,114.7 714,115.8 714.1,110.2 			"/>
		</g>
		
			<rect x="708.7" y="108.1" transform="matrix(-0.6675 -0.7446 0.7446 -0.6675 1097.2534 719.3909)" class="st25" width="1.1" height="13.2"/>
		<path class="st25" d="M693.1,106.7c0.8-0.7,1.8-1.4,3.1-2.2c-1.4,0.6-2.5,1.2-3.5,1.8L693.1,106.7z"/>
		<path class="st25" d="M715.5,131.6c0.7-0.7,1.6-1.6,2.6-2.8c-0.8,1.3-1.5,2.4-2.1,3.3L715.5,131.6z"/>
	</g>
	<g>
		<g>
			<path class="st46" d="M438.4,103.2c-12.7,4.3-14.9,13.7-13.6,18.1C427.5,120.7,439.3,114.2,438.4,103.2z"/>
			<path class="st46" d="M448.7,104.6c-14.1-2.4-24.3,12-23.8,16.7C427.5,121.2,447.6,115.6,448.7,104.6z"/>
			<path class="st46" d="M453.8,108.8c-12.5-5-28.7,7.9-28.9,12.6C427.5,121.6,451.1,119.5,453.8,108.8z"/>
			<path class="st46" d="M425.3,132.3c2.2-3.3,3.4-10.1-0.4-11C423.2,124.4,422.9,127.6,425.3,132.3z"/>
			<path class="st46" d="M431.5,137.5c1.3-5.5-2.6-13.8-6.6-16.2C424.7,124,424.3,131.7,431.5,137.5z"/>
			<path class="st46" d="M436.8,139.6c1.9-7.9-7.6-16.6-11.9-18.3C425.2,124,428.7,135.2,436.8,139.6z"/>
			<path class="st46" d="M459,115.2c-11.4-10.8-33.3,1.5-34.1,6.1C427.4,122,454.8,125.4,459,115.2z"/>
			<path class="st46" d="M445.6,140.3c-2.3-12.6-16.3-20.6-20.7-19C425.6,123.9,434.6,142,445.6,140.3z"/>
			<path class="st46" d="M452.9,138.8c-4.4-12-24-19.8-28.1-17.5C426.1,123.7,442.5,142.2,452.9,138.8z"/>
			<path class="st46" d="M462.4,121.4c-10.6-7.9-35.8-4.5-37.5-0.1C427.3,122.5,456.3,130.7,462.4,121.4z"/>
			<path class="st46" d="M455.2,134.4c-6.1-11.2-26.7-16-30.3-13.1C426.4,123.5,445.4,139.4,455.2,134.4z"/>
			<path class="st46" d="M462,126.7c-9.4-9.3-34.8-9.5-37.1-5.4C427.1,122.8,454.7,135,462,126.7z"/>
		</g>
		<path class="st47" d="M458.5,125.8c0.1,0.2-4.7,8.9-4.6,9.1c2.3,4.9,0.7,11.8-1,17c-1.6,5.2,4.2,8.8,8.1,11l25.9-45.2
			c-3.9-2.2-9.8-5.5-13.6-1.4C469.5,120.4,464,125.6,458.5,125.8z"/>
		<path class="st47" d="M450.4,120.8l11.1,6.4c1.8,4.4-0.6,8.4-5.2,9.1l-11.1-6.4C439.2,126.4,444.4,117.4,450.4,120.8z"/>
		<path class="st48" d="M450.4,120.8l7.4,4.3c0.4,2.5,0.2,4.6-0.5,5.7c-0.7,1.2-2.4,2.4-4.7,3.3l-7.4-4.3
			C439.2,126.4,444.4,117.4,450.4,120.8z"/>
		<path class="st47" d="M455.4,129.7c-1.7,2.9-9.9,6.5-17.6,4.6c-7.8-1.9-15.3-11.1-10-20.5c5.4-9.4,17.1-7.5,22.7-1.7
			C456.1,117.9,457.1,126.8,455.4,129.7z"/>
		<path class="st25" d="M445.9,130.6c-0.3-2.8,1.7-4.4,2.1-5.1c0.4-0.7,0.7-3.1,3.3-4.3C454.8,124.4,450.9,131.4,445.9,130.6z"/>
		<path class="st37" d="M446,130.5c0.4-2.2,2.6-3.1,3.3-4.3c0.7-1.2-0.1-3.8,2.1-5C452.3,124.7,449.4,129.5,446,130.5z"/>
		<path class="st31" d="M445.9,130.5c0.3-2.5,1.8-3.6,2.4-4.7s1-3.1,3-4.7C451.3,124,448.4,129,445.9,130.5z"/>
		<path class="st25" d="M445.9,130.5c-0.3-2.8,1.7-3.9,2.3-5.1c0.7-1.2,0.5-3.1,3.1-4.3c0,0,0,0,0,0.1
			C449.9,123.7,447.5,127.9,445.9,130.5z"/>
		
			<ellipse transform="matrix(-0.9934 -0.1145 0.1145 -0.9934 858.9778 321.3366)" class="st47" cx="438.7" cy="136" rx="3.7" ry="2.2"/>
		
			<ellipse transform="matrix(-0.6009 -0.7993 0.7993 -0.6009 634.2369 541.3792)" class="st47" cx="452.3" cy="112.4" rx="3.7" ry="2.2"/>
		<path class="st46" d="M437.2,134.5c-13.2-4.2-13.6-15.3-10.3-21.2c3.8-6.6,14.6-8.7,22.9-2.4c-3.6,2.5-7,3.5-12.5,4.6
			c1.3,0.4,6.8,0.2,9.6-1.4c-1.6,4.4-10.9,9-18.3,10C431.8,127,435.9,131.4,437.2,134.5z"/>
		<path class="st42" d="M481.8,115.2c-2.5-0.9-5-1.3-7.1,0c-3.1,15.3-10.8,28-22.1,38.5c0,2.4,1.6,4.5,3.7,6.1
			c2.1-3.5,5.8-5.3,9.4-5.1l16.5-28.8C480.1,123,479.9,118.8,481.8,115.2z"/>
	</g>
	<g>
		<path class="st49" d="M739.9,163.4c-5.1-14.9,12.1-22.2,21-24.4c16.6-4.1,27.8,8.6,24.1,16.4c2,6.4-5,11.9-13.8,15.6
			C759.4,175.7,744.1,175.6,739.9,163.4z"/>
		<path class="st28" d="M752.3,164.2c-0.2,0-3.3-9.5-3.5-9.5c-5.2-1.6-9.1-7.5-11.9-12.2c-2.8-4.7-9.3-2.9-13.6-1.5l15.8,49.7
			c4.3-1.4,10.7-3.5,10.2-9.1C748.8,175.9,748.7,168.4,752.3,164.2z"/>
		<path class="st28" d="M761.5,161.6l-12.2,3.9c-4.5-1.6-5.8-6.1-3.2-10l12.2-3.9C764.9,149.6,768,159.5,761.5,161.6z"/>
		<path class="st24" d="M761.5,161.6l-8.2,2.6c-2.1-1.4-3.5-3-3.9-4.2c-0.4-1.3-0.2-3.4,0.7-5.7l8.2-2.6
			C764.9,149.6,768,159.5,761.5,161.6z"/>
		<path class="st28" d="M751.4,159.3c-1-3.2,1.9-11.7,8.5-16.1c6.7-4.5,18.5-3.8,21.8,6.5c3.3,10.3-6,17.7-14.1,17.9
			C759.7,167.8,752.5,162.5,751.4,159.3z"/>
		<path class="st25" d="M757.6,153.1c2.1,1.1,1.3,2.8,1.6,3.8c0.3,1,1.9,1.9,0.8,4C755.5,161.3,753.6,155.6,757.6,153.1z"/>
		<path class="st31" d="M757.5,153.6c0.5,0.8,2,5.4,2.2,6.8C757.4,160,756,155.1,757.5,153.6z"/>
		<path class="st25" d="M757.6,153.1c2.1,1.1,1.3,2.8,1.6,3.8c0.3,1,1.9,1.9,0.8,4C758,158.7,757.4,155,757.6,153.1z"/>
		
			<ellipse transform="matrix(0.7566 -0.6538 0.6538 0.7566 92.2395 532.1287)" class="st28" cx="760.9" cy="142.2" rx="3.7" ry="2.2"/>
		
			<ellipse transform="matrix(0.9951 9.848187e-002 -9.848187e-002 0.9951 20.2958 -74.9332)" class="st28" cx="769.2" cy="168.1" rx="3.7" ry="2.2"/>
		<path class="st49" d="M768.2,168.5c18-1.4,17.1-14.1,15-21c-2.5-7.8-13.5-10.7-23.9-6c3.8,3.4,9.9,5.4,20.8,11.9
			c-2.8-0.6-7.9-1.8-18.5-8c0.7,4.9,9.4,11.8,17.1,14.5C774.7,162.4,770.3,165.6,768.2,168.5z"/>
		<path class="st39" d="M742.6,150.4c-2.3-2.4-4.1-5.4-5.7-8c-2.8-4.7-9.3-2.9-13.6-1.5l15.8,49.7c4.3-1.4,10.7-3.5,10.2-9.1
			c-0.3-3-0.4-6.5,0.1-9.8l0,0c-8.5-2-13.6-4.7-15.7-6.7C734.2,162.1,736.8,156.9,742.6,150.4z"/>
		<g>
			<path class="st50" d="M726.1,149.8c1-0.3,2.2-0.6,3.7-0.8c-1.5,0-2.8,0.1-3.9,0.2L726.1,149.8z"/>
			<path class="st50" d="M736.2,181.7c1-0.3,2.1-0.8,3.5-1.5c-1.3,0.9-2.3,1.6-3.3,2.1L736.2,181.7z"/>
		</g>
		<path class="st51" d="M741.9,149.6c-4,3.8-9,10.7-9.7,15.8 M749.2,172.7c-5.5-0.8-13.5-3.5-17-7.3"/>
	</g>
	<path class="st36" d="M723.3,96c2.5,0.2,3,2.3,3.4,2.8c0.4,0.5,2.4,1.2,2.3,3.6C725,104.9,720.6,100.2,723.3,96z"/>
	<path class="st37" d="M723.3,96.1c1.7,0.8,1.6,2.9,2.3,3.7c0.7,0.8,3.2,0.6,3.3,2.8C725.7,102.7,722.8,99.3,723.3,96.1z"/>
	<path class="st31" d="M723.2,96.1c1.9,0.8,2.3,2.2,3,3c0.7,0.8,2.2,1.5,2.7,3.5C726.5,102,723.5,98.5,723.2,96.1z"/>
	<path class="st36" d="M723.2,96.1c2.9-0.1,2.8,2.1,3.5,2.9c0.7,0.8,2.7,0.7,2.3,3.6c0,0-0.1,0-0.1,0
		C727.3,100.8,724.8,98,723.2,96.1z"/>
</g>
<g id="Globe">
	<g>
		<g>
			<path class="st52" d="M596.4,353.5c76.5,0,141.6-74.9,141.6-141.9c0.1-76.8-64.8-141.9-141.5-141.9
				c-76.2-0.1-141.2,64.8-141.3,140.9C455.1,287.6,510.8,353.2,596.4,353.5z"/>
			<g>
				<g>
					<defs>
						<rect id="SVGID_1_" x="432" y="38.6" width="231.8" height="300"/>
					</defs>
					<clipPath id="SVGID_2_">
						<use xlink:href="#SVGID_1_"  style="overflow:visible;"/>
					</clipPath>
				</g>
			</g>
			<g>
				<path class="st53" d="M531,82.3c55.6-28.1,124.3-16.6,168,27.6c94.7,95.6,13.1,260.6-119.5,245.8
					c-72.7-8.1-128.2-66.4-128.2-133.3C451.4,150.5,476.6,109.7,531,82.3z M596.4,353.5c76.5,0,140.6-74.9,140.6-141.9
					c0.1-76.8-63.8-141.9-140.5-141.9c-76.2-0.1-141.2,64.8-141.3,140.9C455.1,287.6,510.8,353.2,596.4,353.5z"/>
				<path class="st53" d="M659.3,181.2c1.9,2.8,3.8,5.6,5.6,8.5c2.6,4,5.4,7.9,6.8,12.7c1.2,4.2,4.6,7,8.1,9.4
					c2.7,1.9,5.4,3.6,6.6,7c0.8,2.2,4,2.5,7.1,1c2.3-1.1,4.6-2.2,6.8-3.5c1.6-0.9,2.3-0.5,2.5,1.2c0.1,0.8,0.1,1.7,0,2.4
					c-2.3,9.5-4.3,18.9-12,26.1c-5.3,5-7.9,12.2-11.9,18.2c-0.8,1.2-0.5,2.6-0.1,3.9c1.2,5.1,1.8,10.3,1.6,15.6
					c-0.1,3.5-1.3,6.4-4.4,8.3c-1.8,1.2-3.5,2.6-5.3,3.8c-3.2,2.1-5.4,4.7-5.5,8.7c-0.1,2.1-1.3,3.6-3.2,4.6
					c-2.3,1.3-3.6,3.3-5.2,5.4c-4.8,6.5-10.5,11.7-19.1,12.9c-2.3,0.3-4.6,0.9-6.9,1.4c-4.4,1.1-6.6-0.1-8.1-4.2
					c-0.5-1.2-1.1-2.5-2-3.5c-2.6-3.2-4.4-6.4-4.2-10.9c0.1-3.3-3.1-5.4-4.7-8.1c-1-1.6-3.3-2.6-2.9-4.8c0.6-3,1.2-6.2,3.3-8.5
					c1.9-2,2.1-3.7,1.3-6.1c-0.8-2.4-0.9-5-2.1-7.4c-1.6-3.3-3.5-6.2-6.5-8.4c-2.3-1.7-3.8-3.6-1.8-7c1.1-1.8,1-4.6,1.1-6.9
					c0.1-2.3-2.3-4-5-3.9c-1,0.1-2,0.3-3,0.4c-2.2,0.2-3.7-0.4-4.6-2.7c-1.3-3.3-2.9-3.9-6.3-3c-0.1,0-0.2,0-0.3,0.1
					c-9,6.1-18.4,2.3-27.7,1c-2.4-0.3-4.3-1.6-6.1-3.3c-5.2-4.8-9.2-10.2-9.8-17.6c0-0.4-0.1-0.9-0.3-1.2
					c-3.7-5.2-2.2-10.5-0.3-15.8c1.2-3.3,1.8-6.8,0.4-10.2c-0.6-1.4,0-2.6,0.8-3.7c2.8-3.7,5.5-7.4,8.3-11.1c1.2-1.6,2.9-2.5,4.9-3
					c3.6-0.8,6.2-2.5,7.2-6.6c1.3-5.3,9-9.9,14.4-9.2c1.1,0.2,2.2,0.3,3.3-0.1c8-2.7,16.4-2.4,24.7-3.1c3.8-0.3,5.7,3.1,4,6.6
					c-0.6,1.3-0.5,1.9,0.8,2.4c4.6,1.7,9,3.7,13.1,6.6c3.3,2.3,5.3,1.2,6.8-2.7c1-2.7,3.2-3.6,5.9-2.4c7.1,3.2,14.4,2.5,21.8,1.7
					c2.5-0.3,3.7-2.2,3.8-4.6c0.2-2.8-1-5.4-1.8-8.1c-0.5-1.6-1.8-1-2.8-0.4c-1.8,1.2-3.5,1.6-5.5,0.7c-0.5-0.2-1.2-0.1-1.8,0
					c-4.1,0.8-7.2-0.8-8.8-4.7c-0.3-0.9-0.8-1.7-1-2.6c-0.4-1.8-1.6-2.4-3.2-2.1c-1.4,0.3-2.8,0.9-2.7,2.8c0.2,2.3-1.3,2.4-2.8,2.1
					c-2.4-0.3-4-1.8-4.5-4.1c-0.5-2.3-1.7-3.5-3.8-4.4c-2.9-1.3-5-4-8-5.1c-0.6-0.2-1.3-1-1.9-0.2c-0.4,0.6,0.2,1.1,0.5,1.7
					c1.8,3.5,4.8,5.7,8.3,7.4c1.1,0.5,2.3,1,2.9,2.6c-2.2-0.7-3.5-0.6-2.5,2.1c0.3,0.8-0.7,2-2.3,2.7c1-3.4-1.1-4.7-3.1-6.3
					c-2.6-2.1-5.2-4.3-7.6-6.7c-1.8-1.9-3.6-2.3-5.7-1c-1.8,1.1-3.6,1.9-5.8,1c-1.2-0.5-2.4,0-2.7,1.3c-0.6,2.3-2.3,3.2-4.3,4
					c-2.1,0.8-3.9,2.1-4.3,4.5c-0.5,3.4-3.2,4.4-5.7,5.3c-1.9,0.7-4.2,0.9-6,0.8c-2-0.2-4.4-1.7-5.6-3.3c-1.1-1.4-1.5-3.8-0.3-5.8
					c1.1-1.8,1.7-3.7,2-5.8c0.3-2.8,1.6-3.7,4.4-3c2.4,0.6,4.8,1.2,7.2,1.4c1.3,0.1,3,0.7,3.5-0.9c0.6-1.7,2-3.5,0.8-5.5
					c-0.8-1.3-1.5-2.7-3-3.4c-0.5-0.2-1-0.5-0.9-1.1c0.1-0.7,0.7-1.1,1.3-1.1c5.1-0.3,8.8-3.2,12.6-6.1c2.2-1.7,4.4-3.3,7.3-3.9
					c1.4-0.3,2.1-1.2,2.1-2.6c0-0.8,0.1-1.7,0.4-2.4c0.3-0.9,0.5-2.4,1.8-1.9c1,0.4,0.5,1.6,0,2.4c-1.2,2.2,0.2,3.4,2,3.3
					c3.2-0.2,6.4,0.5,9.6-0.2c2.5-0.6,4-1.3,4.1-4c0-1.3,0.3-2.5,1.8-2.8c0.5-0.1,1.2-0.4,1.1-0.9c-0.9-3.4,1.9-3.3,4.4-4
					c-1.8-0.9-3.1-0.5-4.3-0.2c-1.5,0.4-3,0.9-4.2-0.7c-1.1-1.5-1.5-3.1-0.8-4.9c0.3-0.7,0.6-1.3,0.9-2c0.4-0.8,0.9-1.8-0.3-2.3
					c-1-0.4-1.5,0.5-2.1,1.2c-3.4,4.1-2.4,9.1-3.2,13.7c-0.2,0.9-0.1,1.8-0.7,2.6c-2.1,2.7-4.2,2.4-5.5-0.8c-1-2.5-2.4-3.8-5.2-2.6
					c-2.3,0.9-4.1,0.1-5.2-2c-1.2-2.3-0.6-4.7,1.5-5.6c5.7-2.3,8.4-7.2,12-11.6c3.6-4.4,7.5-5.1,12.7-3c1.9,0.8,3.9,1.3,6,1.5
					c1.2,0.1,2.6,0.2,3.1,1.6c0.5,1.3-0.6,1.7-1.5,2.4c-1.2,0.9-0.7,1.7,0.2,2.5c1,0.8,1.3,0.5,2.2-0.3c3.4-3.1,5.4-7.6,9.9-9.6
					c0.3-0.1,0.7-0.3,0.8-0.5c0.6-4.2,3-1.5,4.3-0.9c35.6,16,60.2,42.4,74,78.9c0.5,1.3,0.9,2.7,1.3,4.1c0.1,0.3,0,0.6,0,1.4
					c-5.1-2.8-9-0.3-13.4,1.8c-3.2,1.6-6.9,3.9-10.4,0c-0.4-0.5-1.2-0.3-1.7,0.1c-2.5,2.4-4.8,1-6.9-0.5c-1.7-1.2-3.1-2.7-4.6-4
					c-0.6-0.5-1.3-1.2-2.1-0.6c-0.7,0.5-0.7,1.4-0.3,2c2.1,4,4.5,7.8,8.2,10.6c1.8,1.4,3.5,0.3,5-0.9c1.9-1.5,6.5-1.5,8.8,0
					c2.5,1.7,1.5,4.1,1.4,6.4c-0.2,3.9-2,7.2-3.5,10.6c-0.2,0.4-0.2,0.9-0.5,1.1c-5.4,5.1-9.4,11.7-16,15.7c-3.2,2-4.3,1.7-5.8-1.8
					c-0.7-1.6-1.2-3.3-1.7-4.9c-0.8-2.9-2.4-5.2-4.9-6.9c-2.7-1.9-4.7-4.2-5.5-7.5c-0.5-2.1-1.7-3.6-3.5-4.9
					c-2.6-1.8-3.9-4.8-5.8-7.2C662.2,180.3,661.2,179.2,659.3,181.2c-0.4-0.6-0.8-1.2-1.3-1.8c-0.2-0.2-0.4-0.4-0.6-0.6l0,0
					c0.2,0.2,0.4,0.4,0.6,0.6C658.5,180,658.9,180.6,659.3,181.2z M655.6,134.4c-2.1,0.7-4.7,1-4.4,4c0.1,0.9,0.6,1.8-0.5,2.3
					c-1.2,0.5-2.1-0.4-2.5-1.3c-0.7-1.7-1.9-2.7-3.4-2.4c-2.5,0.5-3.1,3-3.4,5c-0.4,2.1-2.2,4.7,0.7,6.4c1.9,1.1,4.1,1.1,5.8-0.2
					c2.4-1.8,4.9-1.9,7.5-1c2.5,0.9,5,1,7.6,0.4c0.8-0.2,1.6-0.4,1.9-1.4c0.2-0.9-0.3-1.6-1-2.1c-1.9-1.2-3.7-2.6-5.7-3.6
					C654.8,139.1,654.3,138.1,655.6,134.4L655.6,134.4z"/>
				<path class="st53" d="M494.8,302.2c-2.2-0.6-2.8-1.9-3.6-2.9c-22.3-27.8-32.2-59.6-30.4-95.1c0.2-3.5,0.7-6.9,1.2-10.4
					c0.2-1.5,0.3-2.7,2.4-1.1c2.2,1.7,2.7,3.6,2.8,6.3c0.4,5.1,1.3,10.1,4.9,14.2c3.2,3.7,5.9,7.6,8.2,11.9c1.2,2.3,2,4.5,1.9,7.3
					c-0.1,2.2,0.6,4.9,3.6,5.7c0.5,0.1,1,0.4,1.3,0.8c4.8,7.1,12.5,11.3,17.3,18.5c4.1,6.3,4.5,7.4,0,13.3c-2.3,3.1-3.8,6-2.2,10.1
					c1.3,3.4,0.8,7.1,0.6,10.7c-0.1,1.4-0.6,2.4-2.3,2.2c-1-0.1-1.8,0.2-2.6,0.7C494.8,296.1,491.8,297.7,494.8,302.2z"/>
				<path class="st53" d="M601.3,77.5c-5.6,5.2-11.6,9.2-18.5,11.6c-4,1.4-7.9,2.9-12.3,1.9c-1-0.2-1.8,0.3-2.6,0.6
					c-1.1,0.5-2.3,1.2-3.5,1.2c-5.6-0.1-9.8,3.2-14.3,5.7c-1,0.5-2.2,2.2-3.1,1c-0.6-0.8-1.1-2.7-0.2-4c3.2-4.7,6.7-9.1,12.7-10.5
					c2.2-0.5,4.3-1.3,5.7-3.3c0.7-1,1.7-1.4,2.8-1.7c10.5-2.4,21.1-3.4,31.8-3C600.3,77,600.6,77.2,601.3,77.5z"/>
				<path class="st53" d="M512.2,106.6c6.4-5.1,12.6-9.3,19.2-12.8c0.7-0.4,1.6-1,2.2-0.1c0.6,0.8-0.2,1.7-0.7,2.1
					c-3.4,2.6-5.1,6.3-6.8,10.1c-1.4,3.1-6.8,4.3-9.6,2.1C515.3,107.2,514,107.1,512.2,106.6z"/>
				<path class="st53" d="M581.4,128.6c0.7-1.4,3.3-1.9,1-3.4c-0.1-0.1,0.4-1.7,0.9-2.1c2.3-1.6,1.6-3.5,0.3-5
					c-1.3-1.5-0.7-2.7,0.2-3.8c0.7-0.9,1.8-2.1,3.1-1.5c1.4,0.7,2.1,2,1.8,3.8c-0.6,2.9,1.1,5.1,2.6,7.2c0.5,0.7,1.6,1.2,1,2.3
					c-0.6,1-1,2.5-2.5,2.4C587.1,128.1,584.5,128.5,581.4,128.6z"/>
				<path class="st53" d="M502.6,115.2c2.4-2.8,4.9-4.8,7.5-6.8c0.9-0.7,2.3-1.1,3,0c0.8,1.3-0.7,1.6-1.5,2.1
					c-0.6,0.4-1.2,0.9-1.4,1.5C508.9,115.5,506.1,115.6,502.6,115.2z"/>
				<path class="st53" d="M576.2,125.5c-0.7,0.1-1.2-0.1-1.3-0.9c-0.2-1.8,3.5-6.1,5.4-6.2c1-0.1,1.9,0.4,2,1.5
					C582.6,122,578.8,125.5,576.2,125.5z"/>
				<path class="st53" d="M612.9,159.9c1.6-1,3.1-0.7,4.4-0.7c1.3,0,1.2,1.2,1,2.1c-0.1,0.9-0.9,1.1-1.7,0.7
					C615.4,161.5,614.1,161.1,612.9,159.9z"/>
			</g>
		</g>
	</g>
</g>
</svg>
